<svg xmlns="http://www.w3.org/2000/svg" xmlns:xlink="http://www.w3.org/1999/xlink" width="750" height="500" viewBox="0 0 750 500"><defs><clipPath id="b"><rect width="750" height="500"/></clipPath></defs><g id="a" clip-path="url(#b)"><path d="M674.005,338.387c0-.184.862-.334,1.926-.334s1.927.15,1.927.334-.862.335-1.927.335S674.005,338.572,674.005,338.387Z" fill="#e0e0e0"/><path d="M666.3,338.387c0-.184.863-.334,1.927-.334s1.927.15,1.927.334-.863.335-1.927.335S666.3,338.572,666.3,338.387Z" fill="#e0e0e0"/><path d="M658.59,338.387c0-.184.862-.334,1.927-.334s1.926.15,1.926.334-.862.335-1.926.335S658.59,338.572,658.59,338.387Z" fill="#e0e0e0"/><path d="M650.882,338.387c0-.184.863-.334,1.927-.334s1.927.15,1.927.334-.863.335-1.927.335S650.882,338.572,650.882,338.387Z" fill="#e0e0e0"/><path d="M643.175,338.387c0-.184.863-.334,1.927-.334s1.927.15,1.927.334-.863.335-1.927.335S643.175,338.572,643.175,338.387Z" fill="#e0e0e0"/><path d="M635.467,338.387c0-.184.863-.334,1.927-.334s1.927.15,1.927.334-.863.335-1.927.335S635.467,338.572,635.467,338.387Z" fill="#e0e0e0"/><path d="M627.76,338.387c0-.184.863-.334,1.927-.334s1.927.15,1.927.334-.863.335-1.927.335S627.76,338.572,627.76,338.387Z" fill="#e0e0e0"/><path d="M620.052,338.387c0-.184.863-.334,1.927-.334s1.927.15,1.927.334-.863.335-1.927.335S620.052,338.572,620.052,338.387Z" fill="#e0e0e0"/><path d="M612.345,338.387c0-.184.863-.334,1.927-.334s1.927.15,1.927.334-.863.335-1.927.335S612.345,338.572,612.345,338.387Z" fill="#e0e0e0"/><path d="M604.638,338.387c0-.184.862-.334,1.926-.334s1.927.15,1.927.334-.862.335-1.927.335S604.638,338.572,604.638,338.387Z" fill="#e0e0e0"/><path d="M596.93,338.387c0-.184.863-.334,1.927-.334s1.927.15,1.927.334-.863.335-1.927.335S596.93,338.572,596.93,338.387Z" fill="#e0e0e0"/><path d="M589.223,338.387c0-.184.862-.334,1.926-.334s1.927.15,1.927.334-.862.335-1.927.335S589.223,338.572,589.223,338.387Z" fill="#e0e0e0"/><path d="M583.731,336.172c.184,0,.334.863.334,1.927,0,.1,0,.187,0,.288l-.33-.33c.928.024,1.638.163,1.638.33s-.71.307-1.638.331l-.327.009,0-.34c0-.1,0-.193,0-.288C583.4,337.035,583.546,336.172,583.731,336.172Z" fill="#e0e0e0"/><path d="M583.731,328.465c.184,0,.334.862.334,1.926s-.15,1.927-.334,1.927-.335-.862-.335-1.927S583.546,328.465,583.731,328.465Z" fill="#e0e0e0"/><path d="M583.731,320.757c.184,0,.334.863.334,1.927s-.15,1.927-.334,1.927-.335-.863-.335-1.927S583.546,320.757,583.731,320.757Z" fill="#e0e0e0"/><path d="M583.731,313.05c.184,0,.334.862.334,1.926s-.15,1.927-.334,1.927-.335-.862-.335-1.927S583.546,313.05,583.731,313.05Z" fill="#e0e0e0"/><path d="M583.731,305.342c.184,0,.334.863.334,1.927s-.15,1.927-.334,1.927-.335-.863-.335-1.927S583.546,305.342,583.731,305.342Z" fill="#e0e0e0"/><path d="M583.731,297.635c.184,0,.334.862.334,1.926s-.15,1.927-.334,1.927-.335-.862-.335-1.927S583.546,297.635,583.731,297.635Z" fill="#e0e0e0"/><path d="M583.731,289.927c.184,0,.334.863.334,1.927s-.15,1.927-.334,1.927-.335-.863-.335-1.927S583.546,289.927,583.731,289.927Z" fill="#e0e0e0"/><path d="M583.731,282.22c.184,0,.334.863.334,1.927s-.15,1.927-.334,1.927-.335-.863-.335-1.927S583.546,282.22,583.731,282.22Z" fill="#e0e0e0"/><path d="M583.731,274.512c.184,0,.334.863.334,1.927s-.15,1.927-.334,1.927-.335-.863-.335-1.927S583.546,274.512,583.731,274.512Z" fill="#e0e0e0"/><path d="M583.731,266.8c.184,0,.334.863.334,1.926s-.15,1.928-.334,1.928-.335-.863-.335-1.928S583.546,266.8,583.731,266.8Z" fill="#e0e0e0"/><path d="M583.731,259.1c.184,0,.334.863.334,1.927s-.15,1.927-.334,1.927-.335-.863-.335-1.927S583.546,259.1,583.731,259.1Z" fill="#e0e0e0"/><path d="M583.731,251.39c.184,0,.334.863.334,1.927s-.15,1.927-.334,1.927-.335-.863-.335-1.927S583.546,251.39,583.731,251.39Z" fill="#e0e0e0"/><path d="M584.308,244.26c0,.093-.221.178-.577.238l.238-.238a8.442,8.442,0,0,1,.1,1.349c0,1.065-.15,1.927-.334,1.927s-.335-.862-.335-1.927a8.442,8.442,0,0,1,.1-1.349l.046-.272.193.033C584.087,244.082,584.308,244.166,584.308,244.26Z" fill="#e0e0e0"/><path d="M592.015,244.26c0,.184-.863.334-1.927.334s-1.927-.15-1.927-.334.863-.335,1.927-.335S592.015,244.075,592.015,244.26Z" fill="#e0e0e0"/><path d="M599.723,244.26c0,.184-.863.334-1.927.334s-1.927-.15-1.927-.334.863-.335,1.927-.335S599.723,244.075,599.723,244.26Z" fill="#e0e0e0"/><path d="M607.43,244.26c0,.184-.863.334-1.927.334s-1.927-.15-1.927-.334.863-.335,1.927-.335S607.43,244.075,607.43,244.26Z" fill="#e0e0e0"/><path d="M615.137,244.26c0,.184-.862.334-1.926.334s-1.927-.15-1.927-.334.862-.335,1.927-.335S615.137,244.075,615.137,244.26Z" fill="#e0e0e0"/><path d="M622.845,244.26c0,.184-.863.334-1.927.334s-1.927-.15-1.927-.334.863-.335,1.927-.335S622.845,244.075,622.845,244.26Z" fill="#e0e0e0"/><ellipse cx="1.927" cy="0.335" rx="1.927" ry="0.335" transform="translate(626.699 243.925)" fill="#e0e0e0"/><path d="M638.26,244.26c0,.184-.863.334-1.927.334s-1.927-.15-1.927-.334.863-.335,1.927-.335S638.26,244.075,638.26,244.26Z" fill="#e0e0e0"/><path d="M645.967,244.26c0,.184-.862.334-1.926.334s-1.927-.15-1.927-.334.862-.335,1.927-.335S645.967,244.075,645.967,244.26Z" fill="#e0e0e0"/><path d="M653.675,244.26c0,.184-.863.334-1.927.334s-1.927-.15-1.927-.334.863-.335,1.927-.335S653.675,244.075,653.675,244.26Z" fill="#e0e0e0"/><path d="M661.382,244.26c0,.184-.862.334-1.926.334s-1.927-.15-1.927-.334.862-.335,1.927-.335S661.382,244.075,661.382,244.26Z" fill="#e0e0e0"/><path d="M669.09,244.26c0,.184-.863.334-1.927.334s-1.927-.15-1.927-.334.863-.335,1.927-.335S669.09,244.075,669.09,244.26Z" fill="#e0e0e0"/><path d="M676.8,244.26c0,.184-.862.334-1.927.334s-1.926-.15-1.926-.334.862-.335,1.926-.335S676.8,244.075,676.8,244.26Z" fill="#e0e0e0"/><path d="M677.858,250.906c-.184,0-.334-.863-.334-1.927s.15-1.927.334-1.927.335.863.335,1.927S678.043,250.906,677.858,250.906Z" fill="#e0e0e0"/><path d="M677.858,258.613c-.184,0-.334-.862-.334-1.926s.15-1.927.334-1.927.335.862.335,1.927S678.043,258.613,677.858,258.613Z" fill="#e0e0e0"/><path d="M677.858,266.321c-.184,0-.334-.863-.334-1.927s.15-1.927.334-1.927.335.863.335,1.927S678.043,266.321,677.858,266.321Z" fill="#e0e0e0"/><path d="M677.858,274.028c-.184,0-.334-.862-.334-1.926s.15-1.927.334-1.927.335.862.335,1.927S678.043,274.028,677.858,274.028Z" fill="#e0e0e0"/><path d="M677.858,281.736c-.184,0-.334-.863-.334-1.927s.15-1.927.334-1.927.335.863.335,1.927S678.043,281.736,677.858,281.736Z" fill="#e0e0e0"/><path d="M677.858,289.443c-.184,0-.334-.862-.334-1.927s.15-1.926.334-1.926.335.862.335,1.926S678.043,289.443,677.858,289.443Z" fill="#e0e0e0"/><path d="M677.858,297.151c-.184,0-.334-.863-.334-1.927s.15-1.927.334-1.927.335.863.335,1.927S678.043,297.151,677.858,297.151Z" fill="#e0e0e0"/><path d="M677.858,304.858c-.184,0-.334-.862-.334-1.926s.15-1.927.334-1.927.335.862.335,1.927S678.043,304.858,677.858,304.858Z" fill="#e0e0e0"/><path d="M677.858,312.566c-.184,0-.334-.863-.334-1.927s.15-1.927.334-1.927.335.863.335,1.927S678.043,312.566,677.858,312.566Z" fill="#e0e0e0"/><path d="M677.858,320.273c-.184,0-.334-.863-.334-1.927s.15-1.927.334-1.927.335.863.335,1.927S678.043,320.273,677.858,320.273Z" fill="#e0e0e0"/><path d="M677.858,327.981c-.184,0-.334-.863-.334-1.927s.15-1.927.334-1.927.335.862.335,1.927S678.043,327.981,677.858,327.981Z" fill="#e0e0e0"/><path d="M677.858,335.688c-.184,0-.334-.863-.334-1.927s.15-1.927.334-1.927.335.863.335,1.927S678.043,335.688,677.858,335.688Z" fill="#e0e0e0"/><rect width="6.971" height="6.971" transform="translate(674.373 333.948)" fill="#e0e0e0"/><rect width="6.971" height="6.971" transform="translate(580.245 334.902)" fill="#e0e0e0"/><rect width="6.971" height="6.971" transform="translate(674.373 240.095)" fill="#e0e0e0"/><rect width="6.971" height="6.971" transform="translate(580.245 240.774)" fill="#e0e0e0"/><rect width="135.141" height="90.485" transform="translate(284.913 73.674)" fill="#fff"/><path d="M420.054,164.16s-.014-.566-.021-1.646-.012-2.686-.021-4.774c-.012-4.188-.028-10.332-.05-18.2-.024-15.72-.059-38.318-.1-65.867l.193.194-135.13.048h-.011l.242-.242c-.007,32.236-.014,62.89-.02,90.485l-.222-.221,97.361.109,27.815.059,7.4.027,1.91.014c.431,0,.656.013.656.013s-.208.008-.63.013l-1.885.013-7.354.027-27.766.059-97.506.109h-.222v-.223c-.006-27.6-.013-58.249-.02-90.485v-.242h.253l135.13.049h.194v.193c-.043,27.6-.078,50.238-.1,65.988-.021,7.847-.038,13.977-.049,18.154-.01,2.073-.017,3.659-.022,4.738S420.054,164.16,420.054,164.16Z" fill="#e0e0e0"/><path d="M284.913,81.749c0-.134,30.23-.242,67.512-.242s67.517.108,67.517.242-30.223.242-67.517.242S284.913,81.883,284.913,81.749Z" fill="#e0e0e0"/><g opacity="0.3"><path d="M290.245,77.676a1.083,1.083,0,1,1-1.083-1.083A1.083,1.083,0,0,1,290.245,77.676Z" fill="#e0e0e0"/></g><g opacity="0.3"><path d="M293.956,77.676a1.083,1.083,0,1,1-1.083-1.083A1.083,1.083,0,0,1,293.956,77.676Z" fill="#e0e0e0"/></g><g opacity="0.3"><path d="M297.614,77.676a1.083,1.083,0,1,1-1.083-1.083A1.083,1.083,0,0,1,297.614,77.676Z" fill="#e0e0e0"/></g><rect width="36.049" height="36.049" transform="translate(296.531 91.185)" fill="#e0e0e0"/><path d="M401.522,101.375c0,.133-14.06.242-31.4.242s-31.4-.109-31.4-.242,14.057-.243,31.4-.243S401.522,101.241,401.522,101.375Z" fill="#e0e0e0"/><path d="M401.522,108.074c0,.133-14.06.242-31.4.242s-31.4-.109-31.4-.242,14.057-.243,31.4-.243S401.522,107.94,401.522,108.074Z" fill="#e0e0e0"/><path d="M401.522,114.773c0,.133-14.06.242-31.4.242s-31.4-.109-31.4-.242,14.057-.243,31.4-.243S401.522,114.639,401.522,114.773Z" fill="#e0e0e0"/><path d="M375.837,121.471a8.3,8.3,0,0,1-1.458.1l-3.977.077c-3.359.044-8,.071-13.122.071s-9.765-.027-13.124-.071l-3.977-.077a8.3,8.3,0,0,1-1.458-.1,8.512,8.512,0,0,1,1.458-.094l3.977-.077c3.359-.044,8-.071,13.124-.071s9.763.027,13.122.071l3.977.077A8.513,8.513,0,0,1,375.837,121.471Z" fill="#e0e0e0"/><rect width="16.941" height="16.941" transform="translate(298.787 139.388)" fill="#e0e0e0"/><rect width="16.941" height="16.941" transform="translate(329.51 139.388)" fill="#e0e0e0"/><rect width="16.941" height="16.941" transform="translate(360.234 139.388)" fill="#e0e0e0"/><rect width="16.941" height="16.941" transform="translate(390.957 139.388)" fill="#e0e0e0"/><path d="M75.17,77.108H177.853V225.988H75.87Z" fill="#e0e0e0"/><rect width="101.748" height="147.48" transform="translate(169.216 225.288) rotate(180)" fill="#fff"/><path d="M169.915,77.108v148.88H66.768V77.108Zm-1.4,147.48V78.507H68.167V224.588Z" fill="#e0e0e0"/><rect width="76.465" height="115.534" transform="translate(80.109 93.781)" fill="#fff"/><path d="M80.109,93.781s.013.2.02.57c0,.391.011.935.019,1.643.01,1.464.023,3.589.041,6.345.021,5.549.051,13.618.09,23.808.04,20.375.1,49.213.164,83.168l-.334-.334,76.456-.03h.009l-.364.364c.028-43.582.054-83.764.074-115.533l.29.29-55.635-.153-15.384-.074-4.043-.032c-.916-.011-1.4-.032-1.4-.032s.445-.02,1.342-.031l3.988-.033,15.32-.073,55.815-.153h.29v.292c.02,31.769.046,71.951.074,115.533v.365h-.374l-76.456-.031h-.335v-.334c.067-34.044.124-62.959.164-83.387.039-10.158.069-18.2.09-23.733.018-2.727.031-4.83.04-6.278.009-.692.016-1.223.02-1.605C80.1,93.954,80.109,93.781,80.109,93.781Z" fill="#e0e0e0"/><path d="M67.182,225.288a12.422,12.422,0,0,1,1.642-2.535c1.09-1.509,2.635-3.564,4.41-5.782s3.456-4.17,4.713-5.544a11.985,11.985,0,0,1,2.162-2.112c.155.137-2.77,3.683-6.306,8.112S67.348,225.418,67.182,225.288Z" fill="#e0e0e0"/><path d="M67.467,77.808c.158-.125,3.116,3.35,6.607,7.76s6.193,8.089,6.035,8.213-3.115-3.349-6.607-7.76S67.31,77.933,67.467,77.808Z" fill="#e0e0e0"/><path d="M169.23,77.925,155.9,94.368" fill="#fff"/><path d="M155.9,94.368c-.156-.126,2.7-3.91,6.38-8.45s6.791-8.12,6.947-7.993-2.7,3.91-6.38,8.451S156.059,94.5,155.9,94.368Z" fill="#e0e0e0"/><path d="M169.216,225.288c-.158.125-3.085-3.313-6.538-7.678s-6.124-8.007-5.966-8.132,3.084,3.313,6.538,7.68S169.374,225.163,169.216,225.288Z" fill="#e0e0e0"/><path d="M123.272,153.234H109.816l-1.6,3.708a8.242,8.242,0,0,0-.787,3.062,2.542,2.542,0,0,0,1.292,2.36,10.885,10.885,0,0,0,3.736.675v1.039H99.787v-1.039a5.67,5.67,0,0,0,3.371-1.7,22.618,22.618,0,0,0,3.259-5.745L120.041,125.2h.534l13.737,31.238q1.967,4.438,3.23,5.59a4.414,4.414,0,0,0,2.7,1.012v1.039H121.812v-1.039h.758a5.774,5.774,0,0,0,3.118-.619,1.5,1.5,0,0,0,.617-1.292,3.463,3.463,0,0,0-.168-1.04q-.057-.252-.843-2.106Zm-.955-2.079-5.674-13.119L110.8,151.155Z" fill="#e0e0e0"/><path d="M461.036,104.871a2.656,2.656,0,0,1,1.18-.137l.4.008-.129.128c.019-.457.069-.782.129-.782s.109.325.128.782l.006.127-.134,0-.4.008A2.682,2.682,0,0,1,461.036,104.871Z" fill="#e0e0e0"/><path d="M457.884,104.871c0-.076.353-.137.788-.137s.788.061.788.137-.353.136-.788.136S457.884,104.946,457.884,104.871Z" fill="#e0e0e0"/><path d="M454.732,104.871c0-.076.352-.137.788-.137s.788.061.788.137-.353.136-.788.136S454.732,104.946,454.732,104.871Z" fill="#e0e0e0"/><path d="M451.579,104.871c0-.076.353-.137.788-.137s.788.061.788.137-.352.136-.788.136S451.579,104.946,451.579,104.871Z" fill="#e0e0e0"/><path d="M448.427,104.871c0-.076.353-.137.788-.137s.788.061.788.137-.353.136-.788.136S448.427,104.946,448.427,104.871Z" fill="#e0e0e0"/><path d="M445.274,104.871c0-.076.353-.137.788-.137s.789.061.789.137-.353.136-.789.136S445.274,104.946,445.274,104.871Z" fill="#e0e0e0"/><path d="M442.122,104.871c0-.076.353-.137.788-.137s.788.061.788.137-.353.136-.788.136S442.122,104.946,442.122,104.871Z" fill="#e0e0e0"/><path d="M438.969,104.871c0-.076.353-.137.789-.137s.788.061.788.137-.353.136-.788.136S438.969,104.946,438.969,104.871Z" fill="#e0e0e0"/><path d="M435.817,104.871c0-.076.353-.137.788-.137s.788.061.788.137-.352.136-.788.136S435.817,104.946,435.817,104.871Z" fill="#e0e0e0"/><path d="M432.665,104.871c0-.076.353-.137.788-.137s.788.061.788.137-.353.136-.788.136S432.665,104.946,432.665,104.871Z" fill="#e0e0e0"/><path d="M429.512,104.871c0-.076.353-.137.788-.137s.788.061.788.137-.352.136-.788.136S429.512,104.946,429.512,104.871Z" fill="#e0e0e0"/><path d="M426.36,104.871c0-.076.353-.137.788-.137s.788.061.788.137-.353.136-.788.136S426.36,104.946,426.36,104.871Z" fill="#e0e0e0"/><path d="M423.207,104.871c0-.076.353-.137.789-.137s.788.061.788.137-.353.136-.788.136S423.207,104.946,423.207,104.871Z" fill="#e0e0e0"/><path d="M420.055,104.871c0-.076.353-.137.788-.137s.788.061.788.137-.353.136-.788.136S420.055,104.946,420.055,104.871Z" fill="#e0e0e0"/><path d="M416.9,104.871c0-.076.353-.137.788-.137s.788.061.788.137-.353.136-.788.136S416.9,104.946,416.9,104.871Z" fill="#e0e0e0"/><path d="M413.75,104.871c0-.076.353-.137.788-.137s.788.061.788.137-.352.136-.788.136S413.75,104.946,413.75,104.871Z" fill="#e0e0e0"/><path d="M410.6,104.871c0-.076.353-.137.788-.137s.788.061.788.137-.353.136-.788.136S410.6,104.946,410.6,104.871Z" fill="#e0e0e0"/><path d="M407.445,104.871c0-.076.353-.137.788-.137s.789.061.789.137-.353.136-.789.136S407.445,104.946,407.445,104.871Z" fill="#e0e0e0"/><path d="M406.462,102.7c.075,0,.136.353.136.788s-.061.788-.136.788-.137-.353-.137-.788S406.386,102.7,406.462,102.7Z" fill="#e0e0e0"/><path d="M406.462,99.549c.075,0,.136.353.136.789s-.061.788-.136.788-.137-.353-.137-.788S406.386,99.549,406.462,99.549Z" fill="#e0e0e0"/><path d="M406.462,96.4c.075,0,.136.353.136.788s-.061.788-.136.788-.137-.353-.137-.788S406.386,96.4,406.462,96.4Z" fill="#e0e0e0"/><path d="M406.462,93.245c.075,0,.136.352.136.788s-.061.788-.136.788-.137-.353-.137-.788S406.386,93.245,406.462,93.245Z" fill="#e0e0e0"/><path d="M406.462,90.092c.075,0,.136.353.136.788s-.061.788-.136.788-.137-.352-.137-.788S406.386,90.092,406.462,90.092Z" fill="#e0e0e0"/><path d="M406.462,86.94c.075,0,.136.353.136.788s-.061.788-.136.788-.137-.353-.137-.788S406.386,86.94,406.462,86.94Z" fill="#e0e0e0"/><path d="M406.462,83.787c.075,0,.136.353.136.788s-.061.789-.136.789-.137-.353-.137-.789S406.386,83.787,406.462,83.787Z" fill="#e0e0e0"/><path d="M406.462,80.635c.075,0,.136.353.136.788s-.061.788-.136.788-.137-.353-.137-.788S406.386,80.635,406.462,80.635Z" fill="#e0e0e0"/><path d="M406.462,77.483c.075,0,.136.352.136.788s-.061.788-.136.788-.137-.353-.137-.788S406.386,77.483,406.462,77.483Z" fill="#e0e0e0"/><path d="M406.462,74.33c.075,0,.136.353.136.788s-.061.788-.136.788-.137-.353-.137-.788S406.386,74.33,406.462,74.33Z" fill="#e0e0e0"/><path d="M406.462,71.178c.075,0,.136.353.136.788s-.061.788-.136.788-.137-.353-.137-.788S406.386,71.178,406.462,71.178Z" fill="#e0e0e0"/><path d="M406.462,68.025c.075,0,.136.353.136.788s-.061.788-.136.788-.137-.352-.137-.788S406.386,68.025,406.462,68.025Z" fill="#e0e0e0"/><path d="M406.462,64.873c.075,0,.136.353.136.788s-.061.788-.136.788-.137-.353-.137-.788S406.386,64.873,406.462,64.873Z" fill="#e0e0e0"/><path d="M406.462,61.72c.075,0,.136.353.136.788s-.061.789-.136.789-.137-.353-.137-.789S406.386,61.72,406.462,61.72Z" fill="#e0e0e0"/><path d="M406.462,58.568c.075,0,.136.353.136.788s-.061.788-.136.788-.137-.353-.137-.788S406.386,58.568,406.462,58.568Z" fill="#e0e0e0"/><path d="M406.462,55.416c.075,0,.136.352.136.788s-.061.788-.136.788-.137-.353-.137-.788S406.386,55.416,406.462,55.416Z" fill="#e0e0e0"/><path d="M406.462,52.263c.075,0,.136.353.136.788s-.061.788-.136.788-.137-.352-.137-.788S406.386,52.263,406.462,52.263Z" fill="#e0e0e0"/><path d="M406.462,49.111c.075,0,.136.353.136.788s-.061.788-.136.788-.137-.353-.137-.788S406.386,49.111,406.462,49.111Z" fill="#e0e0e0"/><path d="M409.223,48.72c0,.075-.353.136-.788.136s-.789-.061-.789-.136.353-.137.789-.137S409.223,48.644,409.223,48.72Z" fill="#e0e0e0"/><path d="M412.375,48.72c0,.075-.353.136-.788.136s-.788-.061-.788-.136.353-.137.788-.137S412.375,48.644,412.375,48.72Z" fill="#e0e0e0"/><path d="M415.528,48.72c0,.075-.353.136-.789.136s-.788-.061-.788-.136.353-.137.788-.137S415.528,48.644,415.528,48.72Z" fill="#e0e0e0"/><path d="M418.68,48.72c0,.075-.353.136-.788.136s-.788-.061-.788-.136.353-.137.788-.137S418.68,48.644,418.68,48.72Z" fill="#e0e0e0"/><path d="M421.832,48.72c0,.075-.352.136-.788.136s-.788-.061-.788-.136.353-.137.788-.137S421.832,48.644,421.832,48.72Z" fill="#e0e0e0"/><path d="M424.985,48.72c0,.075-.353.136-.788.136s-.788-.061-.788-.136.352-.137.788-.137S424.985,48.644,424.985,48.72Z" fill="#e0e0e0"/><path d="M428.137,48.72c0,.075-.353.136-.788.136s-.788-.061-.788-.136.353-.137.788-.137S428.137,48.644,428.137,48.72Z" fill="#e0e0e0"/><path d="M431.29,48.72c0,.075-.353.136-.788.136s-.789-.061-.789-.136.353-.137.789-.137S431.29,48.644,431.29,48.72Z" fill="#e0e0e0"/><path d="M434.442,48.72c0,.075-.353.136-.788.136s-.788-.061-.788-.136.353-.137.788-.137S434.442,48.644,434.442,48.72Z" fill="#e0e0e0"/><path d="M437.594,48.72c0,.075-.352.136-.788.136s-.788-.061-.788-.136.353-.137.788-.137S437.594,48.644,437.594,48.72Z" fill="#e0e0e0"/><path d="M440.747,48.72c0,.075-.353.136-.788.136s-.788-.061-.788-.136.352-.137.788-.137S440.747,48.644,440.747,48.72Z" fill="#e0e0e0"/><path d="M443.9,48.72c0,.075-.353.136-.788.136s-.788-.061-.788-.136.353-.137.788-.137S443.9,48.644,443.9,48.72Z" fill="#e0e0e0"/><path d="M447.052,48.72c0,.075-.353.136-.788.136s-.789-.061-.789-.136.353-.137.789-.137S447.052,48.644,447.052,48.72Z" fill="#e0e0e0"/><path d="M450.2,48.72c0,.075-.353.136-.788.136s-.788-.061-.788-.136.353-.137.788-.137S450.2,48.644,450.2,48.72Z" fill="#e0e0e0"/><path d="M453.356,48.72c0,.075-.352.136-.788.136s-.788-.061-.788-.136.353-.137.788-.137S453.356,48.644,453.356,48.72Z" fill="#e0e0e0"/><path d="M456.509,48.72c0,.075-.353.136-.788.136s-.788-.061-.788-.136.353-.137.788-.137S456.509,48.644,456.509,48.72Z" fill="#e0e0e0"/><path d="M459.661,48.72c0,.075-.353.136-.788.136s-.788-.061-.788-.136.353-.137.788-.137S459.661,48.644,459.661,48.72Z" fill="#e0e0e0"/><path d="M462.613,48.921c-.035,0-.067-.075-.091-.2l.091.09a3.264,3.264,0,0,1-.587.046c-.436,0-.788-.061-.788-.136s.352-.137.788-.137a3.174,3.174,0,0,1,.587.046l.1.02-.014.071C462.679,48.846,462.647,48.921,462.613,48.921Z" fill="#e0e0e0"/><path d="M462.613,52.073c-.076,0-.137-.353-.137-.788s.061-.788.137-.788.136.353.136.788S462.688,52.073,462.613,52.073Z" fill="#e0e0e0"/><path d="M462.613,55.225c-.076,0-.137-.352-.137-.788s.061-.788.137-.788.136.353.136.788S462.688,55.225,462.613,55.225Z" fill="#e0e0e0"/><path d="M462.613,58.378c-.076,0-.137-.353-.137-.788s.061-.788.137-.788.136.352.136.788S462.688,58.378,462.613,58.378Z" fill="#e0e0e0"/><path d="M462.613,61.53c-.076,0-.137-.353-.137-.788s.061-.788.137-.788.136.353.136.788S462.688,61.53,462.613,61.53Z" fill="#e0e0e0"/><path d="M462.613,64.683c-.076,0-.137-.353-.137-.788s.061-.789.137-.789.136.353.136.789S462.688,64.683,462.613,64.683Z" fill="#e0e0e0"/><path d="M462.613,67.835c-.076,0-.137-.353-.137-.788s.061-.788.137-.788.136.353.136.788S462.688,67.835,462.613,67.835Z" fill="#e0e0e0"/><path d="M462.613,70.988c-.076,0-.137-.353-.137-.789s.061-.788.137-.788.136.353.136.788S462.688,70.988,462.613,70.988Z" fill="#e0e0e0"/><path d="M462.613,74.14c-.076,0-.137-.353-.137-.788s.061-.788.137-.788.136.352.136.788S462.688,74.14,462.613,74.14Z" fill="#e0e0e0"/><path d="M462.613,77.292c-.076,0-.137-.353-.137-.788s.061-.788.137-.788.136.353.136.788S462.688,77.292,462.613,77.292Z" fill="#e0e0e0"/><path d="M462.613,80.445c-.076,0-.137-.353-.137-.788s.061-.788.137-.788.136.352.136.788S462.688,80.445,462.613,80.445Z" fill="#e0e0e0"/><path d="M462.613,83.6c-.076,0-.137-.353-.137-.788s.061-.788.137-.788.136.353.136.788S462.688,83.6,462.613,83.6Z" fill="#e0e0e0"/><path d="M462.613,86.75c-.076,0-.137-.353-.137-.789s.061-.788.137-.788.136.353.136.788S462.688,86.75,462.613,86.75Z" fill="#e0e0e0"/><path d="M462.613,89.9c-.076,0-.137-.353-.137-.788s.061-.788.137-.788.136.352.136.788S462.688,89.9,462.613,89.9Z" fill="#e0e0e0"/><path d="M462.613,93.054c-.076,0-.137-.352-.137-.788s.061-.788.137-.788.136.353.136.788S462.688,93.054,462.613,93.054Z" fill="#e0e0e0"/><path d="M462.613,96.207c-.076,0-.137-.353-.137-.788s.061-.788.137-.788.136.352.136.788S462.688,96.207,462.613,96.207Z" fill="#e0e0e0"/><path d="M462.613,99.359c-.076,0-.137-.353-.137-.788s.061-.788.137-.788.136.353.136.788S462.688,99.359,462.613,99.359Z" fill="#e0e0e0"/><path d="M462.613,102.512c-.076,0-.137-.353-.137-.788s.061-.788.137-.788.136.352.136.788S462.688,102.512,462.613,102.512Z" fill="#e0e0e0"/><rect width="4.159" height="4.159" transform="translate(460.533 102.222)" fill="#e0e0e0"/><rect width="4.159" height="4.159" transform="translate(404.382 102.791)" fill="#e0e0e0"/><rect width="4.159" height="4.159" transform="translate(460.533 46.235)" fill="#e0e0e0"/><rect width="4.159" height="4.159" transform="translate(404.382 46.64)" fill="#e0e0e0"/><path d="M662.132,103.914H658.77l-7.339-10.227V86.975s-5.2-.32-4.586,8.47-.05,6.551-.05,6.551-11.037.043-11.954,1c-.667.7-.968,11.66-1.084,17.6a6.437,6.437,0,0,0,4.562,6.484,4.77,4.77,0,0,0,1.188.16c2.752,0,16.817-2.238,16.817-2.238h5.808Z" fill="#ebebeb"/><path d="M671.759,102.072l-2.068,23h-5.759V102.535Z" fill="#ebebeb"/><path d="M681.256,468.785c0,.144-137.127.26-306.241.26-169.174,0-306.271-.116-306.271-.26s137.1-.26,306.271-.26C544.129,468.525,681.256,468.641,681.256,468.785Z" fill="#263238"/><path d="M553.323,351.61c1-.214,9.155,37.158,8.091,51.691s-8.091,65.054-8.091,65.054H519.678l-6.066-71.493,1.143,71.493h-45.2s-10.475-49.137-8.607-64.016,11.816-54.017,11.816-54.017Z" fill="#263238"/><path d="M517,360.215a7.2,7.2,0,0,1,.07,1.4c.012.9,0,2.2-.035,3.808-.073,3.215-.279,7.655-.691,12.545s-.959,9.3-1.428,12.485c-.234,1.59-.442,2.875-.606,3.759a7.124,7.124,0,0,1-.3,1.366,7.262,7.262,0,0,1,.1-1.395c.116-.992.264-2.26.441-3.778.375-3.19.859-7.6,1.274-12.481s.675-9.308.842-12.515c.08-1.527.148-2.8.2-3.8A7.38,7.38,0,0,1,517,360.215Z" fill="#455a64"/><path d="M523.072,363.238a1.225,1.225,0,0,1,.745-.012,3.083,3.083,0,0,1,1.749,1.052,3.2,3.2,0,0,1,.665,1.29,2.821,2.821,0,0,1-.121,1.678,3.305,3.305,0,0,1-3.021,2.106,3.253,3.253,0,0,1-2.927-2.23,2.845,2.845,0,0,1-.063-1.681,2.927,2.927,0,0,1,.737-1.255,2.75,2.75,0,0,1,1.854-.858c.494-.005.741.128.732.151-.009.045-.269-.015-.714.051a2.722,2.722,0,0,0-1.6.907,2.458,2.458,0,0,0-.49,2.526,2.81,2.81,0,0,0,2.481,1.869,2.863,2.863,0,0,0,2.568-1.764,2.56,2.56,0,0,0-.385-2.559,3.13,3.13,0,0,0-1.512-1.087A6.673,6.673,0,0,1,523.072,363.238Z" fill="#455a64"/><path d="M558.329,369.508a2.9,2.9,0,0,1-.881.335,13.777,13.777,0,0,1-2.527.466,15.884,15.884,0,0,1-14.692-6.963,13.688,13.688,0,0,1-1.24-2.25,2.954,2.954,0,0,1-.3-.894c.088-.041.579,1.211,1.84,2.932a16.513,16.513,0,0,0,14.364,6.807C557.024,369.827,558.3,369.414,558.329,369.508Z" fill="#455a64"/><path d="M481.412,190.312c-2.55,9.281-6.409,16.723-10.171,20.455s-7.791,8.1-7.656,13.4c.053,2.08.747,4.288-.162,6.16-1.18,2.432-4.327,2.958-6.684,4.283a11.206,11.206,0,0,0-5.287,10.1,16.241,16.241,0,0,0,4.97,10.609c2.928,2.947,7.566,5.008,11.2,3,2.2-1.212,3.448-3.585,4.555-5.837q8.6-17.489,15.565-35.719" fill="#263238"/><path d="M504.871,150.574a23.911,23.911,0,0,1,41.675,16.254c-.065,6.215-2.5,12.728-.041,18.437,1.738,4.039,5.756,7.089,6.309,11.451.641,5.06-3.686,9.65-3.46,14.745.148,3.327,2.234,6.265,4.634,8.574s5.189,4.211,7.39,6.71c6.116,6.947,6.507,17.92,1.884,25.939s-13.548,13.049-22.74,14.137-18.559-1.444-26.694-5.859c-5.3-2.877-10.278-6.669-13.428-11.811s-4.23-11.8-1.741-17.293" fill="#263238"/><path d="M524.418,228.034s20.744,6.124,22.765,9.409,8.537,41.811,8.537,41.811L542.978,324.63s10.532,16.955,11.057,25.523c-23.541,15.188-50.11,10.933-77.91-1.233l-1.972-44.371-2.648-70.877,17.127-5.993Z" fill="#e0e0e0"/><path d="M547.48,333.773a4.165,4.165,0,0,1-.763-.016l-2.18-.148-8.005-.639-26.393-2.3-26.384-2.456-7.992-.8-2.171-.245a4.2,4.2,0,0,1-.754-.121,4.15,4.15,0,0,1,.762.016l2.178.147,8,.639,26.4,2.305,26.384,2.456,7.991.8,2.17.245A4.171,4.171,0,0,1,547.48,333.773Z" fill="#00aecd"/><path d="M523.143,283.788c0,.144-9.113.26-20.351.26s-20.354-.116-20.354-.26,9.111-.26,20.354-.26S523.143,283.644,523.143,283.788Z" fill="#00aecd"/><path d="M550.532,253.344a9.672,9.672,0,0,1-1.616.154l-4.409.252c-3.723.206-8.864.513-14.535.947s-10.8.916-14.512,1.28l-4.4.423a9.82,9.82,0,0,1-1.62.094,9.679,9.679,0,0,1,1.6-.3c1.032-.157,2.528-.359,4.38-.587,3.7-.458,8.832-1,14.512-1.434s10.829-.683,14.559-.795c1.865-.057,3.374-.085,4.418-.087A9.62,9.62,0,0,1,550.532,253.344Z" fill="#00aecd"/><path d="M547.183,237.443l20.808,56.47,13.972-27.823,18.257,3.741-10.513,43.853a18.6,18.6,0,0,1-14.663,15.635h0a18.6,18.6,0,0,1-17.5-5.686l-6.538-7.172Z" fill="#e0e0e0"/><path d="M567.566,329.589a7.516,7.516,0,0,1-.15-1.416c-.065-.913-.129-2.236-.185-3.872-.112-3.271-.157-7.795-.012-12.788s.458-9.508.761-12.767c.151-1.63.293-2.946.411-3.854a7.44,7.44,0,0,1,.233-1.4,7.438,7.438,0,0,1-.031,1.423c-.064,1.012-.147,2.309-.246,3.864-.209,3.262-.46,7.77-.607,12.755s-.158,9.5-.141,12.765c.008,1.559.014,2.859.019,3.872A7.414,7.414,0,0,1,567.566,329.589Z" fill="#00aecd"/><path d="M594.466,295.131c-.051.135-5.168-1.684-11.428-4.062s-11.3-4.416-11.244-4.55,5.168,1.684,11.429,4.063S594.517,295,594.466,295.131Z" fill="#00aecd"/><path d="M604.607,263.373l-8.758,6.457-9.727-2.388,2.333-2.586Z" fill="#ffbe9d"/><path d="M636.279,184.78,565.4,215.488l.346,20.539-8.02,8.4,27.079,24.2,7.909-8.848,21.073-2.95Z" fill="#fafafa"/><path d="M636.279,184.78c-.622,2.015-9.171,29.712-22.263,72.124l-.045.144-.149.021-21.071,2.965.153-.082L585,268.8l-.172.192-.192-.172c-4.435-3.962-9.089-8.121-13.824-12.353l-13.255-11.85-.2-.178.184-.192,8.023-8.4-.07.179c-.115-7.107-.226-13.968-.332-20.539l0-.161.147-.063,70.972-30.488L565.5,215.707l.144-.223c.115,6.571.235,13.431.359,20.539l0,.1-.072.075-8.016,8.4-.015-.371,13.258,11.847,13.82,12.357-.363.02,7.912-8.845.062-.069.092-.013,21.075-2.935-.194.165C626.921,214.434,635.645,186.79,636.279,184.78Z" fill="#263238"/><path d="M607.522,235.089a11.118,11.118,0,1,1-.88-15.7A11.119,11.119,0,0,1,607.522,235.089Z" fill="#263238"/><path d="M636.279,184.78c.109.094-8.1,9.775-18.325,21.619s-18.612,21.374-18.721,21.28,8.1-9.772,18.327-21.62S636.17,184.686,636.279,184.78Z" fill="#263238"/><path d="M417.947,429.675h0a17.722,17.722,0,0,1-1.47-24.949L549.738,253.939l26.427,23.62L443.036,428.2A17.722,17.722,0,0,1,417.947,429.675Z" fill="#00aecd"/><rect width="14.482" height="41.682" transform="translate(547.626 252.051) rotate(-48.209)" fill="#00aecd"/><rect width="7.715" height="7.715" transform="matrix(0.766, 0.642, -0.642, 0.766, 635.144, 179.726)" fill="#00aecd"/><path d="M684.546,224.77c-.256.3-22.871-18.228-50.507-41.388s-49.843-42.19-49.588-42.494,22.866,18.224,50.512,41.392S684.8,224.466,684.546,224.77Z" fill="#00aecd"/><path d="M685.673,225.715a2.286,2.286,0,1,1-.284-3.221A2.286,2.286,0,0,1,685.673,225.715Z" fill="#00aecd"/><path d="M586.2,142.356a2.286,2.286,0,1,1-.284-3.221A2.286,2.286,0,0,1,586.2,142.356Z" fill="#00aecd"/><path d="M549.738,253.939l26.426,23.62-3.565,4.033-24.133-26.215Z" opacity="0.3"/><path d="M565.793,248.865v18.9l3.843,3.958V252.3Z" fill="#fff" opacity="0.5"/><path d="M597.5,240.049l9.7,3.874,2.079,7.816-4.673,11.634-17.14,2.494,5.021-5.131-.646-4.466s-4.782-1.5-4.9-2.232.593-3.186,1.326-3.3,5.749,1.749,5.749,1.749-5.937-4.7-5.77-5.454.8-2.686,1.988-2.9,10.763,4.3,10.763,4.3l1.556,3.546,1.356-5.671S595.4,243.919,597.5,240.049Z" fill="#ffbe9d"/><path d="M596.281,258.373c.058.017.239-.336.329-.966a5.267,5.267,0,0,0-1.664-4.5c-.478-.42-.846-.571-.878-.521a10.925,10.925,0,0,1,1.781,2.742A10.8,10.8,0,0,1,596.281,258.373Z" fill="#eb996e"/><path d="M600.891,256.68a21.294,21.294,0,0,1-.384-2.542,11.114,11.114,0,0,0-.488-2.815,4.174,4.174,0,0,0-.894-1.5,4.435,4.435,0,0,0-1.584-1c-2.32-.842-4.408-1.522-5.937-2.016a13.386,13.386,0,0,0-2.505-.69,13.356,13.356,0,0,0,2.388,1.024c1.489.576,3.591,1.321,5.866,2.146a4.077,4.077,0,0,1,1.421.874,3.8,3.8,0,0,1,.812,1.321,12.238,12.238,0,0,1,.569,2.7A5.185,5.185,0,0,0,600.891,256.68Z" fill="#eb996e"/><path d="M603.116,254.927c.137-.023.109-.879-.062-1.912s-.419-1.854-.556-1.831-.108.878.062,1.912S602.98,254.949,603.116,254.927Z" fill="#eb996e"/><path d="M530.35,324.223s15.555-5.342,15.919-5.514,10.984-5.118,10.08-7.965c0,0,3.03-2.392,2.095-3.735l-4.259,1.791s6.039-3.908,4.968-7.421c0,0,.626-1.19-.021-1.926s-3.762,1.487-6.078,2.884l-4.481,1.8a9.362,9.362,0,0,1-6.144.3h0a1.934,1.934,0,0,1-1.346-2.28,19.606,19.606,0,0,0-.327-10.489s-1.1.39-1.866,2.786c-.979,3.075-4.053,5.443-5.178,7.466-.645,1.16-1.669,3.008-2.426,4.374a4.756,4.756,0,0,1-2.936,2.291l1.066,8.1Z" fill="#ffbe9d"/><path d="M547.211,309.549a2.421,2.421,0,0,0,.538-.168c.341-.121.827-.318,1.419-.58a32.687,32.687,0,0,0,8.46-5.495c.48-.435.858-.8,1.108-1.06a2.314,2.314,0,0,0,.371-.424,2.356,2.356,0,0,0-.44.351c-.27.239-.665.581-1.159.995a40.175,40.175,0,0,1-8.417,5.467c-.58.282-1.052.5-1.381.654A2.362,2.362,0,0,0,547.211,309.549Z" fill="#eb996e"/><path d="M547.48,312.646a4.533,4.533,0,0,0,1.145-.377,19.378,19.378,0,0,0,2.593-1.317,26.041,26.041,0,0,0,2.4-1.642,5.239,5.239,0,0,0,.911-.787c-.05-.068-1.516,1.039-3.441,2.208-.965.58-1.869,1.051-2.534,1.372A7.262,7.262,0,0,0,547.48,312.646Z" fill="#eb996e"/><path d="M547.345,316.369a7.6,7.6,0,0,0,1.462-.561,27.334,27.334,0,0,0,3.323-1.8,31.108,31.108,0,0,0,3.061-2.215,8.085,8.085,0,0,0,1.157-1.054,11.1,11.1,0,0,0-1.269.91c-.772.575-1.848,1.356-3.086,2.141s-2.408,1.415-3.265,1.851A12.36,12.36,0,0,0,547.345,316.369Z" fill="#eb996e"/><path d="M530.35,324.223l-57.722,17.362a34.46,34.46,0,0,1-20.1-34.442c1.813-20.4,4.22-47.233,4.929-53.969,1.18-11.231,14.053-19.5,14.053-19.5,17.71,1.152,13.78,36.159,13.78,36.159L478.163,310.1l50.187-2.011Z" fill="#e0e0e0"/><path d="M478.163,310.1a9.494,9.494,0,0,1,.07-1.609c.066-1.035.234-2.525.447-4.366.454-3.678,1.235-8.739,2.268-14.3s2.076-10.568,2.889-14.182c.406-1.806.749-3.265,1-4.27a9.268,9.268,0,0,1,.446-1.547,9.842,9.842,0,0,1-.248,1.591c-.216,1.106-.5,2.554-.84,4.3-.72,3.631-1.71,8.647-2.737,14.2s-1.868,10.592-2.416,14.25c-.248,1.763-.453,3.224-.61,4.338A9.418,9.418,0,0,1,478.163,310.1Z" fill="#263238"/><path d="M528.35,308.089a2.2,2.2,0,0,1-.545.083l-1.568.134c-1.363.1-3.337.229-5.777.35-4.88.252-11.626.487-19.076.7l-19.08.547-5.781.184-1.573.037a2.15,2.15,0,0,1-.55-.023,2.224,2.224,0,0,1,.544-.082l1.568-.134c1.363-.1,3.337-.229,5.777-.35,4.88-.252,11.627-.487,19.08-.7l19.076-.547,5.781-.184,1.573-.037A2.2,2.2,0,0,1,528.35,308.089Z" fill="#263238"/><path d="M480.348,294.834a4.194,4.194,0,0,1-1.062-.018l-2.875-.214c-2.427-.187-5.779-.419-9.486-.576s-7.069-.2-9.5-.22l-2.883-.027a4.193,4.193,0,0,1-1.059-.071,4.168,4.168,0,0,1,1.054-.132c.68-.052,1.666-.1,2.884-.138,2.437-.077,5.809-.087,9.529.068s7.077.449,9.5.729c1.211.14,2.189.271,2.862.379A4.175,4.175,0,0,1,480.348,294.834Z" fill="#00aecd"/><path d="M485.285,267.046c-.006.144-6.545-.014-14.6-.352s-14.59-.728-14.584-.871,6.544.013,14.605.351S485.291,266.9,485.285,267.046Z" fill="#00aecd"/><path d="M457.928,328.283a4.289,4.289,0,0,1,.556-.924c.383-.579.975-1.389,1.739-2.366a59.459,59.459,0,0,1,14.263-13.012c1.042-.671,1.9-1.186,2.514-1.514a4.333,4.333,0,0,1,.971-.47c.043.072-1.258.877-3.28,2.29a73.121,73.121,0,0,0-14.183,12.939C458.916,327.11,458,328.332,457.928,328.283Z" fill="#00aecd"/><path d="M499.345,333.773c-.142.022-1.115-5.4-2.172-12.1s-1.8-12.164-1.658-12.186,1.114,5.4,2.172,12.105S499.487,333.751,499.345,333.773Z" fill="#00aecd"/><g opacity="0.3"><path d="M472.28,341.585l64.644-19.624c-4.847,6.375-14.282,12.322-21.4,15.991s-14.732,6.26-22.314,8.837c-4.121,1.4-8.339,2.818-12.691,2.78s-8.6-1.287-10.885-4.99Z"/></g><path d="M483.425,175.408a6.838,6.838,0,0,0-2.383-8.133,7.365,7.365,0,0,0-8.565.438,7.983,7.983,0,0,0-2.452,8.317,8.146,8.146,0,0,0,15.848-1.143" fill="#263238"/><path d="M493.085,158.526l-.037,4.724-1,70.711c-.116,8.209,6.85,14.846,15.64,14.9h0c8.878.058,16.274-6.612,16.528-14.9.267-8.7.707-17.858.707-17.858s11.263-1.552,13.989-16.115c1.355-7.243,1.319-19.18.974-28.946a15.453,15.453,0,0,0-16.64-14.87Z" fill="#ffbe9d"/><path d="M534.931,179.556a1.877,1.877,0,0,1-1.861,1.843,1.8,1.8,0,0,1-1.887-1.744,1.876,1.876,0,0,1,1.859-1.844A1.8,1.8,0,0,1,534.931,179.556Z" fill="#263238"/><path d="M537.126,177.177c-.239.238-1.632-.852-3.65-.9-2.016-.079-3.526.919-3.738.665-.1-.112.144-.547.8-1a5.152,5.152,0,0,1,3-.835,4.952,4.952,0,0,1,2.9,1.024C537.046,176.623,537.244,177.071,537.126,177.177Z" fill="#263238"/><path d="M515.176,179.363a1.876,1.876,0,0,1-1.861,1.842,1.793,1.793,0,0,1-1.886-1.744,1.876,1.876,0,0,1,1.859-1.844A1.8,1.8,0,0,1,515.176,179.363Z" fill="#263238"/><path d="M517.273,177.007c-.239.238-1.633-.853-3.65-.9-2.016-.079-3.526.918-3.739.665-.1-.112.143-.547.8-1a5.152,5.152,0,0,1,3-.836,4.946,4.946,0,0,1,2.9,1.025C517.191,176.452,517.39,176.9,517.273,177.007Z" fill="#263238"/><path d="M524.186,192.179a13.389,13.389,0,0,1,3.3-.5c.516-.039,1.007-.128,1.1-.478a2.633,2.633,0,0,0-.3-1.537q-.675-1.892-1.417-3.967c-1.962-5.647-3.368-10.284-3.14-10.361s2,4.437,3.967,10.084q.707,2.088,1.351,3.989a2.985,2.985,0,0,1,.212,2.03,1.294,1.294,0,0,1-.868.731,3.526,3.526,0,0,1-.879.1A13.129,13.129,0,0,1,524.186,192.179Z" fill="#263238"/><path d="M524.922,216.1a37.224,37.224,0,0,1-19.445-5.766s4.475,10.179,19.152,9.214Z" fill="#eb996e"/><path d="M523.2,197.02a3.637,3.637,0,0,0-3.224-1.44,3.324,3.324,0,0,0-2.327,1.166,2.105,2.105,0,0,0-.226,2.4,2.442,2.442,0,0,0,2.628.742,7.64,7.64,0,0,0,2.622-1.468,2.25,2.25,0,0,0,.593-.582.675.675,0,0,0,.018-.751" fill="#eb996e"/><path d="M518.207,193.412c.329-.011.273,2.181,2.106,3.788s4.171,1.43,4.18,1.737c.027.138-.532.411-1.519.41a5.455,5.455,0,0,1-3.493-1.325,4.759,4.759,0,0,1-1.624-3.173C517.8,193.931,518.058,193.4,518.207,193.412Z" fill="#263238"/><path d="M518.013,169.11c-.214.544-2.223.228-4.6.448-2.38.173-4.309.813-4.61.312-.134-.239.213-.746,1-1.256a8.025,8.025,0,0,1,7.016-.579C517.68,168.409,518.1,168.852,518.013,169.11Z" fill="#263238"/><path d="M536.545,171.315c-.368.448-1.745-.066-3.417-.134-1.669-.127-3.1.222-3.409-.266-.136-.237.1-.69.73-1.107a4.949,4.949,0,0,1,5.5.322C536.527,170.618,536.708,171.1,536.545,171.315Z" fill="#263238"/><path d="M511.479,153.9c3.907,5.2-.161,12.555-4.663,17.246s-9.991,10.139-8.762,16.524c1.425,7.4,11.55,12.144,10.046,19.532-.549,2.7-2.676,4.995-2.686,7.747-.017,4.967,6.409,7.381,8.259,11.99,2.536,6.317-4.435,12.617-4.541,19.423-.06,3.865,2.129,7.47,2.246,11.333.239,7.915-9.122,13.708-16.8,11.761s-12.934-9.437-14.606-17.177.863-18.621,2.1-26.442l-13.3,3.083c-2.478-2.361.91-4.873,1.468-8.249,1.4-8.465,6.963-15.632,9.611-23.792,2.315-7.133,2.33-14.773,3.342-22.2s3.315-15.174,8.989-20.076,15.5-5.5,20.088.424" fill="#263238"/><path d="M481.656,177.923a23.4,23.4,0,0,0,5.862.174,24.954,24.954,0,0,0,12.721-5.759,53.488,53.488,0,0,0,9.295-10.711l2.44-3.575a9.463,9.463,0,0,1,.94-1.283,9.2,9.2,0,0,1-.769,1.393c-.526.878-1.3,2.14-2.306,3.672a49.466,49.466,0,0,1-9.267,10.9,24.4,24.4,0,0,1-13.016,5.724,16.337,16.337,0,0,1-4.353-.149,10.12,10.12,0,0,1-1.155-.258A1.293,1.293,0,0,1,481.656,177.923Z" fill="#455a64"/><path d="M498.994,179.88a7.969,7.969,0,0,1-2.135,1.491,18.131,18.131,0,0,1-12.259,1.793,7.982,7.982,0,0,1-2.472-.816c.028-.085.974.21,2.538.454a20.556,20.556,0,0,0,12.026-1.76C498.121,180.361,498.944,179.807,498.994,179.88Z" fill="#455a64"/><path d="M546.536,170.049a8.741,8.741,0,0,1-7.809-4.629,14.1,14.1,0,0,0,7.809,4.629Z" fill="#455a64"/><path d="M545.6,174.974a5.215,5.215,0,0,1-5.221-1.3c.089-.126,1.125.524,2.556.871C544.36,174.908,545.581,174.822,545.6,174.974Z" fill="#455a64"/><path d="M482.758,181.1a14,14,0,0,1,.845-9.549c.149.05-.524,2.111-.747,4.746C482.613,178.934,482.914,181.081,482.758,181.1Z" fill="#00aecd"/><path d="M344.533,349.941c-.988-.216-9.063,37.7-8.01,52.448s8.01,66.006,8.01,66.006h82.924s10.37-49.856,8.52-64.953-11.7-54.807-11.7-54.807Z" fill="#263238"/><path d="M333.927,278.248,322.079,224.9l-.686-8.832s-2.713-19.8-2.732-21.739c-.021-2.236-1.1-2.764-1.928-2.7-1.284.1-2.177,1.692-2.218,3.612-.014.664.184,11.142.184,11.142a24.8,24.8,0,0,0-2.06-2.806c-1.572-1.945-5.223-3.026-8.957-2.865s-4.764.536-4.769,1.989a1.849,1.849,0,0,0,.748,1.4,3.659,3.659,0,0,0,2.472.822c5.982-.175,7.628,3,7.628,3l.09,1.156s-3.666-2.557-6.549-1.429a3.5,3.5,0,0,0-1.148.726,4.681,4.681,0,0,0-3.98,7.027,1.947,1.947,0,0,0,1.893,1.153,2.5,2.5,0,0,0,1.052-.655,3.8,3.8,0,0,1,.528-.4l.7,3.2s1.967,7.108,2.473,10.3l3.169,52.877a13.135,13.135,0,0,0,14.128,12.309h0A13.135,13.135,0,0,0,333.927,278.248Z" fill="#ffbe9d"/><path d="M320.349,224.2a2.727,2.727,0,0,1-2.833-1.445c-.6-.966-.862-2.107-1.395-3.114-1.592-3.01-5.377-4.413-6.823-7.5-.2-.43-.316-1.023.061-1.312.35-.267.849-.064,1.236.145l9.927,5.354" fill="#ffbe9d"/><path d="M320.522,216.327a4.5,4.5,0,0,0-1.014-.689c-.673-.407-1.657-.977-2.879-1.669l-4.309-2.4-1.25-.687a2.235,2.235,0,0,0-1.631-.444.953.953,0,0,0-.641.853,1.958,1.958,0,0,0,.174.907,7.4,7.4,0,0,0,.867,1.419c1.385,1.76,3.16,2.856,4.449,4.138a8.49,8.49,0,0,1,1.585,1.987c.382.695.625,1.427.919,2.078a3.969,3.969,0,0,0,2.317,2.436,1.428,1.428,0,0,0,1.24-.059,3.284,3.284,0,0,1-1.156-.177,3.847,3.847,0,0,1-1.982-2.377c-.258-.638-.474-1.384-.867-2.152a8.75,8.75,0,0,0-1.639-2.158c-1.324-1.353-3.081-2.475-4.356-4.108a6.864,6.864,0,0,1-.788-1.279c-.192-.427-.172-.863.076-.909.262-.092.719.153,1.142.386s.848.45,1.26.667l4.374,2.281c1.25.641,2.267,1.15,2.976,1.489A4.536,4.536,0,0,0,320.522,216.327Z" fill="#eb996e"/><path d="M309.992,209.135a4.664,4.664,0,0,0-.709-2.009,3.587,3.587,0,0,0-1.837-1.3,9.178,9.178,0,0,0-2.834-.378,14.648,14.648,0,0,1-2.961-.226,4.729,4.729,0,0,1-2.213-1.074,1.848,1.848,0,0,1-.607-1.542,1.1,1.1,0,0,1,.191-.578c.039.011-.027.218-.03.586a1.741,1.741,0,0,0,.646,1.318,4.671,4.671,0,0,0,2.092.916,16.2,16.2,0,0,0,2.889.185,8.949,8.949,0,0,1,2.955.432,3.765,3.765,0,0,1,1.952,1.5,3.334,3.334,0,0,1,.523,1.571A1.148,1.148,0,0,1,309.992,209.135Z" fill="#eb996e"/><path d="M314.542,194.5a11.73,11.73,0,0,1,.053,2.083c0,1.429,0,3.132,0,5.015.028,1.883.054,3.586.076,5.015a11.6,11.6,0,0,1-.022,2.083,9.37,9.37,0,0,1-.272-2.069c-.1-1.284-.182-3.061-.2-5.026s.038-3.742.121-5.028A9.384,9.384,0,0,1,314.542,194.5Z" fill="#eb996e"/><path d="M307.653,211.522a2.536,2.536,0,0,1-.611-.229,1.931,1.931,0,0,0-1.61-.06,1.037,1.037,0,0,0-.533.877,5.51,5.51,0,0,0,.113,1.353,2.334,2.334,0,0,1-.231,1.642,1.986,1.986,0,0,1-1.586.847,2.261,2.261,0,0,1-1.648-.692,2.833,2.833,0,0,1-.79-1.449,9.134,9.134,0,0,1,.013-2.681,5.391,5.391,0,0,1,.513-1.73c.211-.38.409-.53.421-.515.028.025-.119.205-.275.583a6.408,6.408,0,0,0-.368,1.7,9.847,9.847,0,0,0,.071,2.572,2.236,2.236,0,0,0,2.048,1.8,1.6,1.6,0,0,0,1.262-.655,2,2,0,0,0,.191-1.371,5.464,5.464,0,0,1-.075-1.447,1.34,1.34,0,0,1,.742-1.093,2.025,2.025,0,0,1,1.811.175C307.484,211.354,307.665,211.5,307.653,211.522Z" fill="#eb996e"/><path d="M301.716,214.94c.019,0,.079.218-.052.592a1.813,1.813,0,0,1-1.2,1.089,2.417,2.417,0,0,1-2.3-.684,3.957,3.957,0,0,1-1.054-2.745,4.789,4.789,0,0,1,.865-2.807,4.577,4.577,0,0,1,1.853-1.52,4.331,4.331,0,0,1,1.56-.386,1.237,1.237,0,0,1,.585.051,7.552,7.552,0,0,0-2.017.6,4.514,4.514,0,0,0-1.666,1.472,4.569,4.569,0,0,0-.765,2.584,3.68,3.68,0,0,0,.912,2.483,2.145,2.145,0,0,0,1.957.667,1.717,1.717,0,0,0,1.128-.869C301.679,215.151,301.68,214.937,301.716,214.94Z" fill="#eb996e"/><path d="M309.006,221.864a1.706,1.706,0,0,1,1,0,3.933,3.933,0,0,1,2.2,1.3l-.351.107a11.622,11.622,0,0,1,.217-1.4,8.958,8.958,0,0,1,2.111-4.4,22.7,22.7,0,0,0-1.706,4.484c-.1.469-.176.927-.226,1.351l-.056.47-.3-.363a4.117,4.117,0,0,0-1.951-1.308C309.374,221.93,309.005,221.919,309.006,221.864Z" fill="#eb996e"/><path d="M308.615,204.036c.1.047-.3.8-1.214,1.207a1.852,1.852,0,0,1-1.709.1c.011-.121.748-.113,1.54-.476C308.031,204.517,308.518,203.963,308.615,204.036Z" fill="#eb996e"/><path d="M428.969,232.942c4.339,0,14.772,12.325,16.591,31.059.833,8.576,5.131,43.712,7.21,60.6a16.854,16.854,0,0,1-6.86,15.7c-11.229,8.154-33.7,20.98-63.6,20.624L364.2,345.73l58.8-24.779.032-1.34,2.564-2.808-7.338-44.995S411.4,232.943,428.969,232.942Z" fill="#00aecd"/><path d="M413.666,153.791c.222,6.086,8.334,9.774,8.23,15.862-.045,2.613-1.666,4.959-1.984,7.553-.427,3.487,1.521,6.779,2.241,10.217,1.483,7.084-2.637,14.557-8.748,18.435s-13.782,4.618-20.953,3.637" fill="#263238"/><path d="M364.677,152.3c.241,3.267-1.916,6.185-4.09,8.636s-4.593,5.005-5.062,8.246c-.833,5.746,4.792,11.08,3.632,16.768-.622,3.049-3.118,5.5-3.563,8.577-.43,2.978,1.166,5.894,3.145,8.161s4.27,1.936,6.02,4.384a24.614,24.614,0,0,0,7.592,6.748c6.3,3.452,13.87-1.542,16.911-2.439" fill="#263238"/><path d="M414.887,157.295c.085-2.963-2.655-5.252-5.413-6.337s-5.824-1.495-8.282-3.149c-2.177-1.466-3.64-3.751-5.483-5.619a18.244,18.244,0,0,0-30.684,8.37c-1.059,4.22-.336,9.208,2.99,12.012,3.86,3.254,9.583,2.532,14.529,1.519s10.545-2.01,14.674.894c2.491,1.752,3.918,4.6,5.44,7.238s3.434,5.33,6.313,6.321,6.788-.721,6.9-3.763" fill="#263238"/><path d="M375.5,226.307c-.04-6.8-.08-13.423-.083-13.388,0,0-10.8-1.817-13.006-15.918-1.1-7.012-.72-18.5-.108-27.9.552-8.455,6.177-18.818,14.6-17.908l26.3,6.708a4.958,4.958,0,0,1,4.424,5.039h0l-2.407,63.838a14.864,14.864,0,0,1-15.148,14.3h0A14.865,14.865,0,0,1,375.5,226.307Z" fill="#ffbe9d"/><path d="M366.783,177.158a1.808,1.808,0,0,0,1.739,1.828,1.729,1.729,0,0,0,1.867-1.626,1.808,1.808,0,0,0-1.737-1.828A1.73,1.73,0,0,0,366.783,177.158Z" fill="#263238"/><path d="M364.787,175.087c.224.237,1.6-.774,3.541-.764,1.943-.019,3.369.985,3.58.747.1-.105-.123-.531-.744-.985a4.964,4.964,0,0,0-2.865-.89,4.766,4.766,0,0,0-2.819.9C364.881,174.556,364.677,174.982,364.787,175.087Z" fill="#263238"/><path d="M385.67,177.646a1.808,1.808,0,0,0,1.739,1.828,1.73,1.73,0,0,0,1.867-1.626,1.808,1.808,0,0,0-1.738-1.828A1.729,1.729,0,0,0,385.67,177.646Z" fill="#263238"/><path d="M383.907,175.493c.224.236,1.6-.774,3.542-.765,1.943-.019,3.368.985,3.58.748.1-.106-.121-.531-.745-.985a4.952,4.952,0,0,0-2.865-.891,4.771,4.771,0,0,0-2.819.9C384,174.961,383.8,175.387,383.907,175.493Z" fill="#263238"/><path d="M376.816,189.9a12.916,12.916,0,0,0-3.158-.577c-.5-.052-.967-.152-1.05-.491a2.533,2.533,0,0,1,.335-1.472q.705-1.8,1.478-3.779c2.051-5.38,3.538-9.8,3.32-9.886s-2.057,4.215-4.108,9.6c-.494,1.327-.967,2.591-1.416,3.8a2.875,2.875,0,0,0-.262,1.949,1.25,1.25,0,0,0,.815.728,3.4,3.4,0,0,0,.844.119A12.638,12.638,0,0,0,376.816,189.9Z" fill="#263238"/><path d="M375.421,212.919a35.857,35.857,0,0,0,18.889-4.993c-.159.033-5.2,9.8-18.706,8.322Z" fill="#eb996e"/><path d="M377.628,194.593a3.509,3.509,0,0,1,3.145-1.295,3.2,3.2,0,0,1,2.208,1.191,2.028,2.028,0,0,1,.149,2.318,2.353,2.353,0,0,1-2.552.64,7.364,7.364,0,0,1-2.483-1.49,2.149,2.149,0,0,1-.554-.576.65.65,0,0,1,0-.724" fill="#00aecd"/><path d="M382.538,191.261c-.317-.019-.325,2.093-2.136,3.587s-4.058,1.258-4.075,1.553c-.03.133.5.411,1.45.439a5.26,5.26,0,0,0,3.4-1.176,4.582,4.582,0,0,0,1.655-3.008C382.917,191.773,382.682,191.249,382.538,191.261Z" fill="#263238"/><path d="M383.04,172.085c.191.529,2.134.283,4.415.563,2.287.234,4.126.907,4.43.433.136-.227-.184-.725-.927-1.239a7.739,7.739,0,0,0-6.739-.759C383.381,171.419,382.958,171.834,383.04,172.085Z" fill="#263238"/><path d="M365.515,169.459c.341.443,1.682-.013,3.294-.031,1.61-.074,2.975.3,3.29-.158.138-.224-.076-.667-.671-1.086a4.77,4.77,0,0,0-5.305.152C365.553,168.789,365.365,169.243,365.515,169.459Z" fill="#263238"/><path d="M409.17,205.059c-3.877.781-4.222-1.191-7.119-3.884a12.728,12.728,0,0,1-3.895-10.739c.438-3.462,2.3-6.984,1.1-10.26-1.587-4.333-7.659-5.665-9.271-9.988-.936-2.513-.1-5.452-1.157-7.914-1-2.315-3.434-3.649-5.806-4.506s-4.913-1.449-6.9-3-3.232-4.468-1.948-6.638a133.614,133.614,0,0,1,30.8,7.484c2.3.859,4.717,1.892,6.077,3.936,1.439,2.164,1.37,4.959,1.249,7.555q-.887,18.984-1.772,37.969" fill="#263238"/><path d="M418.036,176.3a10.816,10.816,0,0,1,20.472-3.745c1.96,3.981,1.282,8.825-.547,12.868-2.174,4.8-6.626,9.193-11.893,8.954-4.955-.225-8.945-4.577-10.373-9.328s-.852-9.843-.262-14.768" fill="#263238"/><path d="M420.8,195.609a2.486,2.486,0,0,0,.739-.818,6.93,6.93,0,0,0,1.051-2.821,13.51,13.51,0,0,0-.127-4.453c-.287-1.659-.846-3.4-1.253-5.242a13.1,13.1,0,0,1-.308-5.215c.289-1.57,1.027-2.9,1.352-4.143a5.355,5.355,0,0,0,.084-3.014c-.222-.7-.527-.982-.548-.962-.047.028.178.355.315,1.021a5.578,5.578,0,0,1-.27,2.828,35.6,35.6,0,0,0-1.493,4.162,13.087,13.087,0,0,0,.263,5.457c.416,1.882.99,3.613,1.3,5.212a14.019,14.019,0,0,1,.255,4.289A8.864,8.864,0,0,1,420.8,195.609Z" fill="#455a64"/><path d="M421,178.682a6.851,6.851,0,0,0,2.161,2.116,12.367,12.367,0,0,0,13.932.244A6.862,6.862,0,0,0,439.328,179c-.075-.079-.881.753-2.463,1.665a12.879,12.879,0,0,1-13.461-.236C421.855,179.465,421.078,178.6,421,178.682Z" fill="#455a64"/><path d="M421.7,180.891a6.436,6.436,0,0,0,1.194,2.214,15.424,15.424,0,0,0,10.213,6.142,6.45,6.45,0,0,0,2.515.017,23.348,23.348,0,0,0-2.44-.449,17.541,17.541,0,0,1-9.942-5.979A23.868,23.868,0,0,0,421.7,180.891Z" fill="#455a64"/><path d="M418.152,200.328c.008.007.06-.052.154-.175a5.029,5.029,0,0,0,.389-.564,7.473,7.473,0,0,0,.928-2.465,8.662,8.662,0,0,0-.226-4.162,7.963,7.963,0,0,0-3.28-4.412c-1.673-1.179-3.85-2-5.234-3.876a4.233,4.233,0,0,1-.765-3.31,18.82,18.82,0,0,1,1.226-3.658,10.52,10.52,0,0,0-.181-8.416,9.223,9.223,0,0,0-2.861-3.553,11.161,11.161,0,0,0-4.323-1.792c-1.527-.348-3.049-.55-4.463-.977a8.7,8.7,0,0,1-3.737-2.044,6.206,6.206,0,0,1-1.621-3.7,31.635,31.635,0,0,0-.664-4.1,14.13,14.13,0,0,0-3.8-6.669,11.145,11.145,0,0,0-5.988-2.971,8.9,8.9,0,0,0-5.449.825,8.619,8.619,0,0,0-3.152,2.729,7.3,7.3,0,0,0-1.1,2.392,3.759,3.759,0,0,0-.137.907,8.962,8.962,0,0,1,1.436-3.158,8.492,8.492,0,0,1,8.336-3.262,10.747,10.747,0,0,1,5.7,2.908,13.68,13.68,0,0,1,3.608,6.442,31.736,31.736,0,0,1,.631,4.042,6.793,6.793,0,0,0,1.773,4.037,9.262,9.262,0,0,0,3.993,2.208c1.481.448,3.009.649,4.5.991a10.6,10.6,0,0,1,4.1,1.685,8.626,8.626,0,0,1,2.674,3.313,9.952,9.952,0,0,1,.2,7.957,19.047,19.047,0,0,0-1.231,3.778,4.767,4.767,0,0,0,.889,3.694c1.538,2.022,3.779,2.809,5.4,3.936a7.62,7.62,0,0,1,3.2,4.154,8.589,8.589,0,0,1,.32,4.017A9.448,9.448,0,0,1,418.152,200.328Z" fill="#455a64"/><path d="M417.208,160.974a1.552,1.552,0,0,0,.174-.65,3.036,3.036,0,0,0-.468-1.872,4.789,4.789,0,0,0-2.357-1.95,7.421,7.421,0,0,0-4.048-.134c-1.478.28-3.009.87-4.686,1.2a6.241,6.241,0,0,1-5.1-.8c-1.5-1.139-2.25-3.112-3.019-5.073a21.048,21.048,0,0,0-3.257-5.805,19.5,19.5,0,0,0-10.667-6.9,11.182,11.182,0,0,0-5.632.148,8.761,8.761,0,0,0-4.125,2.666,6.51,6.51,0,0,0-1.56,3.735,6.408,6.408,0,0,0,.466,3.022,4.869,4.869,0,0,0,1.061,1.61,2,2,0,0,0,.52.423,6.833,6.833,0,0,1-1.357-2.123,6.313,6.313,0,0,1-.345-2.9,6.187,6.187,0,0,1,1.549-3.484,8.376,8.376,0,0,1,3.939-2.459,10.744,10.744,0,0,1,5.362-.082,19.133,19.133,0,0,1,10.3,6.728,20.641,20.641,0,0,1,3.176,5.642c.78,1.945,1.552,4.029,3.24,5.305a5.344,5.344,0,0,0,2.782,1.045,9.521,9.521,0,0,0,2.759-.194c1.739-.362,3.246-.973,4.676-1.27a7.168,7.168,0,0,1,3.838.03,4.611,4.611,0,0,1,2.274,1.753,3.061,3.061,0,0,1,.547,1.737C417.258,160.745,417.171,160.965,417.208,160.974Z" fill="#455a64"/><path d="M430.208,233.143l-24.987-6.363h-29.8s-15.446.888-24.046,8.48a18.973,18.973,0,0,0-4.686,7.666L333.446,273.24l-6.8-38.012-23.781,3.378,3.838,65.412a32.117,32.117,0,0,0,25.321,28.218l13.53-15.213c1.561,12.408,2.946,23.052,3.086,22.912.333-.333,74.075-4.8,74.075-4.8l-7.465-25.236Z" fill="#00aecd"/><path d="M335.709,148.5a17.049,17.049,0,1,0-24.474,15.171c-.021,2.02-.045,4.3-.045,4.3l14.942.156s.116-2.413.172-4.568A17.042,17.042,0,0,0,335.709,148.5Z" fill="#00aecd"/><path d="M320.73,168s0-.071.019-.21l.076-.614c.071-.539.176-1.335.337-2.356s.376-2.269.717-3.7a25.281,25.281,0,0,1,1.6-4.728,16.29,16.29,0,0,1,1.429-2.537,3.139,3.139,0,0,1,1.176-1.034,1.761,1.761,0,0,1,1.619.069,1.163,1.163,0,0,1,.532.681,1.189,1.189,0,0,1-.08.874,2.424,2.424,0,0,1-1.329,1.121,4.664,4.664,0,0,1-3.541-.288,4.727,4.727,0,0,1-2.378-2.87,3.57,3.57,0,0,1-.08-1.968,1.532,1.532,0,0,1,1.561-1.168,1.1,1.1,0,0,1,.862.61,1.548,1.548,0,0,1,.126,1.053,3.334,3.334,0,0,1-1.216,1.681,5.088,5.088,0,0,1-3.986,1.112,4.431,4.431,0,0,1-3.271-2.492,2.573,2.573,0,0,1-.094-2.066,1.3,1.3,0,0,1,.756-.747,1.28,1.28,0,0,1,1.048.108,1.69,1.69,0,0,1,.712.756,2.658,2.658,0,0,1,.25.984,4.908,4.908,0,0,1-.28,1.946,5.072,5.072,0,0,1-2.433,2.834,5.163,5.163,0,0,1-3.533.448,2.7,2.7,0,0,1-1.526-.83,1.319,1.319,0,0,1-.077-1.643,1.112,1.112,0,0,1,.77-.366,1.607,1.607,0,0,1,.811.166,2.467,2.467,0,0,1,1.032,1.181c.419.929.753,1.831,1.093,2.693,1.327,3.45,2.265,6.292,2.892,8.26.313.985.545,1.753.7,2.274q.109.383.171.6c.037.134.051.205.051.205s-.027-.067-.072-.2-.109-.336-.191-.588c-.171-.526-.419-1.286-.736-2.262-.651-1.96-1.61-4.792-2.954-8.232-.341-.854-.685-1.767-1.1-2.675a2.317,2.317,0,0,0-.961-1.1,1.022,1.022,0,0,0-1.291,1.579,2.527,2.527,0,0,0,1.429.764,4.99,4.99,0,0,0,3.4-.44,4.881,4.881,0,0,0,2.334-2.729,4.723,4.723,0,0,0,.265-1.864,1.853,1.853,0,0,0-.857-1.576,1.071,1.071,0,0,0-.882-.093,1.1,1.1,0,0,0-.634.634,2.372,2.372,0,0,0,.094,1.9,4.225,4.225,0,0,0,3.116,2.37,4.88,4.88,0,0,0,3.819-1.066,3.146,3.146,0,0,0,1.146-1.566,1.337,1.337,0,0,0-.107-.911.893.893,0,0,0-.7-.5,1.2,1.2,0,0,0-.851.265,1.474,1.474,0,0,0-.494.758,3.377,3.377,0,0,0,.078,1.852,4.5,4.5,0,0,0,5.662,3.043,2.252,2.252,0,0,0,1.232-1.026,1.006,1.006,0,0,0-.381-1.329,1.59,1.59,0,0,0-1.458-.066,2.985,2.985,0,0,0-1.116.979,16.143,16.143,0,0,0-1.424,2.5,25.429,25.429,0,0,0-1.618,4.694c-.35,1.423-.575,2.667-.75,3.684s-.288,1.8-.375,2.349c-.042.262-.074.465-.1.611S320.73,168,320.73,168Z" fill="#263238"/><path d="M324.953,170.882l-12.829-.134a.962.962,0,0,1-.953-.973h0a.964.964,0,0,1,.973-.953l12.83.134a.963.963,0,0,1,.952.973h0A.962.962,0,0,1,324.953,170.882Z" fill="#263238"/><path d="M324.945,171.723l-12.83-.134a.963.963,0,1,0-.02,1.926l1.408.014,1.831,3.576a1.239,1.239,0,0,0,1.088.673l4.585.048a1.237,1.237,0,0,0,1.108-.662l1.852-3.525.958.01a.963.963,0,1,0,.02-1.926Z" fill="#263238"/><g opacity="0.2"><path d="M307.821,137.344a12.57,12.57,0,0,1,3.438-2.234,9.062,9.062,0,0,1,2.635-.736c.646-.06,1.013.006,1.043.142.07.311-1.227.756-2.98,1.9a14.019,14.019,0,0,0-6.535,13.7c.214,2.083.684,3.371.4,3.511-.125.063-.407-.18-.767-.72a9.064,9.064,0,0,1-1.086-2.511,12.513,12.513,0,0,1-.428-4.078,13.258,13.258,0,0,1,1.245-4.916" fill="#fff"/></g><g opacity="0.2"><path d="M319.029,135.294c-1.081-.021-2.031-.326-2.136-.9-.044-.284.159-.584.552-.816a3.42,3.42,0,0,1,3.221.05c.385.244.579.551.526.833" fill="#fff"/></g><path d="M321.873,177.466c-.016.031-.337-.12-.879-.281a7.14,7.14,0,0,0-4.335.08c-.535.182-.851.344-.867.313a2.612,2.612,0,0,1,.816-.452,6.252,6.252,0,0,1,4.432-.082A2.619,2.619,0,0,1,321.873,177.466Z" fill="#455a64"/><path d="M323.994,173.682c0,.058-2.32.081-5.181.051s-5.18-.1-5.179-.159,2.32-.08,5.181-.05S323.995,173.625,323.994,173.682Z" fill="#455a64"/><path d="M323.175,175.2a7.3,7.3,0,0,1-1.264.115c-.783.041-1.865.075-3.061.079s-2.279-.021-3.062-.056a7.168,7.168,0,0,1-1.265-.107,8.093,8.093,0,0,1,1.268-.041l3.058-.005,3.058-.018A7.937,7.937,0,0,1,323.175,175.2Z" fill="#455a64"/><path d="M348.339,290.986a4.009,4.009,0,0,1-.75-.924,10.3,10.3,0,0,1-1.334-2.967,18.66,18.66,0,0,1,.632-10.6c1.34-3.971,3.093-7.31,4.068-9.84.506-1.258.874-2.292,1.106-3.015a5.745,5.745,0,0,1,.4-1.114,4.757,4.757,0,0,1-.2,1.17,28.727,28.727,0,0,1-.957,3.091c-.9,2.584-2.6,5.961-3.917,9.87a19.278,19.278,0,0,0-.77,10.343A15.337,15.337,0,0,0,348.339,290.986Z" fill="#263238"/><path d="M417.4,265.165a2.143,2.143,0,0,1,.141.515l.3,1.494c.254,1.376.6,3.24,1.016,5.51.831,4.658,1.937,11.1,3.1,18.225s2.148,13.591,2.791,18.28c.324,2.344.554,4.246.7,5.562.054.611.1,1.113.134,1.519a2.121,2.121,0,0,1,.012.533,2.015,2.015,0,0,1-.116-.521c-.062-.4-.138-.9-.231-1.505-.215-1.382-.5-3.255-.859-5.535-.764-4.738-1.8-11.156-2.941-18.249s-2.181-13.508-2.947-18.247c-.351-2.282-.639-4.155-.852-5.538-.083-.608-.151-1.107-.207-1.51A2.023,2.023,0,0,1,417.4,265.165Z" fill="#263238"/><path d="M332.791,291.962a17.785,17.785,0,0,1,.171-2.786c.146-1.713.315-4.08.385-6.7s.023-4.993-.033-6.711a17.738,17.738,0,0,1-.025-2.791,12.828,12.828,0,0,1,.393,2.769,62.7,62.7,0,0,1-.354,13.472A12.838,12.838,0,0,1,332.791,291.962Z" fill="#263238"/><path d="M434.409,323.44c-.083.017-.231-.657-.706-1.634a8.571,8.571,0,0,0-6.5-4.812c-1.073-.169-1.761-.114-1.769-.2a3.636,3.636,0,0,1,1.812-.167,7.958,7.958,0,0,1,6.8,5.029A3.642,3.642,0,0,1,434.409,323.44Z" fill="#263238"/><path d="M428.917,326.392a13.788,13.788,0,0,0-6.047-5.583,7.942,7.942,0,0,1,6.047,5.583Z" fill="#263238"/><path d="M410.5,326.407c-.051-.14,2.788-1.3,6.24-2.828s6.223-2.847,6.291-2.714a51.444,51.444,0,0,1-12.531,5.542Z" fill="#263238"/><path d="M313.255,284.247s14.354,68.392,14.354,67.5c0-.816,72.465,3.108,85.435,3.678l2.7-.657L436.2,335.933l-23.532-1.9-8.416-48.121Z" fill="#e0e0e0"/><path d="M404.25,285.915c.142-.024,2.829,15.371,6,34.38s5.632,34.446,5.49,34.47-2.829-15.368-6-34.384S404.108,285.938,404.25,285.915Z" fill="#455a64"/><path d="M404.514,285.949a2.881,2.881,0,0,1-.519.512,13.707,13.707,0,0,0-1.495,1.422c-.251.335-.59.79-.412,1.271.141.55.215,1.132.337,1.766.225,1.274.478,2.713.757,4.3,1.092,6.426,2.586,15.208,4.235,24.91,1.592,9.716,3.032,18.507,4.086,24.94.491,3.152.891,5.722,1.179,7.567.122.855.22,1.54.295,2.062a3.8,3.8,0,0,1,.067.725,3.905,3.905,0,0,1-.171-.708l-.391-2.045-1.342-7.54c-1.093-6.427-2.586-15.209-4.237-24.915-1.591-9.712-3.031-18.5-4.084-24.935l-.681-4.311c-.107-.628-.172-1.238-.292-1.756a1.608,1.608,0,0,1,.5-1.459,11.235,11.235,0,0,1,1.584-1.373A5.622,5.622,0,0,1,404.514,285.949Z" fill="#455a64"/><path d="M401.864,288.444a5.8,5.8,0,0,1-.893.032l-2.56-.012L389,288.333l-31.054-.548-31.058-.519-9.412-.141-2.56-.056a5.792,5.792,0,0,1-.892-.055,5.674,5.674,0,0,1,.893-.05l2.559-.042c2.223-.03,5.44-.031,9.415-.024,7.95.024,18.933.149,31.065.367s23.106.476,31.052.7l9.411.3,2.557.11A5.807,5.807,0,0,1,401.864,288.444Z" fill="#455a64"/><path d="M412.607,335.983A7.282,7.282,0,0,1,414,335.97l3.8.152c3.217.15,7.681.392,12.667.693l.645.039-.492.419-.921.782c-4.018,3.413-7.675,6.48-10.338,8.68l-3.172,2.585a8.178,8.178,0,0,1-1.209.893,8.4,8.4,0,0,1,1.078-1.048l3.065-2.711c2.6-2.272,6.221-5.383,10.239-8.8l.921-.781.152.457c-4.985-.31-9.445-.613-12.657-.856l-3.793-.313A7.505,7.505,0,0,1,412.607,335.983Z" fill="#455a64"/><path d="M349.56,353.842h0l-.928-11.136a3.47,3.47,0,0,1,3.977,3.579v-6.894s4.243-.928,5.171,4.641a39.308,39.308,0,0,0,2.255,8.577l2.252,1.233-2.121-12.86s4.508.4,5.3,4.64a41.646,41.646,0,0,0,2,7.223l7.122,1.991s-4.088-3.645-3.69-4.838.133-1.119.928-1.289a7.547,7.547,0,0,1,3.8,1c1.3.69,8.8,5.127,8.8,5.127v5.5s-17.46,1.264-21.4.529l-7.637-1.768A8.091,8.091,0,0,1,349.56,353.842Z" fill="#ffbe9d"/><path d="M366.244,317.263a4.848,4.848,0,1,1-5.634-4.513A5.119,5.119,0,0,1,366.244,317.263Z" fill="#fafafa"/><g opacity="0.4"><path d="M425.52,316.514a12.951,12.951,0,0,1,9.094.273,9.323,9.323,0,0,1,5.525,6.984,4.436,4.436,0,0,1-.152,2.124,2.367,2.367,0,0,1-1.453,1.482,2.767,2.767,0,0,1-2.92-1.393,17.689,17.689,0,0,1-1.292-3.218,10.148,10.148,0,0,0-9.049-6.277l.473.128"/></g><path d="M372.917,230.539c.6-1.88.06-3.9-.271-5.847s-.375-4.167.948-5.63,3.494-1.636,5.452-1.721l24.207-1.052c1.651-.071,3.564-.031,4.6,1.258a3.55,3.55,0,0,1,.851,2.974c-1.244,4.61-.855,8.492.954,11.739" fill="#00aecd"/><path d="M405.713,228.229a7.064,7.064,0,0,1-1.059.891,28.233,28.233,0,0,1-3.188,2.015,31.24,31.24,0,0,1-11.858,3.619,27.97,27.97,0,0,1-6.865-.133A16.22,16.22,0,0,1,377.4,232.9a9.815,9.815,0,0,1-2.943-2.381,5.729,5.729,0,0,1-.594-.841c-.12-.2-.176-.312-.161-.322a11.9,11.9,0,0,0,3.87,3.218,16.624,16.624,0,0,0,5.241,1.578,28.979,28.979,0,0,0,6.744.088,33.115,33.115,0,0,0,11.737-3.426C404.112,229.381,405.654,228.145,405.713,228.229Z" fill="#263238"/><path d="M389.189,234.833a14.293,14.293,0,0,1-.629-2.666c-.322-1.658-.733-3.954-1.154-6.5-.2-1.262-.394-2.465-.573-3.588a6.414,6.414,0,0,1,.1-3.032,2.958,2.958,0,0,1,1.27-1.618c.438-.24.724-.228.726-.2.012.043-.25.1-.615.372a2.97,2.97,0,0,0-1.03,1.56,6.437,6.437,0,0,0,.023,2.845c.192,1.121.4,2.32.613,3.578.421,2.542.774,4.847,1,6.521A14.323,14.323,0,0,1,389.189,234.833Z" fill="#263238"/><path d="M401.77,231a9.717,9.717,0,0,1-.454-2.2c-.215-1.366-.476-3.258-.732-5.35-.273-2.081-.422-4.022-.618-5.341a2.019,2.019,0,0,0-.755-1.286c-.3-.209-.519-.226-.513-.269-.005-.026.237-.088.618.1a2.1,2.1,0,0,1,1.007,1.37c.306,1.4.5,3.266.778,5.367.256,2.093.459,3.992.58,5.369A9.53,9.53,0,0,1,401.77,231Z" fill="#263238"/><path d="M378.739,217.361a5.367,5.367,0,0,0-1.628,1.362,5.2,5.2,0,0,0-.89,2.092,10.812,10.812,0,0,0-.084,2.848c.187,2.056.361,3.938.446,5.294a9.377,9.377,0,0,1,.038,2.211,9.3,9.3,0,0,1-.4-2.174c-.179-1.353-.41-3.21-.6-5.292a10.214,10.214,0,0,1,.135-2.985,5.181,5.181,0,0,1,1.07-2.222A2.641,2.641,0,0,1,378.739,217.361Z" fill="#263238"/><path d="M280.057,364.754c0,5.142,2.981,103.842,2.981,103.842l-42.027-.212-7.345-43.868-1.934,43.868H191.418l4.377-108.337Z" fill="#455a64"/><path d="M156.242,323.882l-21.465-32L150.7,278.944l26.924,24.972S189.218,238.939,200.633,235l-.889,100.8h0A34.5,34.5,0,0,1,156.242,323.882Z" fill="#263238"/><path d="M112.3,173.195l4.565,62.3,74.778,143.341,43.228-25.039L161.177,213.707Z" fill="#00aecd"/><g opacity="0.7"><path d="M161.914,213.975a4.4,4.4,0,0,1-6.393,1.254,11.116,11.116,0,0,1-17.775,11.3,12.969,12.969,0,0,1-20.915,8.495L112.3,173.2Z" fill="#fff"/></g><path d="M114.133,198.248s10.133,6.362,18.19-8.455L112.3,173.2Z" fill="#00aecd"/><path d="M208.117,367.124c-.128.065-16.026-31.31-35.5-70.067-19.485-38.772-35.171-70.244-35.042-70.308s16.023,31.3,35.507,70.074S208.246,367.06,208.117,367.124Z" fill="#fff"/><path d="M226.091,356.369c-.129.064-16.027-31.31-35.505-70.068s-35.17-70.244-35.042-70.308,16.023,31.3,35.508,70.074S226.219,356.3,226.091,356.369Z" fill="#fff"/><path d="M138.173,256.651l-9.7,3.875-2.079,7.815,3.341,13.036,7.834,8.31,5.285-4.369.332-7.98.646-4.466s4.782-1.5,4.9-2.232-.593-3.185-1.327-3.3-5.749,1.749-5.749,1.749,5.937-4.7,5.771-5.454-.8-2.685-1.988-2.9-10.764,4.3-10.764,4.3l-1.555,3.546-1.357-5.671S140.277,260.521,138.173,256.651Z" fill="#b78876"/><path d="M139.393,274.975c-.057.018-.239-.336-.328-.966a5.262,5.262,0,0,1,1.664-4.5c.478-.42.846-.571.878-.52a7.428,7.428,0,0,0-2.214,5.982Z" fill="#aa6550"/><path d="M134.784,273.282a21.245,21.245,0,0,0,.384-2.542,11.062,11.062,0,0,1,.488-2.814,4.154,4.154,0,0,1,.893-1.5,4.435,4.435,0,0,1,1.585-1c2.32-.841,4.408-1.522,5.937-2.016a13.364,13.364,0,0,1,2.505-.69,13.269,13.269,0,0,1-2.388,1.024c-1.489.576-3.591,1.322-5.866,2.147a4.039,4.039,0,0,0-1.421.874,3.8,3.8,0,0,0-.812,1.32,12.237,12.237,0,0,0-.569,2.7A5.212,5.212,0,0,1,134.784,273.282Z" fill="#aa6550"/><path d="M132.558,271.529c-.136-.023-.108-.879.062-1.912s.42-1.854.556-1.831.109.879-.062,1.912S132.7,271.552,132.558,271.529Z" fill="#aa6550"/><path d="M263.7,216.37l-8.5-2.891-31.779,7.295-2.815,2.332L203.776,378.834c7.225,7.449,30,8.927,42.932,6.722Z" fill="#00aecd"/><path d="M264.292,216.665l-4.089-2.044s-9,39.643-9,65.827-5.657,121.109-5.657,121.109l42.871-1.1V295.59Z" fill="#263238"/><path d="M203.776,403.145l-16.242-4.757,5.667-76.747-1.075-55.634L200.633,235l20.161-12.457S204.886,393.9,203.776,403.145Z" fill="#263238"/><path d="M237.657,235.53h0A15.649,15.649,0,0,1,223.4,219.883l.052-13.925s-12.865-2-13.024-14.863,2.072-42.4,2.072-42.4h0a44.7,44.7,0,0,1,44.919,5.647l1.906,1.467-4.665,65.248A15.649,15.649,0,0,1,237.657,235.53Z" fill="#b78876"/><path d="M223.427,205.772a29.906,29.906,0,0,0,16.769-4.765s-3.964,9.257-16.8,8.1Z" fill="#aa6550"/><path d="M257.736,169.133c.219-.1,8.838-2.614,8.557,6.18s-9.052,6.7-9.059,6.445S257.736,169.133,257.736,169.133Z" fill="#b78876"/><path d="M260.027,178.512c.039-.026.15.113.4.24a1.534,1.534,0,0,0,1.144.06c.94-.312,1.769-1.762,1.863-3.345a5.066,5.066,0,0,0-.359-2.207,1.771,1.771,0,0,0-1.115-1.213.78.78,0,0,0-.917.391c-.126.242-.076.42-.123.433-.025.021-.184-.153-.1-.514a.985.985,0,0,1,.364-.54,1.155,1.155,0,0,1,.854-.2,2.155,2.155,0,0,1,1.557,1.415,5.2,5.2,0,0,1,.453,2.468c-.113,1.77-1.073,3.4-2.356,3.726a1.641,1.641,0,0,1-1.394-.278C260.036,178.726,260,178.527,260.027,178.512Z" fill="#aa6550"/><path d="M216.713,168.487a1.836,1.836,0,0,0,1.771,1.853,1.758,1.758,0,0,0,1.894-1.656,1.839,1.839,0,0,0-1.77-1.855A1.759,1.759,0,0,0,216.713,168.487Z" fill="#263238"/><path d="M214.93,166.791c.227.239,1.619-.791,3.6-.785,1.974-.024,3.425.993,3.639.751.106-.107-.126-.539-.758-1a5.04,5.04,0,0,0-2.913-.9,4.844,4.844,0,0,0-2.863.924C215.023,166.25,214.818,166.683,214.93,166.791Z" fill="#263238"/><path d="M236.143,169.32a1.837,1.837,0,0,0,1.771,1.853,1.757,1.757,0,0,0,1.894-1.656,1.837,1.837,0,0,0-1.77-1.854A1.757,1.757,0,0,0,236.143,169.32Z" fill="#263238"/><path d="M234.359,167.159c.228.24,1.622-.79,3.6-.785,1.974-.023,3.425.994,3.64.752.105-.107-.125-.539-.759-1a5.04,5.04,0,0,0-2.913-.9,4.844,4.844,0,0,0-2.863.924C234.455,166.619,234.248,167.052,234.359,167.159Z" fill="#263238"/><path d="M227.186,181.819a13.057,13.057,0,0,0-3.211-.58c-.5-.052-.982-.152-1.067-.5a2.568,2.568,0,0,1,.337-1.5l1.492-3.843c2.073-5.472,3.574-9.972,3.353-10.054s-2.081,4.288-4.154,9.761q-.749,2.023-1.43,3.866a2.92,2.92,0,0,0-.261,1.981,1.265,1.265,0,0,0,.829.738,3.42,3.42,0,0,0,.858.119A12.891,12.891,0,0,0,227.186,181.819Z" fill="#263238"/><path d="M233.849,159.413c.2.537,2.169.283,4.488.562,2.325.233,4.195.912,4.5.43.137-.23-.188-.736-.945-1.256a7.856,7.856,0,0,0-6.849-.756C234.194,158.736,233.765,159.158,233.849,159.413Z" fill="#263238"/><path d="M215.656,161.07c.348.449,1.71-.017,3.347-.039,1.637-.079,3.024.3,3.343-.168.14-.228-.078-.678-.684-1.1a4.848,4.848,0,0,0-5.39.167C215.693,160.388,215.5,160.851,215.656,161.07Z" fill="#263238"/><path d="M206.229,140.576a4.749,4.749,0,0,1,1.753-4.243,3.369,3.369,0,0,1,4.364.327,3.931,3.931,0,0,1,3.379-4.767c2.1-.133,3.887,1.452,5.914,2.008a9.554,9.554,0,0,0,6.006-.694c1.9-.766,3.682-1.824,5.609-2.528a16.449,16.449,0,0,1,21.038,9.658c2.813-.879,6.009.55,7.744,2.932a11.983,11.983,0,0,1,1.834,8.44,26.809,26.809,0,0,1-1.47,5.771c0,.166.016.328.013.494-.133,7.073-.932,15.379-3.95,15.425-5.259.081-4.006-9.828-4.006-9.828-6.455-2.494-4.05-12.165-5.664-13.632s-4.99-4.876-18.5,2.031c-5.247,2.682-12.224,2.6-16.033,1.734-.112-.024-.225-.041-.336-.068-.024-.006-.055-.01-.079-.016-.041-.011-.071-.034-.111-.045a12.2,12.2,0,0,1-3.466-1.471,6.846,6.846,0,0,1-2.856-3.175,3.75,3.75,0,0,1,.737-4.026A8.252,8.252,0,0,1,206.229,140.576Z" fill="#263238"/><path d="M225.508,187.9a8.826,8.826,0,0,0,1.147,2.247,2.982,2.982,0,0,0,2.121,1.231,2.676,2.676,0,0,0,2.265-1.235,4.274,4.274,0,0,0,.632-2.576c-.037-.812-.409-1.781-1.216-1.877a2.044,2.044,0,0,0-.98.217l-4.243,1.721" fill="#aa6550"/><path d="M227.2,191.39a6.142,6.142,0,0,0,2.263-.28,3.228,3.228,0,0,0,1.71-1.554,3.406,3.406,0,0,0,.056-2.776,3.021,3.021,0,0,0-.37-.634c-.168-.176-.137-.168-.32-.141-.173.046-.452.178-.68.267l-.7.283c-.908.368-1.73.689-2.424.948a7.748,7.748,0,0,1-2.311.7,7.752,7.752,0,0,1,2.1-1.188c.668-.323,1.468-.7,2.361-1.1l.687-.308a7.623,7.623,0,0,1,.775-.319.989.989,0,0,1,.629.018,1.166,1.166,0,0,1,.468.37,3.635,3.635,0,0,1,.477.8,3.977,3.977,0,0,1-.129,3.394,3.627,3.627,0,0,1-2.154,1.741,3.427,3.427,0,0,1-1.838.072C227.384,191.575,227.186,191.432,227.2,191.39Z" fill="#263238"/><path d="M249.219,148.74a7.784,7.784,0,0,0,.007-1.557,6.077,6.077,0,0,0-2.011-3.612,8.184,8.184,0,0,0-5.791-1.913,25.222,25.222,0,0,0-7.524,1.683c-1.314.433-2.61.846-3.895,1.13a20.158,20.158,0,0,1-3.761.457,20.417,20.417,0,0,1-6.337-.833,19.722,19.722,0,0,1-3.966-1.682c-.445-.246-.775-.463-1-.615a1.632,1.632,0,0,1-.327-.245c.021-.033.491.275,1.393.73a21.832,21.832,0,0,0,3.97,1.555,20.833,20.833,0,0,0,6.252.741,20.209,20.209,0,0,0,3.691-.47c1.263-.284,2.544-.695,3.857-1.128a24.911,24.911,0,0,1,7.639-1.672,8.387,8.387,0,0,1,5.977,2.065,6.081,6.081,0,0,1,1.975,3.792A3.552,3.552,0,0,1,249.219,148.74Z" fill="#455a64"/><path d="M259.22,170.478a1.093,1.093,0,0,1-.169-.271c-.1-.182-.237-.458-.4-.82a16.523,16.523,0,0,1-1.024-3.2,17.621,17.621,0,0,1-.332-4.972,44.3,44.3,0,0,1,1.148-5.976,11.708,11.708,0,0,0,.012-5.911,5.974,5.974,0,0,0-1.233-2.241,4.513,4.513,0,0,0-1.848-1.212,4.219,4.219,0,0,0-3.174.081,6.177,6.177,0,0,0-.988.692,2.462,2.462,0,0,1,.92-.823,4.272,4.272,0,0,1,3.328-.2,4.736,4.736,0,0,1,1.995,1.255,6.23,6.23,0,0,1,1.333,2.347,11.847,11.847,0,0,1,.026,6.093,47.587,47.587,0,0,0-1.171,5.927,18.252,18.252,0,0,0,.246,4.891,19.161,19.161,0,0,0,.9,3.2A11.581,11.581,0,0,1,259.22,170.478Z" fill="#455a64"/><path d="M250.454,147.7a2.748,2.748,0,0,1,.005-.517c.014-.375.033-.864.055-1.475a17.075,17.075,0,0,0-.594-5.342,9.442,9.442,0,0,0-1.718-3.244,6.64,6.64,0,0,0-3.449-2.279,8.713,8.713,0,0,0-4.6.189,21.3,21.3,0,0,0-4.6,2.086,37.946,37.946,0,0,1-4.564,2.348,13.936,13.936,0,0,1-4.7.945,14.875,14.875,0,0,1-4.308-.529,16.633,16.633,0,0,1-3.495-1.44,14.278,14.278,0,0,1-4.138-3.532,8.964,8.964,0,0,1-.839-1.223,2.652,2.652,0,0,1-.249-.452,2.629,2.629,0,0,1,.313.411,11.244,11.244,0,0,0,.889,1.171,14.816,14.816,0,0,0,4.154,3.391,16.739,16.739,0,0,0,3.447,1.371,14.7,14.7,0,0,0,4.216.483,13.739,13.739,0,0,0,4.577-.94,38.515,38.515,0,0,0,4.515-2.334,21.4,21.4,0,0,1,4.688-2.113,9.019,9.019,0,0,1,4.795-.169,6.936,6.936,0,0,1,3.6,2.417,9.621,9.621,0,0,1,1.732,3.367,16.348,16.348,0,0,1,.485,5.424c-.038.643-.088,1.139-.127,1.476A2.609,2.609,0,0,1,250.454,147.7Z" fill="#455a64"/><path d="M264.292,216.665s30.671,9.815,32.715,15.131c1.534,3.987,17.649,52.362,21.126,83.891a23.154,23.154,0,0,1-20.967,25.494c-20.766,1.908-50.919,4.385-50.919,2.678V317.713l39.059-5.766-14.471-42.529Z" fill="#263238"/><path d="M224.925,338.575c4.006,1.039,21.322,1.039,21.322,1.039V319.075s-7.534-3.219-9.614-5.091-7.987-12.919-7.987-12.919a5.92,5.92,0,0,0-2.717,6.323c.971,4.511,2.838,5.06,2.965,6.857,0,.019.155.462.158.481.4,2.5-1.989,4.709-1.989,4.709a8.725,8.725,0,0,0-2.629-1.345c-3.647-.431-7.972,2.182-7.972,3.64,0,0-.126,3.933,0,4.516s1.973,1.361,1.973,1.361-.584,2.624,0,3.791a6.134,6.134,0,0,0,2.527,2.041S222.667,337.99,224.925,338.575Z" fill="#b78876"/><path d="M229.126,335.282a13.026,13.026,0,0,1-8.06-1.762c.062-.14,1.782.55,4,1.027S229.127,335.128,229.126,335.282Z" fill="#aa6550"/><path d="M228.11,329.127a12.816,12.816,0,0,1-9.222-1.233c.06-.146,2.018.638,4.565.967C226,329.212,228.091,328.97,228.11,329.127Z" fill="#aa6550"/><path d="M227.512,311.49a7.841,7.841,0,0,1,1.392,2.541,9.4,9.4,0,0,1,.443,1.416,3.4,3.4,0,0,1-.018,1.757,5.2,5.2,0,0,1-2.479,3.033,6.453,6.453,0,0,1-1.912.753,11.6,11.6,0,0,1-1.873.193c-1.185.041-2.241.022-3.126.044-1.773.009-2.832.264-2.855.2a6.932,6.932,0,0,1,2.838-.564c.892-.069,1.954-.088,3.119-.156a11.887,11.887,0,0,0,1.79-.212,6.151,6.151,0,0,0,1.755-.7,4.843,4.843,0,0,0,2.281-2.715,3,3,0,0,0,.056-1.542,10.149,10.149,0,0,0-.365-1.375C227.993,312.488,227.443,311.529,227.512,311.49Z" fill="#aa6550"/><path d="M285.794,311.882a10.5,10.5,0,0,1-1.539.326l-4.224.723c-3.569.59-8.505,1.371-13.963,2.2s-10.408,1.536-13.995,2.009a36.208,36.208,0,0,1-5.826.577l1.544-.263,4.229-.679,13.97-2.159c5.457-.824,10.4-1.549,13.986-2.045l4.249-.56A8.053,8.053,0,0,1,285.794,311.882Z" fill="#455a64"/><path d="M302.376,308.007a17.931,17.931,0,0,1-3.079-.026c-1.9-.082-4.517-.232-7.408-.429a14.386,14.386,0,0,0-4,.045,4.025,4.025,0,0,0-2.6,1.651,2.808,2.808,0,0,0-.367,2.048c.118.5.309.735.271.761-.017.018-.272-.178-.466-.705a2.883,2.883,0,0,1,.244-2.29,4.306,4.306,0,0,1,2.811-1.933,13.8,13.8,0,0,1,4.141-.1c2.89.2,5.506.4,7.4.581A17.962,17.962,0,0,1,302.376,308.007Z" fill="#455a64"/><path d="M295.945,315.173a63.032,63.032,0,0,1-10.981-3.248,62.97,62.97,0,0,1,10.981,3.248Z" fill="#455a64"/><path d="M271.716,264.011c.138-.042,3.288,9.9,7.036,22.207s6.676,22.32,6.538,22.362-3.287-9.9-7.036-22.21S271.579,264.052,271.716,264.011Z" fill="#455a64"/><path d="M294.618,232.54c.021.1-1.8.371-4.529,1.428a26.969,26.969,0,0,0-15.606,15.715c-1.037,2.741-1.3,4.56-1.4,4.539a5.385,5.385,0,0,1,.149-1.277,22.823,22.823,0,0,1,.9-3.388,25.861,25.861,0,0,1,15.824-15.934,22.787,22.787,0,0,1,3.381-.925A5.365,5.365,0,0,1,294.618,232.54Z" fill="#455a64"/><path d="M192.537,253.873a3.543,3.543,0,0,1,.058.695c.017.508.04,1.17.067,1.994.037,1.792.087,4.282.149,7.332.076,6.245.179,14.771.294,24.191.055,9.423.105,17.951.141,24.2-.007,3.05-.012,5.54-.017,7.333l-.031,1.994a3.427,3.427,0,0,1-.046.7,3.545,3.545,0,0,1-.058-.7c-.017-.508-.04-1.169-.067-1.993-.037-1.792-.087-4.281-.149-7.331-.076-6.246-.179-14.773-.294-24.2-.055-9.42-.1-17.947-.141-24.192.007-3.051.012-5.541.016-7.333.013-.824.024-1.486.031-1.994A3.45,3.45,0,0,1,192.537,253.873Z" fill="#455a64"/><path d="M240.891,467.078a4.2,4.2,0,0,1-.207-.749c-.124-.545-.289-1.267-.5-2.171-.421-1.888-1-4.626-1.677-8.015-1.365-6.778-3.11-16.171-4.776-26.589s-2.929-19.893-3.744-26.759c-.408-3.433-.715-6.214-.9-8.138l-.207-2.217a4.324,4.324,0,0,1-.036-.777,4.461,4.461,0,0,1,.141.765q.114.829.3,2.2c.259,1.971.622,4.73,1.066,8.115.908,6.852,2.232,16.308,3.893,26.723s3.352,19.809,4.623,26.6l1.515,8.044q.249,1.368.4,2.19A4.429,4.429,0,0,1,240.891,467.078Z" fill="#263238"/><path d="M297.166,341.181c.01.143-11.266,1-25.181,1.92s-25.209,1.545-25.218,1.4,11.263-1,25.183-1.921S297.157,341.037,297.166,341.181Z" fill="#455a64"/><path d="M93.4,441.187a2.9,2.9,0,0,1,.192-.461l.619-1.319a33.155,33.155,0,0,0,1.818-5.282c1.2-4.7,1.623-11.874-.155-20.4a109.526,109.526,0,0,0-3.783-13.7c-1.6-4.863-3.461-10.022-4.98-15.6a60.362,60.362,0,0,1-2.46-17.935c.231-6.345,2.109-12.677,4.174-18.98s4.193-12.484,4.832-18.692a28.481,28.481,0,0,0-3.427-17.262c-2.734-5.037-6.173-9.345-8.748-13.807a48,48,0,0,1-5.257-13.274,49.406,49.406,0,0,1-.333-20.564,38.312,38.312,0,0,1,2.145-7.262,2.7,2.7,0,0,1-.127.482l-.434,1.392a52.818,52.818,0,0,0-1.334,5.436,50.084,50.084,0,0,0,.533,20.41,47.852,47.852,0,0,0,5.276,13.105c2.568,4.409,6.023,8.7,8.811,13.8a29.063,29.063,0,0,1,3.534,17.613c-.643,6.312-2.791,12.524-4.848,18.83s-3.921,12.564-4.155,18.8a60.046,60.046,0,0,0,2.4,17.753c1.494,5.55,3.332,10.71,4.914,15.587a108.234,108.234,0,0,1,3.722,13.782c1.731,8.588,1.237,15.837-.053,20.55a30.51,30.51,0,0,1-1.946,5.274c-.286.547-.511.976-.679,1.295A2.7,2.7,0,0,1,93.4,441.187Z" fill="#263238"/><path d="M84.976,302.153s-5.227-16.715,4.149-26.5a.58.58,0,0,1,.994.287C90.619,278.7,91.245,287.106,84.976,302.153Z" fill="#00aecd"/><path d="M88.107,281.22a15.281,15.281,0,0,1-.352,3.084c-.343,2.124-.746,4.618-1.192,7.372s-.833,5.249-1.17,7.373a16.859,16.859,0,0,1-.554,3.051,12.976,12.976,0,0,1,.094-3.107c.173-1.91.509-4.538.983-7.422s.975-5.481,1.384-7.352A14.005,14.005,0,0,1,88.107,281.22Z" fill="#263238"/><path d="M91.116,341.576s3.2-17.219,16.062-21.485a.579.579,0,0,1,.743.718C107.073,323.484,103.694,331.208,91.116,341.576Z" fill="#00aecd"/><path d="M103.673,324.538a15.387,15.387,0,0,1-1.753,2.561l-4.5,5.959-4.482,5.969a16.845,16.845,0,0,1-1.916,2.438,12.909,12.909,0,0,1,1.536-2.7c1.046-1.608,2.572-3.773,4.34-6.1s3.425-4.389,4.661-5.852A13.948,13.948,0,0,1,103.673,324.538Z" fill="#263238"/><path d="M87.639,384.773s-1.942-17.4,9.13-25.223a.579.579,0,0,1,.92.471C97.654,362.826,96.664,371.2,87.639,384.773Z" fill="#00aecd"/><path d="M94.707,364.823a15.325,15.325,0,0,1-.934,2.96L91.2,374.792l-2.555,7.014a16.863,16.863,0,0,1-1.125,2.889,12.922,12.922,0,0,1,.684-3.032c.534-1.842,1.366-4.356,2.381-7.1s2-5.2,2.761-6.953A13.935,13.935,0,0,1,94.707,364.823Z" fill="#263238"/><path d="M97.331,428.224s-1.318-17.464,10.026-24.881a.58.58,0,0,1,.9.5C108.125,406.649,106.836,414.981,97.331,428.224Z" fill="#00aecd"/><path d="M105.108,408.539a15.447,15.447,0,0,1-1.039,2.924l-2.827,6.913-2.8,6.918a16.807,16.807,0,0,1-1.229,2.847A12.937,12.937,0,0,1,98,425.135c.6-1.821,1.521-4.3,2.634-7.007s2.187-5.119,3.008-6.85A13.9,13.9,0,0,1,105.108,408.539Z" fill="#263238"/><path d="M77.464,287.467S61.94,279.36,61.635,265.809a.58.58,0,0,1,.906-.5C64.848,266.9,71.241,272.4,77.464,287.467Z" fill="#00aecd"/><path d="M64.859,270.464a15.386,15.386,0,0,1,1.934,2.428l4.376,6.051,4.392,6.036a16.849,16.849,0,0,1,1.769,2.547,12.894,12.894,0,0,1-2.133-2.261c-1.23-1.471-2.852-3.566-4.559-5.938s-3.191-4.562-4.227-6.173A13.949,13.949,0,0,1,64.859,270.464Z" fill="#263238"/><path d="M94.133,323.364s-15.987-7.149-17.114-20.656a.579.579,0,0,1,.873-.554C80.292,303.606,87.007,308.7,94.133,323.364Z" fill="#00aecd"/><path d="M80.519,307.158a15.452,15.452,0,0,1,2.078,2.306l4.736,5.775L92.083,321A16.813,16.813,0,0,1,94,323.431a12.829,12.829,0,0,1-2.266-2.127c-1.317-1.394-3.064-3.386-4.911-5.651s-3.462-4.359-4.594-5.9A13.928,13.928,0,0,1,80.519,307.158Z" fill="#263238"/><path d="M84.934,363.406s-10.977-13.647-5.828-26.184a.58.58,0,0,1,1.03-.1C81.611,339.512,85.267,347.108,84.934,363.406Z" fill="#00aecd"/><path d="M80.195,342.778a15.368,15.368,0,0,1,.8,3c.457,2.1.993,4.571,1.586,7.3s1.143,5.189,1.606,7.289a16.818,16.818,0,0,1,.6,3.042,12.945,12.945,0,0,1-1.049-2.926c-.538-1.841-1.185-4.41-1.8-7.267s-1.1-5.458-1.4-7.349A13.943,13.943,0,0,1,80.195,342.778Z" fill="#263238"/><path d="M95.808,410.526s-15.866-7.417-16.765-20.941a.579.579,0,0,1,.882-.54C82.3,390.538,88.929,395.747,95.808,410.526Z" fill="#00aecd"/><path d="M82.468,394.094a15.354,15.354,0,0,1,2.039,2.34c1.336,1.686,2.9,3.666,4.638,5.853s3.312,4.155,4.652,5.837a16.759,16.759,0,0,1,1.879,2.467,12.956,12.956,0,0,1-2.23-2.165c-1.293-1.416-3.006-3.437-4.815-5.733s-3.389-4.416-4.494-5.98A13.949,13.949,0,0,1,82.468,394.094Z" fill="#263238"/><path d="M127.408,341.669a1.3,1.3,0,0,1,.021.386c-.008.3-.017.673-.028,1.12-.047,1.052-.11,2.473-.188,4.246-.2,3.734-.49,8.939-.831,15.165v.015l0,.021c-1.133,6.338-4.36,13.362-8.7,20.181-3.18,5.024-6.513,9.591-9.388,13.839a97.952,97.952,0,0,0-7.039,11.636,49.243,49.243,0,0,0-3.293,8.538c-.279,1.046-.489,1.862-.61,2.421a4.289,4.289,0,0,1-.232.843,4.416,4.416,0,0,1,.1-.869c.079-.568.249-1.4.492-2.459a45.063,45.063,0,0,1,3.123-8.676,92.829,92.829,0,0,1,6.955-11.771c2.856-4.278,6.171-8.853,9.335-13.851,4.313-6.786,7.523-13.7,8.7-19.939l0,.036c.438-6.22.8-11.421,1.065-15.15.143-1.77.258-3.187.343-4.237.044-.445.081-.811.112-1.114A1.374,1.374,0,0,1,127.408,341.669Z" fill="#263238"/><path d="M117.962,381.5s6.719-16.173-1.733-26.769a.58.58,0,0,0-1.016.2C114.465,357.631,113.081,365.947,117.962,381.5Z" fill="#00aecd"/><path d="M116.738,360.37a13.905,13.905,0,0,1,.533,3.06c.238,1.9.5,4.532.712,7.447s.308,5.562.308,7.48a12.92,12.92,0,0,1-.188,3.1,16.778,16.778,0,0,1-.275-3.088c-.144-2.146-.312-4.664-.5-7.448s-.37-5.3-.52-7.45A15.4,15.4,0,0,1,116.738,360.37Z" fill="#263238"/><g opacity="0.3"><path d="M117.962,381.5s6.719-16.173-1.733-26.769a.58.58,0,0,0-1.016.2C114.465,357.631,113.081,365.947,117.962,381.5Z"/></g><path d="M97.151,420.474s5.385-16.665-3.9-26.54a.579.579,0,0,0-1,.277C91.73,396.967,91.024,405.368,97.151,420.474Z" fill="#00aecd"/><path d="M94.218,399.513A13.967,13.967,0,0,1,95,402.519c.391,1.875.87,4.477,1.314,7.365s.758,5.519.913,7.43a13.017,13.017,0,0,1,.064,3.108,16.825,16.825,0,0,1-.525-3.056l-1.1-7.383c-.419-2.759-.8-5.256-1.122-7.383A15.317,15.317,0,0,1,94.218,399.513Z" fill="#263238"/><g opacity="0.3"><path d="M97.151,420.474s5.385-16.665-3.9-26.54a.579.579,0,0,0-1,.277C91.73,396.967,91.024,405.368,97.151,420.474Z"/></g><path d="M126.519,361.735s14.347-10.044,12.9-23.52a.58.58,0,0,0-.962-.38C136.374,339.715,130.744,345.991,126.519,361.735Z" fill="#00aecd"/><g opacity="0.3"><path d="M126.519,361.735s14.347-10.044,12.9-23.52a.58.58,0,0,0-.962-.38C136.374,339.715,130.744,345.991,126.519,361.735Z"/></g><path d="M136.823,343.247a13.943,13.943,0,0,1-1.193,2.868c-.818,1.731-2.006,4.1-3.394,6.666s-2.724,4.859-3.753,6.477a13.048,13.048,0,0,1-1.823,2.518,16.694,16.694,0,0,1,1.424-2.754l3.576-6.552,3.558-6.566A15.378,15.378,0,0,1,136.823,343.247Z" fill="#263238"/><path d="M102.936,403.952s17.3-2.7,21.94-15.434a.58.58,0,0,0-.7-.764C121.482,388.524,113.663,391.679,102.936,403.952Z" fill="#00aecd"/><g opacity="0.3"><path d="M102.936,403.952s17.3-2.7,21.94-15.434a.58.58,0,0,0-.7-.764C121.482,388.524,113.663,391.679,102.936,403.952Z"/></g><path d="M120.329,391.893A13.98,13.98,0,0,1,118,393.942c-1.5,1.194-3.605,2.793-5.984,4.491s-4.586,3.162-6.222,4.162a12.908,12.908,0,0,1-2.746,1.456,16.875,16.875,0,0,1,2.492-1.844l6.1-4.308,6.087-4.328A15.353,15.353,0,0,1,120.329,391.893Z" fill="#263238"/><path d="M82.462,435.8l4.962,32.557,19.822-.034,6.678-32.523Z" fill="#455a64"/><path d="M111.02,448.358c.005.008-.051.049-.166.121a5.974,5.974,0,0,1-.522.3,7.247,7.247,0,0,1-2.216.661,8.162,8.162,0,0,1-3.645-.342,7.636,7.636,0,0,1-3.919-2.846,5.522,5.522,0,0,1-.918-2.724,2.966,2.966,0,0,1,1.344-2.8A3.208,3.208,0,0,1,104.3,441a4.842,4.842,0,0,1,1.9,2.99,12.7,12.7,0,0,1,.247,3.677,12.179,12.179,0,0,1-.8,3.76,8.3,8.3,0,0,1-2.3,3.278,6.411,6.411,0,0,1-3.815,1.593,7,7,0,0,1-3.967-1.152,11.877,11.877,0,0,1-2.96-2.676,6.494,6.494,0,0,1-1.5-3.577,4.142,4.142,0,0,1,1.407-3.448,3.224,3.224,0,0,1,3.512-.215,3.76,3.76,0,0,1,2.027,2.654,5.1,5.1,0,0,1-2.507,5.154,7.008,7.008,0,0,1-4.785.692,10.918,10.918,0,0,1-3.41-1.335,18.006,18.006,0,0,1-1.909-1.293,3.925,3.925,0,0,1-.612-.52,4.925,4.925,0,0,1,.676.431c.437.29,1.077.725,1.949,1.2a11.006,11.006,0,0,0,3.359,1.22,6.721,6.721,0,0,0,4.536-.723,4.7,4.7,0,0,0,2.26-4.736,3.3,3.3,0,0,0-1.8-2.315,2.735,2.735,0,0,0-2.984.181,3.648,3.648,0,0,0-1.2,3.029,6,6,0,0,0,1.4,3.276,11.4,11.4,0,0,0,2.826,2.544,6.469,6.469,0,0,0,3.658,1.069,5.883,5.883,0,0,0,3.488-1.462,7.772,7.772,0,0,0,2.155-3.065,11.7,11.7,0,0,0,.78-3.6,12.27,12.27,0,0,0-.216-3.525,4.379,4.379,0,0,0-1.677-2.711,2.758,2.758,0,0,0-2.831-.28,2.535,2.535,0,0,0-1.15,2.392,5.144,5.144,0,0,0,.821,2.529,7.371,7.371,0,0,0,3.695,2.769,8.125,8.125,0,0,0,3.522.42A9.219,9.219,0,0,0,111.02,448.358Z" fill="#263238"/><path d="M622.542,441c-7.845-4.548-12.042-15.129-12.355-23.788s3.293-17.694,10.394-22.659c7.481-5.229,18.134-5.135,25.82-.213s12.188,14.212,11.841,23.333a30.942,30.942,0,0,1-12.672,23.238" fill="#00aecd"/><path d="M635.063,441.834a10.252,10.252,0,0,1-.145-1.981c-.04-1.417-.092-3.23-.153-5.4-.117-4.56-.3-10.857-.6-17.808s-.681-13.242-.965-17.8c-.13-2.168-.238-3.979-.322-5.393a10.2,10.2,0,0,1-.029-1.986,10.406,10.406,0,0,1,.314,1.961c.156,1.268.347,3.105.555,5.378.417,4.547.874,10.84,1.182,17.8s.4,13.268.385,17.833c-.007,2.283-.036,4.131-.08,5.407A10.29,10.29,0,0,1,635.063,441.834Z" fill="#fff"/><path d="M612.508,415.248c-.017.2-1.268.265-2.794.14s-2.751-.391-2.735-.594,1.268-.264,2.795-.139S612.525,415.046,612.508,415.248Z" fill="#263238"/><path d="M612.937,407.479c-.083.186-1.162-.113-2.411-.667s-2.194-1.154-2.112-1.339,1.161.113,2.411.667S613.019,407.293,612.937,407.479Z" fill="#263238"/><path d="M616.935,401.711c-.1.169-1.319-.4-2.58-1.449s-2.052-2.129-1.906-2.264,1.151.688,2.375,1.7S617.046,401.536,616.935,401.711Z" fill="#263238"/><path d="M620.955,396.27c-.185.082-.767-.826-1.3-2.029s-.812-2.245-.626-2.327.767.827,1.3,2.03S621.141,396.188,620.955,396.27Z" fill="#263238"/><path d="M627.263,392.409c-.181.085-.807-.882-1.222-2.223s-.452-2.492-.256-2.524.554,1.017.958,2.306S627.45,392.323,627.263,392.409Z" fill="#263238"/><path d="M637.789,388.057c.191.068.074.894-.261,1.845s-.763,1.667-.955,1.6-.074-.894.261-1.845S637.6,387.99,637.789,388.057Z" fill="#263238"/><path d="M645.6,391.408c.138.149-.363.836-1.118,1.535s-1.48,1.145-1.618,1,.363-.836,1.119-1.535S645.458,391.259,645.6,391.408Z" fill="#263238"/><path d="M652.47,395.845c.114.169-.5.781-1.364,1.369s-1.663.927-1.776.759.5-.78,1.364-1.368S652.356,395.677,652.47,395.845Z" fill="#263238"/><path d="M657.35,402.464c.08.187-.883.777-2.15,1.317s-2.358.827-2.438.64.883-.776,2.15-1.316S657.271,402.278,657.35,402.464Z" fill="#263238"/><path d="M659.272,409.682c.025.2-.954.488-2.187.641s-2.253.113-2.278-.088.955-.489,2.188-.641S659.247,409.48,659.272,409.682Z" fill="#263238"/><path d="M660.272,418.567c-.081.186-1.124-.088-2.33-.612s-2.118-1.1-2.037-1.287,1.124.088,2.33.612S660.353,418.381,660.272,418.567Z" fill="#263238"/><path d="M659.392,426.191c-.065.185-1.384-.129-2.762-1.035s-2.2-1.981-2.056-2.114,1.151.651,2.458,1.5S659.466,425.995,659.392,426.191Z" fill="#263238"/><path d="M655.422,433.132c-.121.157-1.171-.459-2.179-1.548s-1.549-2.178-1.383-2.287.953.749,1.922,1.787S655.551,432.97,655.422,433.132Z" fill="#263238"/><path d="M617.729,433.947c.094.18-1.009.94-2.463,1.7s-2.708,1.225-2.8,1.045,1.008-.94,2.463-1.7S617.635,433.767,617.729,433.947Z" fill="#263238"/><path d="M614.286,427.669c.084.185-.8.766-1.975,1.3s-2.195.814-2.278.629.8-.766,1.975-1.3S614.2,427.484,614.286,427.669Z" fill="#263238"/><path d="M611.755,422.109c.028.2-1.06.521-2.431.716s-2.505.189-2.534-.012,1.06-.522,2.431-.716S611.726,421.908,611.755,422.109Z" fill="#263238"/><path d="M620.056,419.044c.061.189-1,.685-2.417.842s-2.561-.084-2.545-.281,1.122-.294,2.462-.45S620,418.845,620.056,419.044Z" fill="#263238"/><path d="M626.953,412.182c.06.189-.785.617-1.925.727s-2.052-.141-2.03-.338.9-.286,1.958-.394S626.893,411.983,626.953,412.182Z" fill="#263238"/><path d="M628.271,406.685c-.067.192-.981.05-2.043-.317s-1.869-.82-1.8-1.012.981-.05,2.043.317S628.337,406.493,628.271,406.685Z" fill="#263238"/><path d="M630.8,401.126c-.141.14-.77-.274-1.218-1.053s-.494-1.529-.3-1.581.537.524.939,1.214S630.948,400.983,630.8,401.126Z" fill="#263238"/><path d="M627.751,423.885c.048.2-.744.56-1.769.811a6.825,6.825,0,0,1-1.486.219l-.145-.429c.265-.048.436-.037.471.041s-.074.212-.289.375l-.145-.429a6.725,6.725,0,0,1,1.42-.491C626.833,423.731,627.7,423.688,627.751,423.885Z" fill="#263238"/><path d="M629.172,433.63c.074.189-.936.763-2.255,1.282s-2.451.786-2.525.6.936-.763,2.256-1.282S629.1,433.441,629.172,433.63Z" fill="#263238"/><path d="M621.381,429.3c.066.193-.608.6-1.5.9s-1.676.4-1.741.205.608-.6,1.5-.9S621.316,429.109,621.381,429.3Z" fill="#263238"/><path d="M621.977,409.464c-.046.194-1.219.078-2.574-.4s-2.34-1.126-2.254-1.307,1.183.15,2.5.614S622.026,409.264,621.977,409.464Z" fill="#263238"/><path d="M640.829,407.307c.112.17-.548.8-1.474,1.413s-1.768.969-1.88.8.549-.8,1.475-1.412S640.718,407.138,640.829,407.307Z" fill="#263238"/><path d="M641.854,417.094c.042.2-.652.511-1.549.7s-1.658.176-1.7-.023.653-.511,1.55-.7S641.813,416.895,641.854,417.094Z" fill="#263238"/><path d="M643.045,428.1c-.085.185-1.084-.1-2.231-.628s-2.008-1.111-1.923-1.3,1.085.1,2.232.628S643.131,427.914,643.045,428.1Z" fill="#263238"/><path d="M640.524,438.812c-.157.129-.8-.4-1.449-1.185s-1.038-1.523-.881-1.651.806.4,1.449,1.185S640.681,438.684,640.524,438.812Z" fill="#263238"/><path d="M640.009,400.1c.124.157-.3.7-1.039,1.064s-1.423.391-1.475.2.483-.519,1.145-.854S639.883,399.938,640.009,400.1Z" fill="#263238"/><path d="M649.247,409.972c.067.187-.787.658-1.957.818s-2.119-.055-2.1-.253.915-.32,2-.475S649.18,409.776,649.247,409.972Z" fill="#263238"/><path d="M647.406,401.111c.09.178-.758.784-1.965,1.168s-2.248.386-2.278.189.908-.52,2.054-.89S647.315,400.926,647.406,401.111Z" fill="#263238"/><path d="M651.264,423.7c0,.2-1.454.326-3.2.006s-3.065-.945-3-1.131,1.44.1,3.13.407S651.27,423.488,651.264,423.7Z" fill="#263238"/><path d="M647.831,436.568c-.122.158-1.191-.472-2.257-1.545s-1.693-2.143-1.535-2.264,1.022.71,2.056,1.745S647.959,436.406,647.831,436.568Z" fill="#263238"/><path d="M632.736,390.637a33.264,33.264,0,0,0-6.444,5.093,31.446,31.446,0,0,0-8.027,17.743,39.835,39.835,0,0,0,.484,10.871,83.341,83.341,0,0,0,2.036,8.725c.705,2.456,1.354,4.423,1.788,5.788a13.407,13.407,0,0,1,.619,2.141,12.4,12.4,0,0,1-.888-2.046c-.519-1.337-1.244-3.284-2.016-5.733a73.457,73.457,0,0,1-2.206-8.758,38.974,38.974,0,0,1-.547-11.074,30.933,30.933,0,0,1,8.383-18.018,23.01,23.01,0,0,1,4.807-3.757,14.414,14.414,0,0,1,1.472-.765A1.717,1.717,0,0,1,632.736,390.637Z" fill="#fff"/><path d="M642.76,441.47a80.58,80.58,0,0,0,3.3-7.895,44.691,44.691,0,0,0,1.975-20.3,38.206,38.206,0,0,0-3.13-10.825,25.544,25.544,0,0,0-5.338-7.434,19.416,19.416,0,0,0-5.23-3.305c-1.359-.567-2.174-.7-2.162-.762a1.75,1.75,0,0,1,.6.046,10.942,10.942,0,0,1,1.664.449,18.063,18.063,0,0,1,5.47,3.181,25.147,25.147,0,0,1,5.606,7.533,37.577,37.577,0,0,1,3.247,11.015,43.152,43.152,0,0,1-2.212,20.573c-.415,1.27-.949,2.358-1.348,3.338-.473.948-.864,1.772-1.223,2.424A13.824,13.824,0,0,1,642.76,441.47Z" fill="#fff"/><path d="M614.286,439.732h40.522l.249,8.11h-40.77Z" fill="#263238"/><path d="M617.729,443.787l2.328,24.758H649.68l2.379-24.487Z" fill="#263238"/><path d="M655.056,447.939c0,.2-9.125.368-20.379.368s-20.381-.165-20.381-.368,9.123-.368,20.381-.368S655.056,447.736,655.056,447.939Z" fill="#455a64"/><path d="M650.939,455.48a6.119,6.119,0,0,1-.868,1.548,22.388,22.388,0,0,1-3.143,3.711l-.187.178-.184-.193a58.35,58.35,0,0,0-7.941-6.952l.448-.019-3.521,3.09-4.162,3.624-.23.2-.231-.194-6.766-5.688.394-.043-3.5,4.271a10.006,10.006,0,0,1-1.374,1.5,9.883,9.883,0,0,1,1.131-1.694c.877-1.174,1.987-2.657,3.308-4.422l.168-.226.226.183,6.867,5.567-.461.006,4.147-3.642,3.531-3.077.218-.189.231.169a51.818,51.818,0,0,1,7.9,7.177l-.37-.015A41.353,41.353,0,0,0,650.939,455.48Z" fill="#455a64"/><path d="M515.235,110.053l11.485,11.956a2,2,0,0,0,2.825.09l45.7-43.9a2,2,0,0,0,.024-2.826L563.784,63.416a2,2,0,0,0-2.824-.09l-45.7,43.9A2,2,0,0,0,515.235,110.053Z" fill="#f5f5f5"/><path d="M515.235,110.053a1.509,1.509,0,0,1-.286-.342,2.016,2.016,0,0,1,0-2.183,6.507,6.507,0,0,1,.8-.85l2.08-2.02,13.288-12.842L550.862,72.8l5.709-5.492,2.949-2.836c.508-.478.968-.956,1.523-1.44A2.164,2.164,0,0,1,563.2,62.8a2.64,2.64,0,0,1,.882.678l.734.764,1.477,1.536,2.99,3.111,6.107,6.357a2.213,2.213,0,0,1,.506,2.241,2.286,2.286,0,0,1-.67.967l-.8.765q-1.592,1.527-3.159,3.034-3.138,3.011-6.177,5.93L553.415,99.391l-19.792,18.961L529.6,122.2a2.1,2.1,0,0,1-2.5.241,4.919,4.919,0,0,1-.914-.844l-.817-.855-5.485-5.753-3.457-3.646-.893-.954c-.2-.216-.3-.334-.3-.334s.113.1.321.309l.918.93,3.5,3.6c1.519,1.571,3.375,3.488,5.528,5.713l.822.85a4.8,4.8,0,0,0,.876.805,1.881,1.881,0,0,0,2.243-.224l4.005-3.862,19.74-19.015,11.667-11.221L571.032,82l3.158-3.035.8-.765a1.914,1.914,0,0,0,.581-.829,1.861,1.861,0,0,0-.427-1.885l-6.105-6.358-2.989-3.112-1.476-1.538-.734-.764a2.282,2.282,0,0,0-.773-.6,1.82,1.82,0,0,0-1.816.193c-.491.429-1,.946-1.493,1.411L556.8,67.552l-5.717,5.483-19.79,18.959L517.93,104.756l-2.1,2a6.6,6.6,0,0,0-.8.823,1.951,1.951,0,0,0-.318.878,2.034,2.034,0,0,0,.272,1.238C515.131,109.942,515.244,110.046,515.235,110.053Z" fill="#263238"/><rect width="11.581" height="16.887" transform="matrix(0.717, -0.697, 0.697, 0.717, 553.482, 73.016)" fill="#00aecd"/><rect width="11.581" height="16.887" transform="translate(526.448 99.32) rotate(-44.216)" fill="#00aecd"/><rect width="11.581" height="16.887" transform="matrix(0.717, -0.697, 0.697, 0.717, 535.469, 90.542)" fill="#00aecd"/><rect width="11.581" height="16.887" transform="matrix(0.717, -0.697, 0.697, 0.717, 544.498, 81.757)" fill="#00aecd"/><g opacity="0.8"><rect width="11.581" height="16.887" transform="matrix(0.717, -0.697, 0.697, 0.717, 553.482, 73.016)"/></g><g opacity="0.5"><rect width="11.581" height="16.887" transform="translate(526.448 99.32) rotate(-44.216)"/></g><g opacity="0.6"><rect width="11.581" height="16.887" transform="matrix(0.717, -0.697, 0.697, 0.717, 535.469, 90.542)"/></g><g opacity="0.7"><rect width="11.581" height="16.887" transform="matrix(0.717, -0.697, 0.697, 0.717, 544.498, 81.757)"/></g><path d="M516.007,108.008l8.022,14.509a1.986,1.986,0,0,0,2.682.827l54.666-30.227a1.986,1.986,0,0,0,.726-2.711L574.081,75.9a1.984,1.984,0,0,0-2.682-.826L516.732,105.3A1.985,1.985,0,0,0,516.007,108.008Z" fill="#f5f5f5"/><path d="M516.007,108.008a1.551,1.551,0,0,1-.188-.4,2.037,2.037,0,0,1,.009-1.287,1.94,1.94,0,0,1,.526-.806,5.9,5.9,0,0,1,.982-.611l2.5-1.4L535.8,94.611l23.7-13.149,6.853-3.8,3.54-1.96.9-.5a5.049,5.049,0,0,1,.958-.467,2.163,2.163,0,0,1,2.079.548,3.652,3.652,0,0,1,.608.9l.507.917,1.021,1.845,2.066,3.734,4.219,7.628a2.158,2.158,0,0,1-.947,3.038l-.956.528-3.791,2.1-7.412,4.1-14.015,7.738L531.392,120.9c-1.7.927-3.281,1.822-4.84,2.646a2.1,2.1,0,0,1-2.4-.66c-.469-.713-.8-1.411-1.182-2.082-1.472-2.685-2.74-5-3.778-6.894l-2.376-4.364-.61-1.14c-.136-.257-.2-.394-.2-.394s.082.125.228.377.363.637.641,1.123l2.433,4.332,3.83,6.866c.381.655.741,1.394,1.174,2.045a1.879,1.879,0,0,0,2.155.585c1.507-.808,3.121-1.727,4.8-2.656l23.7-13.15,14.005-7.755,7.41-4.1,3.79-2.1.956-.529a1.851,1.851,0,0,0,.758-.648,1.87,1.87,0,0,0,.052-1.915l-4.218-7.629-2.063-3.735q-.513-.927-1.02-1.846l-.507-.917a3.287,3.287,0,0,0-.547-.823,1.818,1.818,0,0,0-1.747-.465,4.893,4.893,0,0,0-.886.436l-.9.495-3.542,1.956-6.859,3.786L535.924,94.827,519.9,103.622,517.386,105a5.856,5.856,0,0,0-.974.585,1.882,1.882,0,0,0-.517.764,2.035,2.035,0,0,0-.042,1.253C515.936,107.875,516.017,108,516.007,108.008Z" fill="#263238"/><rect width="11.581" height="16.887" transform="matrix(0.872, -0.489, 0.489, 0.872, 560.951, 83.379)" fill="#00aecd"/><rect width="11.581" height="16.887" transform="translate(528.051 101.827) rotate(-29.28)" fill="#00aecd"/><rect width="11.581" height="16.887" transform="matrix(0.872, -0.489, 0.489, 0.872, 539.03, 95.671)" fill="#00aecd"/><rect width="11.581" height="16.887" transform="translate(550.018 89.51) rotate(-29.28)" fill="#00aecd"/><g opacity="0.5"><rect width="11.581" height="16.887" transform="matrix(0.872, -0.489, 0.489, 0.872, 560.951, 83.379)"/></g><g opacity="0.2"><rect width="11.581" height="16.887" transform="translate(528.051 101.827) rotate(-29.28)"/></g><g opacity="0.3"><rect width="11.581" height="16.887" transform="matrix(0.872, -0.489, 0.489, 0.872, 539.03, 95.671)"/></g><g opacity="0.4"><rect width="11.581" height="16.887" transform="translate(550.018 89.51) rotate(-29.28)"/></g><path d="M513.993,107.878l3.539,16.2a2.033,2.033,0,0,0,2.43,1.538l64.111-14.01a2.034,2.034,0,0,0,1.567-2.412l-3.539-16.2a2.034,2.034,0,0,0-2.43-1.538l-64.112,14.011A2.032,2.032,0,0,0,513.993,107.878Z" fill="#f5f5f5"/><path d="M513.993,107.878a1.521,1.521,0,0,1-.063-.454,2.01,2.01,0,0,1,.439-1.261,2.13,2.13,0,0,1,.789-.612,8.071,8.071,0,0,1,1.162-.3l2.907-.651,18.536-4.108,27.5-6.048,7.949-1.744,4.107-.9,2.083-.457a2.58,2.58,0,0,1,1.132-.062,2.222,2.222,0,0,1,1.037.508,2.167,2.167,0,0,1,.641.969c.1.38.163.715.247,1.076q.232,1.065.468,2.14l.947,4.33q.954,4.363,1.935,8.848a2.2,2.2,0,0,1-.812,2.208,2.474,2.474,0,0,1-1.11.464l-1.108.242-4.4.96-8.595,1.876-16.25,3.54-27.519,5.976-5.588,1.208c-.223.046-.433.1-.671.133a2.266,2.266,0,0,1-.693-.037,2.157,2.157,0,0,1-1.157-.676,2.328,2.328,0,0,1-.528-1.177l-.256-1.188c-.668-3.109-1.243-5.79-1.715-7.985s-.822-3.883-1.07-5.049q-.174-.855-.269-1.315c-.059-.3-.08-.451-.08-.451s.044.149.115.443.172.741.3,1.308c.262,1.163.644,2.857,1.134,5.035s1.083,4.868,1.773,7.973l.263,1.186a2.1,2.1,0,0,0,.487,1.081,1.945,1.945,0,0,0,1.045.6,2.684,2.684,0,0,0,1.271-.1l5.583-1.233,27.5-6.048,16.245-3.561,8.594-1.881,4.4-.961,1.109-.242a2.117,2.117,0,0,0,.971-.4,1.855,1.855,0,0,0,.683-1.858q-.978-4.48-1.932-8.847-.477-2.183-.946-4.332-.234-1.074-.467-2.139c-.079-.347-.149-.728-.237-1.045a1.827,1.827,0,0,0-.539-.817,1.948,1.948,0,0,0-1.871-.37l-2.084.454-4.107.9-7.952,1.732-27.517,5.975-18.56,4-2.914.621a8.226,8.226,0,0,0-1.149.282,2.058,2.058,0,0,0-.769.576,2,2,0,0,0-.458,1.217C513.961,107.724,514.005,107.876,513.993,107.878Z" fill="#263238"/><path d="M513.859,107.944c0,.062-.807.016-2.215.273a11.881,11.881,0,0,0-5.374,2.554,11.456,11.456,0,0,0-3.975,7.657,11.242,11.242,0,0,0,20.954,6.533,11.6,11.6,0,0,0,1.56-5.739c-.01-.353-.02-.67-.028-.951s-.056-.505-.071-.694a1.9,1.9,0,0,1-.026-.584,1.8,1.8,0,0,1,.165.56c.038.188.1.418.139.7s.059.607.093.966a11.329,11.329,0,0,1-1.4,5.987,11.611,11.611,0,0,1-7.088,5.638,11.705,11.705,0,0,1-10.752-2.3,11.842,11.842,0,0,1-4.185-10.173,11.809,11.809,0,0,1,4.3-7.979,11.588,11.588,0,0,1,5.645-2.441,9.649,9.649,0,0,1,1.678-.081A1.584,1.584,0,0,1,513.859,107.944Z" fill="#263238"/><path d="M526.552,114.447a2.525,2.525,0,1,1-3.006-1.928A2.523,2.523,0,0,1,526.552,114.447Z" fill="#263238"/><rect width="11.581" height="16.887" transform="matrix(0.977, -0.213, 0.213, 0.977, 568.825, 96.093)" fill="#00aecd"/><rect width="11.581" height="16.887" transform="translate(556.579 98.769) rotate(-12.327)" fill="#00aecd"/><rect width="11.581" height="16.887" transform="translate(544.272 101.458) rotate(-12.327)" fill="#00aecd"/><rect width="11.581" height="16.887" transform="matrix(0.977, -0.213, 0.213, 0.977, 531.975, 104.146)" fill="#00aecd"/><g opacity="0.8"><rect width="11.581" height="16.887" transform="matrix(0.977, -0.213, 0.213, 0.977, 531.975, 104.146)" fill="#fff"/></g><g opacity="0.6"><rect width="11.581" height="16.887" transform="translate(544.272 101.458) rotate(-12.327)" fill="#fff"/></g><g opacity="0.4"><rect width="11.581" height="16.887" transform="translate(556.579 98.769) rotate(-12.327)" fill="#fff"/></g><path d="M230.225,75.524l3.133,16.626,2.576-4.639,5.532,8.288,2.766-1.865L238.7,85.647l5.079-.781Z" fill="#263238"/></g></svg>