<svg xmlns="http://www.w3.org/2000/svg" xmlns:xlink="http://www.w3.org/1999/xlink" width="750" height="500" viewBox="0 0 750 500"><defs><clipPath id="b"><rect width="750" height="500"/></clipPath></defs><g id="a" clip-path="url(#b)"><path d="M637.771,117.565a51.316,51.316,0,0,1,11.144,7.85l11.906-4.239,11.192,17.665-8.918,8.956a51.249,51.249,0,0,1,2.34,13.432l11.413,5.42-4.579,20.4-12.633.028a51.107,51.107,0,0,1-7.853,11.144l4.239,11.908L638.36,221.324l-8.958-8.917a51.289,51.289,0,0,1-13.432,2.337l-5.419,11.413-20.406-4.576-.027-12.635a51.181,51.181,0,0,1-11.144-7.851l-11.909,4.239-11.192-17.665,8.92-8.957a51.364,51.364,0,0,1-2.339-13.43l-11.411-5.421,4.577-20.4,12.633-.027a51.143,51.143,0,0,1,7.853-11.146l-4.239-11.908,17.662-11.191,8.958,8.919a51.2,51.2,0,0,1,13.432-2.338l5.418-11.412,20.4,4.576.03,12.635Zm-17.99,24.01a22.432,22.432,0,1,0,16.979,26.8A22.432,22.432,0,0,0,619.781,141.575Z" fill="#e0e0e0" fill-rule="evenodd"/><path d="M525.529,78.511a12.509,12.509,0,0,1,3.916,1.225,16.491,16.491,0,0,1,7.8,7.9,16.682,16.682,0,0,1,1.592,7.629,16.942,16.942,0,0,1-2.624,8.552,16.974,16.974,0,0,1-7.491,6.438,16.9,16.9,0,0,1-19.641-4.4,16.983,16.983,0,0,1-4.026-9.022,16.959,16.959,0,0,1,1.281-8.855,16.685,16.685,0,0,1,4.7-6.217,16.486,16.486,0,0,1,10.428-3.808,12.512,12.512,0,0,1,4.063.564c-.018.117-1.448-.288-4.053-.194a16.511,16.511,0,0,0-10.006,3.952,16.183,16.183,0,0,0-5.543,14.447,16.179,16.179,0,0,0,3.86,8.521,16.044,16.044,0,0,0,18.564,4.163,16.175,16.175,0,0,0,7.127-6.056,16.179,16.179,0,0,0,1.159-15.429,16.5,16.5,0,0,0-7.359-7.848C526.962,78.869,525.5,78.624,525.529,78.511Z" fill="#e0e0e0"/><path d="M538.811,60.786a3.532,3.532,0,0,1-.036-.581c-.01-.434-.024-1.014-.041-1.766-.023-1.619-.055-3.952-.1-6.98l.118.147-15.082-3.291.27-.132-3.966,8.441-.071.152-.17.007a37.767,37.767,0,0,0-9.833,1.745l-.18.058-.135-.134-6.631-6.565.42.045-13.02,8.292.152-.441,3.147,8.785.08.223-.162.176a37.527,37.527,0,0,0-5.722,8.15l-.113.22h-.25l-9.326.033.412-.331c-1.055,4.733-2.193,9.837-3.36,15.068l-.242-.5,8.428,3.994.247.116.011.274a37.659,37.659,0,0,0,1.714,9.794l.084.265-.2.2-6.581,6.616.063-.577,8.268,13.037-.557-.192,8.791-3.131.271-.1.211.2a37.422,37.422,0,0,0,8.116,5.718l0,0h0c.115.189-.253-.419.258.422v.579l0,.587,0,1.172.005,2.339q0,2.335.009,4.65l-.371-.461,15.064,3.382-.527.257q2.022-4.254,4-8.424l.121-.255.282-.011a37.409,37.409,0,0,0,9.8-1.7l.266-.084.2.2,6.608,6.588-.562-.061,13.047-8.249-.177.516q-1.588-4.476-3.119-8.8l-.086-.244.175-.188a37.466,37.466,0,0,0,5.745-8.128l.116-.221h.248l9.326,0-.384.308c1.2-5.3,2.332-10.3,3.411-15.056l.2.408-8.416-4.022-.187-.089-.008-.206a37.644,37.644,0,0,0-1.684-9.835l-.057-.182.133-.132,6.606-6.59-.038.348-8.205-13.077.251.087-8.81,3.072-.088.031-.067-.063a39.237,39.237,0,0,0-5.991-4.615l-1.6-.966a3.936,3.936,0,0,1-.528-.326,4.744,4.744,0,0,1,.567.256c.368.189.925.476,1.647.9a36.571,36.571,0,0,1,6.116,4.525l-.155-.032,8.77-3.186.16-.058.092.145c2.351,3.674,5.1,7.967,8.319,13.005l.121.188-.159.16-6.561,6.634.076-.314a38.16,38.16,0,0,1,1.771,10l-.2-.3,8.436,3.981.262.124-.063.284c-1.059,4.765-2.172,9.769-3.35,15.07l-.068.308h-.317l-9.326.037.363-.221a38.249,38.249,0,0,1-5.849,8.327l.089-.432q1.542,4.315,3.14,8.787l.117.328-.3.188-13.031,8.275-.3.193-.257-.255-6.618-6.578.463.113a38.286,38.286,0,0,1-10.037,1.752l.4-.266-4,8.428-.161.339-.367-.082-15.066-3.374-.37-.083v-.379q-.006-2.316-.01-4.651l0-2.339,0-1.172V128.25c.511.84.14.232.254.419h0l0,0a38.3,38.3,0,0,1-8.323-5.865l.481.1-8.792,3.127-.356.127-.2-.319-8.256-13.045-.2-.314.262-.264c2.274-2.28,4.526-4.538,6.589-6.608l-.112.462a38.506,38.506,0,0,1-1.74-10.034l.258.389-8.42-4.01-.32-.152.078-.344c1.179-5.228,2.329-10.33,3.4-15.06l.075-.331h.338l9.327-.006-.363.221A38.26,38.26,0,0,1,493,68.433l-.082.4c-1.088-3.074-2.149-6.074-3.112-8.8l-.1-.283.252-.159,13.058-8.232.23-.144.191.191,6.594,6.6-.314-.076a38.162,38.162,0,0,1,10-1.707l-.241.159c1.454-3.029,2.812-5.861,4.035-8.409l.084-.175.186.043,15.044,3.466.12.028,0,.12c-.027,3-.049,5.314-.064,6.919-.014.762-.025,1.35-.033,1.789A4.606,4.606,0,0,1,538.811,60.786Z" fill="#e0e0e0"/><path d="M133.328,280.935a25.97,25.97,0,0,1,4.936,4.834l6.3-1.15,4.16,9.748-5.19,3.754a26.012,26.012,0,0,1,.076,6.91l5.268,3.641-3.952,9.834L138.6,317.49a25.921,25.921,0,0,1-4.836,4.936l1.15,6.3-9.747,4.16-3.754-5.19a26.014,26.014,0,0,1-6.91.075l-3.64,5.268-9.836-3.951,1.016-6.323a25.946,25.946,0,0,1-4.936-4.835l-6.3,1.15-4.159-9.748,5.191-3.754a26.047,26.047,0,0,1-.076-6.909L86.5,295.03l3.951-9.835,6.323,1.016a25.891,25.891,0,0,1,4.836-4.936l-1.151-6.3,9.747-4.159L113.958,276a25.97,25.97,0,0,1,6.91-.076l3.64-5.267,9.835,3.951-1.015,6.323ZM122.373,291.48a11.37,11.37,0,1,0,6.312,14.789A11.369,11.369,0,0,0,122.373,291.48Z" fill="none"/><path d="M122.373,291.48a8.592,8.592,0,0,1,2.518,1.263,11.31,11.31,0,0,1,4.416,6.212,11.459,11.459,0,0,1,.238,5.345,11.635,11.635,0,0,1-2.722,5.505,11.64,11.64,0,0,1-5.786,3.536,11.6,11.6,0,0,1-12.823-5.151,11.656,11.656,0,0,1-1.732-6.557,11.639,11.639,0,0,1,1.844-5.859,11.462,11.462,0,0,1,3.87-3.695,11.317,11.317,0,0,1,7.486-1.429,8.58,8.58,0,0,1,2.691.83c-.024.077-.949-.355-2.725-.579a11.334,11.334,0,0,0-7.216,1.575,11.1,11.1,0,0,0-5.349,9.177,11.105,11.105,0,0,0,1.675,6.2,11.015,11.015,0,0,0,12.12,4.869,11.114,11.114,0,0,0,5.5-3.317,11.106,11.106,0,0,0,2.488-10.327,11.327,11.327,0,0,0-4.121-6.13C123.305,291.881,122.338,291.553,122.373,291.48Z" fill="#e0e0e0"/><path d="M133.328,280.935a2.5,2.5,0,0,1,.04-.4l.167-1.2c.164-1.1.4-2.684.705-4.741l.064.113-9.857-3.894.2-.059-3.618,5.282-.065.1-.116-.014a25.942,25.942,0,0,0-6.856.1l-.128.019-.076-.106-3.77-5.18.28.077-9.737,4.183.152-.283c.36,1.951.756,4.1,1.163,6.3l.029.161-.129.1A25.779,25.779,0,0,0,97,286.379l-.1.137-.169-.027L90.4,285.482l.316-.178c-1.237,3.09-2.571,6.423-3.939,9.839l-.109-.363,5.27,3.636.155.106-.023.187a25.835,25.835,0,0,0,.081,6.825l.028.189-.156.113-5.189,3.757.107-.384,4.164,9.746-.357-.192,6.3-1.152.194-.035.121.155a25.649,25.649,0,0,0,4.869,4.771l0,0h0c.057.14-.126-.313.128.314v.006l0,.012,0,.026-.008.049-.016.1-.032.2-.064.4-.128.795-.255,1.585q-.253,1.582-.506,3.152l-.2-.354,9.834,3.954-.386.116,3.642-5.266.111-.16.192.024a25.669,25.669,0,0,0,6.825-.07l.19-.028.112.155,3.75,5.194-.374-.1,9.751-4.15-.177.33q-.582-3.209-1.143-6.3l-.032-.175.14-.109a25.692,25.692,0,0,0,4.789-4.873l.1-.138.168.028,6.32,1.026-.294.166,3.972-9.826.09.3-5.259-3.654-.117-.081.018-.14a25.842,25.842,0,0,0-.057-6.85l-.018-.13.1-.075,5.2-3.736-.064.231-4.117-9.766.16.086-6.308,1.11-.064.012-.038-.05a26.989,26.989,0,0,0-3.55-3.788l-.981-.832a2.7,2.7,0,0,1-.322-.279,2.954,2.954,0,0,1,.356.236c.229.169.575.425,1.017.793a25.114,25.114,0,0,1,3.645,3.74l-.1-.038,6.294-1.191.114-.022.047.108,4.2,9.73.061.141-.125.091L143.66,298.3l.087-.205a26.2,26.2,0,0,1,.1,6.969l-.1-.221,5.277,3.628.164.113-.074.186-3.932,9.842-.081.2-.214-.035-6.324-1,.271-.11a26.246,26.246,0,0,1-4.883,5l.108-.283q.568,3.095,1.159,6.3l.043.236-.221.1-9.742,4.169-.229.1-.146-.2q-1.853-2.559-3.758-5.187l.3.127a26.263,26.263,0,0,1-6.994.08l.3-.135-3.637,5.269-.147.213-.24-.1-9.836-3.948-.242-.1.041-.257q.252-1.569.506-3.152l.255-1.586.128-.795.064-.4.032-.2.016-.1.008-.05,0-.025,0-.013v-.006c.253.626.069.173.126.313h0l0,0a26.325,26.325,0,0,1-4.992-4.893l.315.12-6.3,1.149-.255.047-.1-.238c-1.429-3.355-2.84-6.663-4.155-9.75l-.1-.236.207-.149,5.194-3.751-.127.3a26.444,26.444,0,0,1-.072-6.992l.132.293-5.263-3.646-.2-.139.091-.224c1.375-3.413,2.718-6.742,3.963-9.83l.087-.216.229.037,6.32,1.025-.27.109a26.257,26.257,0,0,1,4.9-4.98l-.1.261c-.4-2.2-.786-4.353-1.138-6.3l-.037-.2.189-.08,9.756-4.137.172-.073.108.151,3.74,5.2-.2-.086a26.167,26.167,0,0,1,6.963-.054l-.18.081,3.661-5.252.076-.11.122.05,9.811,4.008.078.032-.014.081c-.35,2.031-.619,3.6-.806,4.681-.094.515-.166.913-.22,1.209A3.059,3.059,0,0,1,133.328,280.935Z" fill="#e0e0e0"/><path d="M216.936,334.08a45.579,45.579,0,0,1,8.649,8.472l11.043-2.016,7.289,17.083-9.1,6.579a45.492,45.492,0,0,1,.134,12.108l9.232,6.381-6.926,17.233-11.079-1.778a45.446,45.446,0,0,1-8.475,8.649l2.017,11.044-17.081,7.289-6.58-9.1a45.541,45.541,0,0,1-12.109.131l-6.379,9.232-17.236-6.924,1.78-11.08a45.465,45.465,0,0,1-8.649-8.473l-11.045,2.016-7.29-17.083,9.1-6.579a45.568,45.568,0,0,1-.133-12.107l-9.23-6.381,6.924-17.234,11.079,1.779a45.476,45.476,0,0,1,8.474-8.65l-2.016-11.044,17.081-7.29,6.579,9.1a45.5,45.5,0,0,1,12.109-.132l6.379-9.231L218.713,323l-1.777,11.08Zm-19.2,18.481a19.924,19.924,0,1,0,11.06,25.916A19.924,19.924,0,0,0,197.738,352.561Z" fill="#e0e0e0" fill-rule="evenodd"/><path d="M216.179,224.08H95.648V74.18l92.2.272,28.332,30.764Z" fill="#ebebeb"/><path d="M131.705,159.7c-.156.149-2.158-1.658-5.27-4.7s-7.334-7.323-11.931-12.119l-.515-.537.512-.54.049-.052c4.581-4.836,8.791-9.153,11.9-12.224s5.1-4.9,5.259-4.748-1.558,2.242-4.457,5.507-6.983,7.7-11.564,12.539l-.049.052,0-1.078c4.6,4.8,8.692,9.2,11.6,12.436S131.86,159.553,131.705,159.7Z" fill="#263238"/><path d="M180.071,124.781c.156-.149,2.158,1.658,5.27,4.7s7.335,7.323,11.931,12.118l.515.538-.512.54-.049.052c-4.581,4.836-8.791,9.153-11.9,12.224s-5.1,4.9-5.259,4.748,1.558-2.242,4.457-5.508,6.983-7.7,11.564-12.538l.049-.052,0,1.077c-4.6-4.8-8.691-9.2-11.6-12.436S179.916,124.93,180.071,124.781Z" fill="#263238"/><path d="M141.223,165.211c-.368-.226,5.889-11.123,13.973-24.337s14.939-23.75,15.307-23.524-5.887,11.12-13.974,24.339S141.591,165.436,141.223,165.211Z" fill="#263238"/><path d="M187.84,74.461l-.108,25.109a6.459,6.459,0,0,0,6.65,6.484l21.8-.816Z" fill="#e0e0e0"/><rect width="53.453" height="32.486" transform="translate(81.579 175.721)" fill="#00aecd"/><path d="M96.767,198.607l1.391-1.63a4.184,4.184,0,0,0,3.5,1.99c1.894,0,2.877-1.151,2.877-3.4v-9.42H98.469v-2.086h8.438v11.387c0,3.739-1.821,5.585-5.25,5.585A5.85,5.85,0,0,1,96.767,198.607Z" fill="#fff"/><path d="M110.26,198.919l.887-1.87a8.635,8.635,0,0,0,5.538,1.941c2.9,0,4.147-1.126,4.147-2.588,0-4.1-10.164-1.511-10.164-7.743,0-2.589,2.013-4.794,6.424-4.794a9.881,9.881,0,0,1,5.394,1.485l-.791,1.918a8.666,8.666,0,0,0-4.6-1.366c-2.853,0-4.075,1.2-4.075,2.661,0,4.1,10.164,1.534,10.164,7.695,0,2.565-2.062,4.77-6.5,4.77A9.966,9.966,0,0,1,110.26,198.919Z" fill="#fff"/><path d="M318.9,83.049a7.928,7.928,0,0,0-4.362,7.172l.373,59.466a7.951,7.951,0,0,0,3.84,6.79l49.381,29.431a.023.023,0,0,0,.024,0l47.266-30.643a7.955,7.955,0,0,0,3.592-6.734l-.39-62.091A7.919,7.919,0,0,0,413.9,79.2L367.344,59.077Z" fill="#00aecd"/><g opacity="0.2"><path d="M367.344,59.077l.8,126.831,47.2-30.585a7.92,7.92,0,0,0,3.666-6.7l-.367-62.341a7.752,7.752,0,0,0-4.68-7.073Z"/></g><path d="M381.162,130.3l-28.8.18L346.487,144.4l-7.974.05,24.2-55.674,7.664-.048L395.339,144.1l-8.128.05Zm-2.749-6.329-11.862-27.13-11.52,27.277Z" fill="#fff"/><rect width="271.844" height="158.396" transform="translate(344.862 156.274)" fill="#263238"/><path d="M366.123,306.7c-.144,0-.26-32.391-.26-72.337s.116-72.344.26-72.344.261,32.383.261,72.344S366.267,306.7,366.123,306.7Z" fill="#e0e0e0"/><path d="M360.534,168.119a38.958,38.958,0,0,1-9,0,39.105,39.105,0,0,1,9,0Z" fill="#e0e0e0"/><path d="M360.534,177.653a39.108,39.108,0,0,1-9,0,38.958,38.958,0,0,1,9,0Z" fill="#e0e0e0"/><path d="M360.534,187.186a39.108,39.108,0,0,1-9,0,39.105,39.105,0,0,1,9,0Z" fill="#e0e0e0"/><path d="M360.534,196.719a38.958,38.958,0,0,1-9,0,39.108,39.108,0,0,1,9,0Z" fill="#e0e0e0"/><path d="M360.534,206.253a39.108,39.108,0,0,1-9,0,38.958,38.958,0,0,1,9,0Z" fill="#e0e0e0"/><path d="M360.534,215.786a38.958,38.958,0,0,1-9,0,39.108,39.108,0,0,1,9,0Z" fill="#e0e0e0"/><path d="M360.534,225.32a39.108,39.108,0,0,1-9,0,38.958,38.958,0,0,1,9,0Z" fill="#e0e0e0"/><path d="M360.534,234.853a39.105,39.105,0,0,1-9,0,39.108,39.108,0,0,1,9,0Z" fill="#e0e0e0"/><path d="M360.534,244.386a38.958,38.958,0,0,1-9,0,39.108,39.108,0,0,1,9,0Z" fill="#e0e0e0"/><path d="M360.534,253.92a39.108,39.108,0,0,1-9,0,38.958,38.958,0,0,1,9,0Z" fill="#e0e0e0"/><path d="M360.534,263.453a38.96,38.96,0,0,1-9,0,39.105,39.105,0,0,1,9,0Z" fill="#e0e0e0"/><path d="M360.534,272.987a39.105,39.105,0,0,1-9,0,38.96,38.96,0,0,1,9,0Z" fill="#e0e0e0"/><path d="M360.534,282.52a39.105,39.105,0,0,1-9,0,39.11,39.11,0,0,1,9,0Z" fill="#e0e0e0"/><path d="M360.534,292.053a38.96,38.96,0,0,1-9,0,39.105,39.105,0,0,1,9,0Z" fill="#e0e0e0"/><path d="M360.534,301.587a39.11,39.11,0,0,1-9,0,39.105,39.105,0,0,1,9,0Z" fill="#e0e0e0"/><path d="M396.619,167.557c0,.144-5.231.26-11.682.26s-11.683-.116-11.683-.26,5.23-.26,11.683-.26S396.619,167.413,396.619,167.557Z" fill="#00aecd"/><path d="M396.619,301.587c0,.144-5.231.26-11.682.26s-11.683-.116-11.683-.26,5.23-.26,11.683-.26S396.619,301.443,396.619,301.587Z" fill="#00aecd"/><path d="M429.157,187.186c0,.144-9.787.26-21.857.26s-21.858-.116-21.858-.26,9.784-.26,21.858-.26S429.157,187.042,429.157,187.186Z" fill="#00aecd"/><path d="M479.7,187.186c0,.144-9.787.26-21.857.26s-21.858-.116-21.858-.26,9.784-.26,21.858-.26S479.7,187.042,479.7,187.186Z" fill="#e0e0e0"/><path d="M460.386,196.719c0,.144-14.423.261-32.211.261s-32.213-.117-32.213-.261,14.42-.26,32.213-.26S460.386,196.576,460.386,196.719Z" fill="#e0e0e0"/><path d="M460.386,206.253c0,.144-14.423.26-32.211.26s-32.213-.116-32.213-.26,14.42-.261,32.213-.261S460.386,206.109,460.386,206.253Z" fill="#e0e0e0"/><path d="M504.732,234.853c0,.144-14.423.26-32.211.26s-32.213-.116-32.213-.26,14.42-.26,32.213-.26S504.732,234.709,504.732,234.853Z" fill="#e0e0e0"/><path d="M485.6,215.786c0,.144-14.423.261-32.211.261s-32.214-.117-32.214-.261,14.42-.26,32.214-.26S485.6,215.642,485.6,215.786Z" fill="#e0e0e0"/><path d="M564.323,215.786c0,.144-14.423.261-32.21.261s-32.214-.117-32.214-.261,14.42-.26,32.214-.26S564.323,215.642,564.323,215.786Z" fill="#e0e0e0"/><path d="M536.944,196.719c0,.144-14.423.261-32.211.261s-32.213-.117-32.213-.261,14.42-.26,32.213-.26S536.944,196.576,536.944,196.719Z" fill="#fafafa"/><path d="M581.446,234.853c0,.144-14.423.26-32.211.26s-32.214-.116-32.214-.26,14.42-.26,32.214-.26S581.446,234.709,581.446,234.853Z" fill="#fafafa"/><path d="M572.559,206.253c0,.144-22.4.26-50.017.26s-50.022-.116-50.022-.26,22.391-.261,50.022-.261S572.559,206.109,572.559,206.253Z" fill="#455a64"/><path d="M396.619,177.653c0,.143-5.231.26-11.682.26s-11.683-.117-11.683-.26,5.23-.261,11.683-.261S396.619,177.509,396.619,177.653Z" fill="#fafafa"/><path d="M396.619,292.053c0,.144-5.231.261-11.682.261s-11.683-.117-11.683-.261,5.23-.26,11.683-.26S396.619,291.91,396.619,292.053Z" fill="#fafafa"/><path d="M408.193,215.786c0,.144-5.23.261-11.681.261s-11.683-.117-11.683-.261,5.229-.26,11.683-.26S408.193,215.642,408.193,215.786Z" fill="#fafafa"/><path d="M595.451,215.786c0,.144-5.231.261-11.682.261s-11.683-.117-11.683-.261,5.23-.26,11.683-.26S595.451,215.642,595.451,215.786Z" fill="#00aecd"/><path d="M429.157,253.864c0,.143-9.787.26-21.857.26s-21.858-.117-21.858-.26,9.784-.261,21.858-.261S429.157,253.72,429.157,253.864Z" fill="#00aecd"/><path d="M479.7,253.864c0,.143-9.787.26-21.857.26s-21.858-.117-21.858-.26,9.784-.261,21.858-.261S479.7,253.72,479.7,253.864Z" fill="#e0e0e0"/><path d="M460.386,263.4c0,.144-14.423.261-32.211.261s-32.213-.117-32.213-.261,14.42-.26,32.213-.26S460.386,263.253,460.386,263.4Z" fill="#e0e0e0"/><path d="M460.386,272.931c0,.143-14.423.26-32.211.26s-32.213-.117-32.213-.26,14.42-.261,32.213-.261S460.386,272.787,460.386,272.931Z" fill="#e0e0e0"/><path d="M485.6,282.464c0,.144-14.423.26-32.211.26s-32.214-.116-32.214-.26,14.42-.26,32.214-.26S485.6,282.32,485.6,282.464Z" fill="#e0e0e0"/><path d="M564.323,282.464c0,.144-14.423.26-32.21.26s-32.214-.116-32.214-.26,14.42-.26,32.214-.26S564.323,282.32,564.323,282.464Z" fill="#e0e0e0"/><path d="M536.944,263.4c0,.144-14.423.261-32.211.261s-32.213-.117-32.213-.261,14.42-.26,32.213-.26S536.944,263.253,536.944,263.4Z" fill="#fafafa"/><path d="M572.559,272.931c0,.143-22.4.26-50.017.26s-50.022-.117-50.022-.26,22.391-.261,50.022-.261S572.559,272.787,572.559,272.931Z" fill="#455a64"/><path d="M408.193,282.464c0,.144-5.23.26-11.681.26s-11.683-.116-11.683-.26,5.229-.26,11.683-.26S408.193,282.32,408.193,282.464Z" fill="#fafafa"/><path d="M595.451,282.464c0,.144-5.231.26-11.682.26s-11.683-.116-11.683-.26,5.23-.26,11.683-.26S595.451,282.32,595.451,282.464Z" fill="#00aecd"/><path d="M652.646,312.482c-.183.108-1.872-2.706-5.284-7.523-1.706-2.407-3.854-5.309-6.522-8.528a94.326,94.326,0,0,0-9.789-10.212,54.759,54.759,0,0,0-6.465-4.971,24.6,24.6,0,0,0-7.827-3.52,9.6,9.6,0,0,0-4.214-.056,6.263,6.263,0,0,0-3.444,2.2,10.279,10.279,0,0,0-1.9,4.084,22.5,22.5,0,0,0-.595,4.869,47.817,47.817,0,0,0,1.141,10.389,84.5,84.5,0,0,0,3.028,10.618A132.776,132.776,0,0,0,634,350.059a84.328,84.328,0,0,0,7.683,7.933,47.793,47.793,0,0,0,8.428,6.184,22.549,22.549,0,0,0,4.515,1.919,10.279,10.279,0,0,0,4.484.4,6.269,6.269,0,0,0,3.631-1.881,9.623,9.623,0,0,0,2.059-3.679,24.627,24.627,0,0,0,.863-8.539,54.543,54.543,0,0,0-1.073-8.084,94.466,94.466,0,0,0-3.949-13.584c-1.454-3.919-2.893-7.23-4.124-9.911-2.466-5.363-4.058-8.231-3.873-8.336a8.3,8.3,0,0,1,1.4,1.942c.827,1.327,2.008,3.311,3.383,5.947S660.4,326.284,662,330.2a89.548,89.548,0,0,1,4.392,13.723,55.06,55.06,0,0,1,1.279,8.354,26.355,26.355,0,0,1-.811,9.3,11.73,11.73,0,0,1-2.5,4.557,8.524,8.524,0,0,1-4.874,2.611,12.52,12.52,0,0,1-5.492-.4,24.681,24.681,0,0,1-5.031-2.074,49.625,49.625,0,0,1-8.934-6.433,85.388,85.388,0,0,1-7.962-8.125,132.087,132.087,0,0,1-23.7-41.047,85.483,85.483,0,0,1-3.054-10.956,49.6,49.6,0,0,1-1.1-10.952,24.675,24.675,0,0,1,.72-5.393,12.51,12.51,0,0,1,2.4-4.954,8.53,8.53,0,0,1,4.7-2.917,11.727,11.727,0,0,1,5.195.114,26.341,26.341,0,0,1,8.464,3.95,55.079,55.079,0,0,1,6.6,5.284,89.663,89.663,0,0,1,9.689,10.665c2.593,3.348,4.64,6.364,6.23,8.876s2.723,4.524,3.459,5.9A8.306,8.306,0,0,1,652.646,312.482Z" fill="#00aecd"/><path d="M621.771,312.421c.183.111-1.442,2.84-3.965,7.966-1.26,2.562-2.732,5.73-4.226,9.489a86.98,86.98,0,0,0-4.067,13.063,49.2,49.2,0,0,0-1.125,7.8,23.073,23.073,0,0,0,.8,8.243,9.564,9.564,0,0,0,1.986,3.565,6.565,6.565,0,0,0,3.484,1.946,10.083,10.083,0,0,0,4.35-.12,20.392,20.392,0,0,0,4.455-1.6,43.9,43.9,0,0,0,8.431-5.548,78.7,78.7,0,0,0,7.744-7.346A122.474,122.474,0,0,0,663.265,311.7a78.531,78.531,0,0,0,3.119-10.21,43.893,43.893,0,0,0,1.2-10.023,20.441,20.441,0,0,0-.554-4.7,10.078,10.078,0,0,0-1.835-3.947,6.559,6.559,0,0,0-3.3-2.249,9.581,9.581,0,0,0-4.077-.185,23.057,23.057,0,0,0-7.736,2.96,49.2,49.2,0,0,0-6.478,4.488,86.951,86.951,0,0,0-9.875,9.47c-2.7,3.014-4.875,5.745-6.606,8.015-3.46,4.545-5.177,7.216-5.358,7.1a7.831,7.831,0,0,1,1.01-2.087c.752-1.314,1.9-3.231,3.526-5.608s3.7-5.231,6.33-8.379a82.989,82.989,0,0,1,9.8-9.935,49.982,49.982,0,0,1,6.637-4.8,24.838,24.838,0,0,1,8.414-3.358,11.693,11.693,0,0,1,5.033.179,8.824,8.824,0,0,1,4.456,2.947,12.334,12.334,0,0,1,2.328,4.805,22.6,22.6,0,0,1,.68,5.237,45.8,45.8,0,0,1-1.174,10.611,79.82,79.82,0,0,1-3.157,10.562,121.956,121.956,0,0,1-24.149,39.026,79.725,79.725,0,0,1-8.041,7.536,45.762,45.762,0,0,1-8.971,5.785,22.644,22.644,0,0,1-4.989,1.729,12.347,12.347,0,0,1-5.338.061,8.82,8.82,0,0,1-4.626-2.672,11.7,11.7,0,0,1-2.407-4.423,24.83,24.83,0,0,1-.751-9.027,49.873,49.873,0,0,1,1.336-8.083,82.93,82.93,0,0,1,4.516-13.206c1.643-3.758,3.265-6.893,4.673-9.4s2.606-4.4,3.446-5.659C621.21,313.005,621.7,312.373,621.771,312.421Z" fill="#00aecd"/><path d="M635.236,300.915c0,.213-3.175.268-8.861.819-2.842.277-6.311.692-10.293,1.4a87,87,0,0,0-13.249,3.415,49.276,49.276,0,0,0-7.225,3.147,23.062,23.062,0,0,0-6.586,5.022,9.566,9.566,0,0,0-1.988,3.564,6.562,6.562,0,0,0,.179,3.987,10.078,10.078,0,0,0,2.391,3.637,20.412,20.412,0,0,0,3.706,2.944,43.929,43.929,0,0,0,9.155,4.251,78.736,78.736,0,0,0,10.321,2.719,122.429,122.429,0,0,0,44.9,0,78.631,78.631,0,0,0,10.324-2.72,43.889,43.889,0,0,0,9.156-4.251,20.416,20.416,0,0,0,3.706-2.945,10.094,10.094,0,0,0,2.392-3.637,6.561,6.561,0,0,0,.177-3.987,9.557,9.557,0,0,0-1.988-3.564,23.066,23.066,0,0,0-6.587-5.022,49.338,49.338,0,0,0-7.226-3.147,86.889,86.889,0,0,0-13.248-3.414c-3.982-.708-7.451-1.123-10.292-1.4-5.686-.551-8.861-.606-8.859-.819a7.786,7.786,0,0,1,2.3-.24c1.513-.052,3.748-.082,6.625.048s6.395.394,10.455.974a82.97,82.97,0,0,1,13.606,3.107,49.984,49.984,0,0,1,7.576,3.117,24.828,24.828,0,0,1,7.283,5.388,11.7,11.7,0,0,1,2.495,4.374,8.817,8.817,0,0,1-.161,5.34,12.336,12.336,0,0,1-2.86,4.508,22.671,22.671,0,0,1-4.1,3.334,45.8,45.8,0,0,1-9.641,4.585,79.871,79.871,0,0,1-10.643,2.873,121.994,121.994,0,0,1-45.893,0,79.676,79.676,0,0,1-10.64-2.873,45.813,45.813,0,0,1-9.64-4.584,22.661,22.661,0,0,1-4.1-3.333,12.339,12.339,0,0,1-2.861-4.508,8.822,8.822,0,0,1-.162-5.339,11.683,11.683,0,0,1,2.495-4.374,24.833,24.833,0,0,1,7.282-5.389,49.971,49.971,0,0,1,7.575-3.117,82.989,82.989,0,0,1,13.607-3.108c4.06-.58,7.58-.85,10.456-.974s5.112-.1,6.625-.048A7.809,7.809,0,0,1,635.236,300.915Z" fill="#00aecd"/><circle cx="8.375" cy="8.375" r="8.375" transform="matrix(0.161, -0.987, 0.987, 0.161, 628.103, 329.207)" fill="#00aecd"/><path d="M7.751,0H305.2a6.74,6.74,0,0,1,6.74,6.74V191.713a14.567,14.567,0,0,1-14.567,14.567H14.567A14.567,14.567,0,0,1,0,191.713V7.751A7.751,7.751,0,0,1,7.751,0Z" transform="translate(194.38 235.472)" fill="#455a64"/><path d="M0,0H337.96a0,0,0,0,1,0,0V4.328a13.721,13.721,0,0,1-13.721,13.721H13.721A13.721,13.721,0,0,1,0,4.328V0A0,0,0,0,1,0,0Z" transform="translate(181.335 426.496)" fill="#455a64"/><rect width="294.318" height="174.2" transform="translate(202.753 243.668)" fill="#e0e0e0"/><path d="M319.6,426.5l4.194,6.671H382.8L386.7,426.5Z" fill="#263238"/><rect width="311.937" height="0.995" transform="translate(194.43 426.435)" fill="#263238"/><rect width="277.563" height="164.108" transform="translate(211.486 253.76)" fill="#263238"/><path d="M232.781,413.052c-.144,0-.26-34.952-.26-78.057,0-43.121.116-78.065.26-78.065s.261,34.944.261,78.065C233.042,378.1,232.925,413.052,232.781,413.052Z" fill="#e0e0e0"/><path d="M227.182,271.081a19.7,19.7,0,0,1-4.508.261,19.7,19.7,0,0,1-4.509-.261,19.745,19.745,0,0,1,4.509-.26A19.74,19.74,0,0,1,227.182,271.081Z" fill="#e0e0e0"/><path d="M227.53,262.222a19.712,19.712,0,0,1-4.509.261,19.7,19.7,0,0,1-4.509-.261,19.814,19.814,0,0,1,4.509-.26A19.821,19.821,0,0,1,227.53,262.222Z" fill="#e0e0e0"/><path d="M227.182,280.63a19.739,19.739,0,0,1-4.508.26,19.744,19.744,0,0,1-4.509-.26,19.742,19.742,0,0,1,4.509-.26A19.737,19.737,0,0,1,227.182,280.63Z" fill="#e0e0e0"/><path d="M227.182,290.179a19.737,19.737,0,0,1-4.508.26,19.742,19.742,0,0,1-4.509-.26,19.708,19.708,0,0,1,4.509-.261A19.7,19.7,0,0,1,227.182,290.179Z" fill="#e0e0e0"/><path d="M227.182,299.727a19.7,19.7,0,0,1-4.508.261,19.7,19.7,0,0,1-4.509-.261,19.814,19.814,0,0,1,4.509-.26A19.808,19.808,0,0,1,227.182,299.727Z" fill="#e0e0e0"/><path d="M227.182,309.276a19.7,19.7,0,0,1-4.508.261,19.706,19.706,0,0,1-4.509-.261,19.742,19.742,0,0,1,4.509-.26A19.737,19.737,0,0,1,227.182,309.276Z" fill="#e0e0e0"/><path d="M227.182,318.825a19.74,19.74,0,0,1-4.508.26,19.745,19.745,0,0,1-4.509-.26,19.742,19.742,0,0,1,4.509-.26A19.737,19.737,0,0,1,227.182,318.825Z" fill="#e0e0e0"/><path d="M227.182,328.374a19.805,19.805,0,0,1-4.508.26,19.811,19.811,0,0,1-4.509-.26,19.708,19.708,0,0,1,4.509-.261A19.7,19.7,0,0,1,227.182,328.374Z" fill="#e0e0e0"/><path d="M227.182,337.922a19.7,19.7,0,0,1-4.508.261,19.7,19.7,0,0,1-4.509-.261,19.811,19.811,0,0,1,4.509-.26A19.805,19.805,0,0,1,227.182,337.922Z" fill="#e0e0e0"/><path d="M227.182,347.471a19.7,19.7,0,0,1-4.508.261,19.708,19.708,0,0,1-4.509-.261,19.742,19.742,0,0,1,4.509-.26A19.737,19.737,0,0,1,227.182,347.471Z" fill="#e0e0e0"/><path d="M227.182,357.02a19.737,19.737,0,0,1-4.508.26,19.742,19.742,0,0,1-4.509-.26,19.745,19.745,0,0,1,4.509-.26A19.74,19.74,0,0,1,227.182,357.02Z" fill="#e0e0e0"/><path d="M227.182,366.569a19.805,19.805,0,0,1-4.508.26,19.811,19.811,0,0,1-4.509-.26,19.706,19.706,0,0,1,4.509-.261A19.7,19.7,0,0,1,227.182,366.569Z" fill="#e0e0e0"/><path d="M227.182,376.117a19.7,19.7,0,0,1-4.508.261,19.708,19.708,0,0,1-4.509-.261,19.811,19.811,0,0,1,4.509-.26A19.805,19.805,0,0,1,227.182,376.117Z" fill="#e0e0e0"/><path d="M227.182,385.666a19.7,19.7,0,0,1-4.508.261,19.7,19.7,0,0,1-4.509-.261,19.814,19.814,0,0,1,4.509-.26A19.808,19.808,0,0,1,227.182,385.666Z" fill="#e0e0e0"/><path d="M227.182,395.215a19.737,19.737,0,0,1-4.508.26,19.742,19.742,0,0,1-4.509-.26,19.744,19.744,0,0,1,4.509-.26A19.739,19.739,0,0,1,227.182,395.215Z" fill="#e0e0e0"/><path d="M227.182,404.764a19.74,19.74,0,0,1-4.508.26,19.745,19.745,0,0,1-4.509-.26,19.7,19.7,0,0,1,4.509-.261A19.7,19.7,0,0,1,227.182,404.764Z" fill="#e0e0e0"/><path d="M263.326,270.518c0,.144-5.24.261-11.7.261s-11.7-.117-11.7-.261,5.238-.26,11.7-.26S263.326,270.374,263.326,270.518Z" fill="#00aecd"/><path d="M263.326,404.764c0,.144-5.24.26-11.7.26s-11.7-.116-11.7-.26,5.238-.261,11.7-.261S263.326,404.62,263.326,404.764Z" fill="#00aecd"/><path d="M295.916,290.179c0,.144-9.8.26-21.892.26s-21.893-.116-21.893-.26,9.8-.261,21.893-.261S295.916,290.035,295.916,290.179Z" fill="#00aecd"/><path d="M346.546,290.179c0,.144-9.8.26-21.892.26s-21.894-.116-21.894-.26,9.8-.261,21.894-.261S346.546,290.035,346.546,290.179Z" fill="#e0e0e0"/><path d="M327.2,299.727c0,.144-14.447.261-32.263.261s-32.265-.117-32.265-.261,14.443-.26,32.265-.26S327.2,299.584,327.2,299.727Z" fill="#e0e0e0"/><path d="M327.2,309.276c0,.144-14.447.261-32.263.261s-32.265-.117-32.265-.261,14.443-.26,32.265-.26S327.2,309.132,327.2,309.276Z" fill="#e0e0e0"/><path d="M371.613,337.922c0,.144-14.446.261-32.263.261s-32.265-.117-32.265-.261,14.443-.26,32.265-.26S371.613,337.779,371.613,337.922Z" fill="#e0e0e0"/><path d="M352.446,318.825c0,.144-14.446.26-32.263.26s-32.265-.116-32.265-.26,14.443-.26,32.265-.26S352.446,318.681,352.446,318.825Z" fill="#e0e0e0"/><path d="M431.3,318.825c0,.144-14.446.26-32.262.26s-32.266-.116-32.266-.26,14.443-.26,32.266-.26S431.3,318.681,431.3,318.825Z" fill="#e0e0e0"/><path d="M403.877,299.727c0,.144-14.446.261-32.263.261s-32.265-.117-32.265-.261,14.443-.26,32.265-.26S403.877,299.584,403.877,299.727Z" fill="#fafafa"/><path d="M448.45,337.922c0,.144-14.446.261-32.262.261s-32.266-.117-32.266-.261,14.443-.26,32.266-.26S448.45,337.779,448.45,337.922Z" fill="#fafafa"/><path d="M439.549,309.276c0,.144-22.432.261-50.1.261s-50.1-.117-50.1-.261,22.427-.26,50.1-.26S439.549,309.132,439.549,309.276Z" fill="#455a64"/><path d="M263.326,280.63c0,.144-5.24.26-11.7.26s-11.7-.116-11.7-.26,5.238-.26,11.7-.26S263.326,280.486,263.326,280.63Z" fill="#fafafa"/><path d="M263.326,395.215c0,.144-5.24.26-11.7.26s-11.7-.116-11.7-.26,5.238-.26,11.7-.26S263.326,395.071,263.326,395.215Z" fill="#fafafa"/><path d="M274.919,318.825c0,.144-5.239.26-11.7.26s-11.7-.116-11.7-.26,5.238-.26,11.7-.26S274.919,318.681,274.919,318.825Z" fill="#fafafa"/><path d="M462.478,318.825c0,.144-5.24.26-11.7.26s-11.7-.116-11.7-.26,5.239-.26,11.7-.26S462.478,318.681,462.478,318.825Z" fill="#00aecd"/><path d="M295.916,356.964c0,.144-9.8.26-21.892.26s-21.893-.116-21.893-.26,9.8-.261,21.893-.261S295.916,356.82,295.916,356.964Z" fill="#00aecd"/><path d="M346.546,356.964c0,.144-9.8.26-21.892.26s-21.894-.116-21.894-.26,9.8-.261,21.894-.261S346.546,356.82,346.546,356.964Z" fill="#e0e0e0"/><path d="M327.2,366.513c0,.143-14.447.26-32.263.26s-32.265-.117-32.265-.26,14.443-.261,32.265-.261S327.2,366.369,327.2,366.513Z" fill="#e0e0e0"/><path d="M327.2,376.061c0,.144-14.447.261-32.263.261s-32.265-.117-32.265-.261,14.443-.26,32.265-.26S327.2,375.917,327.2,376.061Z" fill="#e0e0e0"/><path d="M352.446,385.61c0,.144-14.446.26-32.263.26s-32.265-.116-32.265-.26,14.443-.26,32.265-.26S352.446,385.466,352.446,385.61Z" fill="#e0e0e0"/><path d="M431.3,385.61c0,.144-14.446.26-32.262.26s-32.266-.116-32.266-.26,14.443-.26,32.266-.26S431.3,385.466,431.3,385.61Z" fill="#e0e0e0"/><path d="M403.877,366.513c0,.143-14.446.26-32.263.26s-32.265-.117-32.265-.26,14.443-.261,32.265-.261S403.877,366.369,403.877,366.513Z" fill="#fafafa"/><path d="M439.549,376.061c0,.144-22.432.261-50.1.261s-50.1-.117-50.1-.261,22.427-.26,50.1-.26S439.549,375.917,439.549,376.061Z" fill="#455a64"/><path d="M274.919,385.61c0,.144-5.239.26-11.7.26s-11.7-.116-11.7-.26,5.238-.26,11.7-.26S274.919,385.466,274.919,385.61Z" fill="#fafafa"/><path d="M462.478,385.61c0,.144-5.24.26-11.7.26s-11.7-.116-11.7-.26,5.239-.26,11.7-.26S462.478,385.466,462.478,385.61Z" fill="#00aecd"/><path d="M700.417,444.557c0,.144-145.706.261-325.4.261-179.759,0-325.433-.117-325.433-.261s145.674-.26,325.433-.26C554.711,444.3,700.417,444.414,700.417,444.557Z" fill="#263238"/><path d="M568.68,388.116l3.986,12.491a14.431,14.431,0,0,0,11.2,10.038l26.661,5,7.252-.233-7.252-8.977-20.042-6.833a5.373,5.373,0,0,1-4.044-3.84l-7.978-17.356-10.106,6.2Z" fill="#ffbe9d"/><path d="M549.582,304.227a8.81,8.81,0,0,0-1.5-5.536,6.786,6.786,0,0,0-4.381-3.385,5.055,5.055,0,0,0-5.19,3.062,6.537,6.537,0,0,0,.8,6.163,8.323,8.323,0,0,0,2.427,2.271,15.319,15.319,0,0,0-6.042,7.644c-.367,1.062-.617,2.166-1.081,3.188a4.7,4.7,0,0,1-2.209,2.444c-.754.338-1.608.377-2.383.663a4.364,4.364,0,0,0-2.632,3.043,5.3,5.3,0,0,0,.711,4.015,4.12,4.12,0,0,1,.9,1.865,5.071,5.071,0,0,1-.286,1.384,3.8,3.8,0,0,0,6.233,3.711,5.35,5.35,0,0,0,2.3,2.888c1.136.543,2.813.055,3.05-1.182a3,3,0,0,0,5.7-1.083l21.5-23.512C564.3,303.269,551.748,304.029,549.582,304.227Z" fill="#00aecd"/><path d="M545.942,312.4a2.679,2.679,0,0,0-2.4,2.718h0l1.519,36.2c.057,4.275,7.814,9.33,12.391,9.234h0c4.623-.1,3.264-5,3.33-9.07.112-6.8.11-9.346.112-9.307,0,0,5.841-.97,7.051-8.59.6-3.79.411-10,.091-15.083-.288-4.572-3.317-10.181-7.872-9.7Z" fill="#ffbe9d"/><path d="M566.059,323.442a.978.978,0,0,1-.943.986.934.934,0,0,1-1.007-.881.978.978,0,0,1,.941-.987A.936.936,0,0,1,566.059,323.442Z" fill="#263238"/><path d="M566.69,321.741c-.121.128-.861-.42-1.913-.417-1.05-.013-1.822.528-1.936.4-.056-.057.067-.288.4-.532a2.677,2.677,0,0,1,1.55-.478,2.578,2.578,0,0,1,1.523.492C566.641,321.454,566.75,321.684,566.69,321.741Z" fill="#263238"/><path d="M555.777,323.442a.976.976,0,0,1-.942.986.934.934,0,0,1-1.007-.881.977.977,0,0,1,.941-.987A.935.935,0,0,1,555.777,323.442Z" fill="#263238"/><path d="M556.353,321.938c-.122.127-.863-.421-1.914-.418s-1.822.529-1.936.4c-.056-.057.066-.287.4-.532a2.685,2.685,0,0,1,1.55-.478,2.573,2.573,0,0,1,1.523.492C556.3,321.65,556.412,321.881,556.353,321.938Z" fill="#263238"/><path d="M560.17,329.737a6.916,6.916,0,0,1,1.708-.308c.268-.028.522-.082.568-.265a1.365,1.365,0,0,0-.18-.8q-.378-.975-.794-2.045a35.025,35.025,0,0,1-1.783-5.348,35.213,35.213,0,0,1,2.209,5.192q.4,1.077.761,2.058a1.551,1.551,0,0,1,.14,1.053.675.675,0,0,1-.442.393,1.754,1.754,0,0,1-.456.063A6.812,6.812,0,0,1,560.17,329.737Z" fill="#263238"/><path d="M560.9,342.182a19.391,19.391,0,0,1-10.206-2.723s2.476,5.235,10.1,4.522Z" fill="#eb996e"/><path d="M559.725,332.271a1.894,1.894,0,0,0-1.7-.7,1.732,1.732,0,0,0-1.2.64,1.1,1.1,0,0,0-.083,1.254,1.274,1.274,0,0,0,1.379.349,3.988,3.988,0,0,0,1.344-.8,1.166,1.166,0,0,0,.3-.311.352.352,0,0,0,0-.391" fill="#eb996e"/><path d="M557.075,330.464c.171-.01.173,1.132,1.15,1.942s2.192.685,2.2.844c.016.072-.271.222-.785.236a2.842,2.842,0,0,1-1.837-.64,2.476,2.476,0,0,1-.891-1.628C556.869,330.74,557,330.458,557.075,330.464Z" fill="#263238"/><path d="M556.826,320.1c-.1.286-1.154.151-2.388.3-1.237.124-2.232.485-2.395.229-.073-.123.1-.392.5-.669a4.187,4.187,0,0,1,3.644-.4C556.642,319.736,556.871,319.96,556.826,320.1Z" fill="#00aecd"/><path d="M566.3,318.7c-.185.238-.91-.009-1.781-.021-.871-.042-1.609.16-1.779-.09-.074-.121.042-.36.365-.586a2.573,2.573,0,0,1,2.867.089C566.284,318.335,566.385,318.581,566.3,318.7Z" fill="#00aecd"/><path d="M544.387,324.594a1.909,1.909,0,0,0-1.992.1,3.533,3.533,0,0,0,2.226,6.561" fill="#ffbe9d"/><path d="M556.368,306.271a15.474,15.474,0,0,1,7.322,2.271,10.6,10.6,0,0,1,5.227,6.211,2.169,2.169,0,0,1-.062,1.716,1.68,1.68,0,0,1-2.09.451,4.916,4.916,0,0,1-1.7-1.568,3.258,3.258,0,0,1-6.327-.07,2.856,2.856,0,0,1-2.938,2.62,3.767,3.767,0,0,1-3.243-2.561,9.549,9.549,0,0,1-1.34,3.721,3.254,3.254,0,0,1-3.451,1.4,6.745,6.745,0,0,1-.05,3.409,2.322,2.322,0,0,1-2.686,1.575c-1.056-.363-1.466-1.613-1.713-2.7a25.4,25.4,0,0,1-.816-6.387,9.359,9.359,0,0,1,7.547-9.484,24.745,24.745,0,0,1,6.632-.6" fill="#00aecd"/><path d="M543.855,328.982c-.022-.054-.3.065-.664-.1a1.327,1.327,0,0,1-.654-1.3,1.344,1.344,0,0,1,.813-1.222c.381-.156.662-.08.678-.139.027-.038-.259-.24-.762-.127a1.4,1.4,0,0,0-.745.464,1.7,1.7,0,0,0-.378,1,1.515,1.515,0,0,0,.954,1.586C543.615,329.277,543.9,329.013,543.855,328.982Z" fill="#eb996e"/><path d="M540.958,329.377a1,1,0,0,0-.314.086,5.321,5.321,0,0,0-.849.38,6.354,6.354,0,0,0-2.483,2.345,4.8,4.8,0,0,0-.68,2.3,5.355,5.355,0,0,0,.634,2.676,6.328,6.328,0,0,0,2.027,2.261,5.625,5.625,0,0,0,3.1,1,5.9,5.9,0,0,0,5.148-3.217,5.032,5.032,0,0,0,.542-2.7,5.626,5.626,0,0,0-.736-2.277,5.442,5.442,0,0,0-2.522-2.292,3.636,3.636,0,0,0-.891-.276,1.018,1.018,0,0,0-.324-.033c-.009.042.44.1,1.15.448a5.5,5.5,0,0,1,2.344,2.29,5.431,5.431,0,0,1,.652,2.165,4.731,4.731,0,0,1-.539,2.507,5.57,5.57,0,0,1-4.821,2.988,5.7,5.7,0,0,1-4.813-3.036,4.756,4.756,0,0,1-.032-4.663,6.538,6.538,0,0,1,2.316-2.349C540.551,329.564,540.972,329.412,540.958,329.377Z" fill="#263238"/><path d="M547.248,305.758c-.083.018-.237-.664-.712-1.658a9.147,9.147,0,0,0-6.468-5.1c-1.078-.231-1.777-.222-1.779-.306a3.772,3.772,0,0,1,1.841-.057,8.433,8.433,0,0,1,6.745,5.32A3.8,3.8,0,0,1,547.248,305.758Z" fill="#e0e0e0"/><path d="M529.73,334.7c-.006.01-.128-.046-.27-.25a1.413,1.413,0,0,1-.179-1.041,2.174,2.174,0,0,1,.937-1.383,19.163,19.163,0,0,1,1.892-1.04,2.306,2.306,0,0,0,1.316-1.886,10.908,10.908,0,0,0-.515-2.865,5.4,5.4,0,0,1-.159-1.677,2.856,2.856,0,0,1,.714-1.665,6.939,6.939,0,0,1,3.218-1.692,5.32,5.32,0,0,0,2.875-1.657,4.288,4.288,0,0,0,.477-3.011,15.532,15.532,0,0,1-.2-3.015,8.268,8.268,0,0,1,2.889-5.64,5.544,5.544,0,0,1,.846-.6c.207-.115.319-.168.328-.152.026.04-.4.3-1.039.9a8.429,8.429,0,0,0-2.048,3.049,7.91,7.91,0,0,0-.545,2.468,15.74,15.74,0,0,0,.249,2.933,4.716,4.716,0,0,1-.537,3.358,5.724,5.724,0,0,1-3.133,1.86,6.581,6.581,0,0,0-3,1.535,3.09,3.09,0,0,0-.467,2.9,10.777,10.777,0,0,1,.476,3,2.613,2.613,0,0,1-.531,1.354,3.358,3.358,0,0,1-1.033.815c-.726.385-1.4.61-1.906.958a1.991,1.991,0,0,0-.907,1.186A1.439,1.439,0,0,0,529.73,334.7Z" fill="#e0e0e0"/><path d="M556.893,315.037c-.086.008-.153-.8-.554-2.028a10.429,10.429,0,0,0-6.807-6.789c-1.224-.4-2.037-.463-2.029-.549a4.727,4.727,0,0,1,2.131.2,9.749,9.749,0,0,1,7.059,7.04A4.729,4.729,0,0,1,556.893,315.037Z" fill="#e0e0e0"/><path d="M563.037,311.7a17.772,17.772,0,0,0-1.324-2.356,10.5,10.5,0,0,0-5.222-3.634,16.181,16.181,0,0,0-6.45-.514c-1.671.176-2.7.412-2.714.33a9.058,9.058,0,0,1,2.667-.7,14.752,14.752,0,0,1,6.653.382,10.132,10.132,0,0,1,5.367,3.919,7.11,7.11,0,0,1,.886,1.835A1.791,1.791,0,0,1,563.037,311.7Z" fill="#e0e0e0"/><path d="M549.737,303.846c.049.035-.191.5-.78,1.111a7.535,7.535,0,0,1-6.028,2.149,2.538,2.538,0,0,1-1.306-.366,9.986,9.986,0,0,0,8.114-2.894Z" fill="#263238"/><path d="M555.087,444.622c-18.311-6.062-5.755-30.281-5.755-30.281l80.025,7.527a11.577,11.577,0,0,1,11.656,11.577h0a11.578,11.578,0,0,1-11.578,11.579l-74.348-.4" fill="#263238"/><path d="M536.352,444.6c-17.841-6.022-5.546-30.263-5.546-30.263l78.014,7.355c7.619.1,11.34,3.775,11.34,11.551h0c-.013,6.393-2.376,11.783-11.314,11.6l-72.494-.243" fill="#263238"/><path d="M554.463,418.428a.894.894,0,0,1,.222-.009l.65.016,2.5.1,9.179.454,30.273,1.66c1.477.07,2.94.2,4.376.219s2.868.083,4.264.167,2.766.189,4.106.334a14.631,14.631,0,0,1,3.9.8,9.376,9.376,0,0,1,3.245,2.078,8.645,8.645,0,0,1,1.968,3.158,15.837,15.837,0,0,1,.8,3.413,23.842,23.842,0,0,1,.215,3.226,13.724,13.724,0,0,1-1.03,5.433,8.938,8.938,0,0,1-2.426,3.306,6.556,6.556,0,0,1-2.21,1.247c-.551.174-.561.117-.025-.081a6.869,6.869,0,0,0,2.137-1.294,8.909,8.909,0,0,0,2.32-3.275,13.577,13.577,0,0,0,.951-5.336,23.656,23.656,0,0,0-.237-3.18,15.612,15.612,0,0,0-.8-3.33,8.317,8.317,0,0,0-1.9-3.017,9.038,9.038,0,0,0-3.13-1.983,14.333,14.333,0,0,0-3.814-.764c-1.332-.14-2.7-.24-4.089-.322s-2.809-.139-4.247-.16-2.9-.147-4.383-.217L567,419.291l-9.173-.589-2.493-.182-.648-.058A.864.864,0,0,1,554.463,418.428Z" fill="#455a64"/><path d="M582.2,420.006l-6.416-3.148-4.466-14.887-.426-18.962,9.056-3.82-7.185-18.052c-1.312-2.668-3.955-9.733-10.763-12.061a8.319,8.319,0,0,1,.234-2.99c.537-.886-16.582-1.418-17.555-1.064-.9.33.155,3.481.046,4.011-6.084,1.678-12.006,4.182-14.221,12.555-.864,3.265-.578,10.143-.11,13.46l4.758,25.133-2.67,8.247s-9.349,19.478-5.806,27.093,9.573,9.325,9.573,9.325l46.583-.092Z" fill="#00aecd"/><g opacity="0.3"><path d="M535.456,390.2a93.8,93.8,0,0,0,3.42,11.885,25.723,25.723,0,0,0,3.741,6.86,17.359,17.359,0,0,0,8.976,5.477,28.407,28.407,0,0,0,10.61.521l-17.63-9.96-4.689-16.3Z"/></g><path d="M571.307,401.451a8.271,8.271,0,0,1-.124-1.346c-.046-.942-.106-2.18-.179-3.675-.133-3.1-.287-7.392-.43-12.128s-.25-9.028-.3-12.134c-.018-1.5-.032-2.736-.043-3.679a8.252,8.252,0,0,1,.042-1.352,8.091,8.091,0,0,1,.124,1.345c.046.941.107,2.179.18,3.674.133,3.1.287,7.392.43,12.132s.249,9.028.3,12.134c.017,1.5.032,2.736.043,3.679A7.991,7.991,0,0,1,571.307,401.451Z" fill="#263238"/><path d="M554.055,383.7a1.743,1.743,0,0,1-.32.133l-.991.36-3.845,1.354L534.84,390.4l-.231.08-.045-.243-3.283-17.558,0-.015v-.02c-.192-3.185-.827-6.517-.554-10.016a9.227,9.227,0,0,1,.683-2.451,11.623,11.623,0,0,1,1.165-2.213,9.392,9.392,0,0,1,3.7-3.155,8.125,8.125,0,0,1,8.784.947,10.931,10.931,0,0,1,2.344,3.586,32.912,32.912,0,0,1,1.374,3.757c.741,2.463,1.3,4.793,1.861,6.925,1.069,4.21,1.938,7.631,2.551,10.047.282,1.142.506,2.046.669,2.705.065.281.119.51.162.7a.867.867,0,0,1,.04.228,1.7,1.7,0,0,1-.087-.253l-.21-.717c-.186-.664-.442-1.575-.765-2.727-.656-2.389-1.584-5.772-2.725-9.936-.574-2.081-1.153-4.394-1.908-6.84a32.994,32.994,0,0,0-1.38-3.7,10.559,10.559,0,0,0-2.243-3.414,7.65,7.65,0,0,0-8.238-.851,8.89,8.89,0,0,0-3.5,2.991,11.139,11.139,0,0,0-1.111,2.115,8.807,8.807,0,0,0-.648,2.314c-.265,3.373.355,6.7.546,9.935l0-.034c1.178,6.471,2.267,12.456,3.2,17.574L534.7,390l14.008-4.606,3.923-1.264,1.044-.326A2.815,2.815,0,0,1,554.055,383.7Z" fill="#263238"/><path d="M540.034,388.351c-.137.044-.509-.732-.83-1.732s-.471-1.847-.334-1.891.508.731.83,1.732S540.171,388.307,540.034,388.351Z" fill="#263238"/><path d="M544.619,387.056c-.14.034-.444-.72-.681-1.685s-.314-1.776-.174-1.81.444.721.68,1.686S544.759,387.022,544.619,387.056Z" fill="#263238"/><path d="M549.246,385.4c-.138.041-.445-.576-.684-1.378s-.323-1.486-.185-1.527.444.575.684,1.378S549.383,385.359,549.246,385.4Z" fill="#263238"/><path d="M574.29,381.566c-.121.073-.646-.591-1.01-1.555s-.413-1.807-.275-1.833.412.732.762,1.649S574.417,381.492,574.29,381.566Z" fill="#263238"/><path d="M577.772,379.591c-.129.065-.548-.509-.937-1.282s-.6-1.453-.472-1.517.548.509.937,1.283S577.9,379.527,577.772,379.591Z" fill="#263238"/><path d="M547.373,349.787c.051.005.081.169.091.455l-.276,0a18.955,18.955,0,0,1-.32-2.378,7.94,7.94,0,0,1,.025-2.852,7.993,7.993,0,0,1,.494,2.809,19.022,19.022,0,0,1,.078,2.4l-.277,0C547.258,349.935,547.322,349.781,547.373,349.787Z" fill="#263238"/><path d="M551.534,349.791a10.671,10.671,0,0,1-.349-4.672,10.674,10.674,0,0,1,.349,4.672Z" fill="#263238"/><path d="M555.888,350.729a15.225,15.225,0,0,1-.075-5.608,15.221,15.221,0,0,1,.075,5.608Z" fill="#263238"/><path d="M559.455,350.144a11.117,11.117,0,0,1,0-4.79,11.16,11.16,0,0,1,0,4.79Z" fill="#263238"/><path d="M582.5,420.539c-.01.144-8.691-.331-19.387-1.06s-19.364-1.437-19.354-1.581,8.689.332,19.389,1.061S582.508,420.4,582.5,420.539Z" fill="#263238"/><path d="M537.529,389.543l4.295,13.971a14.5,14.5,0,0,0,11.2,10.165l26.661,5.067,7.252-.236-2.465-6.192L559.648,402.5a5.4,5.4,0,0,1-4.044-3.888l-3.752-14.057Z" fill="#ffbe9d"/><path d="M561.1,418.932l.228-1.727,20.483-.805,10.052-25.348,38.291,2.6-12.921,28.138Z" fill="#455a64"/><path d="M606.93,407.495a2.007,2.007,0,1,1-.622-2.77A2.008,2.008,0,0,1,606.93,407.495Z" fill="#fff"/><path d="M282.993,236.887c16.687-6.059,8.117-31.224,8.117-31.224l-84.7,7.762a11.938,11.938,0,0,0-12.019,11.938h0A11.938,11.938,0,0,0,206.329,237.3l76.664-.414" fill="#263238"/><path d="M173.931,306.586l-.171-8.4,16.11-5.722.666,11.694-.906.437c-4.045,1.912-20.7,9.434-23.81,9.72C162.354,314.634,173.931,306.586,173.931,306.586Z" fill="#00aecd"/><g opacity="0.4"><path d="M168.365,310.74s-3.943,3.1-3.087,3.613,17.976-6.46,25.258-10.194l-.16-.326-19.9,8.3S169.253,310.422,168.365,310.74Z" fill="#fff"/></g><path d="M190.607,303.728a1.39,1.39,0,0,1-.246.133l-.722.346-2.678,1.227c-2.268,1.019-5.42,2.387-8.933,3.821s-6.724,2.661-9.058,3.519l-2.772,1-.758.257a1.554,1.554,0,0,1-.269.078,1.439,1.439,0,0,1,.256-.115l.745-.292,2.749-1.054c2.321-.891,5.52-2.139,9.033-3.571s6.67-2.779,8.951-3.766l2.7-1.169.738-.313A1.566,1.566,0,0,1,190.607,303.728Z" fill="#263238"/><path d="M170.575,312.363a4.274,4.274,0,0,0-2.392-1.758,2.615,2.615,0,0,1,2.392,1.758Z" fill="#263238"/><path d="M174.086,308.318c-.032.044-.348-.127-.707-.383s-.625-.5-.594-.543.348.128.707.383S174.117,308.274,174.086,308.318Z" fill="#263238"/><path d="M175.038,307.182c-.018.051-.319-.011-.672-.138s-.624-.271-.6-.322.319.011.672.138S175.057,307.131,175.038,307.182Z" fill="#263238"/><path d="M175.23,305.454c.021.05-.311.237-.742.418a1.906,1.906,0,0,1-.818.237c-.021-.049.311-.237.742-.418A1.906,1.906,0,0,1,175.23,305.454Z" fill="#263238"/><path d="M175.087,304.349c.035.038-.276.365-.769.609a1.642,1.642,0,0,1-.951.247,5.187,5.187,0,0,1,.863-.422A5.124,5.124,0,0,1,175.087,304.349Z" fill="#263238"/><path d="M173.045,307.217a2.989,2.989,0,0,1-.967.386,6.111,6.111,0,0,1-1.117.192,3.091,3.091,0,0,1-.686,0,.562.562,0,0,1-.36-.2.407.407,0,0,1-.011-.444,1.908,1.908,0,0,1,2.4-.373,1.876,1.876,0,0,1,.576.515c.1.149.141.245.13.25a2.961,2.961,0,0,0-.773-.643,1.882,1.882,0,0,0-1.041-.2,1.615,1.615,0,0,0-1.116.546c-.107.176.026.331.237.363a3.07,3.07,0,0,0,.636.011,7.31,7.31,0,0,0,1.1-.145C172.665,307.336,173.033,307.187,173.045,307.217Z" fill="#263238"/><path d="M172.814,307.366a1.03,1.03,0,0,1-.383-.623,1.712,1.712,0,0,1-.024-.811,1.048,1.048,0,0,1,.6-.818.414.414,0,0,1,.478.324,1.135,1.135,0,0,1,.011.5,3.161,3.161,0,0,1-.217.768,1.511,1.511,0,0,1-.393.615c-.026-.017.122-.251.263-.665a3.613,3.613,0,0,0,.168-.742c.05-.257-.009-.66-.268-.605-.251.075-.4.415-.469.667a1.713,1.713,0,0,0-.017.737A3.809,3.809,0,0,0,172.814,307.366Z" fill="#263238"/><path d="M188.631,299.75c.011.035-.446.134-1.091.49a5.074,5.074,0,0,0-2.653,4.729c.033.736.186,1.177.151,1.186a.927.927,0,0,1-.124-.3,4.25,4.25,0,0,1-.165-.875,4.918,4.918,0,0,1,2.726-4.861,4.372,4.372,0,0,1,.834-.315A.98.98,0,0,1,188.631,299.75Z" fill="#263238"/><path d="M184.537,294.143a56.424,56.424,0,0,1,2.587,6.13,56.432,56.432,0,0,1-2.587-6.13Z" fill="#263238"/><path d="M182.568,305.557a13.3,13.3,0,0,1-4.364,1.825c-.017-.055.986-.393,2.188-.9S182.541,305.507,182.568,305.557Z" fill="#263238"/><path d="M185.505,304.356c.052.022,0,.24,0,.506s.018.486-.035.5-.174-.2-.161-.512S185.458,304.333,185.505,304.356Z" fill="#263238"/><path d="M186.052,302.527c.05.021.016.216-.075.437s-.205.382-.255.361-.017-.216.074-.436S186,302.506,186.052,302.527Z" fill="#263238"/><path d="M187.38,301.252c.01.056-.19.135-.379.3s-.3.349-.352.331-.012-.276.224-.479S187.376,301.2,187.38,301.252Z" fill="#263238"/><path d="M188.387,300.5c.037.039-.018.151-.122.25s-.22.147-.257.108.017-.151.122-.25S188.35,300.457,188.387,300.5Z" fill="#263238"/><path d="M238.592,212.282l-47.3.885A15.19,15.19,0,0,0,176.5,226.5l-9.379,76.228h25.689l7.845-65.84h37.3Z" fill="#263238"/><path d="M167.44,297.881c0,.122,5.627.256,12.568.3s12.45-.131,12.572-.143c.8-.078-5.626-.256-12.569-.3S167.44,297.758,167.44,297.881Z" fill="#455a64"/><path d="M264.607,209.878a.944.944,0,0,0-.236-.009l-.693.016-2.66.1-9.778.459-32.252,1.675c-1.573.071-3.132.2-4.662.221s-3.055.084-4.542.168-2.946.191-4.374.337a16.368,16.368,0,0,0-4.157.808,10.064,10.064,0,0,0-3.456,2.1,8.691,8.691,0,0,0-2.1,3.187,15.273,15.273,0,0,0-.853,3.445,22.662,22.662,0,0,0-.229,3.256,13.231,13.231,0,0,0,1.1,5.483,9.076,9.076,0,0,0,2.585,3.335,7.1,7.1,0,0,0,2.354,1.259c.587.176.6.119.026-.081a7.405,7.405,0,0,1-2.276-1.306,9.037,9.037,0,0,1-2.472-3.3,13.1,13.1,0,0,1-1.013-5.386,22.729,22.729,0,0,1,.253-3.208,15.01,15.01,0,0,1,.857-3.362,8.32,8.32,0,0,1,2.025-3.044,9.73,9.73,0,0,1,3.334-2,16.058,16.058,0,0,1,4.063-.771c1.419-.141,2.874-.242,4.356-.325s2.993-.14,4.525-.161,3.092-.148,4.669-.219l32.253-1.8,9.773-.594,2.656-.183.69-.059A.963.963,0,0,0,264.607,209.878Z" fill="#455a64"/><path d="M249.541,178.262l-4.11,12.88a14.88,14.88,0,0,1-11.553,10.351l-23.886,6.621-1.862-4.423-1.743-6.536,20.666-7.046a5.536,5.536,0,0,0,4.169-3.959l8.227-17.9,10.42,6.39Z" fill="#b78876"/><path d="M259.556,137.963c-8.749,1.022-11.567,4.58-15.141,9.751a29.407,29.407,0,0,0-3.535,6.93l-6.627,18.779,13.83,4.265-.461,15.336-6.3,18.668,53.13,4.178-.153-27.127-.38-16.369c.5-6.2,1.793-19.349.688-22.464-4.727-13.325-15.157-10.768-22.81-12.667a51.587,51.587,0,0,0-10.539.014" fill="#00aecd"/><path d="M294.451,187.028c0,.143-10.393.26-23.211.26s-23.213-.117-23.213-.26,10.391-.261,23.213-.261S294.451,186.884,294.451,187.028Z" fill="#fafafa"/><path d="M293.675,196.3c0,.144-10.393.26-23.211.26s-23.212-.116-23.212-.26,10.39-.26,23.212-.26S293.675,196.159,293.675,196.3Z" fill="#fafafa"/><path d="M293.921,206.944c0,.144-10.991.261-24.545.261s-24.547-.117-24.547-.261,10.988-.26,24.547-.26S293.921,206.8,293.921,206.944Z" fill="#fafafa"/><g opacity="0.3"><path d="M287.472,181.1c-.694,3.6-.985,7.476-2.22,10.926a26.572,26.572,0,0,1-3.554,7.231,17.893,17.893,0,0,1-9.007,6.036c-3.509,1.087-20.378,4.861-24.04,4.579l30.858-14.611,3.72-15.356Z"/></g><path d="M285.671,180.56l-3.394,13.062a14.946,14.946,0,0,1-11.1,10.963l-27.244,6.389-7.482.075V200.765l27.417-7.406a5.57,5.57,0,0,0,3.995-4.183l2.642-11.486Z" fill="#b78876"/><g opacity="0.3"><path d="M265.913,179.337" fill="none" stroke="#000" stroke-miterlimit="10" stroke-width="0.25"/></g><path d="M294.723,149.13c0,.144-11.454.261-25.581.261s-25.583-.117-25.583-.261,11.452-.26,25.583-.26S294.723,148.986,294.723,149.13Z" fill="#fafafa"/><path d="M295.044,157.982c0,.144-12.345.26-27.57.26s-27.572-.116-27.572-.26,12.342-.261,27.572-.261S295.044,157.838,295.044,157.982Z" fill="#fafafa"/><path d="M294.326,167.553c0,.144-12.995.362-29.024.488s-29.03.111-29.031-.033,12.992-.362,29.027-.488S294.325,167.409,294.326,167.553Z" fill="#fafafa"/><path d="M293.921,177.69c0,.144-10.393.26-23.211.26s-23.212-.116-23.212-.26,10.39-.261,23.212-.261S293.921,177.546,293.921,177.69Z" fill="#fafafa"/><path d="M290.337,181.649a.744.744,0,0,1,.015-.217l.089-.629q.137-.885.374-2.427c.327-2.114.8-5.188,1.335-9.037s1.141-8.474,1.447-13.693c.105-2.581.321-5.446-1.026-7.975a8.585,8.585,0,0,0-2.809-3.18,10.048,10.048,0,0,0-4.116-1.594l-.033-.005-.024-.007a8.448,8.448,0,0,0-5.056.342,14.331,14.331,0,0,0-4.688,2.547,3.915,3.915,0,0,0-.714.8,10.6,10.6,0,0,0-.527.986,14.355,14.355,0,0,0-.77,2.1,41.693,41.693,0,0,0-.925,4.351c-.517,2.9-1.02,5.709-1.5,8.421-.976,5.416-1.877,10.423-2.674,14.849l-.15-.233,15.38,3.293,4.231.939,1.1.261a1.867,1.867,0,0,1,.373.109,1.761,1.761,0,0,1-.385-.048l-1.117-.2-4.258-.829-15.437-3.123-.185-.038.034-.2c.775-4.434,1.652-9.448,2.6-14.873.478-2.715.974-5.532,1.485-8.43a41.769,41.769,0,0,1,.929-4.4,14.95,14.95,0,0,1,.8-2.174,10.984,10.984,0,0,1,.555-1.037,4.385,4.385,0,0,1,.812-.919,14.785,14.785,0,0,1,4.872-2.651,8.923,8.923,0,0,1,5.382-.333l-.057-.012a10.487,10.487,0,0,1,4.347,1.689A9.051,9.051,0,0,1,293,147.451a11.011,11.011,0,0,1,.773,2.049,12.833,12.833,0,0,1,.315,2.107q.028.525.057,1.044c-.007.343-.014.683-.021,1.022-.008.676-.043,1.342-.086,2-.338,5.246-1,9.868-1.564,13.715s-1.1,6.914-1.486,9.019q-.293,1.534-.46,2.414l-.134.622A.81.81,0,0,1,290.337,181.649Z" fill="#263238"/><path d="M247.93,192.789A8.264,8.264,0,0,0,248,191.4c.006-.973.014-2.251.024-3.794,0-3.2-.029-7.627-.089-12.513s-.138-9.311-.218-12.514c-.047-1.542-.086-2.82-.116-3.792a8.372,8.372,0,0,0-.1-1.391,8.524,8.524,0,0,0-.069,1.391c-.006.972-.014,2.25-.023,3.793,0,3.2.028,7.628.088,12.517s.139,9.312.219,12.514c.047,1.543.086,2.82.116,3.792A8.543,8.543,0,0,0,247.93,192.789Z" fill="#263238"/><path d="M264.607,213.277l.477-2.228-20.634-2.194-9-25.859-42.02-.29,13.767,29.98Z" fill="#455a64"/><path d="M220.355,199.244a2.069,2.069,0,1,0-2.855-.64,2.07,2.07,0,0,0,2.855.64" fill="#fff"/><path d="M248.949,95.411a5.573,5.573,0,0,0-1.988,10.294,3,3,0,0,0,2.807.327,3.462,3.462,0,0,0,1.523-2.2,11.828,11.828,0,0,0-.669-8.6" fill="#263238"/><path d="M266.289,146.452h0a8.967,8.967,0,0,1-8.963-9.069c.034-3.115.086-5.81.086-5.81s-7.2-.669-7.733-7.8-.3-23.589-.3-23.589h0a24.845,24.845,0,0,1,25.11,1.6l1.107.748-.341,35.047A8.965,8.965,0,0,1,266.289,146.452Z" fill="#b78876"/><path d="M257.394,131.471a16.618,16.618,0,0,0,9.138-3.217s-1.881,5.27-9.041,5.067Z" fill="#aa6550"/><path d="M273.753,110.412c.132-.05,4.514-.619,4.1,4.555s-5.5,3.046-5.5,2.9S273.753,110.412,273.753,110.412Z" fill="#b78876"/><path d="M274.084,116.174c.024-.014.085.071.232.153a.908.908,0,0,0,.672.068,2.237,2.237,0,0,0,1.192-1.919,2.972,2.972,0,0,0-.149-1.311,1.042,1.042,0,0,0-.623-.746.461.461,0,0,0-.551.2c-.081.139-.057.245-.085.252s-.1-.1-.045-.306a.582.582,0,0,1,.229-.308.686.686,0,0,1,.51-.092,1.274,1.274,0,0,1,.877.878,3.065,3.065,0,0,1,.2,1.467,2.348,2.348,0,0,1-1.494,2.13.97.97,0,0,1-.813-.2C274.083,116.3,274.065,116.182,274.084,116.174Z" fill="#aa6550"/><path d="M254.3,103.133a21.259,21.259,0,0,0,3.362-2.432,5.449,5.449,0,0,0,8.388,1.024,2.737,2.737,0,0,0,4.062,2.255l.105,8.255a3.787,3.787,0,0,0,.519,2.279c.479.632,1.587.827,2.026.167a5.769,5.769,0,0,1,.283-2.986,1.987,1.987,0,0,1,2.488-1.112,20.283,20.283,0,0,0,.291-4.883,4.478,4.478,0,0,1,.2-1.494c.282-.454.411-.1.934-.211a3.715,3.715,0,0,0,2.787-3.331,4.674,4.674,0,0,0-1.969-4,6.353,6.353,0,0,0-4.428-1.061,2.811,2.811,0,0,0,.034-3.759,4.569,4.569,0,0,0-3.764-1.378c-1.385.083-2.943.853-3.116,2.229a5.705,5.705,0,0,0-11.261-.312c-1.659-.736-3.983-1.552-5.634-.8a5.428,5.428,0,0,0-3.431,4.746s-.418,5.659,3.164,6.8S254.3,103.133,254.3,103.133Z" fill="#263238"/><path d="M251.258,111.6a1,1,0,0,0,.965,1.009.958.958,0,0,0,1.031-.9,1,1,0,0,0-.964-1.01A.959.959,0,0,0,251.258,111.6Z" fill="#263238"/><path d="M251.04,110.474c.124.131.882-.43,1.958-.427,1.075-.013,1.865.541,1.982.409.057-.058-.069-.294-.413-.544a2.739,2.739,0,0,0-1.586-.489,2.635,2.635,0,0,0-1.559.5C251.091,110.18,250.979,110.416,251.04,110.474Z" fill="#263238"/><path d="M261.8,111.851a1,1,0,0,0,.964,1.009.955.955,0,0,0,1.031-.9,1,1,0,0,0-.963-1.01A.957.957,0,0,0,261.8,111.851Z" fill="#263238"/><path d="M261.619,110.675c.124.13.883-.43,1.958-.427,1.075-.013,1.865.541,1.982.409.057-.059-.068-.294-.413-.544a2.739,2.739,0,0,0-1.586-.489,2.628,2.628,0,0,0-1.559.5C261.671,110.381,261.558,110.617,261.619,110.675Z" fill="#263238"/><path d="M257.713,118.656a7.172,7.172,0,0,0-1.748-.315c-.275-.028-.535-.083-.581-.271a1.4,1.4,0,0,1,.183-.814q.389-1,.813-2.093a35.809,35.809,0,0,0,1.825-5.473A35.983,35.983,0,0,0,255.944,115c-.272.734-.532,1.434-.779,2.105a1.585,1.585,0,0,0-.142,1.078.688.688,0,0,0,.452.4,1.841,1.841,0,0,0,.466.065A6.981,6.981,0,0,0,257.713,118.656Z" fill="#263238"/><path d="M260.88,119.4c-.175-.01-.177,1.158-1.177,1.987s-2.243.7-2.252.864c-.017.073.277.227.8.241a2.909,2.909,0,0,0,1.88-.655,2.535,2.535,0,0,0,.912-1.666C261.091,119.683,260.96,119.394,260.88,119.4Z" fill="#263238"/><path d="M261.341,106.457c.106.293,1.181.154,2.443.307,1.266.126,2.284.5,2.452.234.075-.126-.1-.4-.515-.685a4.279,4.279,0,0,0-3.729-.411C261.529,106.088,261.3,106.318,261.341,106.457Z" fill="#263238"/><path d="M251.436,107.359c.189.245.93-.009,1.822-.021.891-.043,1.646.164,1.82-.091.076-.124-.042-.369-.372-.6a2.641,2.641,0,0,0-2.935.091C251.456,106.988,251.352,107.24,251.436,107.359Z" fill="#263238"/><path d="M253.481,95.071c-.013.018-.1-.048-.278-.085a.958.958,0,0,0-.741.193,1,1,0,0,0-.331,1.086,1.752,1.752,0,0,0,1.067,1.163,2.29,2.29,0,0,0,1.926-.114,2.4,2.4,0,0,0,1.158-1.858,2.655,2.655,0,0,0-.9-2.257,3.162,3.162,0,0,0-2.528-.805,4.073,4.073,0,0,0-2.441,1.213,4.661,4.661,0,0,0-1.178,2.3,6.225,6.225,0,0,0,.731,4.35,7.212,7.212,0,0,0,2.041,2.277c.6.425.974.6.955.637a2.98,2.98,0,0,1-1.067-.468,6.814,6.814,0,0,1-2.246-2.259,6.483,6.483,0,0,1-.884-4.632,5.087,5.087,0,0,1,1.281-2.555,4.536,4.536,0,0,1,2.752-1.377,3.656,3.656,0,0,1,2.931.949,3.136,3.136,0,0,1,1.029,2.686,2.838,2.838,0,0,1-1.43,2.184,2.657,2.657,0,0,1-2.276.072,2.054,2.054,0,0,1-1.206-1.439,1.219,1.219,0,0,1,.5-1.316,1.024,1.024,0,0,1,.885-.127C253.429,94.964,253.49,95.063,253.481,95.071Z" fill="#455a64"/><path d="M86.054,426.012c.67-2.66-1.087-5.316-3.05-7.232s-4.307-3.629-5.337-6.171c-1.669-4.118.513-9.476-2.314-12.9-1.664-2.016-4.629-2.677-6.107-4.833a11.07,11.07,0,0,1-1.342-3.861,39.289,39.289,0,0,0-9.875-18.228,34.093,34.093,0,0,0,3.934,17.6c1.149,2.159,2.558,4.262,2.948,6.677.634,3.92-1.533,7.975-.547,11.823,1.127,4.4,6.094,7.321,6.354,11.856.22,3.834-3.1,7.219-2.832,11.049a10.339,10.339,0,0,0,1.732,4.538c2.993,4.913,7.368,8.283,13.97,8.135l8.088.238Z" fill="#00aecd"/><g opacity="0.3"><path d="M86.054,426.012c.67-2.66-1.087-5.316-3.05-7.232s-4.307-3.629-5.337-6.171c-1.669-4.118.513-9.476-2.314-12.9-1.664-2.016-4.629-2.677-6.107-4.833a11.07,11.07,0,0,1-1.342-3.861,39.289,39.289,0,0,0-9.875-18.228,34.093,34.093,0,0,0,3.934,17.6c1.149,2.159,2.558,4.262,2.948,6.677.634,3.92-1.533,7.975-.547,11.823,1.127,4.4,6.094,7.321,6.354,11.856.22,3.834-3.1,7.219-2.832,11.049a10.339,10.339,0,0,0,1.732,4.538c2.993,4.913,7.368,8.283,13.97,8.135l8.088.238Z"/></g><path d="M93.315,444.9a6.431,6.431,0,0,0,2.226-.06,13.46,13.46,0,0,0,2.625-.677,11.12,11.12,0,0,0,3.235-1.8,4.536,4.536,0,0,0,1.325-1.786,8.4,8.4,0,0,0,.367-2.418,23.223,23.223,0,0,1,.174-2.617,7.2,7.2,0,0,1,.973-2.607c.944-1.68,2.518-3.274,3.017-5.552.54-2.24.13-4.658-.26-7.087s-.768-5.066.145-7.6c.853-2.534,2.614-4.827,3.484-7.683.867-2.885.438-5.98.607-9.036a11.974,11.974,0,0,1,1.028-4.5c.646-1.435,1.546-2.79,2.246-4.3,1.418-3.055,1.652-6.509,2.025-9.9q.273-2.559.551-5.171a25.317,25.317,0,0,1,.869-5.176,45.643,45.643,0,0,1,1.906-5.016,16.6,16.6,0,0,0,.924-2.619,26.288,26.288,0,0,0,.245-2.783,32.726,32.726,0,0,0-.247-5.6c-.23-1.865-.577-3.713-.789-5.582l-.038-.322-.044-.372-.33.167a12.481,12.481,0,0,0-4.332,3.7,19.811,19.811,0,0,0-2.647,4.944c-1.331,3.482-1.8,7.126-2.458,10.6a28.778,28.778,0,0,1-3.267,9.8c-.878,1.445-1.943,2.765-2.873,4.176a11.435,11.435,0,0,0-1.981,4.62c-.458,3.424,1.443,6.418,1.068,9.449a10.475,10.475,0,0,1-1.452,4.2c-.727,1.3-1.583,2.5-2.4,3.708a23.733,23.733,0,0,0-2.149,3.744,11.806,11.806,0,0,0-.971,4.059c-.182,2.729.22,5.313.034,7.757a17.832,17.832,0,0,1-1.958,6.658c-.966,1.995-2.044,3.8-2.946,5.55a28.277,28.277,0,0,0-1.211,2.584,12.707,12.707,0,0,0-.7,2.56,16.156,16.156,0,0,0-.033,4.616,11.628,11.628,0,0,0,2.347,5.873,5.551,5.551,0,0,0,.658.705,3.235,3.235,0,0,0,.534.448c.3.221.464.321.464.321a10.235,10.235,0,0,1-1.575-1.539,11.712,11.712,0,0,1-2.228-5.834,16.057,16.057,0,0,1,.077-4.55,12.523,12.523,0,0,1,.7-2.5c.34-.836.762-1.686,1.219-2.55.909-1.734,2-3.532,2.986-5.54a18.151,18.151,0,0,0,2.027-6.775c.2-2.5-.191-5.09,0-7.754a11.435,11.435,0,0,1,.953-3.924,23.414,23.414,0,0,1,2.125-3.668c.812-1.2,1.678-2.408,2.426-3.732a10.923,10.923,0,0,0,1.518-4.377c.371-3.229-1.516-6.243-1.048-9.426a10.969,10.969,0,0,1,1.913-4.419c.916-1.384,1.986-2.706,2.89-4.188a29.2,29.2,0,0,0,3.344-9.962c.667-3.5,1.134-7.106,2.441-10.516a19.309,19.309,0,0,1,2.578-4.814,11.976,11.976,0,0,1,4.15-3.547l-.374-.2.038.326c.214,1.891.562,3.743.79,5.586a32.265,32.265,0,0,1,.246,5.511,26.632,26.632,0,0,1-.233,2.7,16.4,16.4,0,0,1-.893,2.526,45.935,45.935,0,0,0-1.921,5.071,25.768,25.768,0,0,0-.881,5.262q-.274,2.613-.544,5.175c-.367,3.4-.6,6.8-1.967,9.748-.674,1.468-1.573,2.827-2.238,4.309a12.466,12.466,0,0,0-1.057,4.662c-.159,3.122.264,6.17-.564,8.939s-2.574,5.062-3.45,7.677c-.939,2.642-.528,5.37-.129,7.786.4,2.432.81,4.8.3,6.953-.455,2.175-1.983,3.754-2.947,5.483a7.47,7.47,0,0,0-.988,2.71,23.45,23.45,0,0,0-.155,2.648,8.205,8.205,0,0,1-.331,2.352,4.33,4.33,0,0,1-1.245,1.709,11.1,11.1,0,0,1-3.158,1.805,13.891,13.891,0,0,1-2.586.717,10.427,10.427,0,0,1-1.644.169C93.508,444.893,93.315,444.9,93.315,444.9Z" fill="#263238"/><path d="M118.326,349.487a.917.917,0,0,0-.077.245c-.047.194-.1.434-.175.729-.155.638-.339,1.6-.637,2.8s-1.037,2.559-1.655,4.233c-.643,1.661-1.293,3.585-1.89,5.747s-1.137,4.558-1.694,7.127a29.98,29.98,0,0,1-2.544,7.912c-.655,1.317-1.394,2.651-1.979,4.109a19.092,19.092,0,0,0-1.138,4.647,93.839,93.839,0,0,1-1.687,9.793c-1.584,6.637-3.093,12.957-4.467,18.712-1.407,5.736-2.676,10.9-3.745,15.262-1.041,4.317-1.886,7.826-2.482,10.3q-.411,1.781-.649,2.806c-.063.3-.115.539-.156.734a.944.944,0,0,0-.036.254.945.945,0,0,0,.087-.242l.207-.72c.18-.676.429-1.606.743-2.783.635-2.465,1.535-5.959,2.642-10.26,1.1-4.35,2.406-9.509,3.854-15.235l4.509-18.717a92.184,92.184,0,0,0,1.684-9.834,18.651,18.651,0,0,1,1.1-4.534c.563-1.421,1.29-2.748,1.946-4.079a30.15,30.15,0,0,0,2.536-8.035c.539-2.575,1.049-4.966,1.628-7.121s1.193-4.078,1.807-5.741c.585-1.668,1.287-3.044,1.578-4.284.273-1.232.422-2.185.545-2.834.05-.3.091-.543.124-.739A1.007,1.007,0,0,0,118.326,349.487Z" fill="#263238"/><path d="M94.743,444.917c5.264-3.169,6.726-12.708,4.49-18.432s-6.123-10.942-6.752-17.055c-.484-4.7,1.028-9.532-.093-14.121-1.512-6.193-7.594-10.962-7.561-17.337.019-3.577,2.035-6.954,1.853-10.526-.224-4.381-3.608-7.84-5.713-11.689-3.223-5.891-3.472-12.877-4.6-19.5s-3.694-13.7-9.585-16.925c-.835,5.63-2.294,9.492-1.786,17.11.183,2.736,3.392,7.958,3.859,13.954.278,3.583.478,7.173.717,10.759.233,3.491.48,7.044,1.75,10.3.973,2.5,2.527,4.763,3.254,7.343,1.367,4.854-.363,10.13.746,15.049.941,4.168,3.849,7.743,4.463,11.972.863,5.941-2.95,12.14-.948,17.8.993,2.809,3.321,5.055,4,7.958.522,2.251-.02,4.641.454,6.9.765,3.644,7.741,6.439,11.457,6.192" fill="#00aecd"/><path d="M68.269,324.911a1.549,1.549,0,0,0,.025.318l.125.923c.125.812.268,2.005.552,3.545.3,1.55,1.113,3.292,1.764,5.394.685,2.1,1.369,4.514,1.978,7.222s1.139,5.7,1.687,8.929a37.477,37.477,0,0,0,2.765,10.091c.751,1.684,1.591,3.369,2.225,5.166a23.248,23.248,0,0,1,1.147,5.7,115.152,115.152,0,0,0,1.619,12.3c1.665,8.327,3.251,16.257,4.695,23.475,1.519,7.19,2.887,13.667,4.04,19.12,1.163,5.413,2.106,9.8,2.767,12.881.332,1.491.593,2.663.779,3.5l.215.907a1.375,1.375,0,0,0,.091.3,1.551,1.551,0,0,0-.039-.316c-.042-.234-.1-.537-.165-.917-.163-.838-.391-2.016-.683-3.517-.622-3.084-1.511-7.487-2.606-12.914l-3.931-19.142c-1.43-7.217-3-15.145-4.652-23.469a116.931,116.931,0,0,1-1.624-12.255,23.619,23.619,0,0,0-1.185-5.816c-.653-1.835-1.505-3.527-2.256-5.2a37.288,37.288,0,0,1-2.778-9.97c-.565-3.219-1.11-6.224-1.753-8.936S71.725,337.094,71.01,335c-.683-2.109-1.516-3.835-1.842-5.346-.309-1.512-.488-2.717-.646-3.518-.073-.379-.131-.681-.175-.915A1.455,1.455,0,0,0,68.269,324.911Z" fill="#263238"/><path d="M662.9,418.377c-1.218,1.741-3.587,1.164-4.685.1a8.852,8.852,0,0,1-1.986-4.071c-.965-3.355-1.938-6.875-1.221-10.292a5.724,5.724,0,0,1,1.315-2.8,2.986,2.986,0,0,1,2.831-.942,4.372,4.372,0,0,1,2.473,2.6,24.53,24.53,0,0,1,2.424,10.529,8.507,8.507,0,0,1-1.151,4.874" fill="#00aecd"/><g opacity="0.2"><path d="M662.9,418.377c-1.218,1.741-3.587,1.164-4.685.1a8.852,8.852,0,0,1-1.986-4.071c-.965-3.355-1.938-6.875-1.221-10.292a5.724,5.724,0,0,1,1.315-2.8,2.986,2.986,0,0,1,2.831-.942,4.372,4.372,0,0,1,2.473,2.6,24.53,24.53,0,0,1,2.424,10.529,8.507,8.507,0,0,1-1.151,4.874"/></g><path d="M658.334,427.192a10.563,10.563,0,0,0-6.553-.8,5.441,5.441,0,0,0-3.237,1.445,2.329,2.329,0,0,0-.033,3.232,3.1,3.1,0,0,0,2.041.517c1.732-.02,3.654-.325,5.038.718.789.594,1.315,1.583,2.259,1.875a2.232,2.232,0,0,0,2.455-1.092,3.815,3.815,0,0,0,.278-2.815A4.3,4.3,0,0,0,658.334,427.192Z" fill="#00aecd"/><path d="M666.247,420.875a6.335,6.335,0,0,1-.985-5.829,11.229,11.229,0,0,1,3.452-5.008,18.582,18.582,0,0,1,6.182-3.647,6.6,6.6,0,0,1,2.78-.473,2.919,2.919,0,0,1,2.333,1.412c.651,1.241.027,2.746-.648,3.974a47.076,47.076,0,0,1-4.06,6.183,10.992,10.992,0,0,1-4.466,3.826c-1.855.709-3.781.625-4.765-.661" fill="#00aecd"/><path d="M662.983,444.635a3.772,3.772,0,0,1-.11-.791c-.056-.576-.127-1.3-.21-2.158a31.388,31.388,0,0,0-.486-3.167,24.478,24.478,0,0,0-1.151-3.737,13.748,13.748,0,0,0-1.908-3.381,7.126,7.126,0,0,0-2.413-2.006,6.767,6.767,0,0,0-2.031-.632,3.853,3.853,0,0,1-.788-.114,3.631,3.631,0,0,1,.8-.013,6.176,6.176,0,0,1,2.118.552,7.1,7.1,0,0,1,2.545,2.023,13.467,13.467,0,0,1,1.978,3.449,22.949,22.949,0,0,1,1.143,3.8,26.966,26.966,0,0,1,.421,3.206c.068.917.094,1.659.107,2.172A3.739,3.739,0,0,1,662.983,444.635Z" fill="#263238"/><path d="M662.834,442.974a1.589,1.589,0,0,1-.021-.367c0-.276,0-.623,0-1.05,0-.91,0-2.229-.047-3.856-.081-3.255-.361-7.749-.9-12.688s-1.268-9.385-1.927-12.574c-.156-.8-.313-1.518-.46-2.148s-.261-1.175-.377-1.616c-.1-.414-.181-.752-.246-1.02a1.577,1.577,0,0,1-.064-.362,1.508,1.508,0,0,1,.128.344c.08.264.181.6.3,1.006.136.436.274.977.432,1.6s.338,1.345.509,2.143a119.1,119.1,0,0,1,2.025,12.586c.543,4.95.787,9.456.809,12.72.019,1.631-.016,2.952-.057,3.864-.026.426-.048.773-.064,1.049A1.6,1.6,0,0,1,662.834,442.974Z" fill="#263238"/><path d="M662.812,434.282a7.174,7.174,0,0,1,.008-1.1c.04-.705.137-1.723.336-2.971a39.01,39.01,0,0,1,.966-4.327,38.254,38.254,0,0,1,1.809-5.121,27.31,27.31,0,0,1,5.315-8.276,13.6,13.6,0,0,1,1.25-1.162c.192-.162.362-.324.534-.452l.486-.334a6.882,6.882,0,0,1,.922-.591,32.931,32.931,0,0,0-3.025,2.7,28.728,28.728,0,0,0-5.182,8.245,40.988,40.988,0,0,0-1.82,5.074c-.474,1.59-.79,3.053-1.028,4.285s-.357,2.243-.436,2.941A6.893,6.893,0,0,1,662.812,434.282Z" fill="#263238"/></g></svg>