<svg xmlns="http://www.w3.org/2000/svg" xmlns:xlink="http://www.w3.org/1999/xlink" width="750" height="500" viewBox="0 0 750 500"><defs><clipPath id="b"><rect width="750" height="500"/></clipPath></defs><g id="a" clip-path="url(#b)"><path d="M637.457,465.277v-1.441a6.037,6.037,0,0,1,6.037-6.037h50.885a6.037,6.037,0,0,1,6.038,6.037v1.441Z" fill="#e0e0e0"/><path d="M666.96,400.727,648.553,457.8h39.32l-17.088-57.032A2,2,0,0,0,666.96,400.727Z" fill="#e0e0e0"/><path d="M660.965,419.315h15.378l6.65,22.194H653.807Z" fill="#fafafa"/><path d="M266.715,464.036V462.6a6.037,6.037,0,0,1,6.037-6.037h50.885a6.037,6.037,0,0,1,6.038,6.037v1.441Z" fill="#e0e0e0"/><path d="M296.218,399.486l-18.407,57.072h39.32l-17.088-57.033A2,2,0,0,0,296.218,399.486Z" fill="#e0e0e0"/><path d="M290.223,418.074H305.6l6.65,22.194H283.065Z" fill="#fafafa"/><path d="M270.047,83.969l-5.056-8.806-7.92,1.164-6.538-8.216,3.37-8.181-8.83-5.86-6.592,6.648L229.8,59.2l-3.52-10.209L215.73,50.1l-.6,8.931-7.861,3.993-8.322-5.891-8.44,6.147,4.386,9.452L189.873,80.3l-9.126-.485-2.384,11.258,8.684,3.341.747,9.459-9,5.169,4.3,9.76,9.318-1.447,6.173,7.125-3.229,8.88,8.536,6.028,6.661-7.207,9.242,2.5,2.875,9.539,10.271-.693,1.326-8.568,8.807-5.057,7.205,5.752,9.111-6.793-4.607-8.024,4.49-8.043,9.239.681L271.346,103l-7.93-4.295-1.056-9.543Zm-35.779,30.822a20.761,20.761,0,1,1,7.667-28.342A20.761,20.761,0,0,1,234.268,114.791Z" fill="#ebebeb"/><path d="M233.126,90.752a22.912,22.912,0,0,0-1.705-2.083A10.94,10.94,0,0,0,225,85.526a10.758,10.758,0,0,0-9.586,3.768,10.759,10.759,0,0,0-2.451,5.728,10.687,10.687,0,0,0,6.311,10.994,10.774,10.774,0,0,0,6.185.772,10.759,10.759,0,0,0,8.087-6.38,10.95,10.95,0,0,0,.524-7.133,22.7,22.7,0,0,0-.94-2.523,8.553,8.553,0,0,1,1.135,2.468,11.072,11.072,0,0,1-3.388,11.507,11.21,11.21,0,0,1-5.336,2.534,11.214,11.214,0,0,1-6.473-.778,11.152,11.152,0,0,1-6.612-11.518,11.2,11.2,0,0,1,2.591-5.981,11.2,11.2,0,0,1,4.877-3.33,11.044,11.044,0,0,1,5.124-.494,10.932,10.932,0,0,1,6.523,3.368A8.561,8.561,0,0,1,233.126,90.752Z" fill="#ebebeb"/><path d="M243,67.631c.12.079-2.7,4.57-6.29,10.03s-6.606,9.824-6.726,9.745,2.7-4.569,6.291-10.031S242.884,67.552,243,67.631Z" fill="#ebebeb"/><path d="M253.2,103.964a19.118,19.118,0,0,1-2.8-.779c-1.713-.519-4.085-1.206-6.734-1.853s-5.073-1.129-6.831-1.456a19.116,19.116,0,0,1-2.842-.6,13.83,13.83,0,0,1,2.9.233,68.827,68.827,0,0,1,13.622,3.323A13.93,13.93,0,0,1,253.2,103.964Z" fill="#ebebeb"/><path d="M228.244,106.366a11.774,11.774,0,0,1,.9,2.428c.477,1.523,1.07,3.649,1.622,6.021s.955,4.544,1.2,6.122a11.89,11.89,0,0,1,.266,2.573A13.742,13.742,0,0,1,231.6,121c-.335-1.557-.8-3.706-1.343-6.071s-1.084-4.495-1.47-6.04A13.849,13.849,0,0,1,228.244,106.366Z" fill="#ebebeb"/><path d="M217.03,105.1a68.133,68.133,0,0,1-4.119,7.334,68.1,68.1,0,0,1-4.565,7.065,67.829,67.829,0,0,1,4.119-7.334A68.041,68.041,0,0,1,217.03,105.1Z" fill="#ebebeb"/><path d="M215.439,69.7a63.981,63.981,0,0,1,2.649,7.715,64.128,64.128,0,0,1,2.153,7.87,63.934,63.934,0,0,1-2.65-7.716A63.914,63.914,0,0,1,215.439,69.7Z" fill="#ebebeb"/><path d="M213.088,94.142a40.821,40.821,0,0,1-6.486-.358,40.737,40.737,0,0,1-6.437-.876,40.758,40.758,0,0,1,6.487.357A40.524,40.524,0,0,1,213.088,94.142Z" fill="#ebebeb"/><path d="M231.03,91.956a8.562,8.562,0,1,1-11.689-3.162A8.561,8.561,0,0,1,231.03,91.956Z" fill="#ebebeb"/><path d="M227.742,96.285A8.917,8.917,0,0,0,219,95.337c-.033-.053.384-.4,1.193-.737a7.02,7.02,0,0,1,6.544.709C227.454,95.807,227.786,96.24,227.742,96.285Z" fill="#e0e0e0"/><path d="M224.311,91.267a28.258,28.258,0,0,0-1.292,3.983,28.259,28.259,0,0,0-.176,4.184,8.454,8.454,0,0,1,1.468-8.167Z" fill="#e0e0e0"/><path d="M382.2,262.287l-6.543-11.394L365.406,252.4l-8.46-10.63,4.36-10.585L349.882,223.6l-8.529,8.6-11.231-1.969-4.554-13.21-13.651,1.441-.772,11.555-10.171,5.166-10.767-7.622-10.921,7.954,5.675,12.229-6.5,9.792-11.808-.628-3.084,14.566,11.236,4.322.967,12.239-11.648,6.688,5.567,12.628,12.056-1.872,7.987,9.219-4.177,11.489,11.043,7.8,8.619-9.326,11.958,3.235,3.719,12.342,13.29-.9L335.9,328.26l11.395-6.543,9.323,7.441,11.788-8.788-5.961-10.382,5.809-10.406,11.953.881,3.666-13.553-10.26-5.556-1.366-12.347ZM335.9,302.166a26.862,26.862,0,1,1,9.92-36.671A26.863,26.863,0,0,1,335.9,302.166Z" fill="#e0e0e0"/><path d="M334.425,271.063a24.791,24.791,0,0,0-2.185-2.716,14.155,14.155,0,0,0-8.327-4.1,13.974,13.974,0,0,0-12.464,4.884,13.988,13.988,0,0,0-3.192,7.449,13.9,13.9,0,0,0,8.21,14.3,14.008,14.008,0,0,0,8.044,1,14.085,14.085,0,0,0,11.158-17.562,24.753,24.753,0,0,0-1.244-3.256.773.773,0,0,1,.128.193c.09.16.2.355.33.592a6.5,6.5,0,0,1,.473,1,10.026,10.026,0,0,1,.508,1.419,13.387,13.387,0,0,1,.577,4.092,14.341,14.341,0,0,1-4.973,10.74,14.432,14.432,0,0,1-6.874,3.257,14.437,14.437,0,0,1-8.333-1.005,14.363,14.363,0,0,1-8.511-14.826,14.449,14.449,0,0,1,3.332-7.7,14.436,14.436,0,0,1,6.278-4.3,14.347,14.347,0,0,1,11.783,1.119,13.428,13.428,0,0,1,3.243,2.561,10.059,10.059,0,0,1,.97,1.155,6.5,6.5,0,0,1,.622.911c.138.234.252.425.345.584A.772.772,0,0,1,334.425,271.063Z" fill="#e0e0e0"/><path d="M347.2,241.148c.12.079-3.553,5.871-8.2,12.935s-8.519,12.729-8.639,12.65,3.552-5.869,8.2-12.936S347.085,241.069,347.2,241.148Z" fill="#e0e0e0"/><path d="M360.4,288.157a33.638,33.638,0,0,1-3.6-1.059c-2.212-.685-5.281-1.582-8.711-2.421s-6.569-1.452-8.848-1.863a33.481,33.481,0,0,1-3.685-.719,3.812,3.812,0,0,1,1.011.034c.648.053,1.582.161,2.732.322,2.3.318,5.466.881,8.914,1.72s6.513,1.8,8.7,2.577c1.1.388,1.974.722,2.573.973A3.818,3.818,0,0,1,360.4,288.157Z" fill="#e0e0e0"/><path d="M328.108,291.265a19.253,19.253,0,0,1,1.107,3.156c.6,1.974,1.363,4.725,2.077,7.793s1.243,5.875,1.571,7.913a19.272,19.272,0,0,1,.4,3.32,23.627,23.627,0,0,1-.759-3.253c-.42-2.017-1.007-4.8-1.717-7.862s-1.411-5.817-1.923-7.812A23.831,23.831,0,0,1,328.108,291.265Z" fill="#e0e0e0"/><path d="M313.6,289.621c.123.074-2.293,4.306-5.395,9.45s-5.718,9.256-5.841,9.181,2.292-4.3,5.395-9.45S313.476,289.547,313.6,289.621Z" fill="#e0e0e0"/><path d="M311.54,243.83c.138-.043,1.64,4.437,3.355,10.005s3,10.117,2.858,10.16-1.639-4.437-3.355-10.007S311.4,243.872,311.54,243.83Z" fill="#e0e0e0"/><path d="M308.5,275.448a67.707,67.707,0,0,1-8.385-.539,67.851,67.851,0,0,1-8.336-1.057,67.97,67.97,0,0,1,8.386.539A68.05,68.05,0,0,1,308.5,275.448Z" fill="#e0e0e0"/><circle cx="11.079" cy="11.079" r="11.079" transform="matrix(0.164, -0.986, 0.986, 0.164, 309.356, 287.244)" fill="#e0e0e0"/><path d="M327.459,278.221a16.159,16.159,0,0,1-1.523-.9,10.284,10.284,0,0,0-8.11-.879,16.319,16.319,0,0,1-1.68.556,3.836,3.836,0,0,1,1.56-.9,9.212,9.212,0,0,1,8.422.913C327.06,277.634,327.5,278.179,327.459,278.221Z" fill="#ebebeb"/><path d="M323.019,271.729a18.187,18.187,0,0,0-1.9,10.567,11.487,11.487,0,0,1,1.9-10.567Z" fill="#ebebeb"/><path d="M386.023,69.594l-3.293-5.735-5.157.758-4.259-5.351,2.2-5.328-5.75-3.816-4.293,4.329-5.653-.991-2.293-6.648-6.871.725-.389,5.816-5.119,2.6-5.42-3.836-5.5,4,2.857,6.156L333.81,67.2l-5.944-.315-1.552,7.331,5.655,2.176.487,6.16-5.863,3.367,2.8,6.356,6.068-.942,4.02,4.64-2.1,5.783,5.559,3.926,4.338-4.694,6.019,1.628,1.872,6.212,6.69-.451.863-5.58,5.736-3.293,4.692,3.745,5.934-4.423-3-5.226,2.924-5.238,6.017.444,1.845-6.822-5.164-2.8-.688-6.214Zm-23.3,20.073a13.521,13.521,0,1,1,4.993-18.458A13.521,13.521,0,0,1,362.722,89.667Z" fill="#f5f5f5"/><path d="M361.979,74.011a12.8,12.8,0,0,0-1.1-1.367,7.131,7.131,0,0,0-4.192-2.064,7.034,7.034,0,0,0-6.273,2.459,7.037,7.037,0,0,0-1.607,3.749,7,7,0,0,0,4.133,7.2,7.05,7.05,0,0,0,4.049.5,7.078,7.078,0,0,0,3.36-1.567,7,7,0,0,0,1.925-2.613,7.126,7.126,0,0,0,.331-4.66,12.633,12.633,0,0,0-.626-1.639.418.418,0,0,1,.064.1l.166.3a3.274,3.274,0,0,1,.238.5,4.984,4.984,0,0,1,.256.715,6.754,6.754,0,0,1,.291,2.059,7.224,7.224,0,0,1-2.5,5.406,7.273,7.273,0,0,1-3.46,1.64,7.285,7.285,0,0,1-4.194-.506,7.228,7.228,0,0,1-4.284-7.463,7.262,7.262,0,0,1,1.677-3.876,7.262,7.262,0,0,1,3.16-2.162,7.226,7.226,0,0,1,5.931.563,6.764,6.764,0,0,1,1.632,1.289,4.983,4.983,0,0,1,.488.582,3.237,3.237,0,0,1,.314.458l.173.294A.4.4,0,0,1,361.979,74.011Z" fill="#f5f5f5"/><path d="M368.411,58.954c.061.04-1.788,2.955-4.128,6.511s-4.288,6.407-4.348,6.367,1.787-2.955,4.129-6.512S368.351,58.914,368.411,58.954Z" fill="#f5f5f5"/><path d="M375.052,82.615a16.748,16.748,0,0,1-1.813-.533c-1.113-.344-2.658-.8-4.385-1.218s-3.306-.731-4.453-.938a16.825,16.825,0,0,1-1.855-.362,1.9,1.9,0,0,1,.509.017c.326.027.8.082,1.375.162,1.158.161,2.751.444,4.487.866s3.278.906,4.38,1.3c.551.2.994.364,1.3.49A1.92,1.92,0,0,1,375.052,82.615Z" fill="#f5f5f5"/><path d="M358.8,84.18a9.716,9.716,0,0,1,.557,1.588c.3.994.686,2.379,1.045,3.923s.626,2.957.791,3.983a9.757,9.757,0,0,1,.2,1.671,11.872,11.872,0,0,1-.382-1.637c-.211-1.016-.506-2.417-.864-3.957s-.71-2.928-.968-3.933A11.87,11.87,0,0,1,358.8,84.18Z" fill="#f5f5f5"/><path d="M351.5,83.352c.062.038-1.154,2.168-2.716,4.757s-2.878,4.659-2.94,4.621,1.154-2.166,2.716-4.757S351.434,83.315,351.5,83.352Z" fill="#f5f5f5"/><path d="M350.46,60.3c.069-.021.825,2.234,1.688,5.037s1.508,5.092,1.439,5.113-.825-2.233-1.689-5.036S350.39,60.325,350.46,60.3Z" fill="#f5f5f5"/><path d="M348.929,76.219a68.453,68.453,0,0,1-8.416-.8,67.981,67.981,0,0,1,8.416.8Z" fill="#f5f5f5"/><path d="M360.614,74.795A5.577,5.577,0,1,1,353,72.736,5.577,5.577,0,0,1,360.614,74.795Z" fill="#f5f5f5"/><path d="M358.472,77.614a7.776,7.776,0,0,1-.766-.454,5.176,5.176,0,0,0-4.082-.442,7.994,7.994,0,0,1-.846.279,1.941,1.941,0,0,1,.785-.454A4.633,4.633,0,0,1,357.8,77C358.271,77.319,358.494,77.593,358.472,77.614Z" fill="#ebebeb"/><path d="M356.238,74.346a13.424,13.424,0,0,0-.88,2.588,13.459,13.459,0,0,0-.076,2.732,5.781,5.781,0,0,1,.956-5.32Z" fill="#ebebeb"/><path d="M246.921,210.84,238.63,196.4l-12.983,1.908-10.721-13.47,5.525-13.412-14.476-9.607-10.808,10.9-14.231-2.494-5.772-16.739-17.3,1.826-.98,14.641L144,176.5l-13.644-9.658L116.517,176.92l7.191,15.5-8.235,12.408-14.963-.795L96.6,222.486l14.238,5.478,1.225,15.508-14.76,8.475,7.055,16,15.277-2.372,10.12,11.682-5.293,14.558,14,9.884,10.921-11.817,15.152,4.1,4.714,15.64,16.84-1.136,2.174-14.048,14.439-8.29,11.813,9.429,14.938-11.137L221.9,271.286l7.361-13.187,15.147,1.116,4.646-17.173-13-7.04-1.73-15.646ZM188.26,261.374A34.04,34.04,0,1,1,200.83,214.9,34.04,34.04,0,0,1,188.26,261.374Z" fill="#f5f5f5"/><path d="M186.388,221.961a31.28,31.28,0,0,0-2.769-3.442,17.932,17.932,0,0,0-10.552-5.195,17.707,17.707,0,0,0-15.794,6.188,17.741,17.741,0,0,0-4.045,9.439,17.612,17.612,0,0,0,10.4,18.123,17.741,17.741,0,0,0,10.193,1.266,17.848,17.848,0,0,0,14.14-22.253,31.421,31.421,0,0,0-1.577-4.126c.01-.006.065.077.162.244.114.2.251.45.419.75a8.363,8.363,0,0,1,.6,1.263,12.725,12.725,0,0,1,.644,1.8,17.005,17.005,0,0,1,.731,5.185,18.175,18.175,0,0,1-6.3,13.61,18.287,18.287,0,0,1-8.711,4.127,18.289,18.289,0,0,1-10.559-1.274,18.2,18.2,0,0,1-10.785-18.786,18.281,18.281,0,0,1,4.223-9.76,18.286,18.286,0,0,1,7.954-5.442,18.18,18.18,0,0,1,14.931,1.418,17,17,0,0,1,4.11,3.245,12.642,12.642,0,0,1,1.229,1.464,8.282,8.282,0,0,1,.789,1.154l.437.74A.954.954,0,0,1,186.388,221.961Z" fill="#f5f5f5"/><path d="M202.582,184.053c.153.1-4.5,7.44-10.394,16.391s-10.794,16.13-10.946,16.03,4.5-7.438,10.395-16.393S202.43,183.953,202.582,184.053Z" fill="#f5f5f5"/><path d="M219.3,243.622a42.826,42.826,0,0,1-4.565-1.342c-2.8-.868-6.692-2.005-11.038-3.068s-8.325-1.84-11.213-2.361a42.387,42.387,0,0,1-4.669-.911,4.851,4.851,0,0,1,1.282.043c.82.067,2,.205,3.461.408,2.916.4,6.927,1.117,11.295,2.18s8.255,2.281,11.029,3.266c1.387.491,2.5.914,3.26,1.232A4.809,4.809,0,0,1,219.3,243.622Z" fill="#f5f5f5"/><path d="M178.384,247.56a24.522,24.522,0,0,1,1.4,4c.766,2.5,1.727,5.987,2.631,9.876s1.576,7.444,1.991,10.027a24.256,24.256,0,0,1,.5,4.207,30.187,30.187,0,0,1-.961-4.122c-.532-2.556-1.276-6.084-2.175-9.963s-1.789-7.371-2.438-9.9A29.81,29.81,0,0,1,178.384,247.56Z" fill="#f5f5f5"/><path d="M160,245.477c.156.094-2.9,5.456-6.837,11.974s-7.246,11.729-7.4,11.635,2.9-5.455,6.837-11.975S159.842,245.383,160,245.477Z" fill="#f5f5f5"/><path d="M157.389,187.451c.174-.054,2.078,5.623,4.251,12.679s3.8,12.82,3.622,12.874-2.078-5.623-4.252-12.68S157.215,187.505,157.389,187.451Z" fill="#f5f5f5"/><path d="M153.535,227.518c-.017.181-4.775-.125-10.625-.683s-10.58-1.159-10.563-1.34,4.774.124,10.626.683S153.553,227.336,153.535,227.518Z" fill="#f5f5f5"/><circle cx="14.039" cy="14.039" r="14.039" transform="translate(153.393 240.516) rotate(-73.887)" fill="#f5f5f5"/><path d="M177.56,231.031a20.533,20.533,0,0,1-1.929-1.143,13.021,13.021,0,0,0-10.277-1.113,20.491,20.491,0,0,1-2.129.7,4.875,4.875,0,0,1,1.977-1.145,11.673,11.673,0,0,1,10.672,1.157C177.055,230.287,177.614,230.977,177.56,231.031Z" fill="#ebebeb"/><path d="M171.935,222.8c.183.1-1.564,2.754-2.214,6.514-.7,3.752.014,6.845-.193,6.877-.141.076-1.182-3.076-.457-6.994C169.756,225.278,171.829,222.684,171.935,222.8Z" fill="#ebebeb"/><path d="M630.275,202.086l-8.29-14.439L609,189.556l-10.721-13.47,5.526-13.412-14.476-9.608-10.808,10.9L564.29,161.47l-5.771-16.739-17.3,1.826-.979,14.642-12.889,6.547-13.643-9.659-13.839,10.079,7.191,15.5-8.235,12.408-14.962-.795-3.909,18.456,14.238,5.478,1.225,15.509-14.759,8.475,7.054,16,15.277-2.373,10.121,11.682-5.294,14.559,13.995,9.884,10.921-11.817,15.153,4.1,4.713,15.639,16.84-1.136,2.174-14.047,14.439-8.291,11.814,9.429L612.8,275.688l-7.554-13.156,7.362-13.186,15.146,1.116,4.646-17.173-13-7.041L617.672,210.6Zm-58.66,50.534a34.039,34.039,0,1,1,12.57-46.469A34.039,34.039,0,0,1,571.615,252.62Z" fill="#f5f5f5"/><path d="M569.743,213.207a31.622,31.622,0,0,0-2.77-3.442,17.938,17.938,0,0,0-10.551-5.195,17.708,17.708,0,0,0-15.795,6.188,17.737,17.737,0,0,0-4.044,9.44,17.606,17.606,0,0,0,10.4,18.122,17.751,17.751,0,0,0,10.193,1.267,17.849,17.849,0,0,0,14.139-22.253,31.694,31.694,0,0,0-1.576-4.127,1.018,1.018,0,0,1,.161.244l.419.75a8.189,8.189,0,0,1,.6,1.264,12.718,12.718,0,0,1,.644,1.8,16.989,16.989,0,0,1,.732,5.184,18.177,18.177,0,0,1-6.3,13.61,18.289,18.289,0,0,1-8.71,4.128,18.309,18.309,0,0,1-10.559-1.274,18.2,18.2,0,0,1-10.786-18.787,18.293,18.293,0,0,1,4.223-9.759,18.286,18.286,0,0,1,7.954-5.442,18.178,18.178,0,0,1,14.932,1.417,16.972,16.972,0,0,1,4.109,3.246,12.639,12.639,0,0,1,1.229,1.463,8.111,8.111,0,0,1,.789,1.154c.175.3.319.54.438.74A1.027,1.027,0,0,1,569.743,213.207Z" fill="#f5f5f5"/><path d="M585.937,175.3c.152.1-4.5,7.439-10.394,16.391s-10.794,16.13-10.946,16.03,4.5-7.439,10.4-16.393S585.785,175.2,585.937,175.3Z" fill="#f5f5f5"/><path d="M602.656,234.868a42.368,42.368,0,0,1-4.565-1.342c-2.8-.868-6.693-2.005-11.039-3.067s-8.324-1.841-11.212-2.361a42.742,42.742,0,0,1-4.67-.911,4.82,4.82,0,0,1,1.282.042c.821.068,2,.205,3.462.408,2.916.4,6.926,1.117,11.295,2.181s8.254,2.281,11.028,3.265c1.388.491,2.5.914,3.261,1.233A4.864,4.864,0,0,1,602.656,234.868Z" fill="#f5f5f5"/><path d="M561.738,238.807a24.245,24.245,0,0,1,1.4,4c.765,2.5,1.727,5.988,2.631,9.876s1.576,7.444,1.991,10.027a24.379,24.379,0,0,1,.5,4.207,29.8,29.8,0,0,1-.962-4.122c-.532-2.556-1.275-6.083-2.175-9.962s-1.788-7.371-2.438-9.9A30.052,30.052,0,0,1,561.738,238.807Z" fill="#f5f5f5"/><path d="M543.352,236.723c.156.095-2.9,5.456-6.836,11.975s-7.246,11.729-7.4,11.635,2.9-5.455,6.837-11.976S543.2,236.629,543.352,236.723Z" fill="#f5f5f5"/><path d="M540.743,178.7c.174-.053,2.078,5.624,4.252,12.679s3.795,12.82,3.621,12.874-2.077-5.622-4.252-12.68S540.569,178.751,540.743,178.7Z" fill="#f5f5f5"/><path d="M536.89,218.764c-.018.182-4.775-.124-10.625-.683s-10.581-1.158-10.564-1.34,4.774.124,10.626.683S536.907,218.583,536.89,218.764Z" fill="#f5f5f5"/><circle cx="14.039" cy="14.039" r="14.039" transform="translate(536.879 231.996) rotate(-74.661)" fill="#f5f5f5"/><path d="M560.915,222.278a20.473,20.473,0,0,1-1.93-1.144,13.031,13.031,0,0,0-10.277-1.113,20.6,20.6,0,0,1-2.129.7,4.873,4.873,0,0,1,1.977-1.145,11.676,11.676,0,0,1,10.672,1.156C560.409,221.533,560.969,222.224,560.915,222.278Z" fill="#ebebeb"/><path d="M555.289,214.051c.183.1-1.564,2.754-2.214,6.513-.7,3.752.015,6.846-.192,6.878-.142.075-1.182-3.077-.458-6.995C553.11,216.524,555.183,213.931,555.289,214.051Z" fill="#ebebeb"/><path d="M477.2,291.356l-4.077-7.1-6.385.939-5.271-6.624,2.717-6.6-7.119-4.724-5.315,5.359-7-1.227-2.838-8.231-8.506.9-.481,7.2-6.338,3.219-6.709-4.75-6.805,4.957,3.536,7.62-4.049,6.1-7.358-.391-1.922,9.076,7,2.694.6,7.626-7.258,4.167,3.469,7.869,7.512-1.166,4.977,5.744-2.6,7.159,6.882,4.861,5.37-5.811,7.451,2.015,2.318,7.691,8.281-.559,1.069-6.908,7.1-4.076,5.809,4.636,7.346-5.476L464.9,321.08l3.62-6.484,7.449.549,2.284-8.445-6.394-3.462-.851-7.694Zm-28.846,24.85a16.739,16.739,0,1,1,6.181-22.851A16.738,16.738,0,0,1,448.359,316.206Z" fill="#f5f5f5"/><path d="M447.438,296.825a15.279,15.279,0,0,0-1.361-1.693,8.828,8.828,0,0,0-5.189-2.554,8.708,8.708,0,0,0-7.767,3.043,8.716,8.716,0,0,0-1.988,4.642,8.655,8.655,0,0,0,5.116,8.911,8.714,8.714,0,0,0,5.012.623,8.777,8.777,0,0,0,6.953-10.943,15.175,15.175,0,0,0-.776-2.029c.005,0,.032.038.08.12l.206.369a4.069,4.069,0,0,1,.294.621,6.125,6.125,0,0,1,.317.885,8.363,8.363,0,0,1,.36,2.549,8.94,8.94,0,0,1-3.1,6.693,8.992,8.992,0,0,1-4.284,2.029,9,9,0,0,1-5.192-.626,8.95,8.95,0,0,1-5.3-9.238,8.986,8.986,0,0,1,2.076-4.8,9,9,0,0,1,3.912-2.676,8.934,8.934,0,0,1,7.342.7,8.343,8.343,0,0,1,2.021,1.6,6.264,6.264,0,0,1,.6.719,3.992,3.992,0,0,1,.388.568l.215.364A.449.449,0,0,1,447.438,296.825Z" fill="#f5f5f5"/><path d="M455.4,278.184c.075.05-2.214,3.659-5.111,8.061s-5.308,7.931-5.383,7.882,2.213-3.658,5.112-8.061S455.327,278.135,455.4,278.184Z" fill="#f5f5f5"/><path d="M463.623,307.477a21.222,21.222,0,0,1-2.245-.66c-1.378-.427-3.291-.986-5.428-1.509s-4.093-.9-5.513-1.161a20.9,20.9,0,0,1-2.3-.448,2.416,2.416,0,0,1,.631.021c.4.033.985.1,1.7.2,1.434.2,3.406.549,5.554,1.072s4.059,1.122,5.423,1.606c.683.241,1.23.449,1.6.606A2.343,2.343,0,0,1,463.623,307.477Z" fill="#f5f5f5"/><path d="M443.5,309.413a11.98,11.98,0,0,1,.69,1.967c.377,1.23.849,2.944,1.294,4.856s.775,3.661.979,4.931a11.938,11.938,0,0,1,.247,2.068,14.754,14.754,0,0,1-.473-2.027c-.261-1.257-.627-2.991-1.069-4.9s-.88-3.624-1.2-4.868A14.84,14.84,0,0,1,443.5,309.413Z" fill="#f5f5f5"/><path d="M434.461,308.389c.077.046-1.428,2.683-3.361,5.888s-3.564,5.768-3.64,5.721,1.428-2.682,3.362-5.888S434.385,308.343,434.461,308.389Z" fill="#f5f5f5"/><path d="M433.178,279.855c.086-.026,1.022,2.766,2.091,6.235s1.866,6.3,1.781,6.331-1.022-2.765-2.091-6.236S433.093,279.882,433.178,279.855Z" fill="#f5f5f5"/><path d="M431.284,299.558a84.529,84.529,0,0,1-10.42-1,84.465,84.465,0,0,1,10.42,1Z" fill="#f5f5f5"/><circle cx="6.904" cy="6.904" r="6.904" transform="translate(431.077 305.693) rotate(-72.182)" fill="#f5f5f5"/><path d="M443.1,301.285a9.989,9.989,0,0,1-.948-.562,6.409,6.409,0,0,0-5.054-.547,10.286,10.286,0,0,1-1.047.346,2.387,2.387,0,0,1,.972-.563,5.74,5.74,0,0,1,5.248.568C442.849,300.919,443.124,301.259,443.1,301.285Z" fill="#ebebeb"/><path d="M440.331,297.24a11.322,11.322,0,0,0-1.183,6.585,7.158,7.158,0,0,1,1.183-6.585Z" fill="#ebebeb"/><path d="M525.809,91.5l-6.543-11.4L509.02,81.608l-8.46-10.63,4.36-10.584L493.5,52.813l-8.529,8.6-11.231-1.968-4.554-13.21-13.651,1.441-.772,11.554L444.588,64.4l-10.767-7.622L422.9,64.729l5.675,12.229-6.5,9.792-11.808-.628-3.084,14.565,11.236,4.323.967,12.239-11.648,6.688,5.567,12.628,12.056-1.872,7.987,9.219L429.172,155.4l11.043,7.8,8.619-9.326,11.958,3.235,3.719,12.342,13.29-.9,1.715-11.085,11.4-6.543,9.323,7.441,11.788-8.788L506.061,139.2l5.809-10.406,11.953.881,3.666-13.553-10.26-5.556-1.366-12.347Zm-46.292,39.879a26.863,26.863,0,1,1,9.919-36.671A26.863,26.863,0,0,1,479.517,131.376Z" fill="#e0e0e0"/><path d="M478.039,100.273a24.566,24.566,0,0,0-2.185-2.716,14.156,14.156,0,0,0-8.327-4.1,13.976,13.976,0,0,0-12.464,4.883,14,14,0,0,0-3.192,7.45,13.9,13.9,0,0,0,8.21,14.3,14,14,0,0,0,8.044,1,14.084,14.084,0,0,0,11.158-17.561,24.749,24.749,0,0,0-1.244-3.256.778.778,0,0,1,.128.192l.33.593a6.457,6.457,0,0,1,.473,1,10.03,10.03,0,0,1,.508,1.419,13.385,13.385,0,0,1,.577,4.091,14.341,14.341,0,0,1-4.973,10.741,14.432,14.432,0,0,1-6.874,3.257,14.438,14.438,0,0,1-8.333-1.005,14.363,14.363,0,0,1-8.511-14.826,14.448,14.448,0,0,1,3.332-7.7,14.436,14.436,0,0,1,6.278-4.295,14.347,14.347,0,0,1,11.783,1.119A13.4,13.4,0,0,1,476,97.416a10.058,10.058,0,0,1,.97,1.155,6.44,6.44,0,0,1,.622.911c.138.233.252.425.345.584A.774.774,0,0,1,478.039,100.273Z" fill="#e0e0e0"/><path d="M490.819,70.358c.12.079-3.553,5.871-8.2,12.935s-8.519,12.729-8.639,12.65,3.552-5.87,8.2-12.936S490.7,70.279,490.819,70.358Z" fill="#e0e0e0"/><path d="M504.013,117.367a33.635,33.635,0,0,1-3.6-1.059c-2.212-.685-5.281-1.582-8.711-2.421s-6.569-1.452-8.848-1.863a33.784,33.784,0,0,1-3.685-.719,3.813,3.813,0,0,1,1.011.034c.648.053,1.582.161,2.732.321,2.3.319,5.466.882,8.914,1.721s6.514,1.8,8.7,2.577c1.1.388,1.974.722,2.573.973A3.82,3.82,0,0,1,504.013,117.367Z" fill="#e0e0e0"/><path d="M471.722,120.475a19.259,19.259,0,0,1,1.107,3.155c.6,1.974,1.363,4.725,2.077,7.794s1.243,5.875,1.571,7.913a19.262,19.262,0,0,1,.4,3.32,23.633,23.633,0,0,1-.759-3.253c-.42-2.017-1.007-4.8-1.717-7.862s-1.411-5.817-1.923-7.812A23.839,23.839,0,0,1,471.722,120.475Z" fill="#e0e0e0"/><path d="M457.213,118.831c.123.074-2.292,4.306-5.4,9.45s-5.718,9.255-5.841,9.181,2.292-4.3,5.4-9.45S457.09,118.757,457.213,118.831Z" fill="#e0e0e0"/><path d="M455.154,73.04c.138-.043,1.64,4.437,3.355,10s3,10.117,2.858,10.159-1.639-4.436-3.355-10.006S455.017,73.082,455.154,73.04Z" fill="#e0e0e0"/><path d="M452.113,104.658a67.927,67.927,0,0,1-8.384-.539,68.084,68.084,0,0,1-8.337-1.057,135.643,135.643,0,0,1,16.721,1.6Z" fill="#e0e0e0"/><circle cx="11.079" cy="11.079" r="11.079" transform="matrix(0.963, -0.27, 0.27, 0.963, 452.063, 99.666)" fill="#e0e0e0"/><path d="M471.073,107.431a16.156,16.156,0,0,1-1.523-.9,10.284,10.284,0,0,0-8.11-.879,15.841,15.841,0,0,1-1.68.555,3.855,3.855,0,0,1,1.56-.9,9.212,9.212,0,0,1,8.422.913C470.674,106.844,471.115,107.388,471.073,107.431Z" fill="#ebebeb"/><path d="M466.633,100.939a26.866,26.866,0,0,0-1.747,5.14,26.816,26.816,0,0,0-.152,5.427,11.487,11.487,0,0,1,1.9-10.567Z" fill="#ebebeb"/><path d="M323.948,113.315l-1.7-2.953-2.655.39L317.4,108l1.13-2.743-2.961-1.965-2.21,2.229-2.911-.51-1.181-3.424-3.538.373-.2,3-2.636,1.339-2.791-1.975-2.83,2.061,1.471,3.17-1.685,2.538-3.06-.163-.8,3.775,2.912,1.12.25,3.173-3.018,1.733L294.789,125l3.125-.485,2.07,2.389-1.083,2.978,2.863,2.021L304,129.482l3.1.839.964,3.2,3.444-.233.445-2.873,2.953-1.7,2.416,1.929,3.056-2.278-1.545-2.691,1.505-2.7,3.1.228.951-3.512-2.66-1.44-.354-3.2Zm-12,10.336a6.963,6.963,0,1,1,2.571-9.5A6.963,6.963,0,0,1,311.95,123.651Z" fill="#ebebeb"/><path d="M311.567,115.59c-.04.025-.207-.259-.62-.652a3.678,3.678,0,0,0-2.122-.98,3.511,3.511,0,0,0-3.077,1.245,3.448,3.448,0,0,0,3.219,5.607,3.511,3.511,0,0,0,2.627-2.03,3.677,3.677,0,0,0,.223-2.326c-.131-.555-.292-.842-.25-.864a1.8,1.8,0,0,1,.445.809,3.659,3.659,0,0,1-.079,2.524,3.851,3.851,0,0,1-2.883,2.36,3.907,3.907,0,0,1-3.669-6.389,3.851,3.851,0,0,1,3.492-1.3,3.666,3.666,0,0,1,2.219,1.2A1.812,1.812,0,0,1,311.567,115.59Z" fill="#ebebeb"/><path d="M314.879,107.836a15.345,15.345,0,0,1-1.964,3.459,15.325,15.325,0,0,1-2.4,3.172,15.379,15.379,0,0,1,1.966-3.459A15.394,15.394,0,0,1,314.879,107.836Z" fill="#ebebeb"/><path d="M318.3,120.02a74.773,74.773,0,0,1-6.44-1.571,12.505,12.505,0,0,1,6.44,1.571Z" fill="#ebebeb"/><path d="M309.93,120.826a12.452,12.452,0,0,1,1.335,5.749,10.466,10.466,0,0,1-.829-2.837A10.43,10.43,0,0,1,309.93,120.826Z" fill="#ebebeb"/><path d="M306.169,120.4a7.854,7.854,0,0,1-1.233,2.549,7.837,7.837,0,0,1-1.679,2.28,15.393,15.393,0,0,1,2.912-4.829Z" fill="#ebebeb"/><path d="M305.636,108.531a7.422,7.422,0,0,1,1.054,2.537,7.426,7.426,0,0,1,.556,2.69,7.434,7.434,0,0,1-1.054-2.537A7.376,7.376,0,0,1,305.636,108.531Z" fill="#ebebeb"/><path d="M304.848,116.726a9.2,9.2,0,0,1-4.334-.414,9.239,9.239,0,0,1,4.334.414Z" fill="#ebebeb"/><path d="M310.864,115.993a2.871,2.871,0,1,1-3.92-1.06A2.871,2.871,0,0,1,310.864,115.993Z" fill="#ebebeb"/><path d="M309.761,117.445c-.1.108-.662-.3-1.442-.373s-1.415.182-1.49.055c-.1-.1.551-.676,1.546-.573S309.878,117.364,309.761,117.445Z" fill="#e0e0e0"/><path d="M308.611,115.762c.122.086-.14.645-.263,1.366s-.085,1.335-.229,1.373-.439-.615-.284-1.465S308.505,115.673,308.611,115.762Z" fill="#e0e0e0"/><path d="M600.84,100.958l-2.756-4.8-4.316.634-3.563-4.477,1.836-4.458-4.811-3.193-3.593,3.622-4.73-.829-1.918-5.564-5.75.607-.326,4.867-4.284,2.176-4.535-3.21-4.6,3.35,2.39,5.151-2.737,4.124-4.974-.264-1.3,6.134,4.733,1.821.407,5.155-4.906,2.817,2.345,5.319,5.078-.789,3.364,3.883-1.76,4.839,4.652,3.286,3.63-3.928,5.037,1.362,1.566,5.2,5.6-.378.722-4.669,4.8-2.756,3.926,3.134,4.966-3.7-2.511-4.373,2.447-4.383,5.034.371,1.545-5.708-4.322-2.34-.575-5.2Zm-19.5,16.8a11.314,11.314,0,1,1,4.179-15.445A11.313,11.313,0,0,1,581.341,117.755Z" fill="#ebebeb"/><path d="M580.719,104.655c-.046.029-.3-.444-.963-1.1a5.963,5.963,0,0,0-3.478-1.661,5.758,5.758,0,1,0,4.59,7.994,5.967,5.967,0,0,0,.319-3.842c-.235-.906-.516-1.362-.468-1.387.016-.009.091.1.22.317a4.582,4.582,0,0,1,.443,1.015,5.961,5.961,0,0,1-.174,4.04,6.17,6.17,0,0,1-8.2,3.307,6.186,6.186,0,0,1-3.672-6.4,6.17,6.17,0,0,1,6.988-5.414,5.956,5.956,0,0,1,3.577,1.887,4.554,4.554,0,0,1,.654.894C580.679,104.526,580.735,104.646,580.719,104.655Z" fill="#ebebeb"/><path d="M586.1,92.055a40.113,40.113,0,0,1-3.329,5.531,40.205,40.205,0,0,1-3.764,5.245,40.185,40.185,0,0,1,3.329-5.531A40.215,40.215,0,0,1,586.1,92.055Z" fill="#ebebeb"/><path d="M591.659,111.855c-.053.142-2.341-.622-5.222-1.32s-5.261-1.083-5.243-1.233a25.965,25.965,0,0,1,10.465,2.553Z" fill="#ebebeb"/><path d="M578.059,113.164a17.4,17.4,0,0,1,1.487,4.578,17.315,17.315,0,0,1,.682,4.765,31.42,31.42,0,0,1-1.189-4.648A31.158,31.158,0,0,1,578.059,113.164Z" fill="#ebebeb"/><path d="M571.947,112.471a20.324,20.324,0,0,1-2.143,4.058,20.4,20.4,0,0,1-2.589,3.79,20.34,20.34,0,0,1,2.143-4.059A20.451,20.451,0,0,1,571.947,112.471Z" fill="#ebebeb"/><path d="M571.08,93.184a19.143,19.143,0,0,1,1.557,4.17,19.211,19.211,0,0,1,1.06,4.324,19.2,19.2,0,0,1-1.557-4.171A19.188,19.188,0,0,1,571.08,93.184Z" fill="#ebebeb"/><path d="M569.8,106.5a24.136,24.136,0,0,1-7.043-.673,24.219,24.219,0,0,1,7.043.673Z" fill="#ebebeb"/><path d="M579.577,105.311a4.667,4.667,0,1,1-6.37-1.724A4.666,4.666,0,0,1,579.577,105.311Z" fill="#ebebeb"/><path d="M577.785,107.67a5.843,5.843,0,0,0-4.765-.516,3.292,3.292,0,0,1,4.765.516Z" fill="#e0e0e0"/><path d="M575.915,104.935c.127.085-.379.98-.588,2.192-.227,1.209-.064,2.224-.212,2.259a2.965,2.965,0,0,1-.3-2.351C575.05,105.693,575.814,104.845,575.915,104.935Z" fill="#e0e0e0"/><path d="M244.088,329.09l-2.755-4.8-4.316.634-3.563-4.477,1.836-4.458-4.811-3.193-3.593,3.622-4.73-.829-1.919-5.564-5.749.607-.326,4.867-4.284,2.176-4.535-3.21-4.6,3.35,2.391,5.151-2.738,4.124-4.973-.264-1.3,6.134,4.732,1.821.408,5.155-4.906,2.817,2.345,5.319,5.078-.789,3.363,3.883-1.759,4.839,4.652,3.286,3.63-3.928,5.036,1.363,1.567,5.2,5.6-.378.723-4.669,4.8-2.756,3.927,3.134,4.965-3.7-2.51-4.373,2.446-4.383,5.035.371,1.544-5.708-4.322-2.34-.575-5.2Zm-19.5,16.8a11.314,11.314,0,1,1,4.178-15.445A11.314,11.314,0,0,1,224.59,345.887Z" fill="#ebebeb"/><path d="M223.968,332.787c-.046.03-.3-.444-.963-1.1a5.961,5.961,0,0,0-3.479-1.662,5.758,5.758,0,1,0,4.591,7.994,5.966,5.966,0,0,0,.318-3.842c-.234-.906-.516-1.362-.467-1.387.015-.009.09.1.22.317a4.58,4.58,0,0,1,.443,1.015,5.96,5.96,0,0,1-.174,4.04,6.17,6.17,0,0,1-8.2,3.307,6.186,6.186,0,0,1-3.672-6.4,6.168,6.168,0,0,1,6.988-5.413,5.953,5.953,0,0,1,3.577,1.886,4.6,4.6,0,0,1,.654.894C223.928,332.658,223.984,332.778,223.968,332.787Z" fill="#ebebeb"/><path d="M229.351,320.187a79.937,79.937,0,0,1-7.094,10.776,80.19,80.19,0,0,1,7.094-10.776Z" fill="#ebebeb"/><path d="M234.908,339.987c-.054.142-2.341-.622-5.222-1.32s-5.262-1.083-5.244-1.233a25.975,25.975,0,0,1,10.466,2.553Z" fill="#ebebeb"/><path d="M221.307,341.3a28.005,28.005,0,0,1,2.17,9.343,107.673,107.673,0,0,1-2.17-9.343Z" fill="#ebebeb"/><path d="M215.2,340.6a40.419,40.419,0,0,1-4.733,7.848A40.472,40.472,0,0,1,215.2,340.6Z" fill="#ebebeb"/><path d="M214.329,321.316a38.085,38.085,0,0,1,2.617,8.494,37.991,37.991,0,0,1-2.617-8.494Z" fill="#ebebeb"/><path d="M213.048,334.634a24.18,24.18,0,0,1-7.043-.672,24.172,24.172,0,0,1,7.043.672Z" fill="#ebebeb"/><path d="M222.826,333.443a4.667,4.667,0,1,1-6.371-1.723A4.666,4.666,0,0,1,222.826,333.443Z" fill="#ebebeb"/><path d="M221.034,335.8a11.571,11.571,0,0,0-2.327-.769,11.511,11.511,0,0,0-2.438.253,3.292,3.292,0,0,1,4.765.516Z" fill="#e0e0e0"/><path d="M219.164,333.067c.127.085-.38.98-.588,2.192-.227,1.209-.064,2.224-.212,2.259a2.961,2.961,0,0,1-.3-2.351C218.3,333.825,219.062,332.977,219.164,333.067Z" fill="#e0e0e0"/><path d="M715.719,465.5c0,.144-153.161.26-342.051.26-188.955,0-342.084-.116-342.084-.26s153.129-.26,342.084-.26C562.558,465.237,715.719,465.353,715.719,465.5Z" fill="#263238"/><path d="M445.128,241.359v-7.3l-5.357-2.111-1.136-7.467,5.032-3.9-3.409-6.817-6.493,1.785-4.87-4.058,1.461-7.63-6.98-3.084-3.572,5.357-6.334-.325-3.081-6.655-7.467.812-.649,7.467-5.844,2.922-5.519-3.572-5.519,6.169,4.22,5.194-2.921,6.169h-7.468l-.811,7.629,6.331,2.435,1.3,6.656-5.194,4.382,3.165,6.818,6.737-2.11,4.87,4.87-1.624,6.98,6.656,3.246,3.9-4.869h7.3l2.435,6.168,8.117-.974v-6.655l5.681-3.409,5.519,3.733,5.52-5.519-3.409-5.519,2.759-6.331Zm-33.359,6.412A14.934,14.934,0,1,1,426.7,232.837,14.934,14.934,0,0,1,411.769,247.771Z" fill="#263238"/><path d="M419.667,232.367c-.061,0-.026-.7-.345-1.9a7.875,7.875,0,0,0-2.886-4.228,7.7,7.7,0,0,0-7.275-1.061,7.579,7.579,0,0,0-3.546,2.675,7.623,7.623,0,0,0,0,9.034,7.582,7.582,0,0,0,3.547,2.676,7.7,7.7,0,0,0,7.276-1.061,7.882,7.882,0,0,0,2.885-4.228c.319-1.2.284-1.907.345-1.9a1.829,1.829,0,0,1,.027.506,6.227,6.227,0,0,1-.176,1.446,7.859,7.859,0,0,1-2.858,4.471,7.989,7.989,0,0,1-3.393,1.547,8.126,8.126,0,0,1-4.27-.327,8.022,8.022,0,0,1-3.794-2.825,8.087,8.087,0,0,1,0-9.638A8.023,8.023,0,0,1,409,224.723a8.111,8.111,0,0,1,4.269-.326,7.981,7.981,0,0,1,3.393,1.545,7.863,7.863,0,0,1,2.859,4.472,6.227,6.227,0,0,1,.176,1.446A1.841,1.841,0,0,1,419.667,232.367Z" fill="#263238"/><path d="M434.11,221.481a69.51,69.51,0,0,1-7.484,4.069,69.78,69.78,0,0,1-7.718,3.6,139.64,139.64,0,0,1,15.2-7.674Z" fill="#263238"/><path d="M427.458,247.8c-.119.1-2.21-2.306-5.053-5s-5.341-4.675-5.249-4.8a7.578,7.578,0,0,1,1.758,1.144,45.671,45.671,0,0,1,7.313,6.958A7.594,7.594,0,0,1,427.458,247.8Z" fill="#263238"/><path d="M411.029,240.358a43.491,43.491,0,0,1-3.657,12.121,62.66,62.66,0,0,1,1.773-6.078A62.862,62.862,0,0,1,411.029,240.358Z" fill="#263238"/><path d="M404.489,235.549a70.507,70.507,0,0,1-10.575,5.872,70.274,70.274,0,0,1,10.575-5.872Z" fill="#263238"/><path d="M416.172,212.9a33.189,33.189,0,0,1-1.039,5.779,33.231,33.231,0,0,1-1.547,5.663,33.2,33.2,0,0,1,1.039-5.778A33.332,33.332,0,0,1,416.172,212.9Z" fill="#263238"/><path d="M405.953,227.3a41.989,41.989,0,0,1-7.619-5.4,41.989,41.989,0,0,1,7.619,5.4Z" fill="#263238"/><path d="M417.929,232.367a6.16,6.16,0,1,1-6.16-6.16A6.16,6.16,0,0,1,417.929,232.367Z" fill="#263238"/><path d="M414.327,233.889a6.957,6.957,0,0,0-5.115-3.722c0-.066.385-.155,1.017-.084a4.95,4.95,0,0,1,3.865,2.812C414.355,233.475,414.389,233.871,414.327,233.889Z" fill="#455a64"/><path d="M413.984,229.53c.071.138-1.128.8-2.177,2.069-1.068,1.252-1.516,2.547-1.664,2.5a5.631,5.631,0,0,1,3.841-4.569Z" fill="#455a64"/><path d="M411.382,154.291l-4.94-8.6-7.735,1.137-6.388-8.026,3.292-7.991-8.625-5.724-6.44,6.493-8.479-1.486-3.439-9.973-10.306,1.087-.584,8.724-7.679,3.9-8.129-5.755-8.246,6.005,4.285,9.234-4.907,7.393-8.915-.474-2.328,11,8.483,3.264.73,9.24-8.794,5.05,4.2,9.534,9.1-1.413,6.03,6.96-3.154,8.674,8.339,5.889,6.507-7.04,9.028,2.442,2.808,9.318,10.034-.677,1.295-8.37,8.6-4.939,7.039,5.618,8.9-6.636-4.5-7.838,4.386-7.857,9.025.665,2.768-10.232-7.747-4.2-1.031-9.322ZM376.431,184.4a20.282,20.282,0,1,1,7.489-27.687A20.283,20.283,0,0,1,376.431,184.4Z" fill="#00aecd"/><path d="M375.315,160.917a22.618,22.618,0,0,0-1.668-2.034,10.694,10.694,0,0,0-6.275-3.068,10.509,10.509,0,0,0-9.359,3.681,10.525,10.525,0,0,0-2.393,5.593,10.435,10.435,0,0,0,6.162,10.734,10.516,10.516,0,0,0,6.038.754,10.51,10.51,0,0,0,7.9-6.229,10.69,10.69,0,0,0,.514-6.966,22.6,22.6,0,0,0-.916-2.465,8.307,8.307,0,0,1,1.111,2.41,10.68,10.68,0,0,1-.369,7.163,10.791,10.791,0,0,1-2.94,4.083,10.952,10.952,0,0,1-5.214,2.476,10.939,10.939,0,0,1-6.327-.76,10.9,10.9,0,0,1-6.463-11.257,10.955,10.955,0,0,1,2.533-5.846,10.938,10.938,0,0,1,4.767-3.254,10.812,10.812,0,0,1,11.38,2.811A8.319,8.319,0,0,1,375.315,160.917Z" fill="#263238"/><path d="M384.964,138.331c.12.079-2.629,4.468-6.139,9.8s-6.456,9.6-6.576,9.516,2.629-4.467,6.141-9.8S384.844,138.252,384.964,138.331Z" fill="#263238"/><path d="M394.926,173.823a18.13,18.13,0,0,1-2.734-.757c-1.673-.506-3.991-1.176-6.578-1.808s-4.955-1.1-6.673-1.424a18.017,18.017,0,0,1-2.775-.588,13.413,13.413,0,0,1,2.834.224,66.886,66.886,0,0,1,13.307,3.247A13.353,13.353,0,0,1,394.926,173.823Z" fill="#263238"/><path d="M370.546,176.17a11.273,11.273,0,0,1,.879,2.37c.468,1.488,1.048,3.564,1.587,5.882s.932,4.439,1.168,5.981a11.218,11.218,0,0,1,.255,2.515,13.212,13.212,0,0,1-.617-2.448c-.328-1.521-.778-3.62-1.314-5.93s-1.058-4.391-1.433-5.9A13.146,13.146,0,0,1,370.546,176.17Z" fill="#263238"/><path d="M359.591,174.929a65.087,65.087,0,0,1-4.018,7.167,65.091,65.091,0,0,1-4.465,6.9,64.868,64.868,0,0,1,4.019-7.168A64.851,64.851,0,0,1,359.591,174.929Z" fill="#263238"/><path d="M358.037,140.355a61.244,61.244,0,0,1,2.594,7.536,61.208,61.208,0,0,1,2.1,7.689,61.069,61.069,0,0,1-2.6-7.536A60.994,60.994,0,0,1,358.037,140.355Z" fill="#263238"/><path d="M355.741,164.228a77.265,77.265,0,0,1-12.625-1.205,77.237,77.237,0,0,1,12.625,1.205Z" fill="#263238"/><circle cx="8.365" cy="8.365" r="8.365" transform="translate(355.338 161.162) rotate(-19.487)" fill="#263238"/><path d="M370.055,166.321a8.756,8.756,0,0,0-8.541-.925c-.033-.054.373-.4,1.163-.725a6.86,6.86,0,0,1,6.4.693C369.776,165.852,370.1,166.276,370.055,166.321Z" fill="#455a64"/><path d="M366.7,161.42a28.77,28.77,0,0,0-1.257,3.892,28.868,28.868,0,0,0-.177,4.086,8.219,8.219,0,0,1,1.434-7.978Z" fill="#455a64"/><path d="M444.047,178.68l-1.7-2.953-2.656.39-2.193-2.755,1.13-2.743-2.96-1.965-2.211,2.229-2.911-.51-1.18-3.424-3.538.374-.2,2.994L423,171.656l-2.79-1.975-2.831,2.061,1.471,3.17-1.684,2.538-3.061-.163-.8,3.775,2.912,1.121.251,3.172-3.019,1.733,1.443,3.273,3.124-.485,2.07,2.389L419,195.243l2.862,2.022,2.234-2.417,3.1.838.964,3.2,3.445-.233.444-2.873,2.953-1.7,2.417,1.928,3.055-2.278-1.545-2.69,1.506-2.7,3.1.229.95-3.513-2.659-1.44-.354-3.2Zm-12,10.336a6.962,6.962,0,1,1,2.571-9.5A6.961,6.961,0,0,1,432.049,189.016Z" fill="#263238"/><path d="M431.666,180.955c-.04.025-.207-.259-.62-.652a3.678,3.678,0,0,0-2.122-.979,3.458,3.458,0,1,0,2.769,4.821,3.685,3.685,0,0,0,.224-2.326c-.131-.555-.292-.842-.251-.864a1.8,1.8,0,0,1,.446.809,3.666,3.666,0,0,1-.08,2.524,3.849,3.849,0,0,1-2.883,2.36,3.906,3.906,0,0,1-3.668-6.389,3.85,3.85,0,0,1,3.491-1.3,3.669,3.669,0,0,1,2.22,1.2A1.8,1.8,0,0,1,431.666,180.955Z" fill="#263238"/><path d="M434.979,173.2a30.4,30.4,0,0,1-4.365,6.632,30.4,30.4,0,0,1,4.365-6.632Z" fill="#263238"/><path d="M438.4,185.385a74.766,74.766,0,0,1-6.44-1.571,12.5,12.5,0,0,1,6.44,1.571Z" fill="#263238"/><path d="M430.029,186.191a12.452,12.452,0,0,1,1.335,5.749,26.345,26.345,0,0,1-1.335-5.749Z" fill="#263238"/><path d="M426.269,185.765a15.371,15.371,0,0,1-2.913,4.829,15.421,15.421,0,0,1,2.913-4.829Z" fill="#263238"/><path d="M425.735,173.9a14.485,14.485,0,0,1,1.61,5.227,14.485,14.485,0,0,1-1.61-5.227Z" fill="#263238"/><path d="M424.947,182.091a9.218,9.218,0,0,1-4.334-.413,9.218,9.218,0,0,1,4.334.413Z" fill="#263238"/><path d="M430.964,181.358a2.872,2.872,0,1,1-3.92-1.06A2.872,2.872,0,0,1,430.964,181.358Z" fill="#263238"/><path d="M429.861,182.81c-.1.108-.662-.3-1.443-.373s-1.415.183-1.489.055c-.1-.1.55-.676,1.545-.573S429.977,182.73,429.861,182.81Z" fill="#455a64"/><path d="M428.71,181.127c.122.086-.14.646-.263,1.367s-.085,1.334-.229,1.372-.439-.615-.283-1.464S428.6,181.038,428.71,181.127Z" fill="#455a64"/><path d="M492.848,179.969s-3.4-1.186-3.437-3.414,25.449-5.418,30.32,7.024c0,0-.953.675-4.891.419" fill="#00aecd"/><g opacity="0.5"><path d="M492.848,179.969s-3.4-1.186-3.437-3.414,25.449-5.418,30.32,7.024c0,0-.953.675-4.891.419"/></g><path d="M514.01,216.034l-15.552-1.242c-.1-1.816.033-8.841.033-8.841s-6.471-1.006-6.551-7.475,1.042-21.326,1.042-21.326h0a22.486,22.486,0,0,1,22.593,2.84l.959.738Z" fill="#ffbe9d"/><path d="M494.47,188.269a.939.939,0,1,0-1.327-.065A.94.94,0,0,0,494.47,188.269Z" fill="#263238"/><path d="M492.9,186.792c.1.112.737-.377,1.628-.381s1.537.456,1.636.341c.048-.05-.053-.253-.335-.467a2.2,2.2,0,0,0-2.6.031C492.949,186.538,492.853,186.742,492.9,186.792Z" fill="#263238"/><path d="M503.168,187.569a.939.939,0,1,0,1.292.308A.939.939,0,0,0,503.168,187.569Z" fill="#263238"/><path d="M502.58,187.577c.1.112.737-.377,1.628-.381s1.538.456,1.636.341c.049-.051-.052-.253-.335-.467a2.2,2.2,0,0,0-2.605.031C502.627,187.323,502.531,187.527,502.58,187.577Z" fill="#263238"/><path d="M499.007,194.928a4.33,4.33,0,0,0-1.44-.306c-.234-.025-.416-.078-.433-.2a1.267,1.267,0,0,1,.166-.667l.705-1.811a24.728,24.728,0,0,0,1.525-4.76,24.866,24.866,0,0,0-2,4.581l-.667,1.825a1.484,1.484,0,0,0-.128.968.614.614,0,0,0,.4.373,1.512,1.512,0,0,0,.4.051A4.315,4.315,0,0,0,499.007,194.928Z" fill="#263238"/><path d="M501.9,195.912a16.707,16.707,0,0,1-4.369,1.27,2.461,2.461,0,0,0,2.9.98C502.375,197.453,501.9,195.912,501.9,195.912Z" fill="#fff"/><path d="M498.48,205.858a15.039,15.039,0,0,0,8.434-2.4s-1.993,4.656-8.449,4.073Z" fill="#eb996e"/><path d="M492.848,178.778a10.785,10.785,0,0,0,9.083.019c3.477-1.425,7.446-1.954,8.257-1.216s.738,4.206,3.985,5.46c0,0-.716,6.575,1.929,6.534s1.759-10.371,1.759-10.371l-6.2-3.615-6.918-1.845-6.679.443-5.219,1.022Z" fill="#263238"/><path d="M515.736,187.43c.111-.048,4.446-1.315,4.3,3.108s-4.552,3.369-4.556,3.242S515.736,187.43,515.736,187.43Z" fill="#ffbe9d"/><path d="M516.889,192.147c.02-.014.075.056.2.12a.772.772,0,0,0,.576.031,1.908,1.908,0,0,0,.937-1.683,2.54,2.54,0,0,0-.181-1.11.89.89,0,0,0-.56-.61.392.392,0,0,0-.462.2c-.063.121-.038.211-.062.217s-.092-.077-.051-.258a.5.5,0,0,1,.183-.272.583.583,0,0,1,.43-.1,1.085,1.085,0,0,1,.783.712,2.622,2.622,0,0,1,.228,1.241,2,2,0,0,1-1.185,1.874.825.825,0,0,1-.7-.139C516.893,192.254,516.873,192.154,516.889,192.147Z" fill="#eb996e"/><path d="M518.739,173.722c-.036.145-.691.088-1.425.327-.74.221-1.246.64-1.358.542-.117-.077.3-.763,1.2-1.04S518.792,173.593,518.739,173.722Z" fill="#263238"/><path d="M516.226,170.931a2.962,2.962,0,0,1,.141,2.106c-.233,1.2-.99,1.918-1.084,1.816-.119-.1.372-.854.574-1.922S516.066,170.937,516.226,170.931Z" fill="#263238"/><path d="M497.235,185.338c-.144.258-.992.048-2,.014-1.012-.056-1.874.078-2-.192-.132-.248.754-.908,2.042-.848S497.388,185.1,497.235,185.338Z" fill="#263238"/><path d="M507.16,185.338c-.144.258-.991.048-2,.014-1.013-.056-1.875.078-2-.192-.132-.248.754-.908,2.042-.848S507.314,185.1,507.16,185.338Z" fill="#263238"/><path d="M503.413,175.661c-11.662-1.269-13.9.79-14,.894a2.385,2.385,0,0,1-.6-1.158c-.418-3.445,3.763-4.419,3.763-4.419,2.615-11.93,13.341-10.711,13.341-10.711l.017-.09a1.928,1.928,0,0,1,2.257-1.53l1.675.322a1.928,1.928,0,0,1,1.53,2.257h0c12.579,4.192,8.4,15.822,8.4,15.822l1.84,2.223c1.632,3.305-1.907,4.308-1.907,4.308S515.374,176.962,503.413,175.661Z" fill="#00aecd"/><g opacity="0.5"><path d="M509.283,171.588a26.329,26.329,0,0,1,.918-5.134,26.35,26.35,0,0,1,1.425-5.015,26.242,26.242,0,0,1-.918,5.134A26.2,26.2,0,0,1,509.283,171.588Z"/></g><g opacity="0.5"><path d="M503.012,170.037a24.72,24.72,0,0,1,1.129-4.936,24.855,24.855,0,0,1,1.631-4.795,24.685,24.685,0,0,1-1.13,4.937A24.79,24.79,0,0,1,503.012,170.037Z"/></g><g opacity="0.5"><path d="M493.1,171.484a3.933,3.933,0,0,1,1.019-.362,20.188,20.188,0,0,1,2.891-.568,27.057,27.057,0,0,1,9.674.621,35.07,35.07,0,0,1,8.993,3.632c1.078.617,1.923,1.163,2.491,1.56a4.118,4.118,0,0,1,.849.667c-.046.071-1.333-.759-3.516-1.9a39.811,39.811,0,0,0-8.939-3.449,29.517,29.517,0,0,0-9.513-.76C494.6,171.139,493.123,171.575,493.1,171.484Z"/></g><g opacity="0.2"><path d="M508.721,173.7a6.631,6.631,0,0,1,2.066.393,23.583,23.583,0,0,1,8.867,4.827,6.678,6.678,0,0,1,1.452,1.521,37.5,37.5,0,0,0-12.385-6.741Z" fill="#fff"/></g><g opacity="0.2"><path d="M510.613,161.968c-.137-.058-.027-.6-.16-1.22-.115-.628-.421-1.082-.318-1.189.084-.113.672.286.829,1.088S510.733,162.042,510.613,161.968Z" fill="#fff"/></g><g opacity="0.2"><path d="M518.705,175.323c-.718-.148-.452-3.532-2.253-6.88-1.741-3.382-4.681-5.078-4.4-5.754.128-.317,1.11-.319,2.493.349a9.96,9.96,0,0,1,5.279,10.032C519.6,174.588,519.039,175.4,518.705,175.323Z" fill="#fff"/></g><path d="M425.35,258.537s-7.694-3.946-9.041-5.741-1.916-8.117-1.916-8.117l13.117,4.9Z" fill="#ffbe9d"/><path d="M482.612,242.03c-.454.152-8.929,19.064-15.738,19.158-6.866.1-41.524-2.651-41.524-2.651l2.16-8.957,33.291-1.074,10.91-14.766Z" fill="#ffbe9d"/><path d="M543.774,457.888l1.542,6.475s10.59,13.755,13.857,13.082c2.141-.44-.49-4.029-4.519-14.477l-.845-4.315Z" fill="#00aecd"/><path d="M559.6,475.414a.588.588,0,0,1-.084.2,1.18,1.18,0,0,1-.445.415,1.737,1.737,0,0,1-.942.207,2.507,2.507,0,0,1-1.2-.439,51.437,51.437,0,0,1-5.338-4.975,68.063,68.063,0,0,1-4.733-5.546c-.564-.744-1.006-1.356-1.3-1.784l-.336-.5a.755.755,0,0,1-.106-.182.8.8,0,0,1,.14.157c.116.151.238.307.368.475l1.354,1.741c1.16,1.457,2.808,3.436,4.768,5.494a59.631,59.631,0,0,0,5.268,4.995,1.96,1.96,0,0,0,2.022.284A1.4,1.4,0,0,0,559.6,475.414Z" fill="#263238"/><path d="M558.1,470.993c-.006.035-.335-.031-.856.044a5.059,5.059,0,0,0-1.906.723,3.9,3.9,0,0,0-1.43,1.427c-.25.462-.319.791-.355.782a1.822,1.822,0,0,1,.224-.849,3.65,3.65,0,0,1,1.451-1.538,4.535,4.535,0,0,1,2-.692A1.639,1.639,0,0,1,558.1,470.993Z" fill="#263238"/><path d="M548.078,467.764c-.036-.009.111-.464.2-1.215a4.989,4.989,0,0,0-.531-2.837,4.684,4.684,0,0,0-2.024-2.043,8.073,8.073,0,0,0-1.148-.418.926.926,0,0,1,.335.018,3.481,3.481,0,0,1,.877.267,4.552,4.552,0,0,1,2.145,2.082,4.805,4.805,0,0,1,.493,2.95,5.527,5.527,0,0,1-.212.888A.975.975,0,0,1,548.078,467.764Z" fill="#263238"/><path d="M544.448,458.986a6.5,6.5,0,0,1,.587,2.029c.193,1.148.4,2.056.356,2.074a6.682,6.682,0,0,1-.56-2.036C544.633,459.909,544.4,459.005,544.448,458.986Z" fill="#263238"/><path d="M554.842,463.882c0,.062-.6.043-1.312.21s-1.242.44-1.273.386a3.1,3.1,0,0,1,2.585-.6Z" fill="#263238"/><path d="M555.06,464.991c-.009.061-.511.009-1.1.153s-1.014.408-1.05.357a2.1,2.1,0,0,1,2.149-.51Z" fill="#263238"/><path d="M555.905,466.383a3.077,3.077,0,0,0-2.188.5,1.706,1.706,0,0,1,2.188-.5Z" fill="#263238"/><path d="M554.113,463.417a1.051,1.051,0,0,1-.354-.039,7.108,7.108,0,0,1-.938-.253,8.355,8.355,0,0,1-2.047-1.039,1.065,1.065,0,0,1-.529-.814.626.626,0,0,1,.808-.506,1.678,1.678,0,0,1,.737.494,13.1,13.1,0,0,1,.973,1.061c.26.317.454.586.582.776a1.122,1.122,0,0,1,.177.309c-.026.019-.329-.385-.871-.989-.271-.3-.6-.651-.994-1.018a1.539,1.539,0,0,0-.65-.434c-.24-.061-.55.068-.554.319s.226.478.44.637c.234.166.473.317.7.45a9.532,9.532,0,0,0,1.275.615C553.625,463.28,554.121,463.383,554.113,463.417Z" fill="#263238"/><path d="M553.557,463.283a.988.988,0,0,1-.012-.324c.007-.208.02-.509.067-.88a4.6,4.6,0,0,1,.332-1.279,2.706,2.706,0,0,1,.417-.679.711.711,0,0,1,.848-.268.816.816,0,0,1,.293.844,2.955,2.955,0,0,1-.232.761,3.886,3.886,0,0,1-.756,1.088,4.842,4.842,0,0,1-.675.575.886.886,0,0,1-.282.162c-.023-.029.36-.292.849-.837a4.09,4.09,0,0,0,.689-1.065,2.932,2.932,0,0,0,.205-.709c.03-.239,0-.533-.192-.636s-.434.04-.595.222a2.656,2.656,0,0,0-.394.621,4.981,4.981,0,0,0-.362,1.222A10.226,10.226,0,0,1,553.557,463.283Z" fill="#263238"/><g opacity="0.4"><path d="M545.316,464.363l-.746-3.112s2.595.48,3.269,2.422a8.144,8.144,0,0,1,.505,3.325l5.642,6.075s1.415-2.765,3.978-2.1c0,0,2.016,4.435,1.954,5.547-.068,1.221-1.355.977-1.814.768a22.751,22.751,0,0,1-5.051-3.985C550.064,470.2,546.763,466.268,545.316,464.363Z"/></g><path d="M491.127,461.16l-.05-8.636,16.176-.2.206,12.634-1,.076c-4.46.3-22.7,1.221-25.7.353C477.42,464.422,491.127,461.16,491.127,461.16Z" fill="#00aecd"/><g opacity="0.4"><path d="M501.593,464.906a5.61,5.61,0,0,1,2.022-3.474,5.451,5.451,0,0,1,3.767-1.222l.058,4.521Z"/></g><path d="M484.432,462.993s-4.8,1.448-4.189,2.234,19.079.551,27.216-.265l-.03-.361-21.54.457S485.375,463.021,484.432,462.993Z" opacity="0.4"/><path d="M507.683,464.587a1.4,1.4,0,0,1-.278.034l-.8.058-2.938.164c-2.482.121-5.914.243-9.705.3s-7.227.021-9.711-.033l-2.941-.085-.8-.037a1.411,1.411,0,0,1-.278-.026,1.582,1.582,0,0,1,.279-.013h.8l2.942.022c2.484.019,5.916.026,9.706-.024s7.219-.152,9.7-.237l2.94-.1.8-.021A1.623,1.623,0,0,1,507.683,464.587Z" fill="#263238"/><path d="M485.9,465.309a6.557,6.557,0,0,0-.567-1.4,6.667,6.667,0,0,0-1.016-1.113,2.616,2.616,0,0,1,1.583,2.509Z" fill="#263238"/><path d="M490.638,462.827c-.045.03-.277-.245-.518-.614s-.4-.691-.353-.721.277.245.518.614S490.684,462.8,490.638,462.827Z" fill="#263238"/><path d="M491.939,462.118c-.035.041-.293-.126-.575-.373s-.481-.48-.445-.521.293.127.574.373S491.975,462.077,491.939,462.118Z" fill="#263238"/><path d="M492.748,460.581a3.693,3.693,0,1,1-.847-.078A1.91,1.91,0,0,1,492.748,460.581Z" fill="#263238"/><path d="M493.018,459.5a2.383,2.383,0,0,1-1.912.168,5.231,5.231,0,0,1,.957-.078A5.131,5.131,0,0,1,493.018,459.5Z" fill="#263238"/><path d="M490.072,461.423a3,3,0,0,1-1.04.007,6.114,6.114,0,0,1-1.11-.23,3.046,3.046,0,0,1-.636-.253.562.562,0,0,1-.262-.32.407.407,0,0,1,.153-.417,1.906,1.906,0,0,1,2.364.528,1.867,1.867,0,0,1,.348.689c.044.177.042.279.03.28a2.915,2.915,0,0,0-.484-.88,1.87,1.87,0,0,0-.9-.566,1.61,1.61,0,0,0-1.237.1c-.164.124-.1.318.088.425a3.123,3.123,0,0,0,.587.242,7.316,7.316,0,0,0,1.074.265C489.675,461.395,490.072,461.391,490.072,461.423Z" fill="#263238"/><path d="M489.8,461.478a1.023,1.023,0,0,1-.129-.72,1.7,1.7,0,0,1,.274-.763,1.045,1.045,0,0,1,.859-.541.414.414,0,0,1,.326.476,1.134,1.134,0,0,1-.17.467,3.207,3.207,0,0,1-.483.635,1.505,1.505,0,0,1-.59.428c-.018-.025.2-.189.487-.522a3.609,3.609,0,0,0,.428-.629c.14-.222.232-.617-.029-.661-.261-.022-.523.24-.679.45a1.714,1.714,0,0,0-.286.679A3.843,3.843,0,0,0,489.8,461.478Z" fill="#263238"/><path d="M507.3,460.166c0,.036-.463-.039-1.194.057a5.069,5.069,0,0,0-4.193,3.431c-.238.7-.256,1.163-.293,1.159a.95.95,0,0,1-.005-.327,4.331,4.331,0,0,1,.166-.874,4.917,4.917,0,0,1,4.31-3.527,4.319,4.319,0,0,1,.89.011A.932.932,0,0,1,507.3,460.166Z" fill="#263238"/><path d="M505.534,453.456a56.107,56.107,0,0,1,.169,6.646,56.7,56.7,0,0,1-.169-6.646Z" fill="#263238"/><path d="M499.537,463.355a13.31,13.31,0,0,1-4.726.1c0-.057,1.061-.006,2.363-.037S499.53,463.3,499.537,463.355Z" fill="#263238"/><path d="M502.707,463.309c.04.04-.083.225-.188.469s-.161.46-.217.457-.086-.255.037-.535S502.672,463.271,502.707,463.309Z" fill="#263238"/><path d="M503.883,461.807c.039.038-.063.208-.228.379s-.331.281-.37.243.063-.207.229-.379S503.844,461.77,503.883,461.807Z" fill="#263238"/><path d="M505.584,461.106c-.01.055-.225.056-.462.143s-.406.215-.449.179.09-.261.384-.364S505.6,461.056,505.584,461.106Z" fill="#263238"/><path d="M506.8,460.77c.02.05-.071.135-.2.189s-.258.056-.278.006.071-.135.205-.188S506.777,460.72,506.8,460.77Z" fill="#263238"/><path d="M528.974,291.978l-48.854,2.773c-.129-5.362,1.921-48.454,1.921-48.454l-2.689,5.046-13.981-12.469,12.215-16.51a24.194,24.194,0,0,1,16.183-9.571c1.9-.258,3.338-.383,4.275-.5a27.51,27.51,0,0,0,16.582-.01h0a22.605,22.605,0,0,1,6.866,1.316,28.264,28.264,0,0,1,10.955,7.092l0,0,14.63,24.586-17.741,11.16-2.559-7.734Z" fill="#00aecd"/><path d="M480.12,289.648l7.55,167.791,25.19.529L508.676,317.5,537.01,459.041H560.96L528.974,289.648" fill="#263238"/><path d="M535.763,456.762l.577,2.48,24.62.331-.373-3.878Z" fill="#455a64"/><path d="M508.513,456.5c.143-.007.277.323.3.735s-.078.755-.221.763-.278-.322-.3-.736S508.369,456.511,508.513,456.5Z" fill="#455a64"/><path d="M508.265,450.43c.144-.005.286.671.317,1.51s-.06,1.524-.2,1.53-.285-.67-.317-1.511S508.122,450.435,508.265,450.43Z" fill="#455a64"/><path d="M508.084,444.35c.144,0,.28.673.3,1.513s-.074,1.523-.218,1.527-.279-.673-.3-1.513S507.941,444.354,508.084,444.35Z" fill="#455a64"/><path d="M507.934,438.268c.144,0,.277.674.3,1.514s-.08,1.524-.224,1.527-.277-.674-.3-1.515S507.79,438.271,507.934,438.268Z" fill="#455a64"/><path d="M507.787,432.182c.144,0,.277.675.3,1.515s-.079,1.525-.223,1.528-.277-.675-.3-1.515S507.644,432.186,507.787,432.182Z" fill="#455a64"/><path d="M507.616,426.1c.144-.005.28.673.306,1.513s-.071,1.525-.215,1.53-.281-.674-.306-1.514S507.472,426.1,507.616,426.1Z" fill="#455a64"/><path d="M507.38,420.015c.144-.006.29.669.326,1.509s-.054,1.525-.2,1.531-.288-.67-.322-1.509S507.237,420.022,507.38,420.015Z" fill="#455a64"/><path d="M507.133,413.937c.144-.006.287.67.32,1.509s-.056,1.525-.2,1.53-.287-.67-.32-1.509S506.989,413.942,507.133,413.937Z" fill="#455a64"/><path d="M506.913,407.857c.143-.005.284.671.313,1.511s-.063,1.524-.207,1.529-.284-.671-.313-1.511S506.769,407.862,506.913,407.857Z" fill="#455a64"/><path d="M506.72,401.774c.144,0,.281.673.307,1.513s-.07,1.525-.214,1.529-.281-.673-.307-1.513S506.577,401.778,506.72,401.774Z" fill="#455a64"/><path d="M506.557,395.7c.144,0,.278.674.3,1.514s-.077,1.523-.221,1.527-.278-.674-.3-1.514S506.413,395.7,506.557,395.7Z" fill="#455a64"/><path d="M506.424,389.613c.144,0,.274.676.292,1.516s-.085,1.523-.229,1.526-.275-.676-.292-1.516S506.28,389.616,506.424,389.613Z" fill="#455a64"/><path d="M506.322,383.531c.144,0,.271.676.284,1.516s-.093,1.523-.237,1.525-.271-.677-.284-1.517S506.178,383.533,506.322,383.531Z" fill="#455a64"/><path d="M506.252,377.447c.144,0,.267.679.276,1.518s-.1,1.523-.245,1.524-.267-.678-.276-1.518S506.108,377.449,506.252,377.447Z" fill="#455a64"/><path d="M506.215,371.364c.143,0,.263.68.267,1.519s-.109,1.522-.253,1.523-.263-.68-.267-1.52S506.071,371.364,506.215,371.364Z" fill="#455a64"/><path d="M506.21,365.28c.144,0,.26.681.26,1.521s-.118,1.521-.262,1.521-.26-.681-.259-1.521S506.066,365.28,506.21,365.28Z" fill="#455a64"/><path d="M506.239,359.2c.144,0,.256.682.251,1.522s-.126,1.52-.27,1.519-.256-.682-.251-1.522S506.1,359.2,506.239,359.2Z" fill="#455a64"/><path d="M506.3,353.113c.144,0,.252.684.243,1.524s-.135,1.519-.278,1.518-.253-.684-.243-1.524S506.157,353.111,506.3,353.113Z" fill="#455a64"/><path d="M506.4,347.032c.144,0,.249.685.234,1.524s-.142,1.518-.286,1.515-.249-.684-.234-1.524S506.252,347.029,506.4,347.032Z" fill="#455a64"/><path d="M506.52,340.946c.144,0,.246.687.228,1.528s-.149,1.519-.293,1.516-.246-.687-.228-1.528S506.377,340.943,506.52,340.946Z" fill="#455a64"/><path d="M506.707,334.859c.144.006.237.691.207,1.531s-.169,1.516-.313,1.512-.236-.689-.207-1.531S506.563,334.853,506.707,334.859Z" fill="#455a64"/><path d="M507.03,328.78c.143.01.219.7.168,1.535s-.208,1.51-.351,1.5-.219-.694-.169-1.535S506.886,328.77,507.03,328.78Z" fill="#455a64"/><path d="M507.563,322.719c.143.016.192.705.11,1.539s-.264,1.5-.408,1.488-.192-.7-.11-1.539S507.42,322.7,507.563,322.719Z" fill="#455a64"/><path d="M508.142,318.218c.142.021.21.37.152.779s-.22.725-.363.706-.211-.368-.152-.779S508,318.2,508.142,318.218Z" fill="#455a64"/><path d="M487.012,458.254l26.64.434-.209-4.438-26.431.14Z" fill="#455a64"/><path d="M516.837,294.751l-2.679-51.26H484.782l-4.763,52.724Z" fill="#263238"/><path d="M523.209,214.28s-11.9,3.122-12.1,31.069h-4.8S505.054,221.876,518,212.657C518,212.657,521.742,211.758,523.209,214.28Z" fill="#263238"/><path d="M498.044,212.292s-8.452,4-8.654,31.95h-4.076s-.343-26.17,7.642-31.333A5.709,5.709,0,0,1,498.044,212.292Z" fill="#263238"/><path d="M555.94,454.327c.142-.023.311.29.377.7s.006.759-.136.782-.311-.29-.378-.7S555.8,454.35,555.94,454.327Z" fill="#455a64"/><path d="M554.987,448.495c.142-.023.364.611.5,1.416s.123,1.477-.019,1.5-.363-.611-.495-1.416S554.845,448.518,554.987,448.495Z" fill="#455a64"/><path d="M554.024,442.664c.142-.023.365.61.5,1.415s.126,1.477-.015,1.5-.365-.609-.5-1.415S553.882,442.688,554.024,442.664Z" fill="#455a64"/><path d="M553.053,436.835c.142-.023.366.61.5,1.414s.128,1.477-.013,1.5-.366-.61-.5-1.415S552.911,436.859,553.053,436.835Z" fill="#455a64"/><path d="M552.072,431.008c.142-.024.367.609.5,1.413s.131,1.476-.011,1.5-.366-.609-.5-1.413S551.93,431.032,552.072,431.008Z" fill="#455a64"/><path d="M551.082,425.182c.142-.024.368.608.505,1.412s.133,1.476-.009,1.5-.367-.609-.5-1.413S550.94,425.206,551.082,425.182Z" fill="#455a64"/><path d="M550.083,419.357c.142-.024.369.608.507,1.412s.136,1.476-.006,1.5-.369-.607-.507-1.412S549.942,419.381,550.083,419.357Z" fill="#455a64"/><path d="M549.075,413.534c.142-.024.37.607.51,1.411s.137,1.476,0,1.5-.37-.607-.51-1.411S548.934,413.559,549.075,413.534Z" fill="#455a64"/><path d="M548.058,407.713c.142-.025.371.607.512,1.41s.14,1.476,0,1.5-.37-.606-.511-1.41S547.917,407.738,548.058,407.713Z" fill="#455a64"/><path d="M547.032,401.893c.142-.025.372.606.514,1.41s.142,1.475,0,1.5-.371-.606-.513-1.41S546.891,401.918,547.032,401.893Z" fill="#455a64"/><path d="M546,396.075c.142-.025.373.606.516,1.409s.144,1.475,0,1.5-.373-.605-.516-1.409S545.856,396.1,546,396.075Z" fill="#455a64"/><path d="M544.953,390.258c.141-.025.373.605.518,1.408s.147,1.475.005,1.5-.373-.6-.518-1.408S544.811,390.284,544.953,390.258Z" fill="#455a64"/><path d="M543.9,384.444c.142-.026.375.6.52,1.407s.15,1.474.008,1.5-.374-.6-.52-1.407S543.758,384.469,543.9,384.444Z" fill="#455a64"/><path d="M542.837,378.63c.141-.026.375.6.522,1.406s.152,1.475.01,1.5-.375-.6-.522-1.407S542.7,378.656,542.837,378.63Z" fill="#455a64"/><path d="M541.765,372.819c.142-.027.377.6.525,1.4s.154,1.474.012,1.5-.376-.6-.524-1.4S541.624,372.845,541.765,372.819Z" fill="#455a64"/><path d="M540.685,367.009c.141-.027.377.6.527,1.4s.156,1.474.014,1.5-.377-.6-.526-1.4S540.543,367.035,540.685,367.009Z" fill="#455a64"/><path d="M539.595,361.2c.142-.027.378.6.529,1.4s.158,1.474.017,1.5-.378-.6-.529-1.4S539.454,361.227,539.595,361.2Z" fill="#455a64"/><path d="M538.5,355.394c.142-.027.38.6.532,1.4s.16,1.473.019,1.5-.379-.6-.531-1.4S538.355,355.421,538.5,355.394Z" fill="#455a64"/><path d="M537.389,349.589c.141-.027.38.6.533,1.4s.163,1.473.022,1.5-.38-.6-.534-1.4S537.247,349.616,537.389,349.589Z" fill="#455a64"/><path d="M536.272,343.786c.141-.027.381.6.535,1.4s.166,1.472.024,1.5-.381-.6-.535-1.4S536.131,343.814,536.272,343.786Z" fill="#455a64"/><path d="M535.146,337.985c.141-.027.382.6.538,1.4s.167,1.472.026,1.5-.382-.6-.538-1.4S535.005,338.013,535.146,337.985Z" fill="#455a64"/><path d="M534.011,332.186c.141-.028.383.6.54,1.4s.17,1.473.029,1.5-.383-.6-.54-1.4S533.87,332.213,534.011,332.186Z" fill="#455a64"/><path d="M532.867,326.388c.141-.028.384.6.542,1.4s.172,1.472.031,1.5-.384-.6-.542-1.4S532.726,326.416,532.867,326.388Z" fill="#455a64"/><path d="M531.714,320.592c.141-.028.385.6.544,1.4s.175,1.472.034,1.5-.385-.6-.545-1.4S531.573,320.62,531.714,320.592Z" fill="#455a64"/><path d="M530.552,314.8c.141-.028.385.6.546,1.4s.177,1.472.036,1.5-.386-.6-.546-1.4S530.411,314.826,530.552,314.8Z" fill="#455a64"/><path d="M529.381,309.006c.141-.029.386.6.548,1.4s.179,1.471.038,1.5-.386-.6-.548-1.4S529.24,309.034,529.381,309.006Z" fill="#455a64"/><path d="M528.492,304.64c.141-.029.322.277.4.683s.035.758-.106.786-.322-.276-.405-.683S528.351,304.668,528.492,304.64Z" fill="#455a64"/><path d="M489.517,242.819a3.258,3.258,0,0,1,.251,1.485,3.624,3.624,0,0,1-.336,1.655,2.361,2.361,0,0,1-1.649,1.334,2.153,2.153,0,0,1-1.973-.8,2.632,2.632,0,0,1-.587-1.609,2.151,2.151,0,0,1,.35-1.478c.086.019-.088.582.017,1.447a2.432,2.432,0,0,0,.582,1.325,1.727,1.727,0,0,0,1.523.6,1.959,1.959,0,0,0,1.312-1.043,3.67,3.67,0,0,0,.393-1.446A6.477,6.477,0,0,1,489.517,242.819Z" fill="#455a64"/><path d="M487.394,243.55c-.027-.061.3-.194.644.123a.88.88,0,1,1-1.408.266c.208-.421.558-.416.555-.349.025.071-.163.187-.206.469s.112.624.507.546a.427.427,0,0,0,.272-.693C487.614,243.665,487.4,243.625,487.394,243.55Z" fill="#455a64"/><path d="M510.793,243a2.845,2.845,0,0,1,.2,1.405,3.188,3.188,0,0,1-.416,1.541,2.073,2.073,0,0,1-1.7,1.055,2.564,2.564,0,0,1-1.871-.692,3.043,3.043,0,0,1-.813-1.378c-.233-.88-.1-1.433-.04-1.427.085,0,.089.542.388,1.308a2.982,2.982,0,0,0,.788,1.142,2.2,2.2,0,0,0,1.519.527,1.641,1.641,0,0,0,1.324-.789,3.177,3.177,0,0,0,.456-1.318A5.894,5.894,0,0,1,510.793,243Z" fill="#455a64"/><path d="M508.493,243.543c-.014-.065.257-.147.518.132a.725.725,0,0,1,.168.63.779.779,0,0,1-1.388.238.728.728,0,0,1-.051-.65c.153-.35.435-.363.444-.3.031.068-.086.185-.088.392s.114.406.376.361.311-.258.234-.466S508.487,243.617,508.493,243.543Z" fill="#455a64"/><path d="M509.673,255.931c.018.031-.228.2-.689.484a20.511,20.511,0,0,1-2.022,1.072,30.513,30.513,0,0,1-14.72,2.807,20.727,20.727,0,0,1-2.274-.252,2.614,2.614,0,0,1-.819-.2c.011-.085,1.2.048,3.108.081a35.952,35.952,0,0,0,14.556-2.776C508.58,256.415,509.631,255.856,509.673,255.931Z" fill="#455a64"/><path d="M532.889,300.847l-53.553-4.633v6.1l53.553,4.558Z" fill="#00aecd"/><path d="M496.242,297.424a20.031,20.031,0,0,1-2.232-.068c-1.376-.073-3.3-.187-5.561-.357l.25-.272c.328,1.843.7,3.919,1.088,6.115l.085.489-.241-.215,7.11.463-.23.235c-.121-1.879-.195-3.451-.24-4.574a14.726,14.726,0,0,1-.029-1.816,10.5,10.5,0,0,1,.238,1.675c.124,1.1.293,2.718.466,4.681l.022.248-.253-.013-7.115-.38-.205-.011-.036-.2-.085-.489c-.372-2.2-.723-4.278-1.035-6.124l-.051-.3.3.028c2.354.22,4.321.435,5.677.593A14.559,14.559,0,0,1,496.242,297.424Z" fill="#455a64"/><path d="M485.992,298.688a17.107,17.107,0,0,1,5.93.407,17.107,17.107,0,0,1-5.93-.407Z" fill="#263238"/><path d="M485.639,300.435a19.548,19.548,0,0,1,6.327.63,19.548,19.548,0,0,1-6.327-.63Z" fill="#263238"/><path d="M425.871,244.71l-19.819-6.674-.778,2.548s7.743,12.208,16.775,14.724Z" fill="#455a64"/><path d="M484.791,280.213s-30.6-21.476-32.437-22.125-14.967-.677-18.257-.326-12.711-.615-12.711-.615l9.715-26.935-20.631-5.293,1.091-3.674s16.594-9.964,26.188-7.125,14.088,15.436,16.085,18.55,6.312,14.255,26.8,27.36l12.115,8.091Z" fill="#455a64"/><path d="M451.784,236.832c0,.009-.041.113-.123.306-.094.22-.213.5-.36.842l-1.374,3.177-5,11.463-.193-.273a27.966,27.966,0,0,1,3.511-.04,9.966,9.966,0,0,1,3.73.776c2.281,1.288,4.517,2.849,6.908,4.449,4.75,3.227,9.879,6.822,15.225,10.608a4.618,4.618,0,0,0,2.233,1.073,3.714,3.714,0,0,0,2.967-6.463c-.6-.476-1.307-.945-1.946-1.411l-3.828-2.733-13.23-9.474a10.934,10.934,0,0,1-2.364-2.356c-.648-.826-1.208-1.639-1.723-2.4-1.024-1.533-1.843-2.893-2.5-4.01s-1.144-2-1.468-2.6l-.36-.688a1.636,1.636,0,0,1-.105-.244,1.17,1.17,0,0,1,.152.218c.107.175.24.392.4.662l1.551,2.546c.682,1.1,1.524,2.44,2.567,3.951.524.753,1.092,1.554,1.742,2.361a10.6,10.6,0,0,0,2.319,2.263l13.293,9.382,3.838,2.718c.658.478,1.307.9,1.99,1.437a4.225,4.225,0,0,1-3.371,7.359,5.154,5.154,0,0,1-2.463-1.165c-5.343-3.784-10.464-7.388-15.2-10.631-2.371-1.6-4.631-3.191-6.835-4.454a9.633,9.633,0,0,0-3.554-.755,27.97,27.97,0,0,0-3.454.01l-.328.021.135-.294,5.287-11.51,1.429-3.083c.151-.322.273-.581.369-.787A2.037,2.037,0,0,1,451.784,236.832Z" fill="#263238"/><path d="M531.216,304.745h0a9.024,9.024,0,0,1-12.856,2.272l-40.832-31.881,7.25-12.34,44.1,29.557A9.023,9.023,0,0,1,531.216,304.745Z" fill="#455a64"/><path d="M441.563,235.1l-3.679,11.476-6.734.035,4.181-11.479Z" fill="#263238"/><path d="M430.72,244.061c0-.288,2.217-.533,4.955-.547s4.958.207,4.96.495-2.217.532-4.955.546S430.722,244.348,430.72,244.061Z" fill="#263238"/><path d="M432,240.4c0-.288,2.216-.532,4.954-.547s4.958.208,4.96.495-2.217.533-4.955.547S432,240.684,432,240.4Z" fill="#263238"/><path d="M432.8,236.9c0-.287,2.217-.532,4.954-.546s4.959.207,4.96.495-2.216.532-4.954.546S432.8,237.186,432.8,236.9Z" fill="#263238"/><path d="M425.978,243.423a25.073,25.073,0,0,1-1.637,5.976,32.183,32.183,0,0,1-2.446,5.691,43.392,43.392,0,0,1,1.956-5.867C425.018,246.023,425.838,243.387,425.978,243.423Z" fill="#263238"/><path d="M553.047,268.938c.1-7.541-7.98-22.4-7.98-22.4l-14.475,9.105,2.345,6.152-32.392,13.329-8.867.406-5.686,8.12,7.276,6.681,19.016-5.251C524.3,283.038,552.94,277.3,553.047,268.938Z" fill="#ffbe9d"/><path d="M264.82,313.582l4.044-7.631-14.246-7.666-6.034,11.1.853.532c3.813,2.334,19.555,11.6,22.611,12.213C275.458,322.82,264.82,313.582,264.82,313.582Z" fill="#00aecd"/><g opacity="0.4"><path d="M253.809,312.055a5.611,5.611,0,0,0-.183-4.016,5.448,5.448,0,0,0-2.773-2.827l-2.145,3.98Z"/></g><path d="M269.9,318.307s3.584,3.506,2.679,3.92-17.165-8.347-24-12.84l.194-.306,18.879,10.382S269.056,317.895,269.9,318.307Z" opacity="0.4"/><path d="M248.559,308.952a1.5,1.5,0,0,0,.231.158l.68.422L252,311.038c2.144,1.257,5.129,2.953,8.465,4.755s6.395,3.366,8.622,4.469l2.646,1.287.726.338a1.477,1.477,0,0,0,.259.105,1.584,1.584,0,0,0-.242-.141l-.709-.371-2.617-1.342c-2.21-1.134-5.255-2.717-8.591-4.517s-6.329-3.478-8.49-4.7l-2.558-1.452-.7-.389A1.418,1.418,0,0,0,248.559,308.952Z" fill="#263238"/><path d="M267.534,319.682a6.662,6.662,0,0,1,1.149-.975,6.582,6.582,0,0,1,1.417-.515,2.611,2.611,0,0,0-2.566,1.49Z" fill="#263238"/><path d="M264.481,315.286c.026.047.359-.089.743-.305s.674-.428.648-.475-.36.089-.744.3S264.454,315.239,264.481,315.286Z" fill="#263238"/><path d="M263.656,314.055c.013.052.319.023.683-.065s.649-.2.636-.255-.318-.024-.683.065S263.643,314,263.656,314.055Z" fill="#263238"/><path d="M263.651,312.318c-.026.047.284.269.692.495a1.9,1.9,0,0,0,.787.323c.027-.047-.283-.269-.692-.495A1.886,1.886,0,0,0,263.651,312.318Z" fill="#263238"/><path d="M263.912,311.235c-.039.034.235.393.7.688a1.635,1.635,0,0,0,.918.347,70.724,70.724,0,0,1-1.617-1.035Z" fill="#263238"/><path d="M265.633,314.3a3.024,3.024,0,0,0,.919.487,6.046,6.046,0,0,0,1.09.31,2.986,2.986,0,0,0,.681.071.564.564,0,0,0,.38-.162.411.411,0,0,0,.058-.441,1.907,1.907,0,0,0-2.34-.627,1.84,1.84,0,0,0-.627.45c-.121.136-.167.227-.157.234a2.933,2.933,0,0,1,.837-.556,1.879,1.879,0,0,1,1.056-.087,1.617,1.617,0,0,1,1.05.662c.088.186-.061.327-.274.336a3.081,3.081,0,0,1-.633-.058,7.093,7.093,0,0,1-1.075-.262C266,314.463,265.648,314.275,265.633,314.3Z" fill="#263238"/><path d="M265.846,314.477c.008.017.268-.144.448-.579a1.713,1.713,0,0,0,.11-.8,1.043,1.043,0,0,0-.51-.877.414.414,0,0,0-.51.271,1.129,1.129,0,0,0-.065.492,3.144,3.144,0,0,0,.134.787,1.513,1.513,0,0,0,.324.653c.028-.014-.094-.263-.19-.689a3.615,3.615,0,0,1-.087-.755c-.022-.261.079-.655.331-.573.241.1.352.455.394.713a1.712,1.712,0,0,1-.062.735A3.849,3.849,0,0,1,265.846,314.477Z" fill="#263238"/><path d="M250.949,305.212c-.014.034.429.181,1.032.6a5.067,5.067,0,0,1,2.128,4.983c-.111.727-.312,1.149-.277,1.162a.922.922,0,0,0,.155-.287,4.223,4.223,0,0,0,.259-.851,4.917,4.917,0,0,0-2.188-5.122,4.17,4.17,0,0,0-.794-.4A.936.936,0,0,0,250.949,305.212Z" fill="#263238"/><path d="M255.619,300.081a56.022,56.022,0,0,0-3.228,5.813,56.3,56.3,0,0,0,3.228-5.813Z" fill="#263238"/><path d="M256.35,311.632a13.3,13.3,0,0,0,4.14,2.282c.022-.053-.938-.5-2.078-1.127S256.382,311.585,256.35,311.632Z" fill="#263238"/><path d="M253.561,310.124c-.054.016-.03.238-.05.5s-.07.482-.02.505.2-.185.215-.491S253.61,310.106,253.561,310.124Z" fill="#263238"/><path d="M253.214,308.248c-.052.015-.04.213.027.442s.163.4.215.386.04-.213-.027-.442S253.266,308.233,253.214,308.248Z" fill="#263238"/><path d="M252.031,306.839c-.016.053.174.154.344.34s.26.379.315.367.042-.273-.172-.5S252.041,306.787,252.031,306.839Z" fill="#263238"/><path d="M251.112,305.979c-.041.035,0,.152.1.262s.2.17.244.135,0-.153-.1-.262S251.153,305.944,251.112,305.979Z" fill="#263238"/><rect width="36.069" height="7.249" transform="translate(317.258 311.862)" fill="#263238"/><rect width="36.069" height="7.249" transform="translate(332.775 359.365)" fill="#263238"/><rect width="43.356" height="7.249" transform="translate(341.957 401.485)" fill="#263238"/><rect width="30.684" height="7.249" transform="translate(305.176 262.728)" fill="#263238"/><rect width="30.684" height="7.249" transform="translate(289.871 213.684)" fill="#263238"/><path d="M277.138,164.9,178.279,465.711h9.415l92.739-280.1,70.143,280.1h11.3L286.083,164.9Z" fill="#263238"/><path d="M300.206,164.9,223.472,465.711h14.593l68.26-279.63,92.268,279.63h12.881L310.854,164.9Z" fill="#455a64"/><path d="M215.266,365.694h0a3.624,3.624,0,0,0,3.624,3.625h32.756a3.625,3.625,0,0,0,3.625-3.625h0a3.625,3.625,0,0,0-3.625-3.624H218.89A3.624,3.624,0,0,0,215.266,365.694Z" fill="#455a64"/><path d="M200.953,412.359h0a3.625,3.625,0,0,0,3.624,3.625h32.756a3.625,3.625,0,0,0,3.625-3.625h0a3.624,3.624,0,0,0-3.625-3.624H204.577A3.624,3.624,0,0,0,200.953,412.359Z" fill="#455a64"/><path d="M231.028,317.62h0a3.623,3.623,0,0,0,3.624,3.624h32.756a3.624,3.624,0,0,0,3.625-3.624h0a3.625,3.625,0,0,0-3.625-3.625H234.652A3.624,3.624,0,0,0,231.028,317.62Z" fill="#455a64"/><rect width="37.913" height="7.249" rx="3.625" transform="translate(246.872 264.203)" fill="#455a64"/><path d="M261.639,218.561h0a3.625,3.625,0,0,0,3.625,3.625H288.7a3.624,3.624,0,0,0,3.624-3.625h0a3.623,3.623,0,0,0-3.624-3.624H265.264A3.624,3.624,0,0,0,261.639,218.561Z" fill="#455a64"/><path d="M268.315,144.351c.454.152,8.929,19.064,15.737,19.158,6.866.1,41.525-2.651,41.525-2.651L326,150.726l-35.878.1-10.91-14.766Z" fill="#ffbe9d"/><path d="M321.6,152.039s5.913-1.9,6.57-2.831,3.318-5.3,3.318-5.3a3.557,3.557,0,0,1,.658,2.621c-.19.721-.514,1.991-.761,2.966a.861.861,0,0,0,.983,1.061c1.4-.255,3.445-.5,3.693.17.382,1.033-1.249,7.642-2.439,8.858s-9.335,1.24-9.335,1.24Z" fill="#ffbe9d"/><path d="M334.571,152.669c.037.051-.375.444-1.2.83a5.629,5.629,0,0,1-1.545.471,1.567,1.567,0,0,1-1.049-.2,1.093,1.093,0,0,1-.446-1.123,1.544,1.544,0,0,1,.618-.973,2.8,2.8,0,0,1,.91-.416c.588-.154,1.092-.249,1.531-.34a4.052,4.052,0,0,1,1.434-.174,4.084,4.084,0,0,1-1.344.531l-1.481.442c-.527.168-1.066.468-1.155,1.02-.116.554.4.818.94.756a6.711,6.711,0,0,0,1.451-.335A8.976,8.976,0,0,1,334.571,152.669Z" fill="#eb996e"/><path d="M333.587,155.666c.008.058-.342.266-1,.533a2.349,2.349,0,0,1-.593.146.922.922,0,0,1-.754-.275,1.326,1.326,0,0,1-.3-1.653,2.52,2.52,0,0,1,1.335-.9l1.116-.449c.648-.253,1.084-.329,1.105-.26s-.353.261-.951.594c-.3.164-.661.362-1.082.557a2.317,2.317,0,0,0-1.076.728.861.861,0,0,0,.185,1.038.473.473,0,0,0,.4.19,2.4,2.4,0,0,0,.509-.069C333.126,155.683,333.57,155.581,333.587,155.666Z" fill="#eb996e"/><path d="M329.986,157.858c-.069.018-.185-.336-.5-.84a4.429,4.429,0,0,0-1.668-1.582l-.336-.177.3-.249c.206-.171.42-.348.621-.55a13.42,13.42,0,0,0,2.286-3.5c.063.014.039.511-.229,1.266a7.026,7.026,0,0,1-1.693,2.607,7.3,7.3,0,0,1-.672.581l-.035-.426a4.051,4.051,0,0,1,1.719,1.877C330.038,157.456,330.039,157.848,329.986,157.858Z" fill="#eb996e"/><path d="M333.737,157.994c.023.054-.261.321-.887.549a1.559,1.559,0,0,1-1.219-.059,1.318,1.318,0,0,1-.56-.538.978.978,0,0,1-.03-.892,2.544,2.544,0,0,1,1.105-.961,8.548,8.548,0,0,1,1.005-.471c.588-.231.984-.29,1-.222s-.314.246-.845.554c-.265.154-.581.336-.919.551a2.493,2.493,0,0,0-.878.769c-.149.281.063.621.351.791a1.3,1.3,0,0,0,.9.121C333.331,158.074,333.706,157.917,333.737,157.994Z" fill="#eb996e"/><path d="M233.553,91.55a22.63,22.63,0,0,1-1.03,5.224,7.616,7.616,0,0,1-3.231,4.107c-1.481.829-3.519,1.181-4.094,2.777-.568,1.576.669,3.663-.5,4.861a3.8,3.8,0,0,1-1.814.785,8,8,0,0,0-5.2,4.014,8.589,8.589,0,0,0,.523,7.551,25.379,25.379,0,0,0,4.966,6.038l19.037-4.068s-5.615-30.129-5.522-29.916A24.7,24.7,0,0,1,233.553,91.55Z" fill="#263238"/><path d="M258.748,93.137a3.231,3.231,0,0,0,1.626,2.224,22.721,22.721,0,0,1,2.419,1.5,6.046,6.046,0,0,1,1.883,4.563,17.939,17.939,0,0,1-.9,4.992,10.709,10.709,0,0,1,7.983,4.173,14.061,14.061,0,0,1,2.822,8.689c0,2.223-.559,4.617-2.259,6.051a9.535,9.535,0,0,1-4.87,1.729c-3.449.51-6.925.815-10.4,1.11s-7.207.538-10.284-1.133a12.857,12.857,0,0,1-5.419-6.665,27.475,27.475,0,0,1-1.615-12.793,61.308,61.308,0,0,1,2.817-12.683" fill="#263238"/><path d="M234.825,88.257a13.447,13.447,0,0,0-5.436-1.443c-1.889.045-3.893,1.113-4.405,2.932a4.255,4.255,0,0,0,.338,2.934,8.869,8.869,0,0,0,1.8,2.4,4.427,4.427,0,0,0,2.569,1.509,3.718,3.718,0,0,0,2.224-.635,5.808,5.808,0,0,0,2.7-3.465A4.092,4.092,0,0,0,233.38,88.4" fill="#263238"/><path d="M256.444,83.979s3.4-1.186,3.437-3.415-25.448-5.417-30.32,7.024c0,0,.954.675,4.891.419" fill="#00aecd"/><g opacity="0.5"><path d="M256.444,83.979s3.4-1.186,3.437-3.415-25.448-5.417-30.32,7.024c0,0,.954.675,4.891.419"/></g><path d="M236.917,118.354l15.552-1.241c.1-1.816-.033-8.841-.033-8.841s6.471-1.006,6.551-7.476-1.042-21.325-1.042-21.325h0a22.484,22.484,0,0,0-22.593,2.84l-.959.738Z" fill="#ffbe9d"/><path d="M255.339,90.242a.939.939,0,1,1,1.327-.064A.94.94,0,0,1,255.339,90.242Z" fill="#263238"/><path d="M258.025,89.113c-.1.112-.737-.377-1.628-.381s-1.538.456-1.636.341c-.048-.051.053-.253.335-.467a2.2,2.2,0,0,1,2.6.031C257.978,88.859,258.074,89.063,258.025,89.113Z" fill="#263238"/><path d="M246.933,89.586a.939.939,0,1,1-1.293.308A.939.939,0,0,1,246.933,89.586Z" fill="#263238"/><path d="M248.346,89.9c-.1.113-.736-.376-1.627-.381s-1.538.456-1.637.342c-.048-.051.053-.253.335-.467a2.194,2.194,0,0,1,2.6.031C248.3,89.643,248.4,89.848,248.346,89.9Z" fill="#263238"/><path d="M251.919,97.249a4.3,4.3,0,0,1,1.441-.306c.233-.025.416-.078.433-.2a1.265,1.265,0,0,0-.167-.668l-.7-1.81A24.779,24.779,0,0,1,251.4,89.5a24.827,24.827,0,0,1,2,4.581l.667,1.825a1.484,1.484,0,0,1,.128.968.61.61,0,0,1-.4.372,1.479,1.479,0,0,1-.4.052A4.347,4.347,0,0,1,251.919,97.249Z" fill="#263238"/><path d="M252.447,108.179a15.053,15.053,0,0,1-8.435-2.4s1.994,4.656,8.45,4.073Z" fill="#eb996e"/><path d="M258.078,81.1s-3.785,2.191-9.083.019c-3.476-1.426-7.445-1.954-8.256-1.216s.6,7.45-2.646,8.705c0,0-.623,3.329-3.268,3.289s-1.759-10.371-1.759-10.371l6.2-3.615,6.917-1.845,6.68.443,5.218,1.022Z" fill="#263238"/><path d="M235.19,89.75c-.11-.047-4.445-1.315-4.3,3.109s4.553,3.368,4.557,3.241S235.19,89.75,235.19,89.75Z" fill="#ffbe9d"/><path d="M234.038,94.468c-.02-.014-.075.056-.2.12a.77.77,0,0,1-.575.03,1.906,1.906,0,0,1-.937-1.682,2.555,2.555,0,0,1,.18-1.11.891.891,0,0,1,.561-.61.393.393,0,0,1,.462.2c.063.121.038.211.061.217s.093-.077.051-.258a.492.492,0,0,0-.182-.272.583.583,0,0,0-.43-.1,1.08,1.08,0,0,0-.783.712,2.607,2.607,0,0,0-.228,1.241,2,2,0,0,0,1.185,1.874.829.829,0,0,0,.7-.139C234.034,94.575,234.054,94.475,234.038,94.468Z" fill="#eb996e"/><path d="M232.188,76.043c-.053-.13.685-.454,1.58-.171s1.32.963,1.2,1.039c-.112.1-.618-.32-1.358-.542C232.879,76.13,232.224,76.188,232.188,76.043Z" fill="#263238"/><path d="M234.7,73.252c.16.006.16.939.369,2s.693,1.827.574,1.922c-.094.1-.851-.614-1.084-1.816A2.962,2.962,0,0,1,234.7,73.252Z" fill="#263238"/><path d="M253.692,87.659c-.154-.235.67-.972,1.958-1.026s2.174.6,2.042.848c-.121.269-.983.136-2,.192C254.683,87.707,253.836,87.917,253.692,87.659Z" fill="#263238"/><path d="M240.606,79.736a32.971,32.971,0,0,1,3.849,2.891,6.645,6.645,0,0,0,4.422,1.624l-.39-.748a26.76,26.76,0,0,0,7.324,1.768,2.837,2.837,0,0,0,2.589-.678c.581-.755-.231-2.091-.322-3.494-.065-1-.421-1.269-1.364-1.618a3.494,3.494,0,0,0-1.365-.119,54.866,54.866,0,0,1-10.489-.582,10.159,10.159,0,0,0-2.456-.192,3.056,3.056,0,0,0-2.159,1.048" fill="#263238"/><path d="M252.016,98.083a.855.855,0,0,0-.949-.015,1.051,1.051,0,0,0-.458.856,1.375,1.375,0,0,0,.358.921,1.3,1.3,0,0,0,.688.42,1.135,1.135,0,0,0,1.158-.5A1.208,1.208,0,0,0,252.8,98.5a1.293,1.293,0,0,0-1.14-.578" fill="#eb996e"/><path d="M254.233,99.334c.026.058-.258.237-.766.256A4.575,4.575,0,0,1,251.6,99.2c-1.391-.54-2.257-1.49-2.1-1.609.081-.06.983.611,2.3,1.127a7.664,7.664,0,0,0,1.694.5C253.926,99.295,254.207,99.258,254.233,99.334Z" fill="#263238"/><path d="M248.152,87.571c-.11.1-.317.058-.593.1-.276.026-.711.137-1.279.188-1.1.1-2.005-.053-2.031-.34s.842-.6,1.938-.7a3.207,3.207,0,0,1,1.528.13C248.158,87.147,248.261,87.488,248.152,87.571Z" fill="#263238"/><path d="M237.6,82.57c.071,3.546.761,7.059.8,10.605s-.655,7.285-2.969,9.972a4.848,4.848,0,0,1-3.145,1.867,1.774,1.774,0,0,1-1.823-.893,2.183,2.183,0,0,1,.2-1.647,37.649,37.649,0,0,1,2.753-4.669,10.759,10.759,0,0,0,1.848-5.04,15.776,15.776,0,0,0-.561-3.914,8.625,8.625,0,0,1-.146-3.928,3.461,3.461,0,0,1,2.634-2.656" fill="#263238"/><path d="M245.879,79.67c11.663-1.269,13.9.791,14,.894a2.381,2.381,0,0,0,.6-1.158c.418-3.445-3.763-4.418-3.763-4.418-2.615-11.93-13.34-10.711-13.34-10.711l-.018-.09a1.927,1.927,0,0,0-2.256-1.53l-1.676.322a1.927,1.927,0,0,0-1.529,2.256h0c-12.58,4.193-8.4,15.823-8.4,15.823l-1.84,2.223c-1.632,3.3,1.907,4.307,1.907,4.307S233.918,80.972,245.879,79.67Z" fill="#00aecd"/><g opacity="0.5"><path d="M240.009,75.6a26.352,26.352,0,0,1-1.425-5.014,26.435,26.435,0,0,1-.918-5.134,26.121,26.121,0,0,1,1.425,5.015A26.146,26.146,0,0,1,240.009,75.6Z"/></g><g opacity="0.5"><path d="M246.281,74.047a24.731,24.731,0,0,1-1.631-4.794,24.784,24.784,0,0,1-1.13-4.937,24.856,24.856,0,0,1,1.631,4.795A24.838,24.838,0,0,1,246.281,74.047Z"/></g><g opacity="0.5"><path d="M256.192,75.494c-.023.091-1.5-.345-3.949-.564a29.568,29.568,0,0,0-9.512.76,39.741,39.741,0,0,0-8.939,3.45c-2.183,1.144-3.471,1.975-3.517,1.9a4.074,4.074,0,0,1,.849-.667c.569-.4,1.413-.943,2.491-1.561a35.121,35.121,0,0,1,8.993-3.632,27.077,27.077,0,0,1,9.674-.62,19.855,19.855,0,0,1,2.891.568A3.891,3.891,0,0,1,256.192,75.494Z"/></g><g opacity="0.2"><path d="M240.572,77.705a63.021,63.021,0,0,0-6.512,2.784,62.81,62.81,0,0,0-5.873,3.958,6.64,6.64,0,0,1,1.452-1.522,23.548,23.548,0,0,1,8.866-4.826A6.659,6.659,0,0,1,240.572,77.705Z" fill="#fff"/></g><g opacity="0.2"><path d="M230.587,79.332c-.334.075-.892-.735-1.124-2.253a9.959,9.959,0,0,1,5.28-10.031c1.382-.669,2.365-.667,2.493-.349.285.675-2.655,2.372-4.395,5.753C231.04,75.8,231.3,79.185,230.587,79.332Z" fill="#fff"/></g><path d="M221.954,194.275l47.2,4.26c.077-3.228-.9-22.922-1.482-35.865-.11-2.448,2.312-6.7,2.219-8.748-.234-5.1-1-5.3-1-5.3l2.689,5.047,13.981-12.47L273.34,124.685a24.19,24.19,0,0,0-16.182-9.571c-1.9-.258-3.339-.384-4.275-.5a27.521,27.521,0,0,1-16.583-.01h0a22.6,22.6,0,0,0-6.865,1.316,28.264,28.264,0,0,0-10.956,7.092v0l-20,23.556,18.561,11.932,7.115-7.5.925,19.461Z" fill="#00aecd"/><path d="M265.787,140.557c0,.144-6.958.261-15.539.261s-15.541-.117-15.541-.261,6.957-.26,15.541-.26S265.787,140.413,265.787,140.557Z" fill="#fff"/><path d="M264.754,135.5a39.5,39.5,0,0,1-9.067,0,39.653,39.653,0,0,1,9.067,0Z" fill="#fff"/><path d="M231.023,142.6a18.508,18.508,0,0,1-1.915,2.454c-1.231,1.469-2.957,3.474-4.887,5.666s-3.7,4.159-5,5.565a18.454,18.454,0,0,1-2.186,2.205,18.17,18.17,0,0,1,1.91-2.449c1.231-1.469,2.959-3.476,4.892-5.672s3.7-4.162,5-5.568A18.308,18.308,0,0,1,231.023,142.6Z" fill="#263238"/><path d="M227.645,353.6l-1.542,6.475s-10.59,13.756-13.856,13.083c-2.141-.441.489-4.029,4.518-14.477l.845-4.316Z" fill="#00aecd"/><path d="M211.816,371.129a1.4,1.4,0,0,0,.566.538,1.959,1.959,0,0,0,2.023-.284,59.627,59.627,0,0,0,5.267-4.995c1.961-2.058,3.609-4.036,4.768-5.493l1.355-1.742.368-.474c.086-.107.134-.162.14-.157a.812.812,0,0,1-.106.181l-.337.5c-.3.429-.74,1.04-1.3,1.784a67.864,67.864,0,0,1-4.733,5.546,51.349,51.349,0,0,1-5.337,4.975,2.507,2.507,0,0,1-1.2.44,1.748,1.748,0,0,1-.943-.207,1.189,1.189,0,0,1-.445-.416A.561.561,0,0,1,211.816,371.129Z" fill="#263238"/><path d="M213.315,366.707a1.666,1.666,0,0,1,.872-.1,4.522,4.522,0,0,1,2,.692,3.642,3.642,0,0,1,1.452,1.538,1.826,1.826,0,0,1,.223.848c-.035.01-.1-.32-.355-.782a3.9,3.9,0,0,0-1.429-1.427,5.063,5.063,0,0,0-1.907-.723C213.65,366.676,213.321,366.742,213.315,366.707Z" fill="#263238"/><path d="M223.341,363.479a1,1,0,0,1-.13-.309,5.656,5.656,0,0,1-.211-.888,4.813,4.813,0,0,1,.492-2.95,4.546,4.546,0,0,1,2.146-2.081,3.435,3.435,0,0,1,.876-.268.925.925,0,0,1,.335-.018,8.4,8.4,0,0,0-1.148.418,4.691,4.691,0,0,0-2.023,2.044,4.99,4.99,0,0,0-.532,2.837C223.231,363.015,223.378,363.469,223.341,363.479Z" fill="#263238"/><path d="M226.971,354.7c.051.018-.185.923-.382,2.067a6.726,6.726,0,0,1-.56,2.035c-.046-.017.162-.925.355-2.074A6.549,6.549,0,0,1,226.971,354.7Z" fill="#263238"/><path d="M216.577,359.6a3.1,3.1,0,0,1,2.585.6c-.031.053-.562-.226-1.272-.386S216.581,359.658,216.577,359.6Z" fill="#263238"/><path d="M216.36,360.7a2.1,2.1,0,0,1,2.148.511c-.036.05-.46-.222-1.05-.358S216.369,360.766,216.36,360.7Z" fill="#263238"/><path d="M215.514,362.1a1.709,1.709,0,0,1,2.189.5,5.582,5.582,0,0,0-1.048-.456A5.67,5.67,0,0,0,215.514,362.1Z" fill="#263238"/><path d="M217.306,359.131c-.008-.033.488-.137,1.242-.43a9.5,9.5,0,0,0,1.276-.616c.23-.133.468-.284.7-.45.215-.159.449-.393.441-.637s-.315-.38-.554-.318a1.53,1.53,0,0,0-.651.433c-.39.367-.723.717-.994,1.019-.542.6-.844,1.007-.87.989a1.087,1.087,0,0,1,.177-.31c.127-.19.321-.459.581-.775a13.118,13.118,0,0,1,.973-1.061,1.668,1.668,0,0,1,.738-.494.625.625,0,0,1,.808.505,1.071,1.071,0,0,1-.53.815,8.149,8.149,0,0,1-.727.451,8.258,8.258,0,0,1-1.319.587,7.142,7.142,0,0,1-.938.253A1.055,1.055,0,0,1,217.306,359.131Z" fill="#263238"/><path d="M217.862,359a10.515,10.515,0,0,1-.2-1.181,4.951,4.951,0,0,0-.361-1.222,2.662,2.662,0,0,0-.394-.622c-.162-.182-.4-.335-.6-.222s-.221.4-.191.637a2.926,2.926,0,0,0,.205.708,4.048,4.048,0,0,0,.689,1.065c.489.545.871.808.848.837a.863.863,0,0,1-.282-.162,4.777,4.777,0,0,1-.675-.575,3.9,3.9,0,0,1-.756-1.087,3.006,3.006,0,0,1-.232-.761.818.818,0,0,1,.294-.844.711.711,0,0,1,.847.267,2.742,2.742,0,0,1,.417.679,4.644,4.644,0,0,1,.333,1.279c.047.372.059.673.067.88A1,1,0,0,1,217.862,359Z" fill="#263238"/><g opacity="0.4"><path d="M226.1,360.077l.746-3.112s-2.6.48-3.268,2.423a8.132,8.132,0,0,0-.506,3.324l-5.641,6.075s-1.416-2.765-3.979-2.1c0,0-2.016,4.435-1.954,5.547.068,1.221,1.355.977,1.814.769a22.74,22.74,0,0,0,5.051-3.986C221.355,365.915,224.656,361.983,226.1,360.077Z"/></g><path d="M193.715,177.825a15.722,15.722,0,0,1,.071-20.717l7.88-8.492,14.228,9.146c-.459.305-9.824,10.437-9.824,10.437l16.414,20.456a11.771,11.771,0,0,1,1.949,11.2l-2.815,11.441L208.041,205.2l.911-1.4h9.013l.536-2.16h0Z" fill="#ffbe9d"/><path d="M202.545,164.551a9.34,9.34,0,0,1,2.194,1.877,6.372,6.372,0,0,1,1.758,2.3,11.428,11.428,0,0,1-2.128-1.937C203.241,165.68,202.43,164.65,202.545,164.551Z" fill="#eb996e"/><path d="M218.3,156.585" fill="none" stroke="#839198" stroke-miterlimit="10" stroke-width="0.05"/><path d="M234.09,197.071l2.679-51.26h29.377l2.17,54.341Z" fill="#263238"/><path d="M262.029,159.081c.019.03-.223.221-.68.541a19.1,19.1,0,0,1-2.023,1.221,27.575,27.575,0,0,1-15.114,3.1,19.33,19.33,0,0,1-2.34-.325,2.8,2.8,0,0,1-.838-.23c.015-.088,1.23.106,3.2.187a31.458,31.458,0,0,0,14.925-3.064C260.94,159.663,261.981,159.006,262.029,159.081Z" fill="#455a64"/><path d="M241.446,166.581c-.144,0-.282-.332-.308-.731s.071-.743.213-.766.28.3.307.731S241.589,166.585,241.446,166.581Z" fill="#455a64"/><path d="M240.648,172.214c-.142-.019-.149-.666-.015-1.444s.358-1.388.5-1.363.148.672.015,1.444S240.791,172.234,240.648,172.214Z" fill="#455a64"/><path d="M241.35,177.775c-.12.075-.562-.457-.777-1.252s-.147-1.461-.008-1.47.307.6.51,1.33S241.476,177.7,241.35,177.775Z" fill="#455a64"/><path d="M246.126,180.309c0,.138-.658.253-1.464.1s-1.376-.566-1.3-.69.659.044,1.4.178S246.131,180.16,246.126,180.309Z" fill="#455a64"/><path d="M251.818,180.258c0,.144-.633.269-1.419.281s-1.425-.1-1.427-.24.633-.269,1.419-.281S251.816,180.114,251.818,180.258Z" fill="#455a64"/><path d="M257.514,180.173c0,.144-.635.273-1.421.283s-1.427-.1-1.429-.239.634-.27,1.421-.282S257.51,180.03,257.514,180.173Z" fill="#455a64"/><path d="M262.137,177.609c.127.036.055.736-.5,1.4-.572.667-1.3.8-1.334.671-.059-.139.476-.46.938-1.01S261.994,177.557,262.137,177.609Z" fill="#455a64"/><path d="M263.181,172.02c.142.019.163.666.045,1.446s-.327,1.393-.469,1.369-.162-.672-.046-1.447S263.038,172,263.181,172.02Z" fill="#455a64"/><path d="M263.748,166.356c.144.009.207.654.141,1.44s-.235,1.412-.378,1.4-.206-.66-.141-1.44S263.605,166.347,263.748,166.356Z" fill="#455a64"/><path d="M263.929,162.015c.143,0,.252.341.241.756s-.135.749-.279.744-.252-.344-.241-.757S263.785,162.013,263.929,162.015Z" fill="#455a64"/><path d="M227.718,116.6s11.9,3.122,12.1,31.068h4.8s1.257-23.472-11.692-32.692C232.923,114.977,229.185,114.079,227.718,116.6Z" fill="#263238"/><path d="M252.883,114.613s8.452,4,8.654,31.95h4.075s.344-26.17-7.641-31.333A5.709,5.709,0,0,0,252.883,114.613Z" fill="#263238"/><path d="M244.579,145.534a3.265,3.265,0,0,1,.294,1.583,2.934,2.934,0,0,1-.527,1.74,2.9,2.9,0,0,1-4.133.148,2.911,2.911,0,0,1-.633-1.705,3.236,3.236,0,0,1,.2-1.6,10.322,10.322,0,0,1,.164,1.557,2.733,2.733,0,0,0,.627,1.428,2.539,2.539,0,0,0,3.393-.123,2.772,2.772,0,0,0,.539-1.466A9.953,9.953,0,0,1,244.579,145.534Z" fill="#455a64"/><path d="M242.2,146.356c-.031-.058.26-.219.629.05a.745.745,0,0,1,.273.73.833.833,0,0,1-1.555.258.744.744,0,0,1,.023-.779c.262-.374.589-.315.579-.25.015.071-.178.166-.251.416a.388.388,0,0,0,.057.359.375.375,0,0,0,.679-.112.389.389,0,0,0-.062-.359C242.418,146.456,242.2,146.429,242.2,146.356Z" fill="#455a64"/><path d="M265.7,145.511c.055-.015.284.481.237,1.358a2.958,2.958,0,0,1-.5,1.462,2.337,2.337,0,0,1-1.632,1.033,1.946,1.946,0,0,1-1.8-.723,2.82,2.82,0,0,1-.561-1.446,2.6,2.6,0,0,1,.1-1.367c.084-.005.105.525.265,1.306a2.715,2.715,0,0,0,.566,1.2,1.5,1.5,0,0,0,1.37.513,1.944,1.944,0,0,0,1.307-.795,2.89,2.89,0,0,0,.524-1.23C265.709,146.043,265.62,145.523,265.7,145.511Z" fill="#455a64"/><path d="M263.433,146.189c-.051-.04.13-.3.568-.239a.741.741,0,0,1,.577.5.842.842,0,0,1-.255.917.828.828,0,0,1-.956.037.7.7,0,0,1-.315-.705c.088-.447.422-.51.432-.443.039.061-.1.215-.064.461a.335.335,0,0,0,.192.275.39.39,0,0,0,.385-.031.4.4,0,0,0,.121-.376.39.39,0,0,0-.221-.279C263.671,146.186,263.471,146.251,263.433,146.189Z" fill="#455a64"/><path d="M269.15,198.535,299.187,248.1a7.085,7.085,0,0,1-.023,7.384l-27.921,57.583-22.9-12.127L271.1,256.523a7.083,7.083,0,0,0-.573-7.5l-29.5-35.758,1.2-14.733Z" fill="#263238"/><path d="M221.953,191.969,207.465,356.851h23.949l20.375-139.929-.312-19.851Z" fill="#263238"/><path d="M234.485,199.228a3.881,3.881,0,0,1-.537,1.825,8.3,8.3,0,0,1-7.506,4.662,3.876,3.876,0,0,1-1.874-.327c.014-.084.727.039,1.862-.041a8.9,8.9,0,0,0,7.193-4.467C234.2,199.9,234.4,199.2,234.485,199.228Z" fill="#455a64"/><path d="M240.746,289.4a5.05,5.05,0,0,1,.108-.824q.151-.873.407-2.342c.354-2.087.853-5.018,1.465-8.618,1.21-7.282,2.751-17.364,4.347-28.513,1.58-11.156,2.916-21.268,3.8-28.6.428-3.627.776-6.58,1.023-8.681q.173-1.482.274-2.362a5.006,5.006,0,0,1,.131-.82,4.856,4.856,0,0,1-.026.83l-.177,2.371c-.174,2.058-.458,5.034-.859,8.7-.793,7.343-2.072,17.467-3.653,28.627s-3.2,21.232-4.5,28.5c-.646,3.636-1.213,6.571-1.629,8.594q-.317,1.459-.5,2.325A4.847,4.847,0,0,1,240.746,289.4Z" fill="#455a64"/><path d="M231.91,352.841c0,.143-5.435.139-12.131-.009s-12.123-.386-12.12-.53,5.434-.14,12.132.009S231.913,352.7,231.91,352.841Z" fill="#455a64"/><path d="M273.829,309.629a4.256,4.256,0,0,1-1.016-.347c-.642-.252-1.558-.645-2.681-1.153-2.246-1.015-5.3-2.519-8.589-4.355s-6.166-3.659-8.205-5.043c-1.021-.691-1.835-1.267-2.386-1.681a4.3,4.3,0,0,1-.827-.685,4.222,4.222,0,0,1,.941.517l2.472,1.54c2.086,1.3,4.988,3.065,8.259,4.9s6.293,3.379,8.493,4.476l2.606,1.3A4.225,4.225,0,0,1,273.829,309.629Z" fill="#455a64"/><path d="M229.571,351.8c.143.015.223.361.179.773s-.2.734-.338.718-.224-.361-.18-.773S229.428,351.786,229.571,351.8Z" fill="#455a64"/><path d="M230.219,345.84c.143.015.186.7.1,1.518s-.279,1.478-.422,1.462-.185-.7-.1-1.519S230.076,345.824,230.219,345.84Z" fill="#455a64"/><path d="M230.885,339.88c.143.016.184.7.091,1.519s-.284,1.477-.427,1.461-.183-.7-.091-1.519S230.742,339.864,230.885,339.88Z" fill="#455a64"/><path d="M231.569,333.923c.143.017.182.7.087,1.519s-.288,1.476-.431,1.459-.182-.7-.087-1.519S231.427,333.906,231.569,333.923Z" fill="#455a64"/><path d="M232.272,327.968c.143.017.18.7.082,1.519s-.293,1.475-.435,1.458-.18-.7-.082-1.519S232.13,327.951,232.272,327.968Z" fill="#455a64"/><path d="M232.993,322.015c.143.017.178.7.078,1.519s-.3,1.474-.44,1.457-.178-.7-.077-1.52S232.851,322,232.993,322.015Z" fill="#455a64"/><path d="M233.733,316.064c.143.018.175.7.072,1.52s-.3,1.473-.444,1.455-.175-.7-.072-1.52S233.59,316.046,233.733,316.064Z" fill="#455a64"/><path d="M234.491,310.116c.143.018.173.7.068,1.52s-.307,1.472-.449,1.454-.173-.7-.068-1.52S234.348,310.1,234.491,310.116Z" fill="#455a64"/><path d="M235.267,304.17c.143.019.171.7.063,1.52s-.311,1.471-.453,1.453-.171-.7-.063-1.521S235.125,304.151,235.267,304.17Z" fill="#455a64"/><path d="M236.062,298.227c.142.019.168.7.058,1.52s-.315,1.47-.458,1.451-.168-.7-.058-1.521S235.919,298.207,236.062,298.227Z" fill="#455a64"/><path d="M236.875,292.285c.142.02.166.7.053,1.521s-.32,1.469-.462,1.45-.166-.7-.054-1.521S236.732,292.266,236.875,292.285Z" fill="#455a64"/><path d="M237.706,286.347c.142.02.164.7.049,1.521s-.325,1.468-.467,1.448-.164-.7-.049-1.521S237.564,286.327,237.706,286.347Z" fill="#455a64"/><path d="M238.555,280.411c.143.021.163.7.045,1.521s-.329,1.467-.472,1.447-.162-.7-.044-1.521S238.413,280.391,238.555,280.411Z" fill="#455a64"/><path d="M239.423,274.478c.142.021.16.7.04,1.521s-.334,1.466-.476,1.445-.16-.7-.039-1.521S239.281,274.457,239.423,274.478Z" fill="#455a64"/><path d="M240.309,268.547c.142.022.158.7.035,1.521s-.338,1.465-.48,1.444-.158-.7-.035-1.521S240.167,268.526,240.309,268.547Z" fill="#455a64"/><path d="M241.214,262.619c.142.022.155.7.03,1.521s-.343,1.465-.485,1.443-.156-.7-.03-1.521S241.071,262.6,241.214,262.619Z" fill="#455a64"/><path d="M242.136,256.694c.142.023.154.7.026,1.522s-.347,1.463-.489,1.441-.154-.7-.026-1.522S241.994,256.672,242.136,256.694Z" fill="#455a64"/><path d="M243.077,250.772c.142.023.151.7.021,1.522s-.352,1.462-.494,1.439-.151-.7-.02-1.522S242.935,250.75,243.077,250.772Z" fill="#455a64"/><path d="M244.036,244.853c.142.023.149.705.016,1.522s-.356,1.461-.5,1.437-.149-.7-.016-1.521S243.894,244.83,244.036,244.853Z" fill="#455a64"/><path d="M245.013,238.937c.142.024.147.705.012,1.522s-.361,1.459-.5,1.436-.146-.705-.011-1.522S244.872,238.914,245.013,238.937Z" fill="#455a64"/><path d="M246.009,233.024c.142.024.145.705.007,1.522s-.365,1.458-.507,1.434-.145-.705-.007-1.521S245.867,233,246.009,233.024Z" fill="#455a64"/><path d="M247.026,227.111c.141.025.141.707,0,1.523s-.369,1.459-.511,1.434-.144-.706,0-1.523S246.884,227.086,247.026,227.111Z" fill="#455a64"/><path d="M248.212,221.234c.139.034.111.715-.064,1.52s-.432,1.437-.573,1.41-.113-.709.064-1.521S248.072,221.2,248.212,221.234Z" fill="#455a64"/><path d="M249.949,215.495c.134.053.028.727-.235,1.505s-.59,1.378-.728,1.337-.033-.714.235-1.505S249.815,215.443,249.949,215.495Z" fill="#455a64"/><path d="M251.844,211.425c.125.071.072.422-.119.783s-.45.6-.579.541-.077-.414.118-.784S251.719,211.354,251.844,211.425Z" fill="#455a64"/><path d="M254,297.579c.12.08.032.424-.2.769s-.511.561-.631.482-.032-.424.2-.769S253.876,297.5,254,297.579Z" fill="#455a64"/><path d="M257.263,292.548c.121.078-.144.7-.593,1.4s-.911,1.2-1.031,1.12.145-.706.593-1.4S257.142,292.471,257.263,292.548Z" fill="#455a64"/><path d="M260.456,287.47c.122.075-.134.707-.573,1.41s-.892,1.211-1.014,1.135.134-.708.573-1.411S260.334,287.394,260.456,287.47Z" fill="#455a64"/><path d="M263.574,282.345c.124.074-.123.709-.552,1.419s-.875,1.224-1,1.149.124-.71.552-1.418S263.451,282.271,263.574,282.345Z" fill="#455a64"/><path d="M266.618,277.176c.124.072-.114.71-.531,1.426s-.858,1.237-.982,1.164.114-.712.532-1.426S266.493,277.1,266.618,277.176Z" fill="#455a64"/><path d="M269.585,271.962c.126.07-.1.712-.51,1.434s-.839,1.249-.964,1.178.1-.713.51-1.434S269.46,271.892,269.585,271.962Z" fill="#455a64"/><path d="M272.476,266.706c.126.068-.093.714-.489,1.441s-.821,1.262-.947,1.192.093-.714.489-1.441S272.349,266.638,272.476,266.706Z" fill="#455a64"/><path d="M275.29,261.406c.128.066-.08.717-.468,1.45s-.8,1.274-.93,1.206.083-.716.47-1.449S275.162,261.341,275.29,261.406Z" fill="#455a64"/><path d="M277.526,255.855c.14.028.109.727-.163,1.526s-.651,1.375-.781,1.318.027-.713.287-1.484S277.384,255.826,277.526,255.855Z" fill="#455a64"/><path d="M277.05,249.982c.127-.061.53.519.743,1.351s.111,1.542-.012,1.544c-.164.009-.291-.641-.492-1.415S276.916,250.043,277.05,249.982Z" fill="#455a64"/><path d="M273.636,245.071c.107-.1.623.353,1.151,1s.862,1.244.745,1.327-.633-.365-1.152-1S273.528,245.167,273.636,245.071Z" fill="#455a64"/><path d="M269.659,240.58c.108-.1.64.33,1.189.95s.908,1.2.8,1.295-.64-.33-1.189-.95S269.552,240.676,269.659,240.58Z" fill="#455a64"/><path d="M265.682,236.09c.107-.1.64.33,1.189.95s.907,1.2.8,1.3-.64-.33-1.189-.95S265.574,236.185,265.682,236.09Z" fill="#455a64"/><path d="M261.7,231.6c.108-.1.64.33,1.189.95s.908,1.2.8,1.295-.64-.33-1.189-.95S261.6,231.7,261.7,231.6Z" fill="#455a64"/><path d="M257.727,227.11c.107-.1.64.33,1.189.95s.907,1.2.8,1.295-.64-.33-1.189-.95S257.619,227.205,257.727,227.11Z" fill="#455a64"/><path d="M253.749,222.62c.108-.1.64.33,1.189.949s.908,1.2.8,1.3-.64-.33-1.189-.95S253.642,222.715,253.749,222.62Z" fill="#455a64"/><path d="M250.768,219.254c.107-.1.417.078.692.388s.41.639.3.735-.417-.079-.692-.389S250.66,219.349,250.768,219.254Z" fill="#455a64"/><path d="M266.8,195.79a4.929,4.929,0,0,1,.509.655l1.376,1.936c1.175,1.7,2.848,4.167,4.847,7.266,4.033,6.177,9.245,14.933,15.228,24.45,2.992,4.763,5.971,9.206,8.757,13.209a16.781,16.781,0,0,1,2.961,6.3,10.7,10.7,0,0,1,.053,3.19,13.713,13.713,0,0,1-.788,2.824,30.829,30.829,0,0,1-2.337,4.416l-2,3.182q-.779,1.269-1.241,2.021a5,5,0,0,1-.45.7,4.928,4.928,0,0,1,.359-.747c.247-.484.639-1.183,1.158-2.075.536-.9,1.18-1.98,1.921-3.227a31.463,31.463,0,0,0,2.244-4.4,13.423,13.423,0,0,0,.733-2.746,10.348,10.348,0,0,0-.079-3.054,16.486,16.486,0,0,0-2.933-6.109c-2.8-3.983-5.808-8.436-8.8-13.2-5.99-9.528-11.148-18.309-15.1-24.53-1.958-3.122-3.583-5.622-4.7-7.351l-1.3-1.99A4.927,4.927,0,0,1,266.8,195.79Z" fill="#455a64"/><path d="M116.04,432.307l-.077-4.794,10.146-15.121,11.607,15.09v4.824Z" fill="#00aecd"/><g opacity="0.3"><path d="M116.04,432.307l-.077-4.794,10.146-15.121,11.607,15.09v4.824Z"/></g><path d="M75.893,414.107c.236-.125,51.187,0,51.187,0v4.267H79.385Z" fill="#00aecd"/><g opacity="0.3"><path d="M75.893,414.107c.236-.125,51.187,0,51.187,0v4.267H79.385Z"/></g><path d="M73.195,412.388,60.876,427.913v37.8H84.669V427.069Z" fill="#00aecd"/><path d="M141.972,465.711v-38.8L131.33,412.388h-5.25l11.635,15.095v4.824H88.881v-6.1L76.842,412.388H73.195l11.475,14.681v38.642Z" fill="#00aecd"/><path d="M141.729,435.43c0,.144-12.857.261-28.713.261S84.3,435.574,84.3,435.43s12.854-.26,28.716-.26S141.729,435.287,141.729,435.43Z" fill="#263238"/><path d="M141.546,463.564c0,.144-12.857.261-28.713.261s-28.716-.117-28.716-.261,12.854-.26,28.716-.26S141.546,463.42,141.546,463.564Z" fill="#263238"/><g opacity="0.1"><path d="M73.195,412.388,60.876,427.913v37.8H84.669V427.069Z" fill="#fff"/></g><path d="M589.579,465.755v-1.987a8.328,8.328,0,0,1,8.328-8.329H668.1a8.328,8.328,0,0,1,8.328,8.329v1.987Z" fill="#00aecd"/><path d="M630.276,376.714l-25.391,78.725h54.238l-23.571-78.67A2.763,2.763,0,0,0,630.276,376.714Z" fill="#00aecd"/><g opacity="0.5"><path d="M622.006,402.355h21.213l9.172,30.614H612.132Z" fill="#fff"/></g><g opacity="0.3"><path d="M604.885,455.439h54.238l-1.961-6.544-51.222,3.272Z"/></g><g opacity="0.2"><path d="M602.063,458.248c-.018.082-.676-.057-1.734-.032a8.479,8.479,0,0,0-6.934,3.757c-.6.873-.841,1.5-.92,1.471a3.522,3.522,0,0,1,.608-1.666,7.836,7.836,0,0,1,7.253-3.93A3.514,3.514,0,0,1,602.063,458.248Z" fill="#fff"/></g><g opacity="0.2"><path d="M614.39,435.111a104.7,104.7,0,0,1-5.105,13.852,105.069,105.069,0,0,1,5.105-13.852Z" fill="#fff"/></g><g opacity="0.2"><path d="M632.125,377.331a23.9,23.9,0,0,1-.975,3.324c-.7,2.17-1.594,4.91-2.577,7.94l-2.544,7.953a24.025,24.025,0,0,1-1.15,3.268,21.785,21.785,0,0,1,.8-3.373c.564-2.063,1.4-4.9,2.4-8.007s1.979-5.9,2.725-7.9A21.732,21.732,0,0,1,632.125,377.331Z" fill="#fff"/></g></g></svg>