<svg xmlns="http://www.w3.org/2000/svg" xmlns:xlink="http://www.w3.org/1999/xlink" width="750" height="500" viewBox="0 0 750 500"><defs><clipPath id="b"><rect width="750" height="500"/></clipPath></defs><g id="a" clip-path="url(#b)"><rect width="52.7" height="34.648" transform="translate(673.879 213.176) rotate(180)" fill="#e0e0e0"/><rect width="49.006" height="31.682" transform="translate(672.046 211.759) rotate(180)" fill="#fafafa"/><rect width="15.987" height="8.718" transform="translate(655.536 200.211) rotate(180)" fill="#e0e0e0"/><rect width="58.546" height="2.848" transform="translate(534.032 319.727)" fill="#ebebeb"/><path d="M524.959,322.575l-10.982-41.153h45.714l9.944,41.153Z" fill="#ebebeb"/><path d="M566.9,319.459H526.057l-9.506-36.136H557.6Z" fill="#e0e0e0"/><rect width="2.957" height="141.165" transform="translate(502.378 331.006)" fill="#f5f5f5"/><rect width="2.957" height="140.76" transform="translate(505.335 331.411)" fill="#ebebeb"/><rect width="2.957" height="141.165" transform="translate(684.537 331.006)" fill="#ebebeb"/><rect width="2.957" height="140.76" transform="translate(687.494 331.411)" fill="#e0e0e0"/><rect width="224.589" height="11.578" transform="translate(489.614 322.804)" fill="#e0e0e0"/><rect width="98.87" height="19.164" transform="translate(587.145 334.383)" fill="#ebebeb"/><path d="M640.987,342.641a2.2,2.2,0,1,1-2.2-2.2A2.2,2.2,0,0,1,640.987,342.641Z" fill="#e0e0e0"/><path d="M626.458,391.3H587.624a4.948,4.948,0,0,1-4.948-4.948V374.389a8.337,8.337,0,0,1,8.337-8.338h35.738Z" fill="#ebebeb"/><path d="M588.274,398.827h76.362a3.762,3.762,0,0,0,3.762-3.762h0a3.762,3.762,0,0,0-3.762-3.763H588.274a3.763,3.763,0,0,0-3.763,3.763h0A3.763,3.763,0,0,0,588.274,398.827Z" fill="#ebebeb"/><path d="M680.2,291.045l-42.009-.743-26.667,100.78,56.877.571,21.438-88.35A9.919,9.919,0,0,0,680.2,291.045Z" fill="#e0e0e0"/><path d="M659.272,398.827l12.57,73.047H668.4l-16.526-73.047Z" fill="#ebebeb"/><path d="M629.639,398.827,643,471.874h-3.443l-17.314-73.047Z" fill="#e0e0e0"/><path d="M596.865,398.827l-14.9,73.047h3.443l18.858-73.047Z" fill="#ebebeb"/><path d="M643,290.3l-20.79,100.887H606.263l16.671-89.144A14.356,14.356,0,0,1,637.051,290.3Z" fill="#ebebeb"/><path d="M567.217,50.226a12.56,12.56,0,0,1,2.34-2.389L569,44.788l4.717-2.013,1.816,2.512a12.553,12.553,0,0,1,3.344-.037l1.762-2.549,4.758,1.912-.491,3.059a12.552,12.552,0,0,1,2.388,2.34l3.05-.556,2.013,4.716-2.512,1.817a12.541,12.541,0,0,1,.036,3.343l2.549,1.762-1.912,4.759-3.059-.492a12.558,12.558,0,0,1-2.34,2.389l.557,3.049-4.717,2.013L579.142,70.3a12.58,12.58,0,0,1-3.342.037l-1.762,2.549-4.759-1.912.491-3.059a12.523,12.523,0,0,1-2.388-2.34l-3.05.557-2.013-4.717,2.512-1.817a12.546,12.546,0,0,1-.036-3.343l-2.549-1.762,1.912-4.759,3.059.492Zm5.1,5.3a5.5,5.5,0,1,0,7.156-3.054A5.5,5.5,0,0,0,572.32,55.526Z" fill="#f5f5f5" fill-rule="evenodd"/><path d="M600.312,82.365a44.048,44.048,0,0,1,8.207-8.379l-1.953-10.7,16.548-7.061,6.373,8.811a44.078,44.078,0,0,1,11.729-.129l6.181-8.942,16.694,6.709-1.724,10.731a44.065,44.065,0,0,1,8.38,8.209l10.7-1.953,7.061,16.548-8.811,6.373a44.112,44.112,0,0,1,.128,11.728l8.942,6.182-6.707,16.694-10.733-1.723a44.083,44.083,0,0,1-8.208,8.379l1.953,10.7L648.522,161.6l-6.374-8.812a44.1,44.1,0,0,1-11.727.129l-6.182,8.942-16.694-6.708,1.724-10.732a44.029,44.029,0,0,1-8.38-8.208l-10.7,1.953-7.061-16.548,8.812-6.374a44.1,44.1,0,0,1-.129-11.727l-8.942-6.182,6.707-16.694,10.734,1.724Zm17.9,18.594a19.3,19.3,0,1,0,25.1-10.713A19.3,19.3,0,0,0,618.214,100.959Z" fill="#ebebeb" fill-rule="evenodd"/><path d="M531.651,114.632a21.7,21.7,0,0,1,4.04-4.124l-.962-5.267,8.146-3.476,3.137,4.338a21.7,21.7,0,0,1,5.774-.064l3.042-4.4,8.218,3.3-.849,5.282a21.678,21.678,0,0,1,4.125,4.041l5.266-.961,3.476,8.145-4.338,3.137a21.651,21.651,0,0,1,.063,5.773l4.4,3.043-3.3,8.218-5.283-.849a21.706,21.706,0,0,1-4.041,4.125l.962,5.266-8.146,3.476-3.137-4.338a21.648,21.648,0,0,1-5.773.063l-3.043,4.4-8.218-3.3.849-5.282a21.707,21.707,0,0,1-4.125-4.041l-5.266.962-3.476-8.146,4.338-3.138a21.68,21.68,0,0,1-.063-5.772l-4.4-3.043,3.3-8.218,5.284.849Zm8.812,9.153a9.5,9.5,0,1,0,12.358-5.274A9.5,9.5,0,0,0,540.463,123.785Z" fill="#e0e0e0"/><path d="M540.463,123.785a7.18,7.18,0,0,1,1.055-2.1,9.461,9.461,0,0,1,5.191-3.69,9.571,9.571,0,0,1,4.466-.2,9.722,9.722,0,0,1,4.6,2.274,9.735,9.735,0,0,1,2.954,4.835,9.7,9.7,0,0,1-4.3,10.715,9.75,9.75,0,0,1-5.48,1.447,9.721,9.721,0,0,1-4.895-1.541,9.573,9.573,0,0,1-3.087-3.234,9.458,9.458,0,0,1-1.2-6.255,7.188,7.188,0,0,1,.694-2.249c.064.021-.3.793-.484,2.277a9.469,9.469,0,0,0,1.315,6.03,9.285,9.285,0,0,0,7.669,4.471,9.288,9.288,0,0,0,5.182-1.4,9.207,9.207,0,0,0,4.068-10.128,9.278,9.278,0,0,0-2.772-4.594,9.28,9.28,0,0,0-8.629-2.079,9.473,9.473,0,0,0-5.123,3.444C540.8,123.007,540.524,123.814,540.463,123.785Z" fill="#e0e0e0"/><path d="M531.651,114.632a2.034,2.034,0,0,1-.332-.033l-1-.14-3.961-.59.094-.053-3.254,8.237-.05-.165,4.414,3.024.08.055-.012.1a21.661,21.661,0,0,0,.082,5.728l.016.107-.088.064c-1.35.981-2.81,2.044-4.329,3.149l.065-.233c1.1,2.563,2.268,5.282,3.494,8.137l-.235-.126,5.264-.972.133-.025.085.108a21.576,21.576,0,0,0,4.087,3.99l.114.085-.022.141c-.261,1.638-.548,3.444-.841,5.284l-.149-.264,8.221,3.292-.3.091,3.038-4.4.089-.129.156.02a21.56,21.56,0,0,0,5.7-.067l.157-.024.094.13,3.14,4.336-.321-.089,8.144-3.48-.16.3c-.3-1.664-.632-3.458-.962-5.266l-.03-.162.13-.1a21.509,21.509,0,0,0,3.986-4.069l0,0,.1-.132.161.026,5.283.849-.3.167q1.676-4.165,3.3-8.217l.1.322-4.4-3.045-.134-.092.02-.16a21.417,21.417,0,0,0-.059-5.7l-.022-.158.129-.093,4.34-3.134-.087.312-3.468-8.149.276.148-5.267.955-.146.027-.091-.117a21.469,21.469,0,0,0-4.073-4l-.114-.086.023-.14.857-5.281.139.246-8.211-3.319.25-.075-3.054,4.394-.067.1-.118-.015a21.611,21.611,0,0,0-5.723.047l-.108.015-.063-.087-3.122-4.348.193.054-8.161,3.439.072-.134c.371,2.106.675,3.834.928,5.273l.01.052-.042.033a22.445,22.445,0,0,0-3.166,2.966c-.3.353-.527.622-.7.82a2.18,2.18,0,0,1-.233.269,2.636,2.636,0,0,1,.2-.3c.14-.191.354-.479.662-.849a21.017,21.017,0,0,1,3.126-3.047l-.032.085c-.272-1.435-.6-3.159-1-5.26l-.018-.1.091-.039,8.13-3.512.118-.051.076.1L546.157,106l-.17-.072a21.872,21.872,0,0,1,5.822-.081l-.184.083,3.032-4.409.094-.137.155.062,8.224,3.286.168.067-.029.179-.839,5.284-.092-.226a21.937,21.937,0,0,1,4.176,4.079l-.236-.09,5.265-.968.2-.036.078.185,3.485,8.141.081.191-.168.121-4.335,3.141.106-.251a21.959,21.959,0,0,1,.068,5.843l-.114-.252,4.4,3.04.178.123-.081.2-3.3,8.218-.081.2-.215-.035-5.282-.848.261-.106,0,0a21.936,21.936,0,0,1-4.088,4.171l.1-.263c.33,1.808.658,3.6.961,5.266l.039.213-.2.085-8.147,3.472-.2.084-.124-.173-3.135-4.339.251.106a22.045,22.045,0,0,1-5.842.059l.245-.109-3.047,4.4-.116.166-.188-.075-8.213-3.312-.181-.073.032-.191c.3-1.839.591-3.644.856-5.281l.091.225a21.965,21.965,0,0,1-4.161-4.09l.217.082-5.267.951-.169.031-.067-.157c-1.213-2.861-2.369-5.586-3.457-8.154l-.061-.143.126-.09,4.346-3.125-.072.17a21.894,21.894,0,0,1-.045-5.818l.068.151-4.39-3.06-.091-.064.042-.1c1.363-3.339,2.491-6.1,3.349-8.2l.026-.065.068.012,3.912.674,1.01.184A2.748,2.748,0,0,1,531.651,114.632Z" fill="#e0e0e0"/><path d="M207.23,50.11" fill="#f5f5f5"/><rect width="33.293" height="65.994" transform="translate(62.08 111.092)" fill="#f5f5f5"/><rect width="35.973" height="65.994" transform="translate(96.653 111.092)" fill="#f5f5f5"/><rect width="35.973" height="63.764" transform="translate(96.653 181.697)" fill="#f5f5f5"/><path d="M137.236,109.951H175.12V51.408h1.28v58.542h30.83V50.11H137.236Z" fill="#f5f5f5"/><rect width="30.83" height="65.994" transform="translate(176.4 111.092)" fill="#f5f5f5"/><rect width="30.83" height="63.764" transform="translate(176.4 181.697)" fill="#f5f5f5"/><rect width="33.293" height="63.764" transform="translate(62.08 181.697)" fill="#f5f5f5"/><rect width="37.883" height="63.764" transform="translate(137.236 181.697)" fill="#f5f5f5"/><rect width="33.293" height="57.459" transform="translate(62.08 246.603)" fill="#f5f5f5"/><rect width="30.83" height="57.459" transform="translate(176.4 246.603)" fill="#f5f5f5"/><path d="M95.373,109.951V51.408h1.28v58.542h35.973V50.11H62.08v59.841Z" fill="#f5f5f5"/><rect width="37.883" height="57.459" transform="translate(137.236 246.603)" fill="#f5f5f5"/><rect width="35.973" height="57.459" transform="translate(96.653 246.603)" fill="#f5f5f5"/><rect width="37.883" height="65.994" transform="translate(137.236 111.092)" fill="#f5f5f5"/><path d="M222.225,355.605s-4.2-.3-3.817,9.128a109.265,109.265,0,0,0,1.349,14.453s-.123,2.091-1.743,1.68-4.665-2.445-6.17-.924c-1.56,1.578-1.006,4,1.064,6.848s6.375,9.26,6.762,9.841.533,1.641-.615,1.538-8.9-2.729-9.922,1.022,6.044,10.744,6.8,11.523.8,1.271.491,1.743-2.829-.657-5.063-1.314-4.94-1.026-5.351,1.188,2.7,8.693,14.367,15.5l5.61,2.8,5.311-3.387c10.923-7.942,13.374-14.7,12.744-16.861s-3.286-1.524-5.443-.647-4.553,2.252-4.907,1.813-.361-.931.315-1.783,7.012-8.515,5.616-12.145-8.843-.242-9.974-.025-1.088-.862-.767-1.468,3.97-7.426,5.744-10.469,2.085-5.506.374-6.919c-1.649-1.363-4.476.966-6.047,1.536s-1.9-1.5-1.9-1.5a109.251,109.251,0,0,0-.1-14.516c-.559-9.421-4.812-8.661-4.812-8.661" fill="#ebebeb"/><path d="M222.557,364.051s.011.067.022.2.026.332.045.579c.035.519.086,1.267.151,2.227.129,1.934.294,4.734.485,8.194.385,6.921.835,16.486,1.3,27.051s.887,20.134,1.233,27.057c.176,3.453.318,6.251.417,8.2.048.96.085,1.709.111,2.229.01.247.017.44.023.58s0,.2,0,.2-.012-.067-.023-.2l-.045-.579c-.035-.519-.085-1.267-.151-2.226-.128-1.934-.294-4.734-.485-8.2-.384-6.92-.834-16.486-1.3-27.055s-.886-20.13-1.232-27.052c-.176-3.454-.318-6.252-.417-8.2-.048-.96-.085-1.709-.111-2.229-.01-.247-.018-.44-.023-.58S222.557,364.051,222.557,364.051Z" fill="#e0e0e0"/><path d="M215.991,382.96a1.924,1.924,0,0,1,.349.291c.216.2.519.489.89.855.74.734,1.736,1.774,2.813,2.942,1.054,1.153,2.007,2.2,2.745,3l.835.906a1.828,1.828,0,0,1,.292.347,1.812,1.812,0,0,1-.351-.288c-.216-.2-.519-.49-.886-.86-.734-.741-1.716-1.794-2.792-2.962l-2.765-2.981-.84-.9A1.778,1.778,0,0,1,215.991,382.96Z" fill="#e0e0e0"/><path d="M224.472,391.118c-.043-.042,2.009-2.191,4.582-4.8s4.694-4.69,4.736-4.649-2.009,2.19-4.583,4.8S224.514,391.159,224.472,391.118Z" fill="#e0e0e0"/><path d="M224.449,407.377a1.907,1.907,0,0,1,.391-.249l1.1-.616c.926-.52,2.2-1.243,3.582-2.091s2.607-1.653,3.49-2.244l1.047-.7a1.92,1.92,0,0,1,.4-.236,1.962,1.962,0,0,1-.351.3c-.233.184-.577.444-1.009.755-.862.624-2.077,1.455-3.463,2.3s-2.677,1.555-3.623,2.042c-.474.242-.86.432-1.131.556A1.972,1.972,0,0,1,224.449,407.377Z" fill="#e0e0e0"/><path d="M215.154,401.687a1.621,1.621,0,0,1,.388.182c.242.129.59.322,1.017.565.854.486,2.026,1.169,3.314,1.935s2.449,1.47,3.283,1.989c.418.259.753.472.983.624a1.616,1.616,0,0,1,.345.254,1.705,1.705,0,0,1-.388-.182c-.243-.13-.59-.323-1.017-.566-.854-.485-2.027-1.168-3.315-1.935s-2.449-1.469-3.283-1.988c-.417-.26-.753-.473-.982-.624A1.623,1.623,0,0,1,215.154,401.687Z" fill="#e0e0e0"/><path d="M213.31,416.038a2.709,2.709,0,0,1,.493.239l1.306.72c1.1.616,2.607,1.481,4.267,2.447s3.159,1.851,4.237,2.5l1.271.779a2.776,2.776,0,0,1,.452.311,2.686,2.686,0,0,1-.494-.238l-1.306-.721c-1.1-.616-2.607-1.48-4.268-2.447s-3.157-1.851-4.235-2.5l-1.272-.779A2.6,2.6,0,0,1,213.31,416.038Z" fill="#e0e0e0"/><path d="M225.1,422.787a3.074,3.074,0,0,1,.488-.327l1.364-.83c1.151-.7,2.738-1.675,4.459-2.8s3.258-2.176,4.364-2.946l1.311-.911a3.014,3.014,0,0,1,.5-.314,3.016,3.016,0,0,1-.446.381c-.3.234-.729.566-1.272.967-1.085.8-2.608,1.88-4.336,3s-3.327,2.081-4.5,2.75c-.587.333-1.065.6-1.4.772A3.008,3.008,0,0,1,225.1,422.787Z" fill="#e0e0e0"/><path d="M233.528,432.47H218.006l5.066,38.35h5.39Z" fill="#e0e0e0"/><path d="M218.811,437.184c-.006,0,.017.054.083.137a.984.984,0,0,0,.375.267,1.875,1.875,0,0,0,1.639-.2,12.446,12.446,0,0,1,2.013-1.325,4.4,4.4,0,0,1,2.854.057,12.216,12.216,0,0,1,2.658,1.288,18.694,18.694,0,0,0,2.161,1.16,5.988,5.988,0,0,0,1.594.46,2.937,2.937,0,0,0,.451.031c.1,0,.157-.005.157-.013a8.122,8.122,0,0,1-2.129-.642,21.51,21.51,0,0,1-2.114-1.2,11.8,11.8,0,0,0-2.7-1.33,4.561,4.561,0,0,0-3.012-.033,3.951,3.951,0,0,0-1.134.7,8.783,8.783,0,0,1-.889.688,1.823,1.823,0,0,1-1.512.262A1.542,1.542,0,0,1,218.811,437.184Z" fill="#f5f5f5"/><path d="M219.378,444.247c.02.013.122-.158.365-.411a3.443,3.443,0,0,1,1.24-.786,5.509,5.509,0,0,1,2.158-.325,22.7,22.7,0,0,1,2.7.367,9.286,9.286,0,0,0,2.765.115,7.6,7.6,0,0,0,2.176-.621,6.936,6.936,0,0,0,1.309-.778,1.834,1.834,0,0,0,.414-.373,13.775,13.775,0,0,1-1.794.987,7.945,7.945,0,0,1-2.133.553,9.481,9.481,0,0,1-2.7-.133,20.383,20.383,0,0,0-2.734-.351,5.475,5.475,0,0,0-2.233.392,3.264,3.264,0,0,0-1.246.887,2.207,2.207,0,0,0-.235.344C219.39,444.2,219.37,444.243,219.378,444.247Z" fill="#f5f5f5"/><path d="M231.769,448.029a1.288,1.288,0,0,0-.427-.223,4.571,4.571,0,0,0-1.286-.275,8.192,8.192,0,0,0-1.945.111c-.724.117-1.5.317-2.315.49a9.757,9.757,0,0,1-2.312.261,5.037,5.037,0,0,1-1.835-.4,4.228,4.228,0,0,1-1.392-1.036,1.186,1.186,0,0,0,.263.4,3.289,3.289,0,0,0,1.054.794,4.956,4.956,0,0,0,1.9.467,9.364,9.364,0,0,0,2.374-.246c.824-.175,1.594-.381,2.3-.508a8.9,8.9,0,0,1,1.9-.163A7.1,7.1,0,0,1,231.769,448.029Z" fill="#f5f5f5"/><path d="M220.749,453.347a2.526,2.526,0,0,1,1.507-.152,7.34,7.34,0,0,1,1.577.588,5.98,5.98,0,0,0,2.046.564,6.142,6.142,0,0,0,3.714-.86,5.3,5.3,0,0,0,.924-.711c.189-.2.286-.317.273-.329a13.548,13.548,0,0,1-1.287.885,6.36,6.36,0,0,1-3.6.763c-1.47-.084-2.6-.96-3.616-1.076a2.3,2.3,0,0,0-1.171.1C220.852,453.223,220.741,453.338,220.749,453.347Z" fill="#f5f5f5"/><path d="M221.614,460.708a2.972,2.972,0,0,0,1.294-.257c.78-.261,1.746-.859,2.874-1.307a4.665,4.665,0,0,1,1.649-.345,3.035,3.035,0,0,1,1.326.3,2.915,2.915,0,0,1,.959.828c.012,0-.02-.132-.147-.327a2.124,2.124,0,0,0-.727-.659,3.049,3.049,0,0,0-1.407-.378,4.632,4.632,0,0,0-1.743.342c-1.169.466-2.1,1.082-2.849,1.377C222.106,460.6,221.608,460.668,221.614,460.708Z" fill="#f5f5f5"/><path d="M222.375,464.133a3.609,3.609,0,0,0,.983.319,18.054,18.054,0,0,0,4.947.486,3.67,3.67,0,0,0,1.026-.121c0-.077-1.573-.01-3.492-.2S222.393,464.059,222.375,464.133Z" fill="#f5f5f5"/><path d="M683.879,472.171c0,.144-138.3.261-308.864.261-170.623,0-308.894-.117-308.894-.261s138.271-.26,308.894-.26C545.578,471.911,683.879,472.028,683.879,472.171Z" fill="#263238"/><rect width="7.973" height="146.109" transform="translate(370.846 326.062)" fill="#263238"/><path d="M317.118,472.171l55.625-53.493,3.986,3.564-51.816,49.929Z" fill="#263238"/><path d="M432.267,472.054l-55.5-53.375-3.986,3.564,51.816,49.929Z" fill="#263238"/><rect width="359.056" height="261.716" transform="translate(196.37 89.199)" fill="#fff"/><path d="M555.426,350.915c0-1.751-.084-103.032-.212-261.716l.212.212L196.4,89.459h-.03l.26-.26c-.008,93.878-.017,182.883-.024,261.716l-.236-.236,359.056.236-359.056.236h-.236v-.236c-.007-78.833-.016-167.838-.024-261.716v-.261h.29l359.026.048h.212V89.2C555.509,247.883,555.427,349.166,555.426,350.915Z" fill="#263238"/><path d="M242.245,116.514h-3.036v-.79H246.2v.79h-3.036v7.851h-.914Z" fill="#263238"/><path d="M246.767,120.045a4.539,4.539,0,1,1,4.543,4.394A4.349,4.349,0,0,1,246.767,120.045Zm8.16,0a3.63,3.63,0,1,0-3.617,3.579A3.5,3.5,0,0,0,254.927,120.045Z" fill="#263238"/><path d="M261.131,115.724h3.518c2.765,0,4.629,1.778,4.629,4.321s-1.864,4.32-4.629,4.32h-3.518Zm3.469,7.851a3.539,3.539,0,1,0,0-7.061h-2.555v7.061Z" fill="#263238"/><path d="M270.568,120.045a4.539,4.539,0,1,1,4.542,4.394A4.349,4.349,0,0,1,270.568,120.045Zm8.16,0a3.63,3.63,0,1,0-3.618,3.579A3.5,3.5,0,0,0,278.728,120.045Z" fill="#263238"/><path d="M368.964,115.724l-2.914,8.641h-.962L362.557,117l-2.543,7.37h-.95l-2.913-8.641h.937l2.495,7.431,2.58-7.431h.851l2.543,7.468,2.53-7.468Z" fill="#263238"/><path d="M369.8,120.045a4.539,4.539,0,1,1,4.543,4.394A4.349,4.349,0,0,1,369.8,120.045Zm8.161,0a3.63,3.63,0,1,0-3.618,3.579A3.5,3.5,0,0,0,377.959,120.045Z" fill="#263238"/><path d="M386.827,124.365l-1.975-2.777a6.322,6.322,0,0,1-.691.037h-2.322v2.74h-.913v-8.641h3.235c2.2,0,3.53,1.111,3.53,2.963a2.677,2.677,0,0,1-1.975,2.715l2.111,2.963Zm-.049-5.678c0-1.383-.914-2.173-2.642-2.173h-2.3v4.333h2.3C385.864,120.847,386.778,120.045,386.778,118.687Z" fill="#263238"/><path d="M392.535,120.3l-1.766,1.791v2.271h-.913v-8.641h.913v5.222l5.074-5.222h1.049l-3.74,3.913,4,4.728h-1.087Z" fill="#263238"/><path d="M465.114,115.724h3.518c2.765,0,4.629,1.778,4.629,4.321s-1.864,4.32-4.629,4.32h-3.518Zm3.469,7.851a3.539,3.539,0,1,0,0-7.061h-2.556v7.061Z" fill="#263238"/><path d="M474.55,120.045a4.539,4.539,0,1,1,4.543,4.394A4.349,4.349,0,0,1,474.55,120.045Zm8.161,0a3.63,3.63,0,1,0-3.618,3.579A3.5,3.5,0,0,0,482.711,120.045Z" fill="#263238"/><path d="M492.9,115.724v8.641h-.753l-5.556-7.012v7.012h-.913v-8.641h.753L492,122.736v-7.012Z" fill="#263238"/><path d="M501.83,123.575v.79h-6.111v-8.641h5.926v.79h-5.013v3.074H501.1v.777h-4.469v3.21Z" fill="#263238"/><path d="M541.946,148.539c0,.144-72.668.26-162.287.26-89.65,0-162.3-.116-162.3-.26s72.653-.26,162.3-.26C469.278,148.279,541.946,148.4,541.946,148.539Z" fill="#263238"/><path d="M317.995,350.915c-.144,0-.261-56.2-.261-125.518,0-69.339.117-125.531.261-125.531s.26,56.192.26,125.531C318.255,294.711,318.138,350.915,317.995,350.915Z" fill="#263238"/><path d="M437.1,350.915c-.143,0-.26-56.2-.26-125.518,0-69.339.117-125.531.26-125.531s.261,56.192.261,125.531C437.357,294.711,437.24,350.915,437.1,350.915Z" fill="#263238"/><path d="M258.939,158.424s-2.5,22.885.715,35.416l30.579-1.337s-6.553-22.575-2.529-32.576Z" fill="#e0e0e0"/><path d="M218.541,171.021s-2.5,22.886.715,35.416l30.579-1.336s-6.553-22.576-2.529-32.577Z" fill="#e0e0e0"/><path d="M258.939,158.424s.209,24.708,1.465,32.247l30.991-1.466s-2.722-24.29-1.675-30.781Z" fill="#455a64"/><path d="M274.2,161.918a.414.414,0,0,1,.113-.012l.335-.013a7.562,7.562,0,0,1,1.289.064,7.063,7.063,0,0,1,1.971.586,6.455,6.455,0,0,1,2.144,1.7,7.445,7.445,0,0,1,1.486,2.985,7.2,7.2,0,0,1-.325,3.828,11.319,11.319,0,0,1-.871,1.914,20.516,20.516,0,0,0-.992,1.933,16.571,16.571,0,0,0-1.253,4.4l-.013.1h-.1l-3.06.05-3.21.05-.114,0,0-.116a9.168,9.168,0,0,0-1.488-4.236c-.372-.635-.779-1.23-1.16-1.832a17.845,17.845,0,0,1-1.089-1.776,5.986,5.986,0,0,1-.486-3.774,8.041,8.041,0,0,1,1.2-3.088,5.976,5.976,0,0,1,2.017-1.816,7.561,7.561,0,0,1,1.9-.736,8.105,8.105,0,0,1,1.266-.206c.146-.008.257-.014.332-.013a.352.352,0,0,1,.113.008.522.522,0,0,1-.112.014l-.329.035a9.151,9.151,0,0,0-1.249.244,7.7,7.7,0,0,0-1.864.76,5.9,5.9,0,0,0-1.95,1.8,7.952,7.952,0,0,0-1.142,3.031,5.807,5.807,0,0,0,.49,3.653,18.263,18.263,0,0,0,1.086,1.752c.378.593.792,1.193,1.169,1.833a9.342,9.342,0,0,1,1.529,4.345l-.118-.114,3.21-.052,3.06-.048-.113.1a16.643,16.643,0,0,1,1.279-4.464,20.273,20.273,0,0,1,1.008-1.949,11.186,11.186,0,0,0,.864-1.876,7.039,7.039,0,0,0,.34-3.724,7.331,7.331,0,0,0-1.426-2.923,6.4,6.4,0,0,0-2.078-1.685,7.167,7.167,0,0,0-1.929-.612,8.532,8.532,0,0,0-1.278-.1l-.333-.009A.433.433,0,0,1,274.2,161.918Z" fill="#fff"/><path d="M275.792,179.131s-.008-.032-.019-.1l-.047-.287c-.039-.257-.1-.629-.169-1.107-.139-.961-.345-2.354-.484-4.087-.033-.434-.063-.888-.08-1.363s-.036-.968-.009-1.481a4.139,4.139,0,0,1,.349-1.55,2.347,2.347,0,0,1,1.182-1.184,1.584,1.584,0,0,1,1.687.321,1.179,1.179,0,0,1,.362.849,1.5,1.5,0,0,1-.317.887,2.022,2.022,0,0,1-.746.6,3.976,3.976,0,0,1-.92.305,11.108,11.108,0,0,1-1.956.228,11.383,11.383,0,0,1-1.968-.1,3.7,3.7,0,0,1-.933-.27,2.408,2.408,0,0,1-.781-.555,1.805,1.805,0,0,1-.45-.829,1.4,1.4,0,0,1,.111-.918,1.251,1.251,0,0,1,.648-.631,1.125,1.125,0,0,1,.882.041,1.676,1.676,0,0,1,.658.56,2.282,2.282,0,0,1,.329.772,9.317,9.317,0,0,1,.157,1.581c.053,1.02.1,1.97.148,2.838.087,1.732.158,3.135.207,4.11.022.482.04.858.052,1.117,0,.125.008.222.011.291s0,.1,0,.1-.005-.033-.01-.1l-.021-.291c-.016-.259-.039-.634-.069-1.116-.057-.974-.138-2.377-.238-4.108-.049-.868-.1-1.818-.16-2.838a9.386,9.386,0,0,0-.159-1.565,2.19,2.19,0,0,0-.318-.742,1.579,1.579,0,0,0-.624-.529,1.033,1.033,0,0,0-.812-.038,1.16,1.16,0,0,0-.6.587,1.313,1.313,0,0,0-.1.858,1.729,1.729,0,0,0,.428.785,2.8,2.8,0,0,0,1.66.794,11.35,11.35,0,0,0,1.95.094,10.976,10.976,0,0,0,1.938-.226,3.811,3.811,0,0,0,.9-.3,1.914,1.914,0,0,0,.712-.573,1.418,1.418,0,0,0,.3-.832,1.088,1.088,0,0,0-.333-.782,1.494,1.494,0,0,0-1.589-.3,2.271,2.271,0,0,0-1.139,1.138,4.054,4.054,0,0,0-.346,1.518c-.029.508-.01,1,0,1.474s.044.928.074,1.361c.13,1.731.326,3.124.453,4.087.065.479.116.851.151,1.109l.038.288C275.791,179.1,275.792,179.131,275.792,179.131Z" fill="#fff"/><path d="M271.712,179.295c.016.014.042.384.081,1.03q.057,1.121.138,2.685l-.025-.066,2.086,2.4-.107-.046,2.411-.136-.1.052,1.2-1.467.6-.733-.032.094c-.032-1.414-.063-2.752-.091-3.973l.131.125-4.506.05h-1.3a3.7,3.7,0,0,1-.486-.018,2.22,2.22,0,0,1,.43-.041l1.271-.067,4.587-.18.128-.005,0,.13c.037,1.221.078,2.559.12,3.972l0,.053-.034.042-.6.733-1.2,1.465-.04.048-.062,0-2.413.118-.066,0-.041-.049-2.047-2.438-.025-.03v-.036q-.015-1.605-.027-2.753A8.42,8.42,0,0,1,271.712,179.295Z" fill="#fff"/><path d="M277.937,182.785a1.359,1.359,0,0,1-.228-.1c-.145-.065-.358-.155-.626-.247a6.1,6.1,0,0,0-4.333.132c-.262.108-.469.211-.609.285a1.512,1.512,0,0,1-.223.111,1.061,1.061,0,0,1,.2-.143,4.977,4.977,0,0,1,.6-.316,5.8,5.8,0,0,1,4.383-.133,5,5,0,0,1,.619.278A1.078,1.078,0,0,1,277.937,182.785Z" fill="#fff"/><path d="M277.937,181.82a1.307,1.307,0,0,1-.229-.1c-.145-.065-.357-.155-.626-.247a6.1,6.1,0,0,0-4.333.132c-.262.108-.469.211-.609.285a1.517,1.517,0,0,1-.223.111,1.061,1.061,0,0,1,.2-.143,4.926,4.926,0,0,1,.6-.316,5.794,5.794,0,0,1,4.382-.133,4.866,4.866,0,0,1,.619.278A1.158,1.158,0,0,1,277.937,181.82Z" fill="#fff"/><path d="M277.88,180.9a1.414,1.414,0,0,1-.229-.1c-.145-.066-.357-.156-.626-.248a6.1,6.1,0,0,0-4.333.132c-.262.109-.469.211-.609.286a1.431,1.431,0,0,1-.223.11,1.12,1.12,0,0,1,.2-.143,5.026,5.026,0,0,1,.6-.315,5.787,5.787,0,0,1,4.382-.134,5.109,5.109,0,0,1,.62.278A1.085,1.085,0,0,1,277.88,180.9Z" fill="#fff"/><path d="M218.309,171.04s.209,24.709,1.466,32.247l30.99-1.466s-2.722-24.29-1.675-30.781Z" fill="#00aecd"/><path d="M244.419,181.419c.009.143-4.64.54-10.382.885s-10.4.509-10.414.365,4.639-.539,10.383-.885S244.411,181.275,244.419,181.419Z" fill="#fff"/><path d="M244.428,186.652c.008.144-4.64.54-10.382.886s-10.406.509-10.414.365,4.639-.54,10.382-.885S244.419,186.509,244.428,186.652Z" fill="#fff"/><path d="M239.16,191.791a34.144,34.144,0,0,1-5.908.616,33.94,33.94,0,0,1-5.94.1,34.129,34.129,0,0,1,5.908-.616A33.945,33.945,0,0,1,239.16,191.791Z" fill="#fff"/><path d="M275.943,197.75s-2.505,22.886.714,35.416l30.579-1.336s-6.552-22.576-2.529-32.577Z" fill="#ebebeb"/><path d="M276.064,197.015s.21,24.708,1.466,32.247l30.99-1.466s-2.722-24.29-1.675-30.781Z" fill="#00aecd"/><path d="M302.175,207.393c.008.144-4.641.54-10.382.886s-10.406.509-10.415.365,4.64-.54,10.383-.885S302.166,207.25,302.175,207.393Z" fill="#fff"/><path d="M302.183,212.627a104.16,104.16,0,0,1-10.382.885c-5.744.346-10.406.509-10.414.366s4.639-.54,10.383-.886S302.174,212.483,302.183,212.627Z" fill="#fff"/><path d="M296.915,217.765a33.967,33.967,0,0,1-5.908.617,33.941,33.941,0,0,1-5.94.1,34.136,34.136,0,0,1,5.909-.616A34.113,34.113,0,0,1,296.915,217.765Z" fill="#fff"/><path d="M269.6,293.664s-2.5,22.885.715,35.416l30.579-1.337s-6.552-22.576-2.529-32.577Z" fill="#ebebeb"/><path d="M269.72,292.928s.21,24.709,1.466,32.247l30.99-1.466s-2.722-24.29-1.675-30.781Z" fill="#00aecd"/><path d="M295.83,303.307c.009.143-4.64.539-10.381.885s-10.406.509-10.415.365,4.639-.54,10.383-.885S295.822,303.163,295.83,303.307Z" fill="#fff"/><path d="M295.839,308.54c.008.144-4.64.54-10.382.885s-10.406.509-10.414.366a104.137,104.137,0,0,1,10.383-.885C291.167,308.56,295.83,308.4,295.839,308.54Z" fill="#fff"/><path d="M290.571,313.679a34.147,34.147,0,0,1-5.908.616,33.938,33.938,0,0,1-5.94.1,34.132,34.132,0,0,1,5.909-.616A33.938,33.938,0,0,1,290.571,313.679Z" fill="#fff"/><path d="M226.615,275.154s-2.5,22.886.715,35.416l30.579-1.336s-6.553-22.576-2.529-32.577Z" fill="#ebebeb"/><path d="M226.736,274.419s.21,24.709,1.466,32.247l30.991-1.466s-2.723-24.29-1.676-30.781Z" fill="#00aecd"/><path d="M252.847,284.8c.008.144-4.64.54-10.382.886s-10.406.509-10.414.365,4.639-.54,10.383-.885S252.838,284.654,252.847,284.8Z" fill="#fff"/><path d="M252.855,290.031a104.161,104.161,0,0,1-10.382.885c-5.744.346-10.405.509-10.414.366a104.12,104.12,0,0,1,10.383-.885C248.184,290.051,252.846,289.888,252.855,290.031Z" fill="#fff"/><path d="M247.587,295.169a33.971,33.971,0,0,1-5.908.617,33.942,33.942,0,0,1-5.94.1,34.139,34.139,0,0,1,5.909-.616A34.114,34.114,0,0,1,247.587,295.169Z" fill="#fff"/><path d="M386.061,278.561s-2.5,22.886.714,35.417l30.58-1.337s-6.553-22.576-2.53-32.577Z" fill="#ebebeb"/><path d="M386.182,277.826s.21,24.708,1.466,32.247l30.99-1.466s-2.722-24.29-1.675-30.781Z" fill="#00aecd"/><path d="M412.293,288.2a104.051,104.051,0,0,1-10.382.886c-5.744.345-10.406.509-10.415.365s4.64-.539,10.383-.885S412.284,288.061,412.293,288.2Z" fill="#fff"/><path d="M412.3,293.438a104.154,104.154,0,0,1-10.382.885,104.14,104.14,0,0,1-10.414.366,104.131,104.131,0,0,1,10.383-.885C407.63,293.458,412.292,293.3,412.3,293.438Z" fill="#fff"/><path d="M407.033,298.577a67.735,67.735,0,0,1-11.848.712,67.751,67.751,0,0,1,11.848-.712Z" fill="#fff"/><path d="M270.226,221.915s-3.112,22.81-9.27,34.188l-29.345-8.7s11.824-20.317,10.343-30.994Z" fill="#ebebeb"/><path d="M270.286,221.171s-6.187,23.923-9.231,30.932l-29.713-8.926s8.523-22.908,9.079-29.46Z" fill="#455a64"/><path d="M242.44,224.918c.043-.137,4.527,1.151,10.014,2.876s9.9,3.237,9.86,3.374-4.527-1.151-10.016-2.877S242.4,225.055,242.44,224.918Z" fill="#fff"/><path d="M241.164,229.994c.043-.137,4.528,1.151,10.015,2.876a103.843,103.843,0,0,1,9.859,3.374c-.043.137-4.526-1.151-10.015-2.877S241.121,230.131,241.164,229.994Z" fill="#fff"/><path d="M245.031,236.255a34.083,34.083,0,0,1,5.739,1.532,34,34,0,0,1,5.584,2.029,34.106,34.106,0,0,1-5.74-1.532A34.05,34.05,0,0,1,245.031,236.255Z" fill="#fff"/><path d="M302.311,245.951s2.5,22.886-.715,35.417l-30.579-1.337s6.553-22.576,2.529-32.577Z" fill="#ebebeb"/><path d="M271.02,240.6s-2.094,27.421-3.769,32.656l27.85,2.932,4.188-3.979s2.722-20.1,2.3-26.593Z" fill="#455a64"/><path d="M295.729,272l-.628,4.188,4.188-3.979Z" fill="#263238"/><path d="M296.042,255.179a20.251,20.251,0,0,1-3.122-.362l-7.5-1.054-7.512-.941a20.3,20.3,0,0,1-3.108-.466,17.623,17.623,0,0,1,3.143.1c1.937.14,4.607.4,7.545.791s5.583.836,7.488,1.207A17.528,17.528,0,0,1,296.042,255.179Z" fill="#fff"/><path d="M294.83,260.9a16.425,16.425,0,0,1-3.012-.1c-1.855-.135-4.413-.382-7.229-.737s-5.355-.754-7.186-1.084a16.221,16.221,0,0,1-2.941-.656,18.328,18.328,0,0,1,3,.292l7.195.931,7.2.887A18.1,18.1,0,0,1,294.83,260.9Z" fill="#fff"/><path d="M293.091,266.164a84.981,84.981,0,0,1-9.364-.994,85.157,85.157,0,0,1-9.3-1.511,85.5,85.5,0,0,1,9.365.995A85.378,85.378,0,0,1,293.091,266.164Z" fill="#fff"/><path d="M528.092,275s2.5,22.886-.714,35.416l-30.58-1.336s6.553-22.576,2.53-32.577Z" fill="#ebebeb"/><path d="M496.8,269.647s-2.094,27.421-3.769,32.656l27.849,2.932,4.188-3.979s2.722-20.1,2.3-26.593Z" fill="#455a64"/><path d="M521.51,301.047l-.628,4.188,4.188-3.978Z" fill="#263238"/><path d="M521.823,284.227a20.421,20.421,0,0,1-3.122-.362l-7.495-1.054-7.512-.941a20.3,20.3,0,0,1-3.108-.466,17.518,17.518,0,0,1,3.144.1c1.936.14,4.607.4,7.545.791s5.582.836,7.488,1.207A17.386,17.386,0,0,1,521.823,284.227Z" fill="#fff"/><path d="M520.612,289.946a16.376,16.376,0,0,1-3.013-.1c-1.855-.136-4.413-.382-7.228-.737s-5.356-.754-7.186-1.084a16.214,16.214,0,0,1-2.942-.656,18.35,18.35,0,0,1,3,.292l7.2.931,7.2.887A18.338,18.338,0,0,1,520.612,289.946Z" fill="#fff"/><path d="M518.872,295.212a170.023,170.023,0,0,1-18.659-2.505,170.658,170.658,0,0,1,18.659,2.505Z" fill="#fff"/><path d="M491.515,158.366s2.5,22.886-.715,35.416l-30.579-1.336s6.553-22.576,2.529-32.577Z" fill="#ebebeb"/><path d="M460.224,153.014s-2.093,27.421-3.769,32.656L484.3,188.6l4.188-3.978s2.722-20.1,2.3-26.593Z" fill="#455a64"/><path d="M484.933,184.413,484.3,188.6l4.188-3.979Z" fill="#263238"/><path d="M485.246,167.594a20.405,20.405,0,0,1-3.122-.362l-7.495-1.054-7.512-.941a20.294,20.294,0,0,1-3.108-.466,17.5,17.5,0,0,1,3.143.1c1.937.14,4.607.4,7.545.791s5.583.836,7.488,1.207A17.416,17.416,0,0,1,485.246,167.594Z" fill="#fff"/><path d="M484.034,173.313a16.317,16.317,0,0,1-3.012-.1c-1.855-.135-4.413-.381-7.229-.736s-5.355-.754-7.186-1.085a16.283,16.283,0,0,1-2.941-.655,18.33,18.33,0,0,1,3,.292l7.2.931,7.2.887A18.313,18.313,0,0,1,484.034,173.313Z" fill="#fff"/><path d="M482.3,178.579a170.01,170.01,0,0,1-18.659-2.5,85.488,85.488,0,0,1,9.364.995A85.375,85.375,0,0,1,482.3,178.579Z" fill="#fff"/><path d="M373.825,168.341s2.5,22.885-.715,35.416l-30.579-1.337s6.553-22.576,2.529-32.577Z" fill="#ebebeb"/><path d="M342.535,162.988s-2.094,27.422-3.769,32.656l27.849,2.932L370.8,194.6s2.722-20.1,2.3-26.593Z" fill="#455a64"/><path d="M367.243,194.388l-.628,4.188L370.8,194.6Z" fill="#263238"/><path d="M367.556,177.568a20.259,20.259,0,0,1-3.122-.362l-7.495-1.054-7.512-.94a20.3,20.3,0,0,1-3.108-.466,17.444,17.444,0,0,1,3.144.1c1.936.14,4.607.4,7.544.791s5.583.836,7.489,1.207A17.5,17.5,0,0,1,367.556,177.568Z" fill="#fff"/><path d="M366.344,183.288a16.316,16.316,0,0,1-3.012-.1c-1.855-.135-4.413-.382-7.229-.737s-5.355-.754-7.185-1.084a16.387,16.387,0,0,1-2.942-.655,18.261,18.261,0,0,1,3,.291l7.2.932,7.2.887A18.314,18.314,0,0,1,366.344,183.288Z" fill="#fff"/><path d="M364.605,188.554a85.463,85.463,0,0,1-9.364-.995,85.557,85.557,0,0,1-9.295-1.51,85.032,85.032,0,0,1,9.364.994A85.217,85.217,0,0,1,364.605,188.554Z" fill="#fff"/><path d="M332.789,213.539,335.2,269.5l69.854.842-3.136-56.06Z" fill="#ebebeb"/><rect width="69.39" height="52.396" transform="translate(331.98 213.138)" fill="#fff"/><path d="M401.37,265.535s-.016-.339-.023-.974q-.009-.978-.025-2.8c-.012-2.459-.031-6.04-.055-10.6-.026-9.138-.065-22.209-.111-38.021l.214.214-69.384.047h-.006l.261-.261c-.01,18.844-.018,36.687-.026,52.4l-.235-.234,50.046.117,14.237.062,3.786.028.98.014c.222,0,.341.014.341.014a2.667,2.667,0,0,1-.314.013l-.954.014-3.739.028-14.184.063-50.2.116h-.235v-.236c-.007-15.709-.016-33.552-.025-52.4v-.26h.266l69.384.046h.214v.213c-.046,15.868-.085,28.985-.111,38.155-.024,4.543-.043,8.108-.055,10.556q-.016,1.794-.025,2.757C401.386,265.227,401.37,265.535,401.37,265.535Z" fill="#263238"/><rect width="28.129" height="35.401" transform="translate(340.351 224.238)" fill="#fff"/><path d="M368.48,259.639a.992.992,0,0,1-.014-.179c0-.137-.008-.3-.013-.505q-.01-.706-.028-1.938c-.014-1.716-.035-4.17-.062-7.265-.028-6.235-.069-15.049-.116-25.513l.233.233-28.126.027c-.061.055.49-.489.257-.254v4.861q0,2.412,0,4.771c0,3.143-.006,6.211-.008,9.186-.012,5.945-.023,11.517-.033,16.576l-.216-.216,20.36.112,5.717.056,1.516.025a5.148,5.148,0,0,1,.536.023,3.54,3.54,0,0,1-.489.024l-1.476.025-5.668.056-20.5.112h-.216v-.218c-.01-5.059-.021-10.631-.033-16.576,0-2.975-.006-6.043-.008-9.186q0-2.358,0-4.771v-4.861c-.233.23.315-.325.263-.267l28.126.027h.234v.234c-.048,10.526-.088,19.392-.117,25.664-.026,3.073-.047,5.509-.061,7.212-.012.8-.021,1.432-.028,1.892A5.287,5.287,0,0,1,368.48,259.639Z" fill="#263238"/><rect width="53.908" height="5.101" transform="translate(341.428 216.138)" fill="#fff"/><path d="M395.336,221.239a2.833,2.833,0,0,1-.02-.351c-.007-.253-.015-.579-.025-.99-.014-.892-.034-2.149-.06-3.76l.105.1c-9.091.092-29.813.155-53.9.155h0c.52-.52.144-.143.26-.259h0v2.593c0,.854,0,1.693,0,2.506l-.259-.26,38.2.111,11.471.077,3.123.036.819.018a1.994,1.994,0,0,1,.291.018,1.233,1.233,0,0,1-.255.018l-.786.017-3.064.037-11.411.077-38.391.11h-.26v-.26c0-.813,0-1.652,0-2.506V216.14h0c.116-.116-.26.259.261-.261h0c24.092,0,44.814.063,53.9.155h.107l0,.1c-.025,1.638-.045,2.915-.06,3.821l-.024.966A1.743,1.743,0,0,1,395.336,221.239Z" fill="#263238"/><rect width="23.412" height="21.336" transform="translate(371.924 224.238)" fill="#fff"/><path d="M395.336,245.575a3.158,3.158,0,0,1-.025-.415c-.006-.3-.015-.683-.025-1.16-.014-1.05-.033-2.512-.058-4.351-.028-3.76-.067-9.056-.114-15.41l.222.221-23.41.039c-.06.056.491-.492.258-.257v1.446q0,.723,0,1.44,0,1.434,0,2.841,0,2.814-.006,5.5c-.009,3.579-.016,6.97-.024,10.1l-.228-.228,16.881.116,4.794.06,1.28.026a3.277,3.277,0,0,1,.457.027,2.33,2.33,0,0,1-.406.026l-1.236.026-4.742.06-17.028.116-.228,0v-.231c-.007-3.131-.015-6.522-.023-10.1q0-2.687-.007-5.5,0-1.407,0-2.841,0-.717,0-1.44v-1.446c-.232.231.317-.321.263-.264l23.41.039h.223v.222c-.047,6.412-.086,11.756-.114,15.55-.024,1.819-.044,3.263-.058,4.3-.01.459-.019.828-.025,1.117A1.87,1.87,0,0,1,395.336,245.575Z" fill="#263238"/><rect width="23.412" height="10.72" transform="translate(371.924 248.919)" fill="#fff"/><path d="M395.336,259.639a6.691,6.691,0,0,1-.04-.78c-.012-.546-.028-1.262-.047-2.154-.025-1.9-.06-4.545-.1-7.786l.189.189-23.411.072c-.233.232.315-.318.259-.26v1.4q0,.7,0,1.392,0,1.383,0,2.729c0,1.793-.007,3.531-.01,5.194l-.247-.247,16.735.118,4.881.068,1.32.031a3.245,3.245,0,0,1,.476.03,1.859,1.859,0,0,1-.417.031l-1.269.031-4.825.068-16.9.118h-.247v-.249c0-1.663-.007-3.4-.01-5.194q0-1.346,0-2.729,0-.691,0-1.392v-1.4c-.057.056.494-.494.262-.261l23.411.071h.192l0,.188c-.042,3.289-.077,5.973-.1,7.9-.02.874-.036,1.576-.048,2.112A4.575,4.575,0,0,1,395.336,259.639Z" fill="#263238"/><path d="M367.784,224.3c-8.707,12.028-18.726,23.311-27.433,35.339" fill="#fff"/><path d="M340.351,259.639a11.349,11.349,0,0,1,.958-1.478c.641-.934,1.6-2.262,2.81-3.887,2.414-3.254,5.871-7.655,9.745-12.467s7.373-9.172,9.859-12.365l2.94-3.785a11.352,11.352,0,0,1,1.121-1.357,11.313,11.313,0,0,1-.958,1.477c-.641.935-1.6,2.263-2.81,3.888-2.414,3.254-5.872,7.656-9.746,12.468S346.9,251.3,344.412,254.5l-2.94,3.785A11.352,11.352,0,0,1,340.351,259.639Z" fill="#263238"/><line x2="28.129" y2="35.401" transform="translate(340.351 224.238)" fill="#fff"/><path d="M368.48,259.639c-.113.09-6.5-7.763-14.268-17.537s-13.974-17.774-13.861-17.864,6.5,7.762,14.269,17.54S368.592,259.55,368.48,259.639Z" fill="#263238"/><circle cx="4.4" cy="4.4" r="4.4" transform="translate(326.399 219.913)" fill="#00aecd"/><path d="M330.8,228.739a4.425,4.425,0,1,1,4.426-4.425A4.43,4.43,0,0,1,330.8,228.739Zm0-8.8a4.375,4.375,0,1,0,4.376,4.376A4.381,4.381,0,0,0,330.8,219.938Z" fill="#263238"/><circle cx="4.4" cy="4.4" r="4.4" transform="translate(398.37 209.232)" fill="#00aecd"/><path d="M402.771,218.057a4.425,4.425,0,1,1,4.426-4.425A4.431,4.431,0,0,1,402.771,218.057Zm0-8.8a4.375,4.375,0,1,0,4.375,4.375A4.38,4.38,0,0,0,402.771,209.257Z" fill="#263238"/><path d="M427.257,193.1,406.54,203.757l-10.011-1.42,5.36-9.5,21.849-7.7Z" fill="#ebebeb"/><path d="M395.666,200.381l5.075-8.169,22.445-8.153,4.51,8.866-21.762,8.693Z" fill="#455a64"/><path d="M420.664,189.33a13.37,13.37,0,0,1-2.178.986c-1.363.558-3.256,1.3-5.355,2.107l-5.39,2.015c-1.372.5-2.273.8-2.22.773-.17-.21,3.241-1.67,7.424-3.274C417.144,190.33,420.607,189.17,420.664,189.33Z" fill="#fff"/><path d="M417.158,193.351a31.161,31.161,0,0,1-9.987,3.72,229.576,229.576,0,0,1,9.987-3.72Z" fill="#fff"/><path d="M457.689,201.245l7.579,40.034,75.685-14.328L527.8,187.973Z" fill="#ebebeb"/><rect width="72.959" height="36.098" transform="translate(456.114 201.543) rotate(-10.72)" fill="#fff"/><path d="M534.514,223.441s-.055-.224-.142-.643c-.088-.437-.211-1.053-.372-1.852-.322-1.639-.789-4.02-1.389-7.076-1.186-6.133-2.894-14.969-5-25.861l.226.153L456.168,201.8h-.005l.207-.3c2.361,12.5,4.628,24.5,6.7,35.47l-.287-.195,51.474-9.625,14.876-2.747,3.983-.723,1.036-.181c.234-.039.362-.053.362-.053a2.577,2.577,0,0,1-.328.077l-1,.205-3.922.773-14.8,2.87-51.593,9.887-.241.046-.046-.242c-2.081-10.969-4.357-22.966-6.729-35.465l-.048-.256.256-.048h.005l71.693-13.5.191-.036.035.19c2.03,10.958,3.676,19.846,4.82,26.016.555,3.045.987,5.418,1.285,7.052q.21,1.179.324,1.825C534.49,223.239,534.514,223.441,534.514,223.441Z" fill="#263238"/><rect width="20.172" height="20.172" transform="matrix(0.983, -0.186, 0.186, 0.983, 464.73, 208.017)" fill="#fff"/><path d="M488.3,224.085a2.574,2.574,0,0,1-.1-.384c-.061-.283-.137-.638-.231-1.077-.2-.984-.477-2.34-.824-4.041-.691-3.5-1.661-8.406-2.82-14.277l.263.18-19.812,3.786c-.048.066.392-.574.206-.3v.006l0,.01,0,.022.008.042.017.085.032.17.064.339.128.677q.127.675.254,1.344.252,1.338.5,2.65.492,2.624.963,5.125c.62,3.327,1.206,6.468,1.744,9.354l-.263-.18,14.32-2.593,4.062-.71,1.088-.179a2.629,2.629,0,0,1,.393-.048,1.631,1.631,0,0,1-.335.089l-1.035.222-3.991.816-14.418,2.846-.22.044-.043-.223-1.8-9.345-.976-5.122q-.249-1.311-.5-2.65-.126-.669-.255-1.343l-.128-.677-.064-.339-.032-.17-.016-.085-.008-.042,0-.022,0-.01v-.006c-.186.27.251-.374.208-.308l19.825-3.717.223-.042.041.221c1.077,5.947,1.978,10.918,2.62,14.461.3,1.69.53,3.036.7,4.013.07.425.126.77.171,1.044A1.716,1.716,0,0,1,488.3,224.085Z" fill="#263238"/><path d="M488.3,224.085c-.045.007-.115-.512-.4-1.415a7.014,7.014,0,0,0-2.1-3.327l-.019-.015a7.377,7.377,0,0,0-2.453-1.489,7.685,7.685,0,0,0-3.331-.379l-.463.046.25-.4a5.012,5.012,0,0,0,.179-4.739,4.483,4.483,0,0,0-1.755-1.965,4.72,4.72,0,0,0-2.676-.626,5.07,5.07,0,0,0-2.9,1.08,4.336,4.336,0,0,0-1.533,2.494,5.064,5.064,0,0,0,1.624,4.94l.248.2-.271.164a8.622,8.622,0,0,0-2.987,3.045,9.192,9.192,0,0,0-1.148,3.115,12.7,12.7,0,0,0-.078,2.915,2.9,2.9,0,0,1-.178-.755,8.188,8.188,0,0,1,0-2.2,9.084,9.084,0,0,1,1.088-3.254,8.864,8.864,0,0,1,3.072-3.245l-.024.362a5.5,5.5,0,0,1-1.839-5.392,4.833,4.833,0,0,1,1.7-2.789,5.557,5.557,0,0,1,3.2-1.2,5.212,5.212,0,0,1,2.969.7,4.974,4.974,0,0,1,1.946,2.193,5.461,5.461,0,0,1-.25,5.2l-.214-.351a8.014,8.014,0,0,1,3.512.455,7.592,7.592,0,0,1,2.545,1.621l-.019-.016a6.864,6.864,0,0,1,2.082,3.554,7.555,7.555,0,0,1,.2,1.084A1.21,1.21,0,0,1,488.3,224.085Z" fill="#263238"/><path d="M492.113,203.568l17.186-3.254" fill="#fff"/><path d="M509.3,200.314a147.129,147.129,0,0,1-17.186,3.253,147.232,147.232,0,0,1,17.186-3.253Z" fill="#263238"/><path d="M492.869,207.56l3.472-.657" fill="#fff"/><path d="M496.341,206.9c.026.141-.729.4-1.688.585s-1.758.214-1.785.072.729-.4,1.688-.584S496.314,206.762,496.341,206.9Z" fill="#263238"/><path d="M524.91,208.687c.027.142-6.83,1.559-15.314,3.165s-15.386,2.794-15.413,2.652,6.829-1.558,15.316-3.164S524.884,208.546,524.91,208.687Z" fill="#263238"/><path d="M525.741,212.126c.027.142-6.869,1.566-15.4,3.181s-15.473,2.811-15.5,2.669,6.868-1.565,15.4-3.181S525.715,211.985,525.741,212.126Z" fill="#263238"/><path d="M525.976,216.218a5.549,5.549,0,0,1-1.175.326l-3.24.7c-2.74.567-6.532,1.314-10.726,2.108s-8,1.485-10.756,1.959l-3.27.535a5.488,5.488,0,0,1-1.213.126,5.545,5.545,0,0,1,1.175-.325l3.24-.7c2.74-.567,6.532-1.314,10.728-2.108s8-1.485,10.754-1.959l3.271-.535A5.405,5.405,0,0,1,525.976,216.218Z" fill="#263238"/><path d="M494.73,199.674a5.317,5.317,0,0,1,.764-.416,19.692,19.692,0,0,1,2.316-.93,21.247,21.247,0,0,1,9.1-.851,19.487,19.487,0,0,1,6.111,1.758,8.379,8.379,0,0,1,2.821,2.217,4.269,4.269,0,0,1,.857,3.707,6.269,6.269,0,0,1-2.356,3.242,19.516,19.516,0,0,1-3.561,2.1,33.123,33.123,0,0,1-8.178,2.8,19.739,19.739,0,0,1-8.644-.115,12.656,12.656,0,0,1-3.841-1.585,6.342,6.342,0,0,1-2.615-3.039,4.465,4.465,0,0,1,.421-3.783,9.233,9.233,0,0,1,2.441-2.626,23.942,23.942,0,0,1,5.584-3.035,24.623,24.623,0,0,1,9.008-1.6,22.244,22.244,0,0,1,2.488.188,5.428,5.428,0,0,1,.855.155,5.343,5.343,0,0,1-.866-.051c-.566-.047-1.4-.092-2.477-.09a25.387,25.387,0,0,0-8.875,1.741,23.924,23.924,0,0,0-5.454,3.035,8.825,8.825,0,0,0-2.306,2.509,4,4,0,0,0-.367,3.4,5.88,5.88,0,0,0,2.434,2.784,12.218,12.218,0,0,0,3.7,1.507,19.323,19.323,0,0,0,8.422.1,32.869,32.869,0,0,0,8.053-2.749,19.173,19.173,0,0,0,3.476-2.036,5.806,5.806,0,0,0,2.2-2.968,3.8,3.8,0,0,0-.754-3.311,7.988,7.988,0,0,0-2.657-2.113,19.331,19.331,0,0,0-5.959-1.776,21.724,21.724,0,0,0-8.993.68c-1.027.314-1.809.613-2.332.832A5.484,5.484,0,0,1,494.73,199.674Z" fill="#00aecd"/><path d="M515.29,199.153a87.892,87.892,0,0,1,10.493-8.532,44.167,44.167,0,0,1-5.083,4.468A44.04,44.04,0,0,1,515.29,199.153Z" fill="#00aecd"/><path d="M521.716,198.286a36.141,36.141,0,0,1-5.942,1.487l-.719.146-.4.081.1-.4a12.587,12.587,0,0,1,2.164-4.959c.133.067-.979,2.149-1.662,5.08l-.3-.313.718-.15A36.229,36.229,0,0,1,521.716,198.286Z" fill="#00aecd"/><path d="M511.026,202.62a176.635,176.635,0,0,1-18.942,2.908,176.062,176.062,0,0,1,18.942-2.908Z" fill="#00aecd"/><path d="M489.538,195A4.4,4.4,0,1,1,484.4,191.5,4.4,4.4,0,0,1,489.538,195Z" fill="#00aecd"/><path d="M485.213,200.247a4.428,4.428,0,1,1,.825-.078A4.433,4.433,0,0,1,485.213,200.247Zm.011-8.8a4.376,4.376,0,1,0,4.289,3.563,4.378,4.378,0,0,0-4.289-3.563Z" fill="#263238"/><path d="M196.77,90.115l357.976,9.752.222-10.668Z" fill="#e0e0e0"/><rect width="369.502" height="7.96" transform="translate(193.143 82.154)" fill="#455a64"/><path d="M574.6,185.95a10.469,10.469,0,0,1,16.334,9.9c-.257,2.077-1.132,4.172-.6,6.2,1,3.792,6.348,5.274,7.053,9.131a10.438,10.438,0,0,1-.671,4.547c-.408,1.492-.666,3.173.1,4.514a13.033,13.033,0,0,0,2.414,2.424c2.607,2.6,2.559,7.169.376,10.137a11.611,11.611,0,0,1-9.725,4.272,21.465,21.465,0,0,1-10.34-3.531" fill="#263238"/><path d="M577.18,188.381a10.81,10.81,0,0,0-7.9-7.056c-3.595-.86-8.057-2.036-11.349-.355A9.462,9.462,0,0,0,553.1,185.7c-.958,2.566.516,7.352,1.252,9.989s1.289,5.647-.165,7.967c-1.415,2.259-4.294,3.136-6.083,5.112a7.122,7.122,0,0,0,.741,9.886c-3.179-.186-5.864,3.056-5.753,6.239s2.441,5.975,5.28,7.417a20.49,20.49,0,0,0,9.3,1.749,56.484,56.484,0,0,0,11.755-1.219c3.185-.673,6.505-1.745,8.577-4.255,1.9-2.306,2.43-5.457,2.436-8.448.02-10.582-5.535-21.072-3.127-31.377" fill="#263238"/><path d="M561.211,301.346s-20.688,67.148-19.385,88.834,17.06,75.641,17.06,75.641Z" fill="#eb996e"/><path d="M590.425,289.91c.46-.125,9.533,13.2,9.835,24.666a29.306,29.306,0,0,1-.127,3.37,42.1,42.1,0,0,1-2.856,11.685c-7.671,19.37-15.581,42.346-15.711,47.575-.4,16.124-7.373,88.519-7.373,88.519l-15.3.4-4.58-88.473,7.574-88.473Z" fill="#ffbe9d"/><path d="M472.624,243.055c1.562-1.634,8.685,4.544,9.326,5.022.623.464,1.355-.432.753-.833-.866-.576-9.809-6.852-8.29-8.472.842-.9,2.313.764,2.313.764s7.935,6.488,8.626,5.7-3.828-4.767-5.451-6c-1.6-1.215-1.676-2.472-.549-2.735.769-.179,5.827,3.469,7.4,4.722s5.837,4.768,5.146,1.326.075-6.347.828-6.989,1.923.174,1.67,1.234a12.825,12.825,0,0,0,.026,3.539,8.356,8.356,0,0,0,.774,2.731c.483,1,.931,1.829,1.331,2.524,4.764,2.873,18.473,10.486,32.436,12.1,2.522.292,12.281-14.953,12.281-14.953l15.218,12.366s.114.985-10.831,14.493c-14.9,18.387-58.255-13.005-58.255-13.005l.028-.046a104.782,104.782,0,0,1-10.149-4.982c-4.447-2.744-4.207-3.146-3.8-3.609,1.1-1.244,8.006,4.529,7.24,2.427S471.426,244.309,472.624,243.055Z" fill="#ffbe9d"/><path d="M460.505,232.069s-2.5,22.885.715,35.416l30.579-1.337s-6.553-22.576-2.529-32.576Z" fill="#ebebeb"/><path d="M460.627,231.333s.209,24.709,1.465,32.247l30.991-1.466s-2.722-24.289-1.675-30.781Z" fill="#00aecd"/><path d="M486.737,241.712c.009.143-4.64.54-10.382.885s-10.4.509-10.414.366,4.639-.54,10.383-.886S486.728,241.568,486.737,241.712Z" fill="#fff"/><path d="M486.745,246.945c.009.144-4.64.54-10.382.886s-10.4.509-10.414.365,4.639-.54,10.383-.885S486.737,246.8,486.745,246.945Z" fill="#fff"/><path d="M481.478,252.084a67.884,67.884,0,0,1-11.849.713,67.623,67.623,0,0,1,11.849-.713Z" fill="#fff"/><path d="M605.9,365.271s3-64.165-6.236-69.763-51.932,3.42-51.932,3.42S534.442,359.495,535.023,360C539.424,363.844,605.9,365.271,605.9,365.271Z" fill="#455a64"/><path d="M606.152,359.66a113.861,113.861,0,0,1-15.369-.788,113.838,113.838,0,0,1,15.369.788Z" fill="#263238"/><path d="M601.444,365.247a13.359,13.359,0,0,1,.28-5.242,13.359,13.359,0,0,1-.28,5.242Z" fill="#263238"/><path d="M593.584,365.255a17.358,17.358,0,0,1-.466-5.977,17.422,17.422,0,0,1,.466,5.977Z" fill="#263238"/><path d="M558.556,467.576l.027-1.982,15.783-.3.03,6.163-.975.063c-4.341.244-22.09.936-24.993.058C545.191,470.6,558.556,467.576,558.556,467.576Z" fill="#00aecd"/><g opacity="0.6"><path d="M568.708,471.533a5.454,5.454,0,0,1,2.005-3.356,5.3,5.3,0,0,1,3.677-1.147l.006,4.4Z" fill="#fff"/></g><g opacity="0.6"><path d="M552.049,469.274s-4.684,1.355-4.1,2.126,18.547.747,26.469.043l-.025-.352-20.952.207S552.965,469.311,552.049,469.274Z" fill="#fff"/></g><path d="M574.507,470.969a1.534,1.534,0,0,1-.27.029l-.777.048-2.859.127c-2.415.09-5.753.17-9.44.179s-7.028-.06-9.443-.139l-2.86-.116-.777-.044a1.349,1.349,0,0,1-.27-.029,1.589,1.589,0,0,1,.272-.009l.778.008,2.86.055c2.415.045,5.753.09,9.439.083s7.022-.067,9.437-.123l2.86-.066.779-.012A1.345,1.345,0,0,1,574.507,470.969Z" fill="#263238"/><path d="M553.443,471.6a4.156,4.156,0,0,0-1.512-2.457,2.539,2.539,0,0,1,1.512,2.457Z" fill="#263238"/><path d="M558.382,468.872c-.044.028-.267-.242-.5-.6s-.38-.677-.336-.705.267.242.5.6S558.427,468.844,558.382,468.872Z" fill="#263238"/><path d="M559.655,468.2c-.035.039-.284-.126-.555-.369s-.463-.473-.428-.512.284.126.555.369S559.69,468.158,559.655,468.2Z" fill="#263238"/><path d="M560.458,466.711a3.563,3.563,0,0,1-1.643.02,1.87,1.87,0,0,1,.82-.1A1.84,1.84,0,0,1,560.458,466.711Z" fill="#263238"/><path d="M560.733,465.663a1.578,1.578,0,0,1-.915.268,1.6,1.6,0,0,1-.946-.125,66.806,66.806,0,0,0,1.861-.143Z" fill="#263238"/><path d="M557.847,467.5a2.874,2.874,0,0,1-1.011-.005,5.953,5.953,0,0,1-1.077-.235,2.949,2.949,0,0,1-.616-.254.544.544,0,0,1-.251-.313.4.4,0,0,1,.153-.4,1.853,1.853,0,0,1,2.293.539,1.816,1.816,0,0,1,.331.674c.04.173.038.271.026.273a2.848,2.848,0,0,0-.461-.862,1.83,1.83,0,0,0-.865-.56,1.566,1.566,0,0,0-1.2.084c-.161.119-.1.308.081.414a3.013,3.013,0,0,0,.568.242,6.929,6.929,0,0,0,1.042.269C557.461,467.469,557.847,467.469,557.847,467.5Z" fill="#263238"/><path d="M557.585,467.551a.994.994,0,0,1-.118-.7,1.671,1.671,0,0,1,.275-.739,1.017,1.017,0,0,1,.841-.516.4.4,0,0,1,.312.466,1.1,1.1,0,0,1-.171.452,3.046,3.046,0,0,1-.476.612,1.462,1.462,0,0,1-.578.41c-.018-.024.2-.181.479-.5a3.494,3.494,0,0,0,.423-.607c.138-.214.233-.6-.021-.643-.253-.024-.511.228-.665.43a1.646,1.646,0,0,0-.285.657A3.606,3.606,0,0,0,557.585,467.551Z" fill="#263238"/><path d="M574.61,466.963c0,.035-.45-.042-1.161.042a4.928,4.928,0,0,0-4.116,3.29c-.24.675-.262,1.128-.3,1.124a.95.95,0,0,1,0-.318,4.156,4.156,0,0,1,.171-.848,4.78,4.78,0,0,1,4.231-3.382,4.161,4.161,0,0,1,.865.021A.894.894,0,0,1,574.61,466.963Z" fill="#263238"/><path d="M567.03,469.483a12.932,12.932,0,0,1-4.6.05c.006-.055,1.033.006,2.3-.009S567.024,469.428,567.03,469.483Z" fill="#263238"/><path d="M570.113,469.475c.039.038-.084.217-.188.453s-.162.445-.216.442-.082-.249.042-.52S570.079,469.437,570.113,469.475Z" fill="#263238"/><path d="M571.273,468.027c.038.037-.064.2-.226.366s-.325.269-.362.232.063-.2.226-.366S571.236,467.99,571.273,468.027Z" fill="#263238"/><path d="M572.935,467.364c-.011.053-.22.052-.451.133s-.4.2-.438.17.089-.253.377-.35S572.951,467.315,572.935,467.364Z" fill="#263238"/><path d="M574.118,467.051c.019.049-.071.13-.2.18s-.252.052-.271,0,.071-.13.2-.181S574.1,467,574.118,467.051Z" fill="#263238"/><path d="M531.647,255.806l17.61,9.907,1.226-1.245,1.293,2.442-1.2,32.807,47.772-9.032-3.9-5.615c-3.752-5.181-2.911-12.453-1.371-18.662l.525-2.117,10.082.163s1-5.682-.006-18.327q-.023-.279-.047-.554a21.708,21.708,0,0,0-23.113-19.647l-17.408,1.181s-13.856-2.849-23.3,13.429Z" fill="#00aecd"/><path d="M552.877,250.491a12.4,12.4,0,0,1-.625,2.465c-.523,1.671-1.143,3.648-1.827,5.833a7.669,7.669,0,0,0,.319,5.811,21.819,21.819,0,0,1,1.032,2.31,8.625,8.625,0,0,1-1.366-2.157,8.291,8.291,0,0,1-.852-2.678,8.719,8.719,0,0,1,.367-3.425c.705-2.312,1.45-4.327,1.978-5.809A12.3,12.3,0,0,1,552.877,250.491Z" fill="#263238"/><path d="M603.687,264.078a6.873,6.873,0,0,1-1.365-.016l-3.707-.238c-3.128-.223-7.447-.568-12.213-.98l-2.274-.2-.251-.022.016-.251c.264-4.23.253-8,.423-10.7.075-1.35.169-2.432.256-3.175a5.109,5.109,0,0,1,.191-1.143,5.7,5.7,0,0,1,0,1.158c-.027.842-.06,1.9-.1,3.173-.079,2.693,0,6.455-.253,10.716l-.235-.273,2.275.194c4.766.413,9.079.815,12.2,1.132l3.692.4A6.909,6.909,0,0,1,603.687,264.078Z" fill="#263238"/><path d="M603.435,245.281a3.345,3.345,0,0,1-.678-.119l-1.92-.431a58.79,58.79,0,0,0-7.1-1.248,26.4,26.4,0,0,0-4.952-.055,24.418,24.418,0,0,0-5.546,1.189c-3.832,1.2-7.808,3.285-12.4,4.4a21.384,21.384,0,0,1-3.454.525,17.185,17.185,0,0,1-3.4-.191,21.154,21.154,0,0,1-6.014-2.158c-3.6-1.883-6.629-3.916-9.528-4.854a13.706,13.706,0,0,0-7.039-.775,14.316,14.316,0,0,0-2.505.8,6.824,6.824,0,0,1,2.465-1,13.5,13.5,0,0,1,7.2.625c2.967.912,6.062,2.94,9.627,4.775a20.947,20.947,0,0,0,5.882,2.083,16.578,16.578,0,0,0,6.65-.338c4.5-1.086,8.485-3.153,12.371-4.347A24.478,24.478,0,0,1,588.746,243a26.057,26.057,0,0,1,5.027.119,51.037,51.037,0,0,1,7.112,1.417l1.9.526A3.461,3.461,0,0,1,603.435,245.281Z" fill="#fafafa"/><path d="M583.088,272.358a9.569,9.569,0,0,1-1.313.081,22.3,22.3,0,0,0-3.521.517,47.934,47.934,0,0,0-5.072,1.518c-1.889.652-3.964,1.42-6.227,1.984a18.455,18.455,0,0,1-6.547.567,11.759,11.759,0,0,1-5.058-1.809,8.313,8.313,0,0,1-2.538-2.582,5.624,5.624,0,0,1-.437-.884c-.082-.21-.116-.322-.1-.329.05-.023.228.415.706,1.1a8.822,8.822,0,0,0,2.569,2.383,11.776,11.776,0,0,0,4.913,1.642,18.66,18.66,0,0,0,6.368-.6c2.225-.555,4.293-1.3,6.2-1.933a41.546,41.546,0,0,1,5.15-1.424,18.061,18.061,0,0,1,3.591-.359A4.9,4.9,0,0,1,583.088,272.358Z" fill="#fafafa"/><path d="M562.444,345.826" fill="none" stroke="#fff" stroke-miterlimit="10" stroke-width="0.05"/><g opacity="0.3"><path d="M584.548,248.041c-2.152,5.319-2.4,11.178-3.149,16.867s-2.148,11.606-6.041,15.821c-4.012,4.345-9.985,6.177-15.663,7.831l24.878-2.175Z"/></g><path d="M583.2,389.342s8.932-37.975,16.906-61.144c8.038-23.357-3.485-38.191-3.485-38.191l-45.2,5.281-8.7,33.423s-6.916,35.687-4.145,62.017Z" fill="#00aecd"/><path d="M596.225,336.918c-.055.027-.33-.733-1.183-1.871a11.919,11.919,0,0,0-4.718-3.606,17.723,17.723,0,0,0-8.713-1.325A79.25,79.25,0,0,0,570.8,332.1a30.8,30.8,0,0,1-11.039.756,23.733,23.733,0,0,1-8.373-3.393,52.7,52.7,0,0,0-5.331-2.876c-1.308-.574-2.075-.786-2.061-.834a2.449,2.449,0,0,1,.566.121,13.756,13.756,0,0,1,1.573.526,44.251,44.251,0,0,1,5.434,2.742,23.974,23.974,0,0,0,8.264,3.24,30.981,30.981,0,0,0,10.859-.792,75.379,75.379,0,0,1,10.885-1.95,17.8,17.8,0,0,1,8.9,1.469,11.68,11.68,0,0,1,4.728,3.821,6.317,6.317,0,0,1,.508.817,4.5,4.5,0,0,1,.313.63A2.441,2.441,0,0,1,596.225,336.918Z" fill="#fafafa"/><path d="M585.561,375.039a15.236,15.236,0,0,0-1.406-1.463,10.18,10.18,0,0,0-4.961-2.212,16.526,16.526,0,0,0-8.029.948c-2.939.967-5.969,2.583-9.371,3.826a20.776,20.776,0,0,1-10.074,1.22,21.335,21.335,0,0,1-7.869-2.65,19.038,19.038,0,0,1-4.423-3.432,12.008,12.008,0,0,1-1-1.149,2.04,2.04,0,0,1-.308-.432c.043-.037.5.535,1.451,1.437a20.484,20.484,0,0,0,4.459,3.255,21.53,21.53,0,0,0,7.748,2.495,20.6,20.6,0,0,0,9.838-1.234c3.351-1.223,6.4-2.832,9.4-3.792a16.582,16.582,0,0,1,8.245-.854,10.021,10.021,0,0,1,5.031,2.423,7.027,7.027,0,0,1,1.006,1.152A2.026,2.026,0,0,1,585.561,375.039Z" fill="#fafafa"/><g opacity="0.2"><path d="M545.975,348.741a12.355,12.355,0,0,0-.337,5.5c.442,1.8,1.983,3.473,3.835,3.419.974-.029,2.032-.5,2.864.006a3.261,3.261,0,0,1,1.089,2.076,10.569,10.569,0,0,0,18.437,3.763c2.461-3.078,3.014-7.324,2.475-11.228s-2.047-7.6-3.342-11.318a144.446,144.446,0,0,1-5.8-23.565,8.155,8.155,0,0,1,.175-4.775c1.132-2.443,4.2-3.155,6.85-3.616a251.524,251.524,0,0,0,29.9-7.105c-5.577-1.225-11.382-.376-17,.651q-9.348,1.71-18.563,4.065a8.97,8.97,0,0,0-4.3,1.981,9.4,9.4,0,0,0-2,4.432,148.626,148.626,0,0,1-15.1,36.813"/></g><path d="M559.67,308.135l43.287-7A52.535,52.535,0,0,0,601,294.989c-.87-2.182-3.284-3.879-4.381-4.982-2.578-2.594-38.66,13.324-38.66,13.324Z" fill="#455a64"/><path d="M559.67,308.135l-11.94-3.971,1.779-9.872,11.7,9.125Z" fill="#455a64"/><path d="M559.83,308.126s-3.313,11.906-3.205,19.777.405,24.3,1.5,30.1,16.837-.828,13.8-6.214-8.424-24.719-8.562-29.277.276-15.88.276-15.88Z" fill="#455a64"/><path d="M570.962,350.143a5.937,5.937,0,0,1-1.17,1.891,13.935,13.935,0,0,1-9.276,5.014,5.908,5.908,0,0,1-2.223-.057c0-.088.847-.088,2.174-.308a15.808,15.808,0,0,0,9.046-4.89C570.424,350.8,570.887,350.1,570.962,350.143Z" fill="#263238"/><path d="M562.573,360.276c-.134.051-.535-.678-.9-1.628s-.543-1.762-.408-1.813.535.678.9,1.628S562.708,360.225,562.573,360.276Z" fill="#263238"/><path d="M567.48,358.428c-.128.065-.6-.624-1.064-1.537s-.728-1.707-.6-1.771.6.623,1.064,1.537S567.609,358.363,567.48,358.428Z" fill="#263238"/><path d="M571.584,355.354c-.125.071-.647-.61-1.166-1.521s-.838-1.707-.713-1.778.647.61,1.166,1.521S571.709,355.283,571.584,355.354Z" fill="#263238"/><path d="M556.961,305.934c-4.157,7.593-2.376,17.583-7.248,24.738-1.945,2.856-4.875,5.116-6,8.381a7.989,7.989,0,0,0,1.382,7.742,6.784,6.784,0,0,0,7.486,1.865,8.257,8.257,0,0,0,4.116-4.372,24.511,24.511,0,0,0,1.537-5.938q2.3-13.445,4.606-26.891c.307-1.791.589-3.743-.289-5.333s-3.445-2.283-4.493-.8" fill="#455a64"/><path d="M557.014,348.2a9.525,9.525,0,0,1-.207-1.6c-.1-1.034-.213-2.534-.319-4.39-.213-3.71-.357-8.847-.229-14.519s.511-10.8.9-14.5c.191-1.848.37-3.341.52-4.37a9.665,9.665,0,0,1,.279-1.591,9.559,9.559,0,0,1-.078,1.613c-.091,1.126-.21,2.6-.354,4.381-.29,3.7-.61,8.816-.742,14.476s-.042,10.783.077,14.491c.063,1.786.114,3.265.154,4.393A9.652,9.652,0,0,1,557.014,348.2Z" fill="#263238"/><path d="M554.216,347.366a4.992,4.992,0,0,1-1.97-.226,12.88,12.88,0,0,1-7.648-5.5,5.044,5.044,0,0,1-.842-1.8,16.181,16.181,0,0,0,10.46,7.518Z" fill="#263238"/><path d="M549.127,345.6c.088.114-.464.687-1.233,1.28s-1.464.981-1.552.868.465-.687,1.234-1.28S549.039,345.49,549.127,345.6Z" fill="#263238"/><path d="M545.206,342.516c.074.128-.282.468-.667.906s-.686.828-.821.769-.019-.61.432-1.115S545.14,342.393,545.206,342.516Z" fill="#263238"/><path d="M563.975,302.34c.023-.012.176.191.32.622a4.272,4.272,0,0,1,.147,1.91,4.646,4.646,0,0,1-1.255,2.565,4.635,4.635,0,0,1-6.478-.045,4.65,4.65,0,0,1-1.22-2.583,4.261,4.261,0,0,1,.174-1.907c.15-.429.306-.63.329-.618a6.391,6.391,0,0,0-.139,2.467,4.468,4.468,0,0,0,1.2,2.3,4.263,4.263,0,0,0,5.8.04,4.475,4.475,0,0,0,1.231-2.287A6.4,6.4,0,0,0,563.975,302.34Z" fill="#263238"/><path d="M561.678,308a24.354,24.354,0,0,0-1.041-2.959,24.291,24.291,0,0,0-1.842-2.539,5.434,5.434,0,0,1,2.883,5.5Z" fill="#263238"/><path d="M526.247,298.575c.456-2.214,9.772-.762,10.569-.7.775.063.918-1.085.2-1.105-1.04-.029-11.951-.6-11.524-2.775.236-1.208,2.366-.582,2.366-.582s10.169,1.283,10.336.248c.169-1.051-5.776-2.005-7.8-2.185-2-.178-2.733-1.2-1.917-2.025.556-.561,6.779-.156,8.78.069s7.477.94,5.064-1.609-3.308-5.418-3.01-6.362a1.1,1.1,0,0,1,2.07.159,12.793,12.793,0,0,0,1.9,2.984,8.344,8.344,0,0,0,2.107,1.9c.94.591,1.76,1.055,2.468,1.432,5.563-.1,21.221-.927,33.912-6.971,2.292-1.091,2.454-18.531,2.454-18.531l19.472,1.734s.032,4.984-1.479,18.033c-2.724,23.507-56.267,19.92-56.267,19.92v-.053a104.843,104.843,0,0,1-11.245,1.168c-5.225.038-5.235-.431-5.136-1.04.268-1.636,9.189-.413,7.424-1.788S525.9,300.274,526.247,298.575Z" fill="#ffbe9d"/><g opacity="0.3"><path d="M543.955,263.055a42.915,42.915,0,0,0,8.815-12.4c-1.418,3.783-2.858,7.685-2.754,11.724.031,1.194.13,2.571-.744,3.385a19.559,19.559,0,0,0-5.222-2.674"/></g><path d="M582.332,190.2l-.05,2.516-.505,37.674a8.08,8.08,0,0,1-8.548,7.708h0c-4.729-.1-8.57-3.76-8.583-8.179-.015-4.639-.115-9.521-.115-9.521s-5.975-.992-7.213-8.789c-.616-3.877-.421-10.234-.093-15.43a8.232,8.232,0,0,1,9.08-7.675Z" fill="#ffbe9d"/><path d="M558.971,200.952a1,1,0,0,0,.964,1.009.958.958,0,0,0,1.031-.9A1,1,0,0,0,560,200.05.957.957,0,0,0,558.971,200.952Z" fill="#263238"/><path d="M558.6,199.485c.124.13.882-.43,1.958-.427,1.075-.013,1.864.541,1.981.409.057-.058-.069-.294-.413-.544a2.741,2.741,0,0,0-1.586-.489,2.641,2.641,0,0,0-1.558.5C558.653,199.191,558.542,199.427,558.6,199.485Z" fill="#263238"/><path d="M569.162,200.952a1,1,0,0,0,.964,1.009.957.957,0,0,0,1.031-.9,1,1,0,0,0-.963-1.009A.957.957,0,0,0,569.162,200.952Z" fill="#263238"/><path d="M569.178,199.686c.124.13.883-.43,1.958-.427,1.074-.013,1.864.541,1.981.409.057-.058-.068-.294-.413-.544a2.736,2.736,0,0,0-1.586-.489,2.634,2.634,0,0,0-1.558.5C569.23,199.392,569.118,199.628,569.178,199.686Z" fill="#263238"/><path d="M565.274,207.665a7.113,7.113,0,0,0-1.748-.315c-.275-.029-.535-.083-.581-.271a1.4,1.4,0,0,1,.183-.814q.389-1,.813-2.092a36.091,36.091,0,0,0,1.825-5.472,35.891,35.891,0,0,0-2.261,5.312c-.272.735-.531,1.435-.778,2.1a1.59,1.59,0,0,0-.143,1.078.693.693,0,0,0,.452.4,1.936,1.936,0,0,0,.466.065A7.042,7.042,0,0,0,565.274,207.665Z" fill="#263238"/><path d="M564.53,220.4a19.831,19.831,0,0,0,10.441-2.786s-2.533,5.356-10.335,4.626Z" fill="#eb996e"/><path d="M565.729,210.258a1.936,1.936,0,0,1,1.738-.72,1.771,1.771,0,0,1,1.222.655,1.123,1.123,0,0,1,.085,1.283,1.3,1.3,0,0,1-1.41.357,4.073,4.073,0,0,1-1.376-.821,1.2,1.2,0,0,1-.307-.318.361.361,0,0,1,0-.4" fill="#00aecd"/><path d="M568.44,208.409c-.175-.01-.177,1.158-1.177,1.987s-2.243.7-2.252.864c-.016.073.278.226.8.241a2.914,2.914,0,0,0,1.88-.655,2.533,2.533,0,0,0,.911-1.666C568.65,208.692,568.52,208.4,568.44,208.409Z" fill="#263238"/><path d="M583.649,225.937c-2.3-.8-5.023-1.611-5.888-3.89a11.525,11.525,0,0,1-.166-7.185c.308-1.085.744-2.272.267-3.294a6.214,6.214,0,0,0-1.7-1.745,7.272,7.272,0,0,1-2.213-4.916,12.638,12.638,0,0,1,.989-5.392,4.305,4.305,0,0,0,.477-2.932,4.553,4.553,0,0,0-1.355-1.643,12.778,12.778,0,0,1-2.707-3.624,3.608,3.608,0,0,1-.37-3.09c.56-1.17,2.036-1.537,3.33-1.635,3.085-.235,6.5.446,8.463,2.838,1.761,2.145,1.963,5.13,2.088,7.9.392,8.733.779,17.55-.731,26.161" fill="#263238"/><path d="M554.268,189.33a12.178,12.178,0,0,0,1.333.724,8.556,8.556,0,0,1,1.125.98c.2.192.42.408.614.632.052.057.084.111.143.172l.22.221.541.513a13.411,13.411,0,0,0,1.67,1.317,8.83,8.83,0,0,0,2.9,1.266,9.005,9.005,0,0,0,5.913-.722,9.162,9.162,0,0,0,3.245-2.6c1.328-1.768,1.533-3.2.922-3.978-.627-.8-2.148-.667-3.871-.245a22.666,22.666,0,0,1-2.55.5,6.04,6.04,0,0,1-2.028-.055,4.611,4.611,0,0,1-.944-.337c-.434-.193-.982-.485-1.611-.782-.313-.148-.647-.3-1-.436-.173-.069-.362-.135-.543-.2-.2-.064-.415-.137-.618-.187a6.828,6.828,0,0,0-2.335-.191,4.221,4.221,0,0,0-3.19,1.663A1.276,1.276,0,0,0,554.268,189.33Z" fill="#263238"/><path d="M568.9,195.47c.107.292,1.181.153,2.443.306,1.265.126,2.283.5,2.451.234.074-.126-.1-.4-.515-.684a4.279,4.279,0,0,0-3.727-.412C569.088,195.1,568.855,195.331,568.9,195.47Z" fill="#263238"/><path d="M559,196.371c.189.245.931-.009,1.822-.021.891-.043,1.646.164,1.82-.091.076-.124-.043-.369-.373-.6a2.637,2.637,0,0,0-2.934.09C559.018,196,558.915,196.252,559,196.371Z" fill="#263238"/><path d="M111.41,461.269l-2.26,9.151,15.571,1.751.558-9.067Z" fill="#455a64"/><path d="M118.44,461.718a19.232,19.232,0,0,1-.513,4.2,19.442,19.442,0,0,1-.976,4.133,19.232,19.232,0,0,1,.513-4.2A19.443,19.443,0,0,1,118.44,461.718Z" fill="#263238"/><path d="M124.782,471.175a13.349,13.349,0,0,1-2.255-.258l-5.4-.8c-2.111-.319-4.017-.643-5.388-.921a10.734,10.734,0,0,1-2.193-.555,13.339,13.339,0,0,1,2.255.258l5.4.8c2.109.319,4.016.643,5.386.921A10.709,10.709,0,0,1,124.782,471.175Z" fill="#263238"/><path d="M182.6,467.4l-.165-5.681H165.576l.109,10.242,1.049.044c4.668.153,23.746.452,26.842-.563C197.028,470.309,182.6,467.4,182.6,467.4Z" fill="#455a64"/><path d="M165.438,471.577a1.51,1.51,0,0,0,.291.025l.836.032,3.073.065c2.6.036,6.183.039,10.143-.044s7.546-.239,10.138-.385l3.068-.2.833-.067a1.658,1.658,0,0,0,.29-.037,1.6,1.6,0,0,0-.292,0l-.836.029-3.07.13c-2.593.109-6.176.24-10.135.325s-7.543.1-10.138.1h-3.073l-.836.006A1.62,1.62,0,0,0,165.438,471.577Z" fill="#263238"/><path d="M188.211,471.542a6.879,6.879,0,0,1,.541-1.478,6.972,6.972,0,0,1,1.021-1.2,2.73,2.73,0,0,0-1.562,2.677Z" fill="#263238"/><path d="M183.17,469.122c.048.03.28-.266.518-.66s.392-.736.343-.765-.28.266-.518.66S183.121,469.093,183.17,469.122Z" fill="#263238"/><path d="M181.786,468.429c.039.041.3-.142.587-.41s.485-.519.446-.56-.3.142-.587.41S181.747,468.388,181.786,468.429Z" fill="#263238"/><path d="M180.886,466.853a1.979,1.979,0,0,0,.884.094,2.015,2.015,0,0,0,.882-.112,1.975,1.975,0,0,0-.884-.093A2,2,0,0,0,180.886,466.853Z" fill="#263238"/><path d="M180.564,465.735a2.48,2.48,0,0,0,2,.107,76.991,76.991,0,0,1-2-.107Z" fill="#263238"/><path d="M183.711,467.636a3.114,3.114,0,0,0,1.085-.031,6.261,6.261,0,0,0,1.15-.28,3.167,3.167,0,0,0,.656-.287.583.583,0,0,0,.261-.343.423.423,0,0,0-.174-.43,1.99,1.99,0,0,0-2.449.636,1.937,1.937,0,0,0-.338.732.6.6,0,0,0-.022.294,3.079,3.079,0,0,1,.474-.937,1.962,1.962,0,0,1,.914-.623,1.681,1.681,0,0,1,1.3.06c.176.124.113.328-.076.446a3.147,3.147,0,0,1-.605.274,7.431,7.431,0,0,1-1.112.316C184.124,467.592,183.71,467.6,183.711,467.636Z" fill="#263238"/><path d="M183.993,467.684a1.072,1.072,0,0,0,.109-.757,1.79,1.79,0,0,0-.314-.787,1.091,1.091,0,0,0-.916-.533.432.432,0,0,0-.324.508,1.183,1.183,0,0,0,.195.481,3.3,3.3,0,0,0,.527.646,1.569,1.569,0,0,0,.631.426c.019-.027-.22-.19-.527-.527a3.789,3.789,0,0,1-.469-.642c-.154-.226-.265-.636.006-.691.271-.032.555.232.725.445a1.776,1.776,0,0,1,.323.7A3.9,3.9,0,0,1,183.993,467.684Z" fill="#263238"/><path d="M165.682,466.947c0,.038.483-.057,1.248.016a5.3,5.3,0,0,1,4.5,3.431c.274.718.309,1.2.347,1.2a.957.957,0,0,0-.007-.341,4.4,4.4,0,0,0-.2-.907,5.135,5.135,0,0,0-4.628-3.526,4.4,4.4,0,0,0-.929.044A.947.947,0,0,0,165.682,466.947Z" fill="#263238"/><path d="M173.9,469.995a13.878,13.878,0,0,0,4.939-.061c-.007-.06-1.109.032-2.47.047S173.9,469.936,173.9,469.995Z" fill="#263238"/><path d="M170.587,470.063c-.041.042.1.232.213.482s.185.474.243.469.081-.269-.058-.557S170.622,470.021,170.587,470.063Z" fill="#263238"/><path d="M169.3,468.537c-.04.041.073.214.252.387s.355.282.395.241-.074-.214-.253-.388S169.344,468.5,169.3,468.537Z" fill="#263238"/><path d="M167.5,467.867c.013.057.238.05.488.132s.432.21.475.171-.1-.27-.414-.367S167.485,467.815,167.5,467.867Z" fill="#263238"/><path d="M166.225,467.56c-.02.053.079.138.221.189s.271.05.291,0-.08-.137-.221-.189S166.244,467.507,166.225,467.56Z" fill="#263238"/><path d="M244.384,247.462l-4.8,2.289-4.417-6.931,2.583-5.352c.245-.5.507-1.054.782-1.693a7.3,7.3,0,0,0,.57-2.354,11.153,11.153,0,0,0-.077-3.012c-.239-.893.706-1.625,1.349-1.1s1.359,2.965.882,5.913,2.957-.179,4.227-1.3,5.36-4.385,6-4.257c.941.186.915,1.256-.379,2.342-1.31,1.1-4.954,4.619-4.35,5.276l.029,0a3.607,3.607,0,0,1,3.132,2.8c.327,1.452.591,3.457-.225,4.118A47.381,47.381,0,0,1,244.384,247.462Z" fill="#b78876"/><path d="M151.33,182.818,151.2,224.5l17.882.853.517-10.138s6.351,1.261,7.99-4.637c1.047-3.768.785-32.888.785-32.888Z" fill="#b78876"/><path d="M182.414,181.8c-1.2,2.49-6.94,7.048-6.94,7.048l-2.591,6.943c-2.251-1.762-5.272-1.661-5.845,2.294-.413,2.858,3.141,3.436,3.141,3.436-2.069,3.52-3.472,6.367-6.484,9.715-3.259,3.624-5.085,3.989-8.621,4.048h-3.9s-7.977-6.665-6.4-24.221,17.36-12.434,21.127-16.82C172.038,167.1,186.434,173.484,182.414,181.8Z" fill="#263238"/><path d="M145.662,205.741s.173-.009.5-.005a8.007,8.007,0,0,0,1.414-.166,10.127,10.127,0,0,0,4.572-2.429,25.588,25.588,0,0,0,4.637-6.212c1.51-2.485,3.171-5.412,6.021-7.382a14.522,14.522,0,0,1,4.566-1.945c1.555-.4,3.082-.652,4.522-.932a17,17,0,0,0,7.216-2.692,7.825,7.825,0,0,0,2.924-4.213,6.466,6.466,0,0,0,.161-1.908s.026.17.055.5a5.7,5.7,0,0,1-.137,1.429A7.814,7.814,0,0,1,179.2,184.1a16.992,16.992,0,0,1-7.268,2.764c-2.853.583-6.178.968-9.008,2.861-2.8,1.93-4.456,4.827-5.974,7.308a25.328,25.328,0,0,1-4.7,6.224,10.032,10.032,0,0,1-4.653,2.4A5.659,5.659,0,0,1,145.662,205.741Z" fill="#455a64"/><path d="M144.742,191.461s.281-.112.826-.3a12.068,12.068,0,0,1,2.451-.586,5.561,5.561,0,0,1,3.844.827,3.222,3.222,0,0,1,1.375,2.052,2.892,2.892,0,0,1-.792,2.625,2.254,2.254,0,0,1-1.411.568,2.922,2.922,0,0,1-1.536-.411,4.61,4.61,0,0,1-2.052-2.6,6.41,6.41,0,0,1,5.393-8.421,11.094,11.094,0,0,1,4.118.532,28.45,28.45,0,0,0,4.152.995,16.792,16.792,0,0,0,4.378.01A14.463,14.463,0,0,0,169.7,185.6a4.96,4.96,0,0,0,2.815-2.948,3.827,3.827,0,0,0-.932-3.73,3.271,3.271,0,0,0-3.591-.531,2.708,2.708,0,0,0-1.324,1.239,3,3,0,0,0-.285,1.757,4.064,4.064,0,0,0,1.81,2.851,5.949,5.949,0,0,0,3.117.877,9.315,9.315,0,0,0,2.995-.448,10.824,10.824,0,0,0,4.435-2.7,11.484,11.484,0,0,0,2.294-3.211,12.189,12.189,0,0,0,.843-2.359c.11-.564.179-.859.179-.859s-.041.3-.138.868a11.609,11.609,0,0,1-.811,2.385,11.438,11.438,0,0,1-2.285,3.258,10.894,10.894,0,0,1-4.473,2.756,9.461,9.461,0,0,1-3.043.469,6.1,6.1,0,0,1-3.207-.893,4.239,4.239,0,0,1-1.9-2.973,3.187,3.187,0,0,1,.3-1.865,2.9,2.9,0,0,1,1.412-1.328,3.461,3.461,0,0,1,3.808.562,4.024,4.024,0,0,1,.992,3.928,5.161,5.161,0,0,1-2.922,3.08,14.679,14.679,0,0,1-4.273,1.184,16.978,16.978,0,0,1-4.431-.012,28.39,28.39,0,0,1-4.18-1,10.918,10.918,0,0,0-4.043-.531,6.229,6.229,0,0,0-5.25,8.169,4.453,4.453,0,0,0,1.969,2.512,2.778,2.778,0,0,0,1.451.4,2.111,2.111,0,0,0,1.318-.523,2.756,2.756,0,0,0,.759-2.493,3.1,3.1,0,0,0-1.312-1.98,5.492,5.492,0,0,0-3.767-.842,12.727,12.727,0,0,0-2.447.546C145.032,191.376,144.742,191.461,144.742,191.461Z" fill="#455a64"/><path d="M132.954,304.924l-23.8,156.345,19.77,2.51,27.9-131.138,7.024,132.019,21.428-.374-3.651-163.4Z" fill="#263238"/><path d="M163.367,465.168l-.026-.482-6.823-128.24-27.2,127.887L108.578,461.7l23.941-157.243.394-.032,49.193-4.081.012.531,3.662,163.9Zm-6.252-136.332,7.2,135.315,20.443-.357L181.13,301.429l-47.741,3.961L109.721,460.837l18.805,2.389Z" fill="#263238"/><path d="M178.9,464.035c-.144,0-.261-31.326-.261-69.959s.117-69.966.261-69.966.26,31.319.26,69.966S179.045,464.035,178.9,464.035Z" fill="#455a64"/><path d="M124.571,463.466a1.71,1.71,0,0,1,.042-.342c.045-.25.1-.577.176-.991l.725-3.8c.665-3.329,1.615-8.089,2.787-13.959,2.392-11.779,5.786-28.033,9.689-45.951S145.573,364.3,148.3,352.6c1.377-5.825,2.493-10.549,3.274-13.852.394-1.607.7-2.868.922-3.759.1-.406.188-.728.252-.974a1.649,1.649,0,0,1,.1-.328,1.761,1.761,0,0,1-.052.34c-.051.249-.118.575-.2.986-.2.9-.473,2.164-.827,3.781-.742,3.311-1.8,8.048-3.112,13.888-2.633,11.726-6.251,27.931-10.158,45.853s-7.354,34.156-9.837,45.915l-2.949,13.924c-.351,1.618-.626,2.886-.821,3.783l-.226.981A1.7,1.7,0,0,1,124.571,463.466Z" fill="#455a64"/><path d="M163.841,332.5a21.989,21.989,0,0,1-3.373.331c-2.086.149-4.969.3-8.135.608s-6.023.734-8.1,1a22.388,22.388,0,0,1-3.372.336,21.39,21.39,0,0,1,3.316-.7c2.061-.355,4.916-.832,8.1-1.15s6.078-.4,8.169-.457A21.539,21.539,0,0,1,163.841,332.5Z" fill="#455a64"/><path d="M182.131,322.349a5.264,5.264,0,0,1-2.343.269,9.972,9.972,0,0,1-8.858-6.366,5.274,5.274,0,0,1-.492-2.306c.088-.018.238.871.831,2.163a10.481,10.481,0,0,0,8.547,6.142C181.229,322.4,182.12,322.261,182.131,322.349Z" fill="#455a64"/><path d="M130.591,313.769h52.081l-2.017-42.1c-.332-8.27-.281-9.257-.486-16.892,0,0,7.775,9.4,13.889,15.992a12.46,12.46,0,0,0,14.463,2.774l32-22.323-5.992-15.328-29.078,17.8c-1.332-.828-12.654-16.976-20.478-24.862a27.677,27.677,0,0,0-18.863-8.159,138.163,138.163,0,0,0-17.666.709,18.484,18.484,0,0,0-16.448,16.846c-.566,6.759-.111,14.6-.111,27.939Z" fill="#00aecd"/><path d="M138.971,225.243c-4.914,2.18-25.422,28.453-26.872,45.521-1.081,12.721,23.667,11.337,23.667,11.337s1.688-52.2.95-51.458" fill="#00aecd"/><path d="M133.952,229.694s0,.189-.029.546c-.032.415-.073.932-.123,1.562-.1,1.356-.242,3.319-.372,5.748-.274,4.857-.509,11.574-.74,18.993s-.44,14.142-.689,19c-.12,2.43-.246,4.4-.349,5.752-.053.63-.1,1.146-.132,1.562-.032.356-.06.543-.06.543s0-.189.019-.547c.024-.415.055-.932.092-1.563.07-1.433.166-3.381.283-5.754.211-4.86.4-11.579.628-19s.489-14.138.8-18.995c.149-2.429.31-4.393.438-5.747.066-.629.119-1.145.162-1.559C133.921,229.88,133.952,229.694,133.952,229.694Z" fill="#263238"/><path d="M131.927,263.181a6.34,6.34,0,0,1-.7.982c-.456.587-1.112,1.378-1.872,2.219s-1.484,1.572-2.022,2.085a6.341,6.341,0,0,1-.908.79,7.464,7.464,0,0,1,.8-.894c.511-.538,1.213-1.282,1.972-2.12s1.429-1.612,1.913-2.173A7.416,7.416,0,0,1,131.927,263.181Z" fill="#263238"/><path d="M204.25,258.868a32.466,32.466,0,0,1,1.183-5.064,32.467,32.467,0,0,1-1.183,5.064Z" fill="#263238"/><path d="M207.166,259.316a21.109,21.109,0,0,1-.763-2.875,21.446,21.446,0,0,1-.56-2.922,42.472,42.472,0,0,1,1.323,5.8Z" fill="#263238"/><path d="M181.519,256.135s-.109-.089-.3-.272l-.839-.808c-.723-.708-1.767-1.735-3.01-3.051-2.44-2.628-5.874-6.467-7.809-11.708a19.061,19.061,0,0,1-1.224-7.67,15.784,15.784,0,0,1,1.383-6.191,9.063,9.063,0,0,1,2.7-3.309,8.439,8.439,0,0,1,.977-.639c.232-.132.358-.192.358-.192.018.029-.491.274-1.286.9a9.211,9.211,0,0,0-2.616,3.309,15.871,15.871,0,0,0-1.324,6.136,19.06,19.06,0,0,0,1.229,7.589c1.916,5.194,5.311,9.03,7.721,11.679,1.227,1.327,2.254,2.369,2.96,3.094l.81.837C181.43,256.026,181.519,256.135,181.519,256.135Z" fill="#263238"/><path d="M145.919,241.264c-.113.089-.972-.808-1.92-2a7.536,7.536,0,0,1-1.512-2.327c.113-.089.972.808,1.92,2A7.537,7.537,0,0,1,145.919,241.264Z" fill="#fafafa"/><path d="M158.366,255.39a28.871,28.871,0,0,1-5.483,5.471,28.951,28.951,0,0,1,5.483-5.471Z" fill="#fafafa"/><path d="M170.412,275.662A22.513,22.513,0,0,1,169,273.11a22.746,22.746,0,0,1-1.531-2.483,7.52,7.52,0,0,1,2.946,5.035Z" fill="#fafafa"/><path d="M139.185,273.366a14.2,14.2,0,0,1-1.44-8.2c.153,0,.216,1.868.618,4.12S139.328,273.313,139.185,273.366Z" fill="#fafafa"/><path d="M155.767,282.293a9.4,9.4,0,0,1-.613-6.858c.151.022,0,1.562.174,3.441S155.912,282.244,155.767,282.293Z" fill="#fafafa"/><path d="M149.209,295.265a18.064,18.064,0,0,1-3.789-2.062,18.039,18.039,0,0,1-3.513-2.5,18.033,18.033,0,0,1,3.789,2.062A18.026,18.026,0,0,1,149.209,295.265Z" fill="#fafafa"/><path d="M174.994,291.427c.063.138-1.781,1.08-3.928,2.441s-3.8,2.611-3.894,2.495a19.635,19.635,0,0,1,7.822-4.936Z" fill="#fafafa"/><path d="M142.562,306.088a16.146,16.146,0,0,1-4.045-.541,16.179,16.179,0,0,1-3.943-1.053,16.122,16.122,0,0,1,4.045.542A16.152,16.152,0,0,1,142.562,306.088Z" fill="#fafafa"/><path d="M161.52,308.751a9.409,9.409,0,0,1-2.967-5.477,19.585,19.585,0,0,1,1.475,2.743A19.707,19.707,0,0,1,161.52,308.751Z" fill="#fafafa"/><path d="M179.3,304.628c.11.092-.43.92-1.206,1.849s-1.494,1.607-1.6,1.515.43-.92,1.206-1.849S179.192,304.536,179.3,304.628Z" fill="#fafafa"/><path d="M143.721,249.647c.08.119-.621.728-1.566,1.359s-1.775,1.045-1.855.926.621-.728,1.566-1.359S143.641,249.527,143.721,249.647Z" fill="#fafafa"/><path d="M157.22,234.569a25.237,25.237,0,0,1-2.251-8.4,23.721,23.721,0,0,1,1.264,4.163A23.659,23.659,0,0,1,157.22,234.569Z" fill="#fafafa"/><path d="M170.182,248.3a18.445,18.445,0,0,1-2.727-.567,18.4,18.4,0,0,1-2.744-.479,7.145,7.145,0,0,1,5.471,1.046Z" fill="#fafafa"/><path d="M179.092,236.634a7.63,7.63,0,0,1-5.933-.912,27.8,27.8,0,0,1,2.952.549A28.072,28.072,0,0,1,179.092,236.634Z" fill="#fafafa"/><path d="M188.209,249.642a18.16,18.16,0,0,1,1.4-8.665,39.974,39.974,0,0,1-.719,4.33A39.792,39.792,0,0,1,188.209,249.642Z" fill="#fafafa"/><path d="M198.92,264.96a28.865,28.865,0,0,1-5.391-5.561,28.944,28.944,0,0,1,5.391,5.561Z" fill="#fafafa"/><path d="M207.835,263.784a17.126,17.126,0,0,1-3.224,5,17.126,17.126,0,0,1,3.224-5Z" fill="#fafafa"/><path d="M218.172,258.745a23.934,23.934,0,0,1-3.075-6.337,23.934,23.934,0,0,1,3.075,6.337Z" fill="#fafafa"/><path d="M232.252,252.92a26.3,26.3,0,0,1-7.276-1.294,26.376,26.376,0,0,1,7.276,1.294Z" fill="#fafafa"/><path d="M120.433,267.9a29.762,29.762,0,0,1,3.348-7.111,29.866,29.866,0,0,1-3.348,7.111Z" fill="#fafafa"/><path d="M127.9,254.732a22.213,22.213,0,0,1-4.536-5.046,22.213,22.213,0,0,1,4.536,5.046Z" fill="#fafafa"/><path d="M127.277,275.876c.092.11-.447.71-1.2,1.339s-1.446,1.05-1.538.94.448-.711,1.2-1.34S127.185,275.765,127.277,275.876Z" fill="#fafafa"/><path d="M129.8,240.742c.113.09-.205.674-.709,1.3s-1,1.068-1.116.979.205-.674.709-1.3S129.685,240.653,129.8,240.742Z" fill="#fafafa"/><g opacity="0.3"><path d="M171.6,244.379c3.382,10.629,5.994,21.787,9.376,32.416l-.806-22.016A52.783,52.783,0,0,1,171.6,244.379Z"/></g><g opacity="0.3"><path d="M131.333,282.145c-2.534-11.751-2.231-24.022,2.028-35.263Z"/></g></g></svg>